<svg width="364" height="255" viewBox="0 0 364 255" fill="none" xmlns="http://www.w3.org/2000/svg">
<path d="M104.096 17H97.2797V6.472H103.568V7.832H98.9437V15.64H104.096V17ZM97.8237 12.328V11H102.96V12.328H97.8237ZM105.393 17L109.137 11.752L105.569 6.472H107.681L110.225 10.472L112.705 6.472H114.609L111.041 11.576L114.833 17H112.737L109.953 12.856L107.345 17H105.393ZM119.453 13.416C119.293 13.416 119.053 13.4053 118.733 13.384C118.413 13.3627 118.099 13.3253 117.789 13.272V12.008C118.163 12.0507 118.488 12.0827 118.765 12.104C119.043 12.1147 119.32 12.12 119.597 12.12C120.184 12.12 120.669 12.04 121.053 11.88C121.437 11.72 121.72 11.48 121.901 11.16C122.093 10.84 122.189 10.4507 122.189 9.992C122.189 9.26667 121.96 8.712 121.501 8.328C121.043 7.944 120.429 7.752 119.661 7.752H118.397V17H116.717V6.472H119.949C120.739 6.472 121.432 6.6 122.029 6.856C122.627 7.10133 123.091 7.45867 123.421 7.928C123.763 8.38667 123.933 8.94133 123.933 9.592C123.933 10.1147 123.821 10.6053 123.597 11.064C123.384 11.5227 123.08 11.928 122.685 12.28C122.291 12.632 121.816 12.9093 121.261 13.112C120.717 13.3147 120.115 13.416 119.453 13.416ZM126.217 17V6.472H127.929V17H126.217ZM126.761 17V15.656H133.113V17H126.761ZM139.153 17.192C138.118 17.192 137.201 16.9627 136.401 16.504C135.601 16.0347 134.972 15.3947 134.513 14.584C134.054 13.7627 133.825 12.8347 133.825 11.8C133.825 10.968 133.969 10.216 134.257 9.544C134.556 8.86133 134.961 8.28 135.473 7.8C135.996 7.32 136.593 6.94667 137.265 6.68C137.937 6.41333 138.657 6.28 139.425 6.28C140.449 6.28 141.356 6.51467 142.145 6.984C142.945 7.44267 143.574 8.07733 144.033 8.888C144.492 9.69867 144.721 10.6267 144.721 11.672C144.721 12.504 144.572 13.2613 144.273 13.944C143.985 14.616 143.585 15.1973 143.073 15.688C142.561 16.168 141.969 16.5413 141.297 16.808C140.625 17.064 139.91 17.192 139.153 17.192ZM139.457 15.928C140.15 15.928 140.753 15.7627 141.265 15.432C141.777 15.1013 142.172 14.6373 142.449 14.04C142.737 13.432 142.881 12.728 142.881 11.928C142.881 11.032 142.71 10.2587 142.369 9.608C142.028 8.94667 141.574 8.44 141.009 8.088C140.444 7.72533 139.804 7.544 139.089 7.544C138.428 7.544 137.841 7.70933 137.329 8.04C136.817 8.36 136.417 8.824 136.129 9.432C135.852 10.0293 135.713 10.7333 135.713 11.544C135.713 12.44 135.878 13.2187 136.209 13.88C136.55 14.5307 137.004 15.0373 137.569 15.4C138.134 15.752 138.764 15.928 139.457 15.928ZM147.17 17V6.472H150.21C150.978 6.472 151.645 6.584 152.21 6.808C152.776 7.02133 153.213 7.33067 153.522 7.736C153.832 8.14133 153.986 8.62667 153.986 9.192C153.986 9.65067 153.88 10.0933 153.666 10.52C153.453 10.936 153.165 11.304 152.802 11.624C152.44 11.944 152.024 12.2 151.554 12.392C151.096 12.584 150.616 12.68 150.114 12.68H147.794V11.512H150.322C150.674 11.512 150.994 11.4213 151.282 11.24C151.57 11.048 151.805 10.7973 151.986 10.488C152.168 10.1787 152.258 9.84267 152.258 9.48C152.258 8.94667 152.066 8.52 151.682 8.2C151.309 7.88 150.765 7.72 150.05 7.72H148.834V17H147.17ZM155.122 17.16C154.685 17.16 154.296 17.1013 153.954 16.984C153.624 16.856 153.309 16.6533 153.01 16.376C152.722 16.088 152.418 15.7093 152.098 15.24L150.114 12.28L151.458 11.8L153.73 14.648C154.018 15 154.274 15.272 154.498 15.464C154.722 15.656 154.93 15.7893 155.122 15.864C155.325 15.928 155.522 15.96 155.714 15.96C155.789 15.96 155.89 15.9547 156.018 15.944C156.146 15.9333 156.269 15.9067 156.386 15.864L156.754 16.84C156.434 16.9573 156.141 17.0373 155.874 17.08C155.618 17.1333 155.368 17.16 155.122 17.16ZM164.846 17H158.03V6.472H164.318V7.832H159.694V15.64H164.846V17ZM158.574 12.328V11H163.71V12.328H158.574ZM181.217 17L180.881 7.288L181.681 6.92L177.441 16.152H176.433L172.465 7.64L172.481 6.472H173.681L177.409 14.376H176.929L180.529 6.472H182.321L182.945 17H181.217ZM171.025 17L171.745 6.472H172.977L172.593 17H171.025ZM192.8 17L189.328 7.384H190L186.56 17H184.832L189.104 6.472H190.576L194.656 17H192.8ZM186.72 13.784L187.216 12.44H191.824L192.544 13.784H186.72ZM196.764 17V6.472H199.82C200.588 6.472 201.244 6.57867 201.788 6.792C202.343 7.00533 202.775 7.32 203.084 7.736C203.393 8.152 203.548 8.664 203.548 9.272C203.548 9.752 203.452 10.2 203.26 10.616C203.068 11.032 202.796 11.3947 202.444 11.704C202.092 12.0133 201.676 12.2533 201.196 12.424C200.716 12.5947 200.193 12.68 199.628 12.68H197.404V11.512H199.836C200.433 11.512 200.919 11.3307 201.292 10.968C201.665 10.6053 201.852 10.136 201.852 9.56C201.852 8.97333 201.665 8.52 201.292 8.2C200.919 7.88 200.38 7.72 199.676 7.72H198.428V17H196.764ZM202.684 17L199.74 12.28L201.1 11.8L204.844 17H202.684ZM206.873 17V6.472H209.929C210.697 6.472 211.353 6.57867 211.897 6.792C212.452 7.00533 212.884 7.32 213.193 7.736C213.503 8.152 213.657 8.664 213.657 9.272C213.657 9.752 213.561 10.2 213.369 10.616C213.177 11.032 212.905 11.3947 212.553 11.704C212.201 12.0133 211.785 12.2533 211.305 12.424C210.825 12.5947 210.303 12.68 209.737 12.68H207.513V11.512H209.945C210.543 11.512 211.028 11.3307 211.401 10.968C211.775 10.6053 211.961 10.136 211.961 9.56C211.961 8.97333 211.775 8.52 211.401 8.2C211.028 7.88 210.489 7.72 209.785 7.72H208.537V17H206.873ZM212.793 17L209.849 12.28L211.209 11.8L214.953 17H212.793ZM223.863 17L220.391 7.384H221.063L217.623 17H215.895L220.167 6.472H221.639L225.719 17H223.863ZM217.783 13.784L218.279 12.44H222.887L223.607 13.784H217.783ZM233.955 17L229.283 11.624L233.491 6.472H235.555L230.675 11.88L230.803 11.096L236.419 17H233.955ZM227.827 17V6.472H229.491V17H227.827ZM244.799 17H237.983V6.472H244.271V7.832H239.647V15.64H244.799V17ZM238.527 12.328V11H243.663V12.328H238.527ZM251.952 17.192C250.875 17.192 249.926 16.9733 249.104 16.536C248.294 16.088 247.659 15.464 247.2 14.664C246.742 13.864 246.512 12.9413 246.512 11.896C246.512 11.0213 246.656 10.2427 246.944 9.56C247.243 8.86667 247.654 8.28 248.176 7.8C248.699 7.30933 249.302 6.936 249.984 6.68C250.678 6.41333 251.419 6.28 252.208 6.28C252.784 6.28 253.355 6.36 253.92 6.52C254.486 6.66933 255.019 6.89333 255.52 7.192L254.736 8.712C254.267 8.328 253.798 8.04 253.328 7.848C252.859 7.656 252.363 7.56 251.84 7.56C251.126 7.56 250.507 7.72533 249.984 8.056C249.462 8.38667 249.062 8.856 248.784 9.464C248.507 10.0613 248.368 10.776 248.368 11.608C248.368 12.4827 248.534 13.2453 248.864 13.896C249.206 14.5467 249.659 15.0533 250.224 15.416C250.8 15.768 251.43 15.944 252.112 15.944C252.678 15.944 253.2 15.8373 253.68 15.624C254.16 15.4107 254.576 15.1227 254.928 14.76L255.648 16.104C255.104 16.4667 254.523 16.7387 253.904 16.92C253.286 17.1013 252.635 17.192 251.952 17.192ZM265.014 17V6.472H266.71V17H265.014ZM257.686 17V6.472H259.414V17H257.686ZM258.23 12.328V10.968H266.182V12.328H258.23Z" fill="#5F171D"/>
<path d="M139.028 70.948V71H130.5V70.948C132.216 70.948 133.1 69.544 132.476 67.828L127.016 52.852H115.888L110.428 67.828C109.856 69.544 110.688 70.948 112.404 70.948V71H106.164V70.948C107.828 70.948 109.752 69.544 110.376 67.828L121.4 37.46C120.672 35.9 118.904 34.704 117.344 34.704V34.6H122.7L134.816 67.828C135.388 69.544 137.312 70.948 139.028 70.948ZM115.94 52.8H127.016L121.556 37.824C121.504 37.72 121.504 37.668 121.452 37.616L115.94 52.8ZM188.793 47.704H188.689C187.961 45.052 186.713 42.66 185.101 40.632C182.241 36.992 178.393 34.704 174.753 34.704C167.889 34.704 160.089 42.868 160.089 52.852C160.089 62.784 167.889 70.948 174.753 70.948C179.017 70.948 183.645 67.724 186.557 62.94C186.557 62.94 187.961 60.704 188.689 57.948V62.94C185.673 67.828 180.629 71.052 174.805 71.052C174.753 71.052 174.753 71.052 174.753 71.052C174.701 71.052 174.701 71.052 174.701 71.052C165.393 71.052 157.905 62.888 157.905 52.852C157.905 42.764 165.393 34.652 174.701 34.652C174.701 34.652 174.701 34.652 174.753 34.652C174.753 34.6 174.753 34.652 174.805 34.652C177.925 34.652 180.837 35.536 183.333 37.148C183.385 37.148 183.385 37.2 183.385 37.2C183.645 37.356 183.853 37.46 184.061 37.616C186.245 39.072 188.689 39.904 188.689 37.252H188.793V47.704ZM201.715 34.704C200.155 34.704 198.855 35.952 198.647 37.512V68.14C198.855 69.7 200.155 70.948 201.715 70.948V71H193.291V70.948C194.955 70.948 196.359 69.544 196.359 67.828V37.824C196.359 36.108 194.955 34.704 193.291 34.704V34.6H201.715V34.704ZM230.335 41.568L230.283 41.62C229.295 37.824 225.239 34.704 221.651 34.704H218.479V68.14C218.687 69.7 219.987 70.948 221.547 70.948V71.052H213.071V70.948C214.787 70.948 216.191 69.544 216.191 67.828V34.704H213.019C209.431 34.704 205.375 37.824 204.387 41.62L204.335 41.568L206.103 34.6H228.567L230.335 41.568ZM258.795 34.6L258.743 34.704C257.027 34.704 254.843 36.108 253.855 37.824L245.743 51.864V67.828C245.743 69.544 247.095 70.948 248.811 70.948V71H240.335V70.948C242.051 70.948 243.403 69.544 243.403 67.828V51.864L235.291 37.824C234.303 36.108 232.119 34.704 230.455 34.704L230.403 34.6H238.879L238.931 34.704C237.215 34.704 236.643 36.108 237.631 37.824L245.691 51.76L253.751 37.824C254.739 36.108 254.167 34.704 252.451 34.704L252.503 34.6H258.795Z" fill="#5F171D"/>
<path d="M51.3799 127.416C53.8759 127.416 56.3025 126.168 58.6599 123.672V123.62C58.6599 121.956 59.4572 120.396 61.0519 118.94C60.9479 118.559 60.6532 118.368 60.1679 118.368C57.6025 118.368 55.3319 119.339 53.3559 121.28C51.3799 123.187 50.3919 124.868 50.3919 126.324C50.3919 127.052 50.7212 127.416 51.3799 127.416ZM59.4399 117.588C61.2772 117.588 62.1959 118.195 62.1959 119.408C62.1959 120.448 61.5545 121.696 60.2719 123.152V123.568C60.2719 124.712 60.7745 125.284 61.7799 125.284C62.4039 125.284 63.0972 125.024 63.8599 124.504L66.4079 122.84L66.5119 123.62L64.1199 125.128C63.0105 125.856 61.9185 126.22 60.8439 126.22C59.8039 126.22 59.1105 125.683 58.7639 124.608C55.9905 127.069 53.3559 128.3 50.8599 128.3C49.3692 128.3 48.6239 127.589 48.6239 126.168C48.6239 124.365 49.6812 122.493 51.7959 120.552C53.9105 118.576 56.4585 117.588 59.4399 117.588ZM49.2206 146.604C49.2206 146.985 49.4286 147.176 49.8446 147.176C51.058 147.176 52.826 145.859 55.1486 143.224C57.4713 140.589 59.6726 137.591 61.7526 134.228C63.8326 130.865 65.2366 128.075 65.9646 125.856C65.8606 125.717 65.8086 125.544 65.8086 125.336C60.99 130.467 57.0206 135.008 53.9006 138.96C50.7806 142.912 49.2206 145.46 49.2206 146.604ZM96.9566 98.452C96.9566 98.2093 96.7833 98.088 96.4366 98.088C95.0153 98.088 91.7046 100.393 86.5046 105.004C81.3393 109.58 75.6366 115.092 69.3966 121.54C74.5966 118.212 80.49 113.827 87.0766 108.384C93.6633 102.941 96.9566 99.6307 96.9566 98.452ZM67.1086 125.128C67.3513 126.237 68.166 126.792 69.5526 126.792C71.598 126.792 74.5446 125.475 78.3926 122.84L78.4966 123.62C74.6833 126.185 71.5286 127.468 69.0326 127.468C67.8886 127.468 67.0393 127.191 66.4846 126.636C65.2713 129.409 63.694 132.356 61.7526 135.476C59.8113 138.631 57.662 141.473 55.3046 144.004C52.9126 146.569 50.902 147.852 49.2726 147.852C48.302 147.852 47.8166 147.436 47.8166 146.604C47.8166 144.732 50.018 141.057 54.4206 135.58C58.8233 130.137 63.8153 124.608 69.3966 118.992C75.0126 113.341 80.5246 108.315 85.9326 103.912C91.3753 99.4747 94.998 97.256 96.8006 97.256C97.598 97.256 97.9966 97.516 97.9966 98.036C97.9966 99.2147 96.0726 101.537 92.2246 105.004C88.4113 108.471 84.13 111.955 79.3806 115.456C74.666 118.923 70.766 121.557 67.6806 123.36L67.6286 123.412C67.5593 123.724 67.386 124.296 67.1086 125.128ZM144.968 103.704H144.864C144.136 101.052 142.888 98.66 141.276 96.632C138.416 92.992 134.568 90.704 130.928 90.704C124.064 90.704 116.264 98.868 116.264 108.852C116.264 118.784 124.064 126.948 130.928 126.948C135.192 126.948 139.82 123.724 142.732 118.94C142.732 118.94 144.136 116.704 144.864 113.948V118.94C141.848 123.828 136.804 127.052 130.98 127.052C130.928 127.052 130.928 127.052 130.928 127.052C130.876 127.052 130.876 127.052 130.876 127.052C121.568 127.052 114.08 118.888 114.08 108.852C114.08 98.764 121.568 90.652 130.876 90.652C130.876 90.652 130.876 90.652 130.928 90.652C130.928 90.6 130.928 90.652 130.98 90.652C134.1 90.652 137.012 91.536 139.508 93.148C139.56 93.148 139.56 93.2 139.56 93.2C139.82 93.356 140.028 93.46 140.236 93.616C142.42 95.072 144.864 95.904 144.864 93.252H144.968V103.704ZM178.684 90.6V90.704C176.968 90.704 175.564 92.108 175.564 93.824V115.664C175.564 121.956 170.468 127 164.176 127C164.124 127 164.072 127 164.02 127C163.968 127 163.916 127 163.916 127C157.364 127 152.06 121.748 152.06 115.196V93.824C152.06 92.108 150.656 90.704 148.992 90.704V90.652H157.468V90.704C155.752 90.704 154.348 92.108 154.348 93.824V118.16C154.348 122.216 157.936 125.648 161.888 126.688C162.616 126.844 163.396 126.948 164.176 126.948C170.416 126.948 175.512 121.852 175.512 115.612V93.824C175.512 92.108 174.108 90.704 172.392 90.704V90.6H178.684ZM203.086 120.032L203.19 120.084L201.422 127H181.662V126.948C183.326 126.948 184.73 125.544 184.73 123.828V93.824C184.73 92.108 183.326 90.704 181.662 90.704V90.6H190.086V90.704C188.526 90.704 187.226 91.952 187.018 93.512V126.948H194.454C198.094 126.948 202.098 123.828 203.086 120.032ZM225.359 97.568L225.307 97.62C224.319 93.824 220.263 90.704 216.675 90.704H213.503V124.14C213.711 125.7 215.011 126.948 216.571 126.948V127.052H208.095V126.948C209.811 126.948 211.215 125.544 211.215 123.828V90.704H208.043C204.455 90.704 200.399 93.824 199.411 97.62L199.359 97.568L201.127 90.6H223.591L225.359 97.568ZM256.938 90.6V90.704C255.222 90.704 253.818 92.108 253.818 93.824V115.664C253.818 121.956 248.722 127 242.43 127C242.378 127 242.326 127 242.274 127C242.222 127 242.17 127 242.17 127C235.618 127 230.314 121.748 230.314 115.196V93.824C230.314 92.108 228.91 90.704 227.246 90.704V90.652H235.722V90.704C234.006 90.704 232.602 92.108 232.602 93.824V118.16C232.602 122.216 236.19 125.648 240.142 126.688C240.87 126.844 241.65 126.948 242.43 126.948C248.67 126.948 253.766 121.852 253.766 115.612V93.824C253.766 92.108 252.362 90.704 250.646 90.704V90.6H256.938ZM280.144 122.216C280.144 124.816 282.224 126.844 284.824 126.948V127C284.772 127 284.408 127 284.356 127C280.768 127 277.908 124.14 277.908 120.604V118.94C277.908 116.34 275.828 114.208 273.228 114.156H265.22V123.828C265.22 125.544 266.624 126.948 268.34 126.948V127H259.864V126.948C261.528 126.948 262.932 125.544 262.932 123.828V93.824C262.932 92.108 261.528 90.704 259.864 90.704V90.6H270.316C276.296 90.6 281.132 95.852 281.132 102.352C281.132 108.332 277.076 113.272 271.72 114.052H273.696C277.284 114.052 280.144 117.016 280.144 120.604V122.216ZM265.22 114.052H270.264C274.684 114.052 278.948 108.748 278.948 102.352C278.948 95.956 274.684 90.704 270.264 90.704H265.22V114.052ZM311.51 116.496L311.614 116.548L309.014 126.948L308.962 127H287.642V126.948C289.306 126.948 290.71 125.544 290.71 123.828V93.824C290.71 92.108 289.306 90.704 287.642 90.704V90.6H307.402L309.17 97.568L309.066 97.62L308.442 95.228L309.066 97.62C308.078 93.824 304.074 90.704 300.434 90.704H292.998V106.096H299.03C301.37 106.096 303.242 104.224 303.242 101.884H303.346V110.464H303.242V110.412C303.242 108.072 301.37 106.2 299.03 106.2H292.998V126.948H298.406C305.738 126.948 310.002 122.268 311.51 116.496Z" fill="#5F171D"/>
<path d="M55.8486 180.948V181H47.3206V180.948C49.0366 180.948 49.9206 179.544 49.2966 177.828L43.8366 162.852H32.7086L27.2486 177.828C26.6766 179.544 27.5086 180.948 29.2246 180.948V181H22.9846V180.948C24.6486 180.948 26.5726 179.544 27.1966 177.828L38.2206 147.46C37.4926 145.9 35.7246 144.704 34.1646 144.704V144.6H39.5206L51.6366 177.828C52.2086 179.544 54.1326 180.948 55.8486 180.948ZM32.7606 162.8H43.8366L38.3766 147.824C38.3246 147.72 38.3246 147.668 38.2726 147.616L32.7606 162.8ZM89.1067 144.6V144.704C87.4427 144.704 86.0387 146.108 86.0387 147.824V181H85.9347L61.1307 146.94V177.828C61.1307 179.544 62.4827 180.948 64.1987 180.948V181H57.9587V180.948C59.6227 180.948 61.0267 179.544 61.0267 177.828V147.824C61.0267 146.108 59.6227 144.704 57.9587 144.704V144.6H61.7547L85.9347 177.828V147.824C85.9347 146.108 84.5307 144.704 82.8667 144.704V144.6H89.1067ZM105.656 144.6C114.964 144.6 122.504 152.764 122.504 162.8C122.504 172.888 114.964 181 105.656 181C105.656 181 105.656 181 105.604 181H92.0837V180.948C93.7477 180.948 95.1517 179.544 95.1517 177.828V147.824C95.1517 146.108 93.7477 144.704 92.0837 144.704V144.6H105.604V144.652C105.656 144.652 105.656 144.6 105.656 144.6ZM105.604 180.948C112.468 180.948 120.268 172.784 120.268 162.8C120.268 152.868 112.468 144.704 105.604 144.704H97.4397V180.948H105.604ZM178.326 144.652C187.582 144.652 195.122 152.764 195.122 162.852C195.122 172.888 187.582 181 178.326 181H178.274H178.222C174.894 181 171.774 179.96 169.174 178.192C166.626 179.96 163.558 181 160.23 181C160.178 181 160.178 181 160.178 181C160.126 181 160.126 181 160.126 181C150.818 181 143.33 172.888 143.33 162.852C143.33 152.764 150.818 144.652 160.126 144.652C160.126 144.652 160.126 144.652 160.178 144.652C160.178 144.652 160.178 144.652 160.23 144.652C163.35 144.652 166.262 145.536 168.758 147.148C168.81 147.2 168.81 147.2 168.81 147.2C168.966 147.304 169.07 147.356 169.226 147.46C171.826 145.692 174.894 144.652 178.222 144.652H178.274H178.326ZM160.178 180.948C162.882 180.948 165.742 179.648 168.238 177.464C164.078 174.136 161.426 168.832 161.426 162.852C161.426 156.82 164.078 151.516 168.238 148.188C165.742 146.004 162.882 144.756 160.178 144.756C153.314 144.756 145.514 152.868 145.514 162.852C145.514 172.784 153.314 180.948 160.178 180.948ZM178.274 180.948C185.138 180.948 192.886 172.784 192.886 162.852C192.886 152.868 185.138 144.756 178.274 144.756C175.57 144.756 172.762 146.004 170.266 148.136C172.242 149.228 174.114 149.592 174.114 147.252H174.218V157.704H174.114C173.386 155.052 172.086 152.66 170.526 150.632C170.11 150.112 169.694 149.592 169.226 149.124C165.95 152.452 163.662 157.392 163.662 162.852C163.662 168.26 165.95 173.2 169.226 176.528C170.214 175.488 171.15 174.24 171.982 172.94C171.982 172.94 173.386 170.704 174.114 167.948V172.94C173.022 174.656 171.722 176.164 170.162 177.412C172.658 179.648 175.518 180.948 178.274 180.948ZM220.351 174.032L220.455 174.084L218.687 181H198.927V180.948C200.591 180.948 201.995 179.544 201.995 177.828V147.824C201.995 146.108 200.591 144.704 198.927 144.704V144.6H207.351V144.704C205.791 144.704 204.491 145.952 204.283 147.512V180.948H211.719C215.359 180.948 219.363 177.828 220.351 174.032ZM239.348 144.6C248.604 144.6 256.144 152.764 256.144 162.8C256.144 172.888 248.604 181 239.348 181C239.296 181 239.296 181.052 239.296 181V180.948C246.16 180.948 253.908 172.784 253.908 162.8C253.908 152.868 246.16 144.704 239.296 144.704C232.432 144.704 224.632 152.868 224.632 162.8C224.632 172.784 232.432 180.948 239.296 180.948V181C239.244 181.052 239.244 181 239.244 181C229.936 181 222.448 172.888 222.448 162.8C222.448 152.764 229.936 144.6 239.244 144.6C239.244 144.6 239.244 144.652 239.296 144.652C239.296 144.652 239.296 144.6 239.348 144.6ZM289.184 144.6V144.704C287.468 144.704 286.064 146.108 286.064 147.824V169.664C286.064 175.956 280.968 181 274.676 181C274.624 181 274.572 181 274.52 181C274.468 181 274.416 181 274.416 181C267.864 181 262.56 175.748 262.56 169.196V147.824C262.56 146.108 261.156 144.704 259.492 144.704V144.652H267.968V144.704C266.252 144.704 264.848 146.108 264.848 147.824V172.16C264.848 176.216 268.436 179.648 272.388 180.688C273.116 180.844 273.896 180.948 274.676 180.948C280.916 180.948 286.012 175.852 286.012 169.612V147.824C286.012 146.108 284.608 144.704 282.892 144.704V144.6H289.184ZM312.39 176.216C312.39 178.816 314.47 180.844 317.07 180.948V181C317.018 181 316.654 181 316.602 181C313.014 181 310.154 178.14 310.154 174.604V172.94C310.154 170.34 308.074 168.208 305.474 168.156H297.466V177.828C297.466 179.544 298.87 180.948 300.586 180.948V181H292.11V180.948C293.774 180.948 295.178 179.544 295.178 177.828V147.824C295.178 146.108 293.774 144.704 292.11 144.704V144.6H302.562C308.542 144.6 313.378 149.852 313.378 156.352C313.378 162.332 309.322 167.272 303.966 168.052H305.942C309.53 168.052 312.39 171.016 312.39 174.604V176.216ZM297.466 168.052H302.51C306.93 168.052 311.194 162.748 311.194 156.352C311.194 149.956 306.93 144.704 302.51 144.704H297.466V168.052ZM337.165 177.256C337.113 177.308 337.113 177.308 337.113 177.308C337.061 177.36 337.009 177.464 337.009 177.516C337.009 177.464 337.009 177.464 337.009 177.464C335.553 179.544 333.317 180.792 330.925 181C330.873 181 330.873 181 330.873 181C330.821 181 330.821 181 330.769 181C330.769 181 330.769 181 330.717 181C329.833 181.052 328.897 181 328.013 180.74C327.961 180.688 327.909 180.688 327.857 180.688C327.805 180.636 327.753 180.636 327.701 180.636C327.597 180.584 327.493 180.532 327.389 180.532C326.921 180.324 326.453 180.116 326.037 179.856C325.777 179.752 325.569 179.596 325.361 179.44C325.361 179.44 325.309 179.44 325.309 179.388C325.153 179.284 324.997 179.18 324.841 179.076C323.281 177.984 321.773 177.204 322.241 179.492H322.137L320.265 170.6L320.369 170.548V170.6C321.253 172.784 322.241 174.604 323.489 176.424C325.257 179.076 327.285 180.636 329.677 180.896C330.093 180.948 330.509 180.948 330.925 180.896C333.317 180.688 335.657 179.388 337.061 177.204C337.269 176.892 337.425 176.58 337.633 176.216C338.673 173.252 337.633 169.82 334.877 168.052L332.901 166.752L329.625 164.62L329.469 164.516L324.321 161.188C320.421 158.588 319.069 153.596 320.993 149.488C320.993 149.436 320.993 149.436 320.993 149.436C321.045 149.332 321.097 149.28 321.149 149.176C321.201 149.124 321.201 149.02 321.253 148.968C321.253 148.916 321.305 148.916 321.305 148.916C321.357 148.812 321.409 148.708 321.461 148.604C321.513 148.552 321.513 148.5 321.565 148.396H321.617C321.617 148.344 321.617 148.344 321.617 148.344C321.669 148.24 321.721 148.188 321.773 148.136C321.721 148.188 321.721 148.188 321.721 148.188C323.177 146.108 325.465 144.86 327.857 144.652C327.909 144.652 327.909 144.652 327.961 144.652H328.013C328.949 144.6 329.833 144.652 330.717 144.912C330.769 144.964 330.821 144.964 330.873 144.964C330.925 145.016 330.977 145.016 331.081 145.016C331.133 145.068 331.237 145.12 331.341 145.12C331.341 145.12 331.341 145.12 331.393 145.12C331.861 145.328 332.277 145.536 332.745 145.796C332.953 145.9 333.161 146.056 333.421 146.212C333.421 146.212 333.421 146.212 333.421 146.264C333.577 146.368 333.733 146.472 333.889 146.576C335.449 147.668 337.009 148.448 336.541 146.16H336.645L338.465 155.052L338.361 155.104V155.052C337.477 152.868 336.489 151.048 335.293 149.228C333.473 146.576 331.497 145.016 329.105 144.756C328.689 144.704 328.273 144.704 327.805 144.756C325.413 144.964 323.125 146.264 321.669 148.448C321.461 148.76 321.305 149.072 321.149 149.436C320.057 152.4 321.097 155.832 323.853 157.6L325.829 158.9L329.105 161.032L329.261 161.136L334.409 164.464C338.309 167.064 339.661 172.056 337.737 176.164C337.737 176.216 337.737 176.216 337.737 176.216C337.685 176.32 337.633 176.372 337.633 176.476C337.581 176.528 337.529 176.632 337.477 176.684C337.477 176.736 337.477 176.736 337.477 176.736C337.425 176.84 337.373 176.944 337.269 177.048C337.269 177.1 337.217 177.152 337.165 177.256Z" fill="#5F171D"/>
<path d="M74.5311 218L71.2411 209.362H71.6331L68.3571 218H67.3071L71.1011 208.788H71.9831L75.6371 218H74.5311ZM68.9731 214.836L69.2671 214.01H73.4111L73.8591 214.836H68.9731ZM82.2277 218.126C81.9477 218.126 81.677 218.098 81.4157 218.042C81.1637 217.995 80.935 217.93 80.7297 217.846C80.5244 217.753 80.347 217.659 80.1977 217.566L80.4777 216.782C80.7017 216.987 80.977 217.155 81.3037 217.286C81.6397 217.407 81.9617 217.468 82.2697 217.468C82.6524 217.468 82.951 217.375 83.1657 217.188C83.3897 216.992 83.5017 216.763 83.5017 216.502C83.5017 216.269 83.427 216.082 83.2777 215.942C83.1377 215.793 82.951 215.671 82.7177 215.578C82.4937 215.485 82.2557 215.396 82.0037 215.312C81.7517 215.219 81.509 215.111 81.2757 214.99C81.0517 214.859 80.865 214.696 80.7157 214.5C80.5664 214.295 80.4917 214.033 80.4917 213.716C80.4917 213.352 80.585 213.049 80.7717 212.806C80.9584 212.563 81.201 212.381 81.4997 212.26C81.7984 212.139 82.1344 212.078 82.5077 212.078C82.7877 212.078 83.0724 212.115 83.3617 212.19C83.6604 212.255 83.917 212.358 84.1317 212.498L83.8517 213.24C83.6744 213.063 83.4504 212.932 83.1797 212.848C82.909 212.755 82.6664 212.708 82.4517 212.708C82.1064 212.708 81.8357 212.787 81.6397 212.946C81.453 213.105 81.3597 213.301 81.3597 213.534C81.3597 213.749 81.4344 213.926 81.5837 214.066C81.733 214.206 81.9197 214.323 82.1437 214.416C82.377 214.5 82.6197 214.589 82.8717 214.682C83.133 214.775 83.3757 214.887 83.5997 215.018C83.833 215.139 84.0244 215.307 84.1737 215.522C84.323 215.727 84.3977 215.993 84.3977 216.32C84.3977 216.563 84.3464 216.796 84.2437 217.02C84.1504 217.235 84.0104 217.426 83.8237 217.594C83.637 217.762 83.4084 217.893 83.1377 217.986C82.867 218.079 82.5637 218.126 82.2277 218.126ZM88.4287 218.126C87.878 218.126 87.3927 218.014 86.9727 217.79C86.5527 217.557 86.2214 217.23 85.9787 216.81C85.7454 216.381 85.6287 215.877 85.6287 215.298C85.6287 214.654 85.7594 214.094 86.0207 213.618C86.2914 213.133 86.6507 212.759 87.0987 212.498C87.556 212.227 88.0694 212.092 88.6387 212.092C89.3294 212.092 89.8474 212.288 90.1927 212.68C90.538 213.072 90.7107 213.609 90.7107 214.29C90.7107 214.365 90.706 214.449 90.6967 214.542C90.6967 214.626 90.692 214.705 90.6827 214.78H89.8567V214.29C89.8567 213.786 89.754 213.408 89.5487 213.156C89.3434 212.895 89.0214 212.764 88.5827 212.764C88.172 212.764 87.8127 212.867 87.5047 213.072C87.1967 213.268 86.9587 213.543 86.7907 213.898C86.6227 214.253 86.5387 214.677 86.5387 215.172C86.5387 215.844 86.73 216.381 87.1127 216.782C87.4954 217.174 87.9947 217.37 88.6107 217.37C88.928 217.37 89.2314 217.314 89.5207 217.202C89.81 217.09 90.09 216.908 90.3607 216.656L90.7107 217.174C90.4587 217.407 90.202 217.594 89.9407 217.734C89.6887 217.874 89.4367 217.972 89.1847 218.028C88.9327 218.093 88.6807 218.126 88.4287 218.126ZM86.1607 214.78L86.2867 214.178H90.5567V214.78H86.1607ZM92.4475 218V212.274L93.2315 212.12L93.3995 213.59V218H92.4475ZM93.2315 214.36L92.9935 214.01C93.3015 213.422 93.6515 212.965 94.0435 212.638C94.4355 212.302 94.8788 212.134 95.3735 212.134C95.5695 212.134 95.7561 212.162 95.9335 212.218C96.1108 212.265 96.2648 212.339 96.3955 212.442L95.9895 213.24C95.8868 213.156 95.7515 213.091 95.5835 213.044C95.4248 212.997 95.2615 212.974 95.0935 212.974C94.7295 212.974 94.3935 213.095 94.0855 213.338C93.7868 213.571 93.5021 213.912 93.2315 214.36ZM97.9221 218V212.274L98.8741 212.12V218H97.9221ZM98.3981 210.496C98.2021 210.496 98.0388 210.435 97.9081 210.314C97.7868 210.193 97.7261 210.034 97.7261 209.838C97.7261 209.642 97.7868 209.483 97.9081 209.362C98.0388 209.241 98.2021 209.18 98.3981 209.18C98.6035 209.18 98.7668 209.241 98.8881 209.362C99.0095 209.483 99.0701 209.642 99.0701 209.838C99.0701 210.034 99.0095 210.193 98.8881 210.314C98.7668 210.435 98.6035 210.496 98.3981 210.496ZM103.673 218.126C103.122 218.126 102.637 218.014 102.217 217.79C101.797 217.557 101.466 217.23 101.223 216.81C100.99 216.381 100.873 215.877 100.873 215.298C100.873 214.654 101.004 214.094 101.265 213.618C101.536 213.133 101.895 212.759 102.343 212.498C102.8 212.227 103.314 212.092 103.883 212.092C104.574 212.092 105.092 212.288 105.437 212.68C105.782 213.072 105.955 213.609 105.955 214.29C105.955 214.365 105.95 214.449 105.941 214.542C105.941 214.626 105.936 214.705 105.927 214.78H105.101V214.29C105.101 213.786 104.998 213.408 104.793 213.156C104.588 212.895 104.266 212.764 103.827 212.764C103.416 212.764 103.057 212.867 102.749 213.072C102.441 213.268 102.203 213.543 102.035 213.898C101.867 214.253 101.783 214.677 101.783 215.172C101.783 215.844 101.974 216.381 102.357 216.782C102.74 217.174 103.239 217.37 103.855 217.37C104.172 217.37 104.476 217.314 104.765 217.202C105.054 217.09 105.334 216.908 105.605 216.656L105.955 217.174C105.703 217.407 105.446 217.594 105.185 217.734C104.933 217.874 104.681 217.972 104.429 218.028C104.177 218.093 103.925 218.126 103.673 218.126ZM101.405 214.78L101.531 214.178H105.801V214.78H101.405ZM109.148 218.126C108.868 218.126 108.597 218.098 108.336 218.042C108.084 217.995 107.855 217.93 107.65 217.846C107.444 217.753 107.267 217.659 107.118 217.566L107.398 216.782C107.622 216.987 107.897 217.155 108.224 217.286C108.56 217.407 108.882 217.468 109.19 217.468C109.572 217.468 109.871 217.375 110.086 217.188C110.31 216.992 110.422 216.763 110.422 216.502C110.422 216.269 110.347 216.082 110.198 215.942C110.058 215.793 109.871 215.671 109.638 215.578C109.414 215.485 109.176 215.396 108.924 215.312C108.672 215.219 108.429 215.111 108.196 214.99C107.972 214.859 107.785 214.696 107.636 214.5C107.486 214.295 107.412 214.033 107.412 213.716C107.412 213.352 107.505 213.049 107.692 212.806C107.878 212.563 108.121 212.381 108.42 212.26C108.718 212.139 109.054 212.078 109.428 212.078C109.708 212.078 109.992 212.115 110.282 212.19C110.58 212.255 110.837 212.358 111.052 212.498L110.772 213.24C110.594 213.063 110.37 212.932 110.1 212.848C109.829 212.755 109.586 212.708 109.372 212.708C109.026 212.708 108.756 212.787 108.56 212.946C108.373 213.105 108.28 213.301 108.28 213.534C108.28 213.749 108.354 213.926 108.504 214.066C108.653 214.206 108.84 214.323 109.064 214.416C109.297 214.5 109.54 214.589 109.792 214.682C110.053 214.775 110.296 214.887 110.52 215.018C110.753 215.139 110.944 215.307 111.094 215.522C111.243 215.727 111.318 215.993 111.318 216.32C111.318 216.563 111.266 216.796 111.164 217.02C111.07 217.235 110.93 217.426 110.744 217.594C110.557 217.762 110.328 217.893 110.058 217.986C109.787 218.079 109.484 218.126 109.148 218.126ZM118.878 218.112C118.309 218.112 117.8 217.986 117.352 217.734C116.913 217.482 116.563 217.137 116.302 216.698C116.05 216.25 115.924 215.741 115.924 215.172C115.924 214.575 116.059 214.043 116.33 213.576C116.61 213.109 116.988 212.745 117.464 212.484C117.94 212.213 118.477 212.078 119.074 212.078C119.643 212.078 120.147 212.204 120.586 212.456C121.034 212.708 121.384 213.058 121.636 213.506C121.897 213.945 122.028 214.449 122.028 215.018C122.028 215.615 121.893 216.147 121.622 216.614C121.351 217.081 120.978 217.449 120.502 217.72C120.026 217.981 119.485 218.112 118.878 218.112ZM119.004 217.44C119.424 217.44 119.783 217.337 120.082 217.132C120.381 216.917 120.609 216.633 120.768 216.278C120.927 215.923 121.006 215.536 121.006 215.116C121.006 214.631 120.913 214.215 120.726 213.87C120.549 213.515 120.306 213.245 119.998 213.058C119.69 212.862 119.34 212.764 118.948 212.764C118.537 212.764 118.178 212.867 117.87 213.072C117.571 213.268 117.343 213.543 117.184 213.898C117.025 214.243 116.946 214.631 116.946 215.06C116.946 215.545 117.035 215.965 117.212 216.32C117.399 216.675 117.646 216.95 117.954 217.146C118.271 217.342 118.621 217.44 119.004 217.44ZM124.192 218V212.008C124.192 211.131 124.327 210.403 124.598 209.824C124.868 209.236 125.246 208.793 125.732 208.494C126.226 208.195 126.791 208.046 127.426 208.046C127.715 208.046 127.99 208.083 128.252 208.158C128.522 208.233 128.765 208.345 128.98 208.494L128.574 209.208C128.378 209.068 128.154 208.956 127.902 208.872C127.659 208.779 127.402 208.732 127.132 208.732C126.702 208.732 126.357 208.83 126.096 209.026C125.834 209.222 125.634 209.474 125.494 209.782C125.363 210.09 125.27 210.421 125.214 210.776C125.167 211.121 125.144 211.448 125.144 211.756V218H124.192ZM123.002 212.988L123.072 212.358L127.454 212.302L127.384 213.002L123.002 212.988ZM133.47 218.126C133.19 218.126 132.919 218.098 132.658 218.042C132.406 217.995 132.177 217.93 131.972 217.846C131.767 217.753 131.589 217.659 131.44 217.566L131.72 216.782C131.944 216.987 132.219 217.155 132.546 217.286C132.882 217.407 133.204 217.468 133.512 217.468C133.895 217.468 134.193 217.375 134.408 217.188C134.632 216.992 134.744 216.763 134.744 216.502C134.744 216.269 134.669 216.082 134.52 215.942C134.38 215.793 134.193 215.671 133.96 215.578C133.736 215.485 133.498 215.396 133.246 215.312C132.994 215.219 132.751 215.111 132.518 214.99C132.294 214.859 132.107 214.696 131.958 214.5C131.809 214.295 131.734 214.033 131.734 213.716C131.734 213.352 131.827 213.049 132.014 212.806C132.201 212.563 132.443 212.381 132.742 212.26C133.041 212.139 133.377 212.078 133.75 212.078C134.03 212.078 134.315 212.115 134.604 212.19C134.903 212.255 135.159 212.358 135.374 212.498L135.094 213.24C134.917 213.063 134.693 212.932 134.422 212.848C134.151 212.755 133.909 212.708 133.694 212.708C133.349 212.708 133.078 212.787 132.882 212.946C132.695 213.105 132.602 213.301 132.602 213.534C132.602 213.749 132.677 213.926 132.826 214.066C132.975 214.206 133.162 214.323 133.386 214.416C133.619 214.5 133.862 214.589 134.114 214.682C134.375 214.775 134.618 214.887 134.842 215.018C135.075 215.139 135.267 215.307 135.416 215.522C135.565 215.727 135.64 215.993 135.64 216.32C135.64 216.563 135.589 216.796 135.486 217.02C135.393 217.235 135.253 217.426 135.066 217.594C134.879 217.762 134.651 217.893 134.38 217.986C134.109 218.079 133.806 218.126 133.47 218.126ZM141.407 218.084C141.052 218.084 140.772 217.958 140.567 217.706C140.362 217.445 140.264 217.071 140.273 216.586L140.329 213.94C140.338 213.651 140.306 213.417 140.231 213.24C140.166 213.053 140.068 212.918 139.937 212.834C139.806 212.741 139.648 212.694 139.461 212.694C139.265 212.694 139.055 212.741 138.831 212.834C138.607 212.927 138.411 213.072 138.243 213.268C138.084 213.464 137.986 213.716 137.949 214.024L137.025 213.926C137.072 213.655 137.174 213.408 137.333 213.184C137.492 212.96 137.692 212.769 137.935 212.61C138.178 212.442 138.444 212.316 138.733 212.232C139.022 212.139 139.316 212.092 139.615 212.092C140.175 212.092 140.586 212.251 140.847 212.568C141.118 212.876 141.248 213.296 141.239 213.828L141.211 216.768C141.211 216.973 141.244 217.132 141.309 217.244C141.384 217.356 141.486 217.412 141.617 217.412C141.72 217.412 141.822 217.389 141.925 217.342C142.028 217.295 142.116 217.225 142.191 217.132L142.513 217.58C142.392 217.729 142.233 217.851 142.037 217.944C141.841 218.037 141.631 218.084 141.407 218.084ZM138.313 218.084C137.893 218.084 137.552 217.967 137.291 217.734C137.03 217.491 136.899 217.179 136.899 216.796C136.899 216.572 136.946 216.362 137.039 216.166C137.132 215.97 137.291 215.797 137.515 215.648C137.748 215.489 138.07 215.354 138.481 215.242L140.805 214.612L140.875 215.116L138.719 215.788C138.364 215.9 138.126 216.031 138.005 216.18C137.893 216.329 137.837 216.488 137.837 216.656C137.837 216.889 137.916 217.067 138.075 217.188C138.234 217.3 138.425 217.356 138.649 217.356C138.929 217.356 139.237 217.267 139.573 217.09C139.909 216.903 140.282 216.665 140.693 216.376L140.847 216.712C140.446 217.095 140.035 217.421 139.615 217.692C139.195 217.953 138.761 218.084 138.313 218.084ZM146.098 218.112C145.529 218.112 145.025 217.991 144.586 217.748C144.148 217.496 143.798 217.151 143.536 216.712C143.284 216.264 143.158 215.755 143.158 215.186C143.158 214.589 143.294 214.057 143.564 213.59C143.835 213.123 144.204 212.755 144.67 212.484C145.137 212.213 145.664 212.078 146.252 212.078C146.654 212.078 147.013 212.143 147.33 212.274C147.648 212.405 147.932 212.582 148.184 212.806L147.778 213.548C147.545 213.305 147.293 213.119 147.022 212.988C146.752 212.857 146.458 212.792 146.14 212.792C145.739 212.792 145.389 212.895 145.09 213.1C144.792 213.305 144.563 213.581 144.404 213.926C144.255 214.271 144.18 214.659 144.18 215.088C144.18 215.545 144.274 215.947 144.46 216.292C144.647 216.637 144.904 216.903 145.23 217.09C145.566 217.277 145.94 217.37 146.35 217.37C146.64 217.37 146.924 217.314 147.204 217.202C147.484 217.081 147.736 216.913 147.96 216.698L148.282 217.244C148.068 217.449 147.839 217.617 147.596 217.748C147.354 217.879 147.106 217.972 146.854 218.028C146.602 218.084 146.35 218.112 146.098 218.112ZM149.774 218V212.274L150.558 212.12L150.726 213.59V218H149.774ZM150.558 214.36L150.32 214.01C150.628 213.422 150.978 212.965 151.37 212.638C151.762 212.302 152.205 212.134 152.7 212.134C152.896 212.134 153.082 212.162 153.26 212.218C153.437 212.265 153.591 212.339 153.722 212.442L153.316 213.24C153.213 213.156 153.078 213.091 152.91 213.044C152.751 212.997 152.588 212.974 152.42 212.974C152.056 212.974 151.72 213.095 151.412 213.338C151.113 213.571 150.828 213.912 150.558 214.36ZM157.239 218.126C156.689 218.126 156.203 218.014 155.783 217.79C155.363 217.557 155.032 217.23 154.789 216.81C154.556 216.381 154.439 215.877 154.439 215.298C154.439 214.654 154.57 214.094 154.831 213.618C155.102 213.133 155.461 212.759 155.909 212.498C156.367 212.227 156.88 212.092 157.449 212.092C158.14 212.092 158.658 212.288 159.003 212.68C159.349 213.072 159.521 213.609 159.521 214.29C159.521 214.365 159.517 214.449 159.507 214.542C159.507 214.626 159.503 214.705 159.493 214.78H158.667V214.29C158.667 213.786 158.565 213.408 158.359 213.156C158.154 212.895 157.832 212.764 157.393 212.764C156.983 212.764 156.623 212.867 156.315 213.072C156.007 213.268 155.769 213.543 155.601 213.898C155.433 214.253 155.349 214.677 155.349 215.172C155.349 215.844 155.541 216.381 155.923 216.782C156.306 217.174 156.805 217.37 157.421 217.37C157.739 217.37 158.042 217.314 158.331 217.202C158.621 217.09 158.901 216.908 159.171 216.656L159.521 217.174C159.269 217.407 159.013 217.594 158.751 217.734C158.499 217.874 158.247 217.972 157.995 218.028C157.743 218.093 157.491 218.126 157.239 218.126ZM154.971 214.78L155.097 214.178H159.367V214.78H154.971ZM163.442 218.084C162.91 218.084 162.439 217.963 162.028 217.72C161.627 217.468 161.314 217.127 161.09 216.698C160.875 216.269 160.768 215.783 160.768 215.242C160.768 214.645 160.899 214.108 161.16 213.632C161.431 213.156 161.785 212.783 162.224 212.512C162.672 212.241 163.176 212.106 163.736 212.106C164.053 212.106 164.347 212.157 164.618 212.26C164.898 212.363 165.15 212.512 165.374 212.708C165.598 212.904 165.775 213.147 165.906 213.436L165.64 213.856C165.453 213.501 165.206 213.24 164.898 213.072C164.59 212.895 164.249 212.806 163.876 212.806C163.465 212.806 163.101 212.904 162.784 213.1C162.476 213.296 162.233 213.571 162.056 213.926C161.879 214.271 161.79 214.677 161.79 215.144C161.79 215.573 161.865 215.961 162.014 216.306C162.173 216.642 162.392 216.908 162.672 217.104C162.952 217.3 163.283 217.398 163.666 217.398C164.011 217.398 164.357 217.309 164.702 217.132C165.057 216.945 165.36 216.628 165.612 216.18L166.004 216.418C165.799 216.791 165.565 217.104 165.304 217.356C165.052 217.599 164.767 217.781 164.45 217.902C164.142 218.023 163.806 218.084 163.442 218.084ZM165.71 218.084L165.556 216.782V208.144L166.494 207.962V217.916L165.71 218.084ZM174.563 218.112C173.994 218.112 173.49 217.991 173.051 217.748C172.612 217.496 172.262 217.151 172.001 216.712C171.749 216.264 171.623 215.755 171.623 215.186C171.623 214.589 171.758 214.057 172.029 213.59C172.3 213.123 172.668 212.755 173.135 212.484C173.602 212.213 174.129 212.078 174.717 212.078C175.118 212.078 175.478 212.143 175.795 212.274C176.112 212.405 176.397 212.582 176.649 212.806L176.243 213.548C176.01 213.305 175.758 213.119 175.487 212.988C175.216 212.857 174.922 212.792 174.605 212.792C174.204 212.792 173.854 212.895 173.555 213.1C173.256 213.305 173.028 213.581 172.869 213.926C172.72 214.271 172.645 214.659 172.645 215.088C172.645 215.545 172.738 215.947 172.925 216.292C173.112 216.637 173.368 216.903 173.695 217.09C174.031 217.277 174.404 217.37 174.815 217.37C175.104 217.37 175.389 217.314 175.669 217.202C175.949 217.081 176.201 216.913 176.425 216.698L176.747 217.244C176.532 217.449 176.304 217.617 176.061 217.748C175.818 217.879 175.571 217.972 175.319 218.028C175.067 218.084 174.815 218.112 174.563 218.112ZM180.604 218.126C180.054 218.126 179.568 218.014 179.148 217.79C178.728 217.557 178.397 217.23 178.154 216.81C177.921 216.381 177.804 215.877 177.804 215.298C177.804 214.654 177.935 214.094 178.196 213.618C178.467 213.133 178.826 212.759 179.274 212.498C179.732 212.227 180.245 212.092 180.814 212.092C181.505 212.092 182.023 212.288 182.368 212.68C182.714 213.072 182.886 213.609 182.886 214.29C182.886 214.365 182.882 214.449 182.872 214.542C182.872 214.626 182.868 214.705 182.858 214.78H182.032V214.29C182.032 213.786 181.93 213.408 181.724 213.156C181.519 212.895 181.197 212.764 180.758 212.764C180.348 212.764 179.988 212.867 179.68 213.072C179.372 213.268 179.134 213.543 178.966 213.898C178.798 214.253 178.714 214.677 178.714 215.172C178.714 215.844 178.906 216.381 179.288 216.782C179.671 217.174 180.17 217.37 180.786 217.37C181.104 217.37 181.407 217.314 181.696 217.202C181.986 217.09 182.266 216.908 182.536 216.656L182.886 217.174C182.634 217.407 182.378 217.594 182.116 217.734C181.864 217.874 181.612 217.972 181.36 218.028C181.108 218.093 180.856 218.126 180.604 218.126ZM178.336 214.78L178.462 214.178H182.732V214.78H178.336ZM184.623 218V212.274L185.407 212.12L185.575 213.59V218H184.623ZM185.407 214.36L185.169 214.01C185.477 213.422 185.827 212.965 186.219 212.638C186.611 212.302 187.055 212.134 187.549 212.134C187.745 212.134 187.932 212.162 188.109 212.218C188.287 212.265 188.441 212.339 188.571 212.442L188.165 213.24C188.063 213.156 187.927 213.091 187.759 213.044C187.601 212.997 187.437 212.974 187.269 212.974C186.905 212.974 186.569 213.095 186.261 213.338C185.963 213.571 185.678 213.912 185.407 214.36ZM192.089 218.126C191.538 218.126 191.053 218.014 190.633 217.79C190.213 217.557 189.882 217.23 189.639 216.81C189.406 216.381 189.289 215.877 189.289 215.298C189.289 214.654 189.42 214.094 189.681 213.618C189.952 213.133 190.311 212.759 190.759 212.498C191.216 212.227 191.73 212.092 192.299 212.092C192.99 212.092 193.508 212.288 193.853 212.68C194.198 213.072 194.371 213.609 194.371 214.29C194.371 214.365 194.366 214.449 194.357 214.542C194.357 214.626 194.352 214.705 194.343 214.78H193.517V214.29C193.517 213.786 193.414 213.408 193.209 213.156C193.004 212.895 192.682 212.764 192.243 212.764C191.832 212.764 191.473 212.867 191.165 213.072C190.857 213.268 190.619 213.543 190.451 213.898C190.283 214.253 190.199 214.677 190.199 215.172C190.199 215.844 190.39 216.381 190.773 216.782C191.156 217.174 191.655 217.37 192.271 217.37C192.588 217.37 192.892 217.314 193.181 217.202C193.47 217.09 193.75 216.908 194.021 216.656L194.371 217.174C194.119 217.407 193.862 217.594 193.601 217.734C193.349 217.874 193.097 217.972 192.845 218.028C192.593 218.093 192.341 218.126 192.089 218.126ZM189.821 214.78L189.947 214.178H194.217V214.78H189.821ZM204.102 218V214.556C204.102 214.015 203.99 213.595 203.766 213.296C203.551 212.997 203.229 212.848 202.8 212.848C202.464 212.848 202.109 212.96 201.736 213.184C201.372 213.408 201.073 213.763 200.84 214.248L200.504 213.926C200.709 213.515 200.956 213.179 201.246 212.918C201.535 212.647 201.848 212.447 202.184 212.316C202.529 212.185 202.865 212.12 203.192 212.12C203.752 212.12 204.204 212.316 204.55 212.708C204.895 213.091 205.068 213.627 205.068 214.318V218H204.102ZM200.126 218V214.556C200.126 214.015 200.014 213.595 199.79 213.296C199.566 212.997 199.239 212.848 198.81 212.848C198.576 212.848 198.338 212.899 198.096 213.002C197.853 213.095 197.615 213.245 197.382 213.45C197.158 213.655 196.966 213.921 196.808 214.248L196.486 213.926C196.691 213.515 196.938 213.179 197.228 212.918C197.526 212.647 197.848 212.447 198.194 212.316C198.539 212.185 198.875 212.12 199.202 212.12C199.771 212.12 200.228 212.316 200.574 212.708C200.919 213.091 201.092 213.627 201.092 214.318V218H200.126ZM196.108 218V212.288L196.892 212.12L197.06 213.478V218H196.108ZM209.687 218.112C209.117 218.112 208.609 217.986 208.161 217.734C207.722 217.482 207.372 217.137 207.111 216.698C206.859 216.25 206.733 215.741 206.733 215.172C206.733 214.575 206.868 214.043 207.139 213.576C207.419 213.109 207.797 212.745 208.273 212.484C208.749 212.213 209.285 212.078 209.883 212.078C210.452 212.078 210.956 212.204 211.395 212.456C211.843 212.708 212.193 213.058 212.445 213.506C212.706 213.945 212.837 214.449 212.837 215.018C212.837 215.615 212.701 216.147 212.431 216.614C212.16 217.081 211.787 217.449 211.311 217.72C210.835 217.981 210.293 218.112 209.687 218.112ZM209.813 217.44C210.233 217.44 210.592 217.337 210.891 217.132C211.189 216.917 211.418 216.633 211.577 216.278C211.735 215.923 211.815 215.536 211.815 215.116C211.815 214.631 211.721 214.215 211.535 213.87C211.357 213.515 211.115 213.245 210.807 213.058C210.499 212.862 210.149 212.764 209.757 212.764C209.346 212.764 208.987 212.867 208.679 213.072C208.38 213.268 208.151 213.543 207.993 213.898C207.834 214.243 207.755 214.631 207.755 215.06C207.755 215.545 207.843 215.965 208.021 216.32C208.207 216.675 208.455 216.95 208.763 217.146C209.08 217.342 209.43 217.44 209.813 217.44ZM218.78 218V214.64C218.78 214.071 218.654 213.632 218.402 213.324C218.15 213.007 217.791 212.848 217.324 212.848C217.082 212.848 216.825 212.899 216.554 213.002C216.293 213.095 216.041 213.245 215.798 213.45C215.565 213.655 215.364 213.921 215.196 214.248L214.874 213.926C215.089 213.506 215.35 213.165 215.658 212.904C215.976 212.633 216.312 212.437 216.666 212.316C217.03 212.185 217.376 212.12 217.702 212.12C218.113 212.12 218.468 212.209 218.766 212.386C219.074 212.554 219.312 212.801 219.48 213.128C219.648 213.455 219.732 213.851 219.732 214.318V218H218.78ZM214.496 218V212.288L215.28 212.12L215.448 213.506V218H214.496ZM222.172 218V212.274L223.124 212.12V218H222.172ZM222.648 210.496C222.452 210.496 222.289 210.435 222.158 210.314C222.037 210.193 221.976 210.034 221.976 209.838C221.976 209.642 222.037 209.483 222.158 209.362C222.289 209.241 222.452 209.18 222.648 209.18C222.853 209.18 223.017 209.241 223.138 209.362C223.259 209.483 223.32 209.642 223.32 209.838C223.32 210.034 223.259 210.193 223.138 210.314C223.017 210.435 222.853 210.496 222.648 210.496ZM227.923 218.126C227.372 218.126 226.887 218.014 226.467 217.79C226.047 217.557 225.716 217.23 225.473 216.81C225.24 216.381 225.123 215.877 225.123 215.298C225.123 214.654 225.254 214.094 225.515 213.618C225.786 213.133 226.145 212.759 226.593 212.498C227.05 212.227 227.564 212.092 228.133 212.092C228.824 212.092 229.342 212.288 229.687 212.68C230.032 213.072 230.205 213.609 230.205 214.29C230.205 214.365 230.2 214.449 230.191 214.542C230.191 214.626 230.186 214.705 230.177 214.78H229.351V214.29C229.351 213.786 229.248 213.408 229.043 213.156C228.838 212.895 228.516 212.764 228.077 212.764C227.666 212.764 227.307 212.867 226.999 213.072C226.691 213.268 226.453 213.543 226.285 213.898C226.117 214.253 226.033 214.677 226.033 215.172C226.033 215.844 226.224 216.381 226.607 216.782C226.99 217.174 227.489 217.37 228.105 217.37C228.422 217.37 228.726 217.314 229.015 217.202C229.304 217.09 229.584 216.908 229.855 216.656L230.205 217.174C229.953 217.407 229.696 217.594 229.435 217.734C229.183 217.874 228.931 217.972 228.679 218.028C228.427 218.093 228.175 218.126 227.923 218.126ZM225.655 214.78L225.781 214.178H230.051V214.78H225.655ZM233.398 218.126C233.118 218.126 232.847 218.098 232.586 218.042C232.334 217.995 232.105 217.93 231.9 217.846C231.694 217.753 231.517 217.659 231.368 217.566L231.648 216.782C231.872 216.987 232.147 217.155 232.474 217.286C232.81 217.407 233.132 217.468 233.44 217.468C233.822 217.468 234.121 217.375 234.336 217.188C234.56 216.992 234.672 216.763 234.672 216.502C234.672 216.269 234.597 216.082 234.448 215.942C234.308 215.793 234.121 215.671 233.888 215.578C233.664 215.485 233.426 215.396 233.174 215.312C232.922 215.219 232.679 215.111 232.446 214.99C232.222 214.859 232.035 214.696 231.886 214.5C231.736 214.295 231.662 214.033 231.662 213.716C231.662 213.352 231.755 213.049 231.942 212.806C232.128 212.563 232.371 212.381 232.67 212.26C232.968 212.139 233.304 212.078 233.678 212.078C233.958 212.078 234.242 212.115 234.532 212.19C234.83 212.255 235.087 212.358 235.302 212.498L235.022 213.24C234.844 213.063 234.62 212.932 234.35 212.848C234.079 212.755 233.836 212.708 233.622 212.708C233.276 212.708 233.006 212.787 232.81 212.946C232.623 213.105 232.53 213.301 232.53 213.534C232.53 213.749 232.604 213.926 232.754 214.066C232.903 214.206 233.09 214.323 233.314 214.416C233.547 214.5 233.79 214.589 234.042 214.682C234.303 214.775 234.546 214.887 234.77 215.018C235.003 215.139 235.194 215.307 235.344 215.522C235.493 215.727 235.568 215.993 235.568 216.32C235.568 216.563 235.516 216.796 235.414 217.02C235.32 217.235 235.18 217.426 234.994 217.594C234.807 217.762 234.578 217.893 234.308 217.986C234.037 218.079 233.734 218.126 233.398 218.126ZM244.78 218.084C244.425 218.084 244.145 217.958 243.94 217.706C243.735 217.445 243.637 217.071 243.646 216.586L243.702 213.94C243.711 213.651 243.679 213.417 243.604 213.24C243.539 213.053 243.441 212.918 243.31 212.834C243.179 212.741 243.021 212.694 242.834 212.694C242.638 212.694 242.428 212.741 242.204 212.834C241.98 212.927 241.784 213.072 241.616 213.268C241.457 213.464 241.359 213.716 241.322 214.024L240.398 213.926C240.445 213.655 240.547 213.408 240.706 213.184C240.865 212.96 241.065 212.769 241.308 212.61C241.551 212.442 241.817 212.316 242.106 212.232C242.395 212.139 242.689 212.092 242.988 212.092C243.548 212.092 243.959 212.251 244.22 212.568C244.491 212.876 244.621 213.296 244.612 213.828L244.584 216.768C244.584 216.973 244.617 217.132 244.682 217.244C244.757 217.356 244.859 217.412 244.99 217.412C245.093 217.412 245.195 217.389 245.298 217.342C245.401 217.295 245.489 217.225 245.564 217.132L245.886 217.58C245.765 217.729 245.606 217.851 245.41 217.944C245.214 218.037 245.004 218.084 244.78 218.084ZM241.686 218.084C241.266 218.084 240.925 217.967 240.664 217.734C240.403 217.491 240.272 217.179 240.272 216.796C240.272 216.572 240.319 216.362 240.412 216.166C240.505 215.97 240.664 215.797 240.888 215.648C241.121 215.489 241.443 215.354 241.854 215.242L244.178 214.612L244.248 215.116L242.092 215.788C241.737 215.9 241.499 216.031 241.378 216.18C241.266 216.329 241.21 216.488 241.21 216.656C241.21 216.889 241.289 217.067 241.448 217.188C241.607 217.3 241.798 217.356 242.022 217.356C242.302 217.356 242.61 217.267 242.946 217.09C243.282 216.903 243.655 216.665 244.066 216.376L244.22 216.712C243.819 217.095 243.408 217.421 242.988 217.692C242.568 217.953 242.134 218.084 241.686 218.084ZM251.319 218V214.64C251.319 214.071 251.193 213.632 250.941 213.324C250.689 213.007 250.33 212.848 249.863 212.848C249.621 212.848 249.364 212.899 249.093 213.002C248.832 213.095 248.58 213.245 248.337 213.45C248.104 213.655 247.903 213.921 247.735 214.248L247.413 213.926C247.628 213.506 247.889 213.165 248.197 212.904C248.515 212.633 248.851 212.437 249.205 212.316C249.569 212.185 249.915 212.12 250.241 212.12C250.652 212.12 251.007 212.209 251.305 212.386C251.613 212.554 251.851 212.801 252.019 213.128C252.187 213.455 252.271 213.851 252.271 214.318V218H251.319ZM247.035 218V212.288L247.819 212.12L247.987 213.506V218H247.035ZM256.643 218.084C256.111 218.084 255.64 217.963 255.229 217.72C254.828 217.468 254.515 217.127 254.291 216.698C254.077 216.269 253.969 215.783 253.969 215.242C253.969 214.645 254.1 214.108 254.361 213.632C254.632 213.156 254.987 212.783 255.425 212.512C255.873 212.241 256.377 212.106 256.937 212.106C257.255 212.106 257.549 212.157 257.819 212.26C258.099 212.363 258.351 212.512 258.575 212.708C258.799 212.904 258.977 213.147 259.107 213.436L258.841 213.856C258.655 213.501 258.407 213.24 258.099 213.072C257.791 212.895 257.451 212.806 257.077 212.806C256.667 212.806 256.303 212.904 255.985 213.1C255.677 213.296 255.435 213.571 255.257 213.926C255.08 214.271 254.991 214.677 254.991 215.144C254.991 215.573 255.066 215.961 255.215 216.306C255.374 216.642 255.593 216.908 255.873 217.104C256.153 217.3 256.485 217.398 256.867 217.398C257.213 217.398 257.558 217.309 257.903 217.132C258.258 216.945 258.561 216.628 258.813 216.18L259.205 216.418C259 216.791 258.767 217.104 258.505 217.356C258.253 217.599 257.969 217.781 257.651 217.902C257.343 218.023 257.007 218.084 256.643 218.084ZM258.911 218.084L258.757 216.782V208.144L259.695 207.962V217.916L258.911 218.084ZM265.58 218.154V212.274L266.532 212.12V218.154C266.532 219.246 266.36 220.109 266.014 220.744C265.669 221.388 265.137 221.822 264.418 222.046L264.194 221.584C264.661 221.351 265.006 220.954 265.23 220.394C265.464 219.843 265.58 219.097 265.58 218.154ZM266.056 210.496C265.86 210.496 265.697 210.435 265.566 210.314C265.445 210.193 265.384 210.034 265.384 209.838C265.384 209.642 265.445 209.483 265.566 209.362C265.697 209.241 265.86 209.18 266.056 209.18C266.262 209.18 266.425 209.241 266.546 209.362C266.668 209.483 266.728 209.642 266.728 209.838C266.728 210.034 266.668 210.193 266.546 210.314C266.425 210.435 266.262 210.496 266.056 210.496ZM271.415 218.112C270.846 218.112 270.337 217.986 269.889 217.734C269.45 217.482 269.1 217.137 268.839 216.698C268.587 216.25 268.461 215.741 268.461 215.172C268.461 214.575 268.596 214.043 268.867 213.576C269.147 213.109 269.525 212.745 270.001 212.484C270.477 212.213 271.014 212.078 271.611 212.078C272.18 212.078 272.684 212.204 273.123 212.456C273.571 212.708 273.921 213.058 274.173 213.506C274.434 213.945 274.565 214.449 274.565 215.018C274.565 215.615 274.43 216.147 274.159 216.614C273.888 217.081 273.515 217.449 273.039 217.72C272.563 217.981 272.022 218.112 271.415 218.112ZM271.541 217.44C271.961 217.44 272.32 217.337 272.619 217.132C272.918 216.917 273.146 216.633 273.305 216.278C273.464 215.923 273.543 215.536 273.543 215.116C273.543 214.631 273.45 214.215 273.263 213.87C273.086 213.515 272.843 213.245 272.535 213.058C272.227 212.862 271.877 212.764 271.485 212.764C271.074 212.764 270.715 212.867 270.407 213.072C270.108 213.268 269.88 213.543 269.721 213.898C269.562 214.243 269.483 214.631 269.483 215.06C269.483 215.545 269.572 215.965 269.749 216.32C269.936 216.675 270.183 216.95 270.491 217.146C270.808 217.342 271.158 217.44 271.541 217.44ZM278.339 218.434L275.497 212.204H276.547L278.773 217.328L278.339 218.434ZM280.369 212.204H281.335L277.345 222.046H276.323L278.395 217.65L280.369 212.204ZM283.278 218V212.008C283.278 211.131 283.413 210.403 283.684 209.824C283.954 209.236 284.332 208.793 284.818 208.494C285.312 208.195 285.877 208.046 286.512 208.046C286.801 208.046 287.076 208.083 287.338 208.158C287.608 208.233 287.851 208.345 288.066 208.494L287.66 209.208C287.464 209.068 287.24 208.956 286.988 208.872C286.745 208.779 286.488 208.732 286.218 208.732C285.788 208.732 285.443 208.83 285.182 209.026C284.92 209.222 284.72 209.474 284.58 209.782C284.449 210.09 284.356 210.421 284.3 210.776C284.253 211.121 284.23 211.448 284.23 211.756V218H283.278ZM282.088 212.988L282.158 212.358L286.54 212.302L286.47 213.002L282.088 212.988ZM289.629 218.07C289.05 218.07 288.574 217.879 288.201 217.496C287.837 217.104 287.655 216.567 287.655 215.886V212.288L288.607 212.12V215.578C288.607 216.129 288.728 216.563 288.971 216.88C289.223 217.197 289.573 217.356 290.021 217.356C290.263 217.356 290.511 217.309 290.763 217.216C291.015 217.113 291.253 216.959 291.477 216.754C291.71 216.539 291.901 216.269 292.051 215.942L292.401 216.264C292.195 216.675 291.939 217.015 291.631 217.286C291.332 217.547 291.01 217.743 290.665 217.874C290.319 218.005 289.974 218.07 289.629 218.07ZM291.981 218.084L291.813 216.656V212.288L292.779 212.12V217.916L291.981 218.084ZM295.123 218V208.13L296.061 207.976V218H295.123ZM66.4596 234.112C65.8903 234.112 65.3863 233.991 64.9476 233.748C64.509 233.496 64.159 233.151 63.8976 232.712C63.6456 232.264 63.5196 231.755 63.5196 231.186C63.5196 230.589 63.655 230.057 63.9256 229.59C64.1963 229.123 64.565 228.755 65.0316 228.484C65.4983 228.213 66.0256 228.078 66.6136 228.078C67.015 228.078 67.3743 228.143 67.6916 228.274C68.009 228.405 68.2936 228.582 68.5456 228.806L68.1396 229.548C67.9063 229.305 67.6543 229.119 67.3836 228.988C67.113 228.857 66.819 228.792 66.5016 228.792C66.1003 228.792 65.7503 228.895 65.4516 229.1C65.153 229.305 64.9243 229.581 64.7656 229.926C64.6163 230.271 64.5416 230.659 64.5416 231.088C64.5416 231.545 64.635 231.947 64.8216 232.292C65.0083 232.637 65.265 232.903 65.5916 233.09C65.9276 233.277 66.301 233.37 66.7116 233.37C67.001 233.37 67.2856 233.314 67.5656 233.202C67.8456 233.081 68.0976 232.913 68.3216 232.698L68.6436 233.244C68.429 233.449 68.2003 233.617 67.9576 233.748C67.715 233.879 67.4676 233.972 67.2156 234.028C66.9636 234.084 66.7116 234.112 66.4596 234.112ZM72.501 234.126C71.9503 234.126 71.465 234.014 71.045 233.79C70.625 233.557 70.2936 233.23 70.051 232.81C69.8176 232.381 69.701 231.877 69.701 231.298C69.701 230.654 69.8316 230.094 70.093 229.618C70.3636 229.133 70.723 228.759 71.171 228.498C71.6283 228.227 72.1416 228.092 72.711 228.092C73.4016 228.092 73.9196 228.288 74.265 228.68C74.6103 229.072 74.783 229.609 74.783 230.29C74.783 230.365 74.7783 230.449 74.769 230.542C74.769 230.626 74.7643 230.705 74.755 230.78H73.929V230.29C73.929 229.786 73.8263 229.408 73.621 229.156C73.4156 228.895 73.0936 228.764 72.655 228.764C72.2443 228.764 71.885 228.867 71.577 229.072C71.269 229.268 71.031 229.543 70.863 229.898C70.695 230.253 70.611 230.677 70.611 231.172C70.611 231.844 70.8023 232.381 71.185 232.782C71.5676 233.174 72.067 233.37 72.683 233.37C73.0003 233.37 73.3036 233.314 73.593 233.202C73.8823 233.09 74.1623 232.908 74.433 232.656L74.783 233.174C74.531 233.407 74.2743 233.594 74.013 233.734C73.761 233.874 73.509 233.972 73.257 234.028C73.005 234.093 72.753 234.126 72.501 234.126ZM70.233 230.78L70.359 230.178H74.629V230.78H70.233ZM76.6737 234V224.13L77.6117 223.976V234H76.6737ZM82.3037 234.126C81.753 234.126 81.2677 234.014 80.8477 233.79C80.4277 233.557 80.0964 233.23 79.8537 232.81C79.6204 232.381 79.5037 231.877 79.5037 231.298C79.5037 230.654 79.6344 230.094 79.8957 229.618C80.1664 229.133 80.5257 228.759 80.9737 228.498C81.431 228.227 81.9444 228.092 82.5137 228.092C83.2044 228.092 83.7224 228.288 84.0677 228.68C84.413 229.072 84.5857 229.609 84.5857 230.29C84.5857 230.365 84.581 230.449 84.5717 230.542C84.5717 230.626 84.567 230.705 84.5577 230.78H83.7317V230.29C83.7317 229.786 83.629 229.408 83.4237 229.156C83.2184 228.895 82.8964 228.764 82.4577 228.764C82.047 228.764 81.6877 228.867 81.3797 229.072C81.0717 229.268 80.8337 229.543 80.6657 229.898C80.4977 230.253 80.4137 230.677 80.4137 231.172C80.4137 231.844 80.605 232.381 80.9877 232.782C81.3704 233.174 81.8697 233.37 82.4857 233.37C82.803 233.37 83.1064 233.314 83.3957 233.202C83.685 233.09 83.965 232.908 84.2357 232.656L84.5857 233.174C84.3337 233.407 84.077 233.594 83.8157 233.734C83.5637 233.874 83.3117 233.972 83.0597 234.028C82.8077 234.093 82.5557 234.126 82.3037 234.126ZM80.0357 230.78L80.1617 230.178H84.4317V230.78H80.0357ZM88.7165 234.084C88.2498 234.084 87.7971 234.023 87.3585 233.902C86.9291 233.771 86.6071 233.594 86.3925 233.37L87.3305 232.866C87.5171 233.053 87.7598 233.197 88.0585 233.3C88.3665 233.393 88.6791 233.44 88.9965 233.44C89.4351 233.44 89.8038 233.342 90.1025 233.146C90.4011 232.941 90.6251 232.67 90.7745 232.334C90.9238 231.989 90.9985 231.606 90.9985 231.186C90.9985 230.701 90.9191 230.285 90.7605 229.94C90.6018 229.585 90.3825 229.315 90.1025 229.128C89.8225 228.941 89.4911 228.848 89.1085 228.848C88.7631 228.848 88.4038 228.955 88.0305 229.17C87.6571 229.385 87.3445 229.725 87.0925 230.192L86.7565 229.744C86.9711 229.417 87.2138 229.133 87.4845 228.89C87.7645 228.647 88.0678 228.461 88.3945 228.33C88.7211 228.19 89.0758 228.12 89.4585 228.12C89.8225 228.12 90.1585 228.185 90.4665 228.316C90.7745 228.437 91.0451 228.619 91.2785 228.862C91.5118 229.105 91.6938 229.399 91.8245 229.744C91.9551 230.08 92.0205 230.467 92.0205 230.906C92.0205 231.466 91.8945 231.989 91.6425 232.474C91.3998 232.959 91.0311 233.351 90.5365 233.65C90.0511 233.939 89.4445 234.084 88.7165 234.084ZM86.3925 233.37V224.13L87.3305 223.962V232.866L86.3925 233.37ZM93.7053 234V228.274L94.4893 228.12L94.6573 229.59V234H93.7053ZM94.4893 230.36L94.2513 230.01C94.5593 229.422 94.9093 228.965 95.3013 228.638C95.6933 228.302 96.1366 228.134 96.6313 228.134C96.8273 228.134 97.0139 228.162 97.1913 228.218C97.3686 228.265 97.5226 228.339 97.6533 228.442L97.2473 229.24C97.1446 229.156 97.0093 229.091 96.8413 229.044C96.6826 228.997 96.5193 228.974 96.3513 228.974C95.9873 228.974 95.6513 229.095 95.3433 229.338C95.0446 229.571 94.7599 229.912 94.4893 230.36ZM102.934 234.084C102.58 234.084 102.3 233.958 102.094 233.706C101.889 233.445 101.791 233.071 101.8 232.586L101.856 229.94C101.866 229.651 101.833 229.417 101.758 229.24C101.693 229.053 101.595 228.918 101.464 228.834C101.334 228.741 101.175 228.694 100.988 228.694C100.792 228.694 100.582 228.741 100.358 228.834C100.134 228.927 99.9382 229.072 99.7702 229.268C99.6116 229.464 99.5136 229.716 99.4762 230.024L98.5522 229.926C98.5989 229.655 98.7016 229.408 98.8602 229.184C99.0189 228.96 99.2196 228.769 99.4622 228.61C99.7049 228.442 99.9709 228.316 100.26 228.232C100.55 228.139 100.844 228.092 101.142 228.092C101.702 228.092 102.113 228.251 102.374 228.568C102.645 228.876 102.776 229.296 102.766 229.828L102.738 232.768C102.738 232.973 102.771 233.132 102.836 233.244C102.911 233.356 103.014 233.412 103.144 233.412C103.247 233.412 103.35 233.389 103.452 233.342C103.555 233.295 103.644 233.225 103.718 233.132L104.04 233.58C103.919 233.729 103.76 233.851 103.564 233.944C103.368 234.037 103.158 234.084 102.934 234.084ZM99.8402 234.084C99.4202 234.084 99.0796 233.967 98.8182 233.734C98.5569 233.491 98.4262 233.179 98.4262 232.796C98.4262 232.572 98.4729 232.362 98.5662 232.166C98.6596 231.97 98.8182 231.797 99.0422 231.648C99.2756 231.489 99.5976 231.354 100.008 231.242L102.332 230.612L102.402 231.116L100.246 231.788C99.8916 231.9 99.6536 232.031 99.5322 232.18C99.4202 232.329 99.3642 232.488 99.3642 232.656C99.3642 232.889 99.4436 233.067 99.6022 233.188C99.7609 233.3 99.9522 233.356 100.176 233.356C100.456 233.356 100.764 233.267 101.1 233.09C101.436 232.903 101.81 232.665 102.22 232.376L102.374 232.712C101.973 233.095 101.562 233.421 101.142 233.692C100.722 233.953 100.288 234.084 99.8402 234.084ZM107.374 234.098C107.038 234.098 106.734 234.028 106.464 233.888C106.193 233.748 105.983 233.547 105.834 233.286C105.684 233.025 105.61 232.703 105.61 232.32V228.484L105.932 226.972L106.576 226.846V232.166C106.576 232.567 106.669 232.871 106.856 233.076C107.042 233.281 107.299 233.384 107.626 233.384C107.831 233.384 108.036 233.347 108.242 233.272C108.447 233.197 108.648 233.081 108.844 232.922L109.124 233.384C108.862 233.627 108.578 233.809 108.27 233.93C107.971 234.042 107.672 234.098 107.374 234.098ZM108.816 229.002L104.434 228.988L104.504 228.358L108.858 228.302L108.816 229.002ZM110.76 234V228.274L111.712 228.12V234H110.76ZM111.236 226.496C111.04 226.496 110.877 226.435 110.746 226.314C110.625 226.193 110.564 226.034 110.564 225.838C110.564 225.642 110.625 225.483 110.746 225.362C110.877 225.241 111.04 225.18 111.236 225.18C111.441 225.18 111.605 225.241 111.726 225.362C111.847 225.483 111.908 225.642 111.908 225.838C111.908 226.034 111.847 226.193 111.726 226.314C111.605 226.435 111.441 226.496 111.236 226.496ZM116.595 234.112C116.025 234.112 115.517 233.986 115.069 233.734C114.63 233.482 114.28 233.137 114.019 232.698C113.767 232.25 113.641 231.741 113.641 231.172C113.641 230.575 113.776 230.043 114.047 229.576C114.327 229.109 114.705 228.745 115.181 228.484C115.657 228.213 116.193 228.078 116.791 228.078C117.36 228.078 117.864 228.204 118.303 228.456C118.751 228.708 119.101 229.058 119.353 229.506C119.614 229.945 119.745 230.449 119.745 231.018C119.745 231.615 119.609 232.147 119.339 232.614C119.068 233.081 118.695 233.449 118.219 233.72C117.743 233.981 117.201 234.112 116.595 234.112ZM116.721 233.44C117.141 233.44 117.5 233.337 117.799 233.132C118.097 232.917 118.326 232.633 118.485 232.278C118.643 231.923 118.723 231.536 118.723 231.116C118.723 230.631 118.629 230.215 118.443 229.87C118.265 229.515 118.023 229.245 117.715 229.058C117.407 228.862 117.057 228.764 116.665 228.764C116.254 228.764 115.895 228.867 115.587 229.072C115.288 229.268 115.059 229.543 114.901 229.898C114.742 230.243 114.663 230.631 114.663 231.06C114.663 231.545 114.751 231.965 114.929 232.32C115.115 232.675 115.363 232.95 115.671 233.146C115.988 233.342 116.338 233.44 116.721 233.44ZM125.689 234V230.64C125.689 230.071 125.563 229.632 125.311 229.324C125.059 229.007 124.699 228.848 124.233 228.848C123.99 228.848 123.733 228.899 123.463 229.002C123.201 229.095 122.949 229.245 122.707 229.45C122.473 229.655 122.273 229.921 122.105 230.248L121.783 229.926C121.997 229.506 122.259 229.165 122.567 228.904C122.884 228.633 123.22 228.437 123.575 228.316C123.939 228.185 124.284 228.12 124.611 228.12C125.021 228.12 125.376 228.209 125.675 228.386C125.983 228.554 126.221 228.801 126.389 229.128C126.557 229.455 126.641 229.851 126.641 230.318V234H125.689ZM121.405 234V228.288L122.189 228.12L122.357 229.506V234H121.405ZM130.284 234.126C130.004 234.126 129.734 234.098 129.472 234.042C129.22 233.995 128.992 233.93 128.786 233.846C128.581 233.753 128.404 233.659 128.254 233.566L128.534 232.782C128.758 232.987 129.034 233.155 129.36 233.286C129.696 233.407 130.018 233.468 130.326 233.468C130.709 233.468 131.008 233.375 131.222 233.188C131.446 232.992 131.558 232.763 131.558 232.502C131.558 232.269 131.484 232.082 131.334 231.942C131.194 231.793 131.008 231.671 130.774 231.578C130.55 231.485 130.312 231.396 130.06 231.312C129.808 231.219 129.566 231.111 129.332 230.99C129.108 230.859 128.922 230.696 128.772 230.5C128.623 230.295 128.548 230.033 128.548 229.716C128.548 229.352 128.642 229.049 128.828 228.806C129.015 228.563 129.258 228.381 129.556 228.26C129.855 228.139 130.191 228.078 130.564 228.078C130.844 228.078 131.129 228.115 131.418 228.19C131.717 228.255 131.974 228.358 132.188 228.498L131.908 229.24C131.731 229.063 131.507 228.932 131.236 228.848C130.966 228.755 130.723 228.708 130.508 228.708C130.163 228.708 129.892 228.787 129.696 228.946C129.51 229.105 129.416 229.301 129.416 229.534C129.416 229.749 129.491 229.926 129.64 230.066C129.79 230.206 129.976 230.323 130.2 230.416C130.434 230.5 130.676 230.589 130.928 230.682C131.19 230.775 131.432 230.887 131.656 231.018C131.89 231.139 132.081 231.307 132.23 231.522C132.38 231.727 132.454 231.993 132.454 232.32C132.454 232.563 132.403 232.796 132.3 233.02C132.207 233.235 132.067 233.426 131.88 233.594C131.694 233.762 131.465 233.893 131.194 233.986C130.924 234.079 130.62 234.126 130.284 234.126ZM141.667 234.084C141.312 234.084 141.032 233.958 140.827 233.706C140.621 233.445 140.523 233.071 140.533 232.586L140.589 229.94C140.598 229.651 140.565 229.417 140.491 229.24C140.425 229.053 140.327 228.918 140.197 228.834C140.066 228.741 139.907 228.694 139.721 228.694C139.525 228.694 139.315 228.741 139.091 228.834C138.867 228.927 138.671 229.072 138.503 229.268C138.344 229.464 138.246 229.716 138.209 230.024L137.285 229.926C137.331 229.655 137.434 229.408 137.593 229.184C137.751 228.96 137.952 228.769 138.195 228.61C138.437 228.442 138.703 228.316 138.993 228.232C139.282 228.139 139.576 228.092 139.875 228.092C140.435 228.092 140.845 228.251 141.107 228.568C141.377 228.876 141.508 229.296 141.499 229.828L141.471 232.768C141.471 232.973 141.503 233.132 141.569 233.244C141.643 233.356 141.746 233.412 141.877 233.412C141.979 233.412 142.082 233.389 142.185 233.342C142.287 233.295 142.376 233.225 142.451 233.132L142.773 233.58C142.651 233.729 142.493 233.851 142.297 233.944C142.101 234.037 141.891 234.084 141.667 234.084ZM138.573 234.084C138.153 234.084 137.812 233.967 137.551 233.734C137.289 233.491 137.159 233.179 137.159 232.796C137.159 232.572 137.205 232.362 137.299 232.166C137.392 231.97 137.551 231.797 137.775 231.648C138.008 231.489 138.33 231.354 138.741 231.242L141.065 230.612L141.135 231.116L138.979 231.788C138.624 231.9 138.386 232.031 138.265 232.18C138.153 232.329 138.097 232.488 138.097 232.656C138.097 232.889 138.176 233.067 138.335 233.188C138.493 233.3 138.685 233.356 138.909 233.356C139.189 233.356 139.497 233.267 139.833 233.09C140.169 232.903 140.542 232.665 140.953 232.376L141.107 232.712C140.705 233.095 140.295 233.421 139.875 233.692C139.455 233.953 139.021 234.084 138.573 234.084ZM145.378 234.126C145.098 234.126 144.827 234.098 144.566 234.042C144.314 233.995 144.085 233.93 143.88 233.846C143.675 233.753 143.497 233.659 143.348 233.566L143.628 232.782C143.852 232.987 144.127 233.155 144.454 233.286C144.79 233.407 145.112 233.468 145.42 233.468C145.803 233.468 146.101 233.375 146.316 233.188C146.54 232.992 146.652 232.763 146.652 232.502C146.652 232.269 146.577 232.082 146.428 231.942C146.288 231.793 146.101 231.671 145.868 231.578C145.644 231.485 145.406 231.396 145.154 231.312C144.902 231.219 144.659 231.111 144.426 230.99C144.202 230.859 144.015 230.696 143.866 230.5C143.717 230.295 143.642 230.033 143.642 229.716C143.642 229.352 143.735 229.049 143.922 228.806C144.109 228.563 144.351 228.381 144.65 228.26C144.949 228.139 145.285 228.078 145.658 228.078C145.938 228.078 146.223 228.115 146.512 228.19C146.811 228.255 147.067 228.358 147.282 228.498L147.002 229.24C146.825 229.063 146.601 228.932 146.33 228.848C146.059 228.755 145.817 228.708 145.602 228.708C145.257 228.708 144.986 228.787 144.79 228.946C144.603 229.105 144.51 229.301 144.51 229.534C144.51 229.749 144.585 229.926 144.734 230.066C144.883 230.206 145.07 230.323 145.294 230.416C145.527 230.5 145.77 230.589 146.022 230.682C146.283 230.775 146.526 230.887 146.75 231.018C146.983 231.139 147.175 231.307 147.324 231.522C147.473 231.727 147.548 231.993 147.548 232.32C147.548 232.563 147.497 232.796 147.394 233.02C147.301 233.235 147.161 233.426 146.974 233.594C146.787 233.762 146.559 233.893 146.288 233.986C146.017 234.079 145.714 234.126 145.378 234.126ZM153.988 234L151.93 228.204H152.966L154.632 233.37H154.352L156.256 228.204H157.124L159.14 233.37L158.874 233.384L160.386 228.204H161.394L159.336 234H158.468L156.48 228.988H156.718L154.842 234H153.988ZM165.196 234.126C164.646 234.126 164.16 234.014 163.74 233.79C163.32 233.557 162.989 233.23 162.746 232.81C162.513 232.381 162.396 231.877 162.396 231.298C162.396 230.654 162.527 230.094 162.788 229.618C163.059 229.133 163.418 228.759 163.866 228.498C164.324 228.227 164.837 228.092 165.406 228.092C166.097 228.092 166.615 228.288 166.96 228.68C167.306 229.072 167.478 229.609 167.478 230.29C167.478 230.365 167.474 230.449 167.464 230.542C167.464 230.626 167.46 230.705 167.45 230.78H166.624V230.29C166.624 229.786 166.522 229.408 166.316 229.156C166.111 228.895 165.789 228.764 165.35 228.764C164.94 228.764 164.58 228.867 164.272 229.072C163.964 229.268 163.726 229.543 163.558 229.898C163.39 230.253 163.306 230.677 163.306 231.172C163.306 231.844 163.498 232.381 163.88 232.782C164.263 233.174 164.762 233.37 165.378 233.37C165.696 233.37 165.999 233.314 166.288 233.202C166.578 233.09 166.858 232.908 167.128 232.656L167.478 233.174C167.226 233.407 166.97 233.594 166.708 233.734C166.456 233.874 166.204 233.972 165.952 234.028C165.7 234.093 165.448 234.126 165.196 234.126ZM162.928 230.78L163.054 230.178H167.324V230.78H162.928ZM175.054 234.084C174.588 234.084 174.135 234.023 173.696 233.902C173.267 233.771 172.945 233.594 172.73 233.37L173.668 232.866C173.855 233.053 174.098 233.197 174.396 233.3C174.704 233.393 175.017 233.44 175.334 233.44C175.773 233.44 176.142 233.342 176.44 233.146C176.739 232.941 176.963 232.67 177.112 232.334C177.262 231.989 177.336 231.606 177.336 231.186C177.336 230.701 177.257 230.285 177.098 229.94C176.94 229.585 176.72 229.315 176.44 229.128C176.16 228.941 175.829 228.848 175.446 228.848C175.101 228.848 174.742 228.955 174.368 229.17C173.995 229.385 173.682 229.725 173.43 230.192L173.094 229.744C173.309 229.417 173.552 229.133 173.822 228.89C174.102 228.647 174.406 228.461 174.732 228.33C175.059 228.19 175.414 228.12 175.796 228.12C176.16 228.12 176.496 228.185 176.804 228.316C177.112 228.437 177.383 228.619 177.616 228.862C177.85 229.105 178.032 229.399 178.162 229.744C178.293 230.08 178.358 230.467 178.358 230.906C178.358 231.466 178.232 231.989 177.98 232.474C177.738 232.959 177.369 233.351 176.874 233.65C176.389 233.939 175.782 234.084 175.054 234.084ZM172.73 233.37V224.13L173.668 223.962V232.866L172.73 233.37ZM182.409 234.126C181.859 234.126 181.373 234.014 180.953 233.79C180.533 233.557 180.202 233.23 179.959 232.81C179.726 232.381 179.609 231.877 179.609 231.298C179.609 230.654 179.74 230.094 180.001 229.618C180.272 229.133 180.631 228.759 181.079 228.498C181.537 228.227 182.05 228.092 182.619 228.092C183.31 228.092 183.828 228.288 184.173 228.68C184.519 229.072 184.691 229.609 184.691 230.29C184.691 230.365 184.687 230.449 184.677 230.542C184.677 230.626 184.673 230.705 184.663 230.78H183.837V230.29C183.837 229.786 183.735 229.408 183.529 229.156C183.324 228.895 183.002 228.764 182.563 228.764C182.153 228.764 181.793 228.867 181.485 229.072C181.177 229.268 180.939 229.543 180.771 229.898C180.603 230.253 180.519 230.677 180.519 231.172C180.519 231.844 180.711 232.381 181.093 232.782C181.476 233.174 181.975 233.37 182.591 233.37C182.909 233.37 183.212 233.314 183.501 233.202C183.791 233.09 184.071 232.908 184.341 232.656L184.691 233.174C184.439 233.407 184.183 233.594 183.921 233.734C183.669 233.874 183.417 233.972 183.165 234.028C182.913 234.093 182.661 234.126 182.409 234.126ZM180.141 230.78L180.267 230.178H184.537V230.78H180.141ZM188.29 238.046C187.823 238.046 187.403 237.976 187.03 237.836C186.666 237.696 186.377 237.495 186.162 237.234C185.957 236.982 185.854 236.683 185.854 236.338C185.854 235.899 186.041 235.461 186.414 235.022C186.797 234.593 187.375 234.215 188.15 233.888L188.43 234.21C187.879 234.49 187.473 234.793 187.212 235.12C186.96 235.456 186.834 235.797 186.834 236.142C186.834 236.543 186.988 236.856 187.296 237.08C187.613 237.304 188.024 237.416 188.528 237.416C188.948 237.416 189.326 237.337 189.662 237.178C190.007 237.019 190.278 236.805 190.474 236.534C190.679 236.263 190.782 235.96 190.782 235.624C190.782 235.325 190.703 235.106 190.544 234.966C190.395 234.826 190.161 234.723 189.844 234.658C189.527 234.593 189.111 234.532 188.598 234.476C188.187 234.439 187.805 234.383 187.45 234.308C187.095 234.233 186.811 234.117 186.596 233.958C186.381 233.79 186.274 233.561 186.274 233.272C186.274 233.039 186.325 232.833 186.428 232.656C186.54 232.479 186.694 232.315 186.89 232.166C187.095 232.007 187.333 231.853 187.604 231.704L187.968 232.04C187.735 232.171 187.529 232.311 187.352 232.46C187.184 232.6 187.1 232.768 187.1 232.964C187.1 233.141 187.17 233.281 187.31 233.384C187.459 233.477 187.683 233.552 187.982 233.608C188.281 233.655 188.654 233.701 189.102 233.748C189.615 233.804 190.068 233.879 190.46 233.972C190.852 234.056 191.155 234.201 191.37 234.406C191.594 234.611 191.706 234.919 191.706 235.33C191.706 235.843 191.547 236.305 191.23 236.716C190.922 237.127 190.511 237.449 189.998 237.682C189.485 237.925 188.915 238.046 188.29 238.046ZM188.5 232.334C188.052 232.334 187.655 232.245 187.31 232.068C186.965 231.891 186.694 231.648 186.498 231.34C186.302 231.023 186.204 230.668 186.204 230.276C186.204 229.856 186.311 229.483 186.526 229.156C186.75 228.82 187.049 228.559 187.422 228.372C187.795 228.185 188.215 228.092 188.682 228.092C189.363 228.092 189.914 228.283 190.334 228.666C190.754 229.039 190.964 229.525 190.964 230.122C190.964 230.542 190.857 230.92 190.642 231.256C190.437 231.592 190.147 231.858 189.774 232.054C189.401 232.241 188.976 232.334 188.5 232.334ZM188.64 231.69C188.939 231.69 189.191 231.629 189.396 231.508C189.611 231.387 189.779 231.219 189.9 231.004C190.021 230.789 190.082 230.542 190.082 230.262C190.082 229.814 189.937 229.45 189.648 229.17C189.368 228.881 188.995 228.736 188.528 228.736C188.108 228.736 187.767 228.871 187.506 229.142C187.245 229.403 187.114 229.749 187.114 230.178C187.114 230.467 187.175 230.729 187.296 230.962C187.427 231.186 187.609 231.363 187.842 231.494C188.075 231.625 188.341 231.69 188.64 231.69ZM189.676 228.918L189.536 228.442L191.832 228.302V228.918H189.676ZM193.448 234V228.274L194.4 228.12V234H193.448ZM193.924 226.496C193.728 226.496 193.564 226.435 193.434 226.314C193.312 226.193 193.252 226.034 193.252 225.838C193.252 225.642 193.312 225.483 193.434 225.362C193.564 225.241 193.728 225.18 193.924 225.18C194.129 225.18 194.292 225.241 194.414 225.362C194.535 225.483 194.596 225.642 194.596 225.838C194.596 226.034 194.535 226.193 194.414 226.314C194.292 226.435 194.129 226.496 193.924 226.496ZM201.116 234V230.64C201.116 230.071 200.99 229.632 200.738 229.324C200.486 229.007 200.127 228.848 199.66 228.848C199.418 228.848 199.161 228.899 198.89 229.002C198.629 229.095 198.377 229.245 198.134 229.45C197.901 229.655 197.7 229.921 197.532 230.248L197.21 229.926C197.425 229.506 197.686 229.165 197.994 228.904C198.312 228.633 198.648 228.437 199.002 228.316C199.366 228.185 199.712 228.12 200.038 228.12C200.449 228.12 200.804 228.209 201.102 228.386C201.41 228.554 201.648 228.801 201.816 229.128C201.984 229.455 202.068 229.851 202.068 230.318V234H201.116ZM196.832 234V228.288L197.616 228.12L197.784 229.506V234H196.832ZM210.151 234.112C209.582 234.112 209.073 233.986 208.625 233.734C208.187 233.482 207.837 233.137 207.575 232.698C207.323 232.25 207.197 231.741 207.197 231.172C207.197 230.575 207.333 230.043 207.603 229.576C207.883 229.109 208.261 228.745 208.737 228.484C209.213 228.213 209.75 228.078 210.347 228.078C210.917 228.078 211.421 228.204 211.859 228.456C212.307 228.708 212.657 229.058 212.909 229.506C213.171 229.945 213.301 230.449 213.301 231.018C213.301 231.615 213.166 232.147 212.895 232.614C212.625 233.081 212.251 233.449 211.775 233.72C211.299 233.981 210.758 234.112 210.151 234.112ZM210.277 233.44C210.697 233.44 211.057 233.337 211.355 233.132C211.654 232.917 211.883 232.633 212.041 232.278C212.2 231.923 212.279 231.536 212.279 231.116C212.279 230.631 212.186 230.215 211.999 229.87C211.822 229.515 211.579 229.245 211.271 229.058C210.963 228.862 210.613 228.764 210.221 228.764C209.811 228.764 209.451 228.867 209.143 229.072C208.845 229.268 208.616 229.543 208.457 229.898C208.299 230.243 208.219 230.631 208.219 231.06C208.219 231.545 208.308 231.965 208.485 232.32C208.672 232.675 208.919 232.95 209.227 233.146C209.545 233.342 209.895 233.44 210.277 233.44ZM216.935 234.07C216.356 234.07 215.88 233.879 215.507 233.496C215.143 233.104 214.961 232.567 214.961 231.886V228.288L215.913 228.12V231.578C215.913 232.129 216.034 232.563 216.277 232.88C216.529 233.197 216.879 233.356 217.327 233.356C217.57 233.356 217.817 233.309 218.069 233.216C218.321 233.113 218.559 232.959 218.783 232.754C219.016 232.539 219.208 232.269 219.357 231.942L219.707 232.264C219.502 232.675 219.245 233.015 218.937 233.286C218.638 233.547 218.316 233.743 217.971 233.874C217.626 234.005 217.28 234.07 216.935 234.07ZM219.287 234.084L219.119 232.656V228.288L220.085 228.12V233.916L219.287 234.084ZM222.276 234V228.274L223.06 228.12L223.228 229.59V234H222.276ZM223.06 230.36L222.822 230.01C223.13 229.422 223.48 228.965 223.872 228.638C224.264 228.302 224.707 228.134 225.202 228.134C225.398 228.134 225.584 228.162 225.762 228.218C225.939 228.265 226.093 228.339 226.224 228.442L225.818 229.24C225.715 229.156 225.58 229.091 225.412 229.044C225.253 228.997 225.09 228.974 224.922 228.974C224.558 228.974 224.222 229.095 223.914 229.338C223.615 229.571 223.33 229.912 223.06 230.36ZM235.228 234V230.64C235.228 230.071 235.102 229.632 234.85 229.324C234.598 229.007 234.238 228.848 233.772 228.848C233.529 228.848 233.272 228.899 233.002 229.002C232.74 229.095 232.488 229.245 232.246 229.45C232.012 229.655 231.812 229.921 231.644 230.248L231.322 229.926C231.536 229.506 231.798 229.165 232.106 228.904C232.423 228.633 232.759 228.437 233.114 228.316C233.478 228.185 233.823 228.12 234.15 228.12C234.56 228.12 234.915 228.209 235.214 228.386C235.522 228.554 235.76 228.801 235.928 229.128C236.096 229.455 236.18 229.851 236.18 230.318V234H235.228ZM230.944 234V228.288L231.728 228.12L231.896 229.506V234H230.944ZM240.733 234.126C240.183 234.126 239.697 234.014 239.277 233.79C238.857 233.557 238.526 233.23 238.283 232.81C238.05 232.381 237.933 231.877 237.933 231.298C237.933 230.654 238.064 230.094 238.325 229.618C238.596 229.133 238.955 228.759 239.403 228.498C239.861 228.227 240.374 228.092 240.943 228.092C241.634 228.092 242.152 228.288 242.497 228.68C242.843 229.072 243.015 229.609 243.015 230.29C243.015 230.365 243.011 230.449 243.001 230.542C243.001 230.626 242.997 230.705 242.987 230.78H242.161V230.29C242.161 229.786 242.059 229.408 241.853 229.156C241.648 228.895 241.326 228.764 240.887 228.764C240.477 228.764 240.117 228.867 239.809 229.072C239.501 229.268 239.263 229.543 239.095 229.898C238.927 230.253 238.843 230.677 238.843 231.172C238.843 231.844 239.035 232.381 239.417 232.782C239.8 233.174 240.299 233.37 240.915 233.37C241.233 233.37 241.536 233.314 241.825 233.202C242.115 233.09 242.395 232.908 242.665 232.656L243.015 233.174C242.763 233.407 242.507 233.594 242.245 233.734C241.993 233.874 241.741 233.972 241.489 234.028C241.237 234.093 240.985 234.126 240.733 234.126ZM238.465 230.78L238.591 230.178H242.861V230.78H238.465ZM246.082 234L244.024 228.204H245.06L246.726 233.37H246.446L248.35 228.204H249.218L251.234 233.37L250.968 233.384L252.48 228.204H253.488L251.43 234H250.562L248.574 228.988H248.812L246.936 234H246.082ZM258.621 234.154V228.274L259.573 228.12V234.154C259.573 235.246 259.401 236.109 259.055 236.744C258.71 237.388 258.178 237.822 257.459 238.046L257.235 237.584C257.702 237.351 258.047 236.954 258.271 236.394C258.505 235.843 258.621 235.097 258.621 234.154ZM259.097 226.496C258.901 226.496 258.738 226.435 258.607 226.314C258.486 226.193 258.425 226.034 258.425 225.838C258.425 225.642 258.486 225.483 258.607 225.362C258.738 225.241 258.901 225.18 259.097 225.18C259.303 225.18 259.466 225.241 259.587 225.362C259.709 225.483 259.769 225.642 259.769 225.838C259.769 226.034 259.709 226.193 259.587 226.314C259.466 226.435 259.303 226.496 259.097 226.496ZM264.456 234.112C263.887 234.112 263.378 233.986 262.93 233.734C262.491 233.482 262.141 233.137 261.88 232.698C261.628 232.25 261.502 231.741 261.502 231.172C261.502 230.575 261.637 230.043 261.908 229.576C262.188 229.109 262.566 228.745 263.042 228.484C263.518 228.213 264.055 228.078 264.652 228.078C265.221 228.078 265.725 228.204 266.164 228.456C266.612 228.708 266.962 229.058 267.214 229.506C267.475 229.945 267.606 230.449 267.606 231.018C267.606 231.615 267.471 232.147 267.2 232.614C266.929 233.081 266.556 233.449 266.08 233.72C265.604 233.981 265.063 234.112 264.456 234.112ZM264.582 233.44C265.002 233.44 265.361 233.337 265.66 233.132C265.959 232.917 266.187 232.633 266.346 232.278C266.505 231.923 266.584 231.536 266.584 231.116C266.584 230.631 266.491 230.215 266.304 229.87C266.127 229.515 265.884 229.245 265.576 229.058C265.268 228.862 264.918 228.764 264.526 228.764C264.115 228.764 263.756 228.867 263.448 229.072C263.149 229.268 262.921 229.543 262.762 229.898C262.603 230.243 262.524 230.631 262.524 231.06C262.524 231.545 262.613 231.965 262.79 232.32C262.977 232.675 263.224 232.95 263.532 233.146C263.849 233.342 264.199 233.44 264.582 233.44ZM271.24 234.07C270.661 234.07 270.185 233.879 269.812 233.496C269.448 233.104 269.266 232.567 269.266 231.886V228.288L270.218 228.12V231.578C270.218 232.129 270.339 232.563 270.582 232.88C270.834 233.197 271.184 233.356 271.632 233.356C271.874 233.356 272.122 233.309 272.374 233.216C272.626 233.113 272.864 232.959 273.088 232.754C273.321 232.539 273.512 232.269 273.662 231.942L274.012 232.264C273.806 232.675 273.55 233.015 273.242 233.286C272.943 233.547 272.621 233.743 272.276 233.874C271.93 234.005 271.585 234.07 271.24 234.07ZM273.592 234.084L273.424 232.656V228.288L274.39 228.12V233.916L273.592 234.084ZM276.58 234V228.274L277.364 228.12L277.532 229.59V234H276.58ZM277.364 230.36L277.126 230.01C277.434 229.422 277.784 228.965 278.176 228.638C278.568 228.302 279.012 228.134 279.506 228.134C279.702 228.134 279.889 228.162 280.066 228.218C280.244 228.265 280.398 228.339 280.528 228.442L280.122 229.24C280.02 229.156 279.884 229.091 279.716 229.044C279.558 228.997 279.394 228.974 279.226 228.974C278.862 228.974 278.526 229.095 278.218 229.338C277.92 229.571 277.635 229.912 277.364 230.36ZM286.087 234V230.64C286.087 230.071 285.961 229.632 285.709 229.324C285.457 229.007 285.098 228.848 284.631 228.848C284.388 228.848 284.132 228.899 283.861 229.002C283.6 229.095 283.348 229.245 283.105 229.45C282.872 229.655 282.671 229.921 282.503 230.248L282.181 229.926C282.396 229.506 282.657 229.165 282.965 228.904C283.282 228.633 283.618 228.437 283.973 228.316C284.337 228.185 284.682 228.12 285.009 228.12C285.42 228.12 285.774 228.209 286.073 228.386C286.381 228.554 286.619 228.801 286.787 229.128C286.955 229.455 287.039 229.851 287.039 230.318V234H286.087ZM281.803 234V228.288L282.587 228.12L282.755 229.506V234H281.803ZM291.593 234.126C291.042 234.126 290.557 234.014 290.137 233.79C289.717 233.557 289.385 233.23 289.143 232.81C288.909 232.381 288.793 231.877 288.793 231.298C288.793 230.654 288.923 230.094 289.185 229.618C289.455 229.133 289.815 228.759 290.263 228.498C290.72 228.227 291.233 228.092 291.803 228.092C292.493 228.092 293.011 228.288 293.357 228.68C293.702 229.072 293.875 229.609 293.875 230.29C293.875 230.365 293.87 230.449 293.861 230.542C293.861 230.626 293.856 230.705 293.847 230.78H293.021V230.29C293.021 229.786 292.918 229.408 292.713 229.156C292.507 228.895 292.185 228.764 291.747 228.764C291.336 228.764 290.977 228.867 290.669 229.072C290.361 229.268 290.123 229.543 289.955 229.898C289.787 230.253 289.703 230.677 289.703 231.172C289.703 231.844 289.894 232.381 290.277 232.782C290.659 233.174 291.159 233.37 291.775 233.37C292.092 233.37 292.395 233.314 292.685 233.202C292.974 233.09 293.254 232.908 293.525 232.656L293.875 233.174C293.623 233.407 293.366 233.594 293.105 233.734C292.853 233.874 292.601 233.972 292.349 234.028C292.097 234.093 291.845 234.126 291.593 234.126ZM289.325 230.78L289.451 230.178H293.721V230.78H289.325ZM297.726 234.434L294.884 228.204H295.934L298.16 233.328L297.726 234.434ZM299.756 228.204H300.722L296.732 238.046H295.71L297.782 233.65L299.756 228.204ZM160.236 250.098C159.9 250.098 159.597 250.028 159.326 249.888C159.055 249.748 158.845 249.547 158.696 249.286C158.547 249.025 158.472 248.703 158.472 248.32V244.484L158.794 242.972L159.438 242.846V248.166C159.438 248.567 159.531 248.871 159.718 249.076C159.905 249.281 160.161 249.384 160.488 249.384C160.693 249.384 160.899 249.347 161.104 249.272C161.309 249.197 161.51 249.081 161.706 248.922L161.986 249.384C161.725 249.627 161.44 249.809 161.132 249.93C160.833 250.042 160.535 250.098 160.236 250.098ZM161.678 245.002L157.296 244.988L157.366 244.358L161.72 244.302L161.678 245.002ZM165.82 250.112C165.251 250.112 164.742 249.986 164.294 249.734C163.856 249.482 163.506 249.137 163.244 248.698C162.992 248.25 162.866 247.741 162.866 247.172C162.866 246.575 163.002 246.043 163.272 245.576C163.552 245.109 163.93 244.745 164.406 244.484C164.882 244.213 165.419 244.078 166.016 244.078C166.586 244.078 167.09 244.204 167.528 244.456C167.976 244.708 168.326 245.058 168.578 245.506C168.84 245.945 168.97 246.449 168.97 247.018C168.97 247.615 168.835 248.147 168.564 248.614C168.294 249.081 167.92 249.449 167.444 249.72C166.968 249.981 166.427 250.112 165.82 250.112ZM165.946 249.44C166.366 249.44 166.726 249.337 167.024 249.132C167.323 248.917 167.552 248.633 167.71 248.278C167.869 247.923 167.948 247.536 167.948 247.116C167.948 246.631 167.855 246.215 167.668 245.87C167.491 245.515 167.248 245.245 166.94 245.058C166.632 244.862 166.282 244.764 165.89 244.764C165.48 244.764 165.12 244.867 164.812 245.072C164.514 245.268 164.285 245.543 164.126 245.898C163.968 246.243 163.888 246.631 163.888 247.06C163.888 247.545 163.977 247.965 164.154 248.32C164.341 248.675 164.588 248.95 164.896 249.146C165.214 249.342 165.564 249.44 165.946 249.44ZM172.492 254.046C172.025 254.046 171.605 253.976 171.232 253.836C170.868 253.696 170.579 253.495 170.364 253.234C170.159 252.982 170.056 252.683 170.056 252.338C170.056 251.899 170.243 251.461 170.616 251.022C170.999 250.593 171.577 250.215 172.352 249.888L172.632 250.21C172.081 250.49 171.675 250.793 171.414 251.12C171.162 251.456 171.036 251.797 171.036 252.142C171.036 252.543 171.19 252.856 171.498 253.08C171.815 253.304 172.226 253.416 172.73 253.416C173.15 253.416 173.528 253.337 173.864 253.178C174.209 253.019 174.48 252.805 174.676 252.534C174.881 252.263 174.984 251.96 174.984 251.624C174.984 251.325 174.905 251.106 174.746 250.966C174.597 250.826 174.363 250.723 174.046 250.658C173.729 250.593 173.313 250.532 172.8 250.476C172.389 250.439 172.007 250.383 171.652 250.308C171.297 250.233 171.013 250.117 170.798 249.958C170.583 249.79 170.476 249.561 170.476 249.272C170.476 249.039 170.527 248.833 170.63 248.656C170.742 248.479 170.896 248.315 171.092 248.166C171.297 248.007 171.535 247.853 171.806 247.704L172.17 248.04C171.937 248.171 171.731 248.311 171.554 248.46C171.386 248.6 171.302 248.768 171.302 248.964C171.302 249.141 171.372 249.281 171.512 249.384C171.661 249.477 171.885 249.552 172.184 249.608C172.483 249.655 172.856 249.701 173.304 249.748C173.817 249.804 174.27 249.879 174.662 249.972C175.054 250.056 175.357 250.201 175.572 250.406C175.796 250.611 175.908 250.919 175.908 251.33C175.908 251.843 175.749 252.305 175.432 252.716C175.124 253.127 174.713 253.449 174.2 253.682C173.687 253.925 173.117 254.046 172.492 254.046ZM172.702 248.334C172.254 248.334 171.857 248.245 171.512 248.068C171.167 247.891 170.896 247.648 170.7 247.34C170.504 247.023 170.406 246.668 170.406 246.276C170.406 245.856 170.513 245.483 170.728 245.156C170.952 244.82 171.251 244.559 171.624 244.372C171.997 244.185 172.417 244.092 172.884 244.092C173.565 244.092 174.116 244.283 174.536 244.666C174.956 245.039 175.166 245.525 175.166 246.122C175.166 246.542 175.059 246.92 174.844 247.256C174.639 247.592 174.349 247.858 173.976 248.054C173.603 248.241 173.178 248.334 172.702 248.334ZM172.842 247.69C173.141 247.69 173.393 247.629 173.598 247.508C173.813 247.387 173.981 247.219 174.102 247.004C174.223 246.789 174.284 246.542 174.284 246.262C174.284 245.814 174.139 245.45 173.85 245.17C173.57 244.881 173.197 244.736 172.73 244.736C172.31 244.736 171.969 244.871 171.708 245.142C171.447 245.403 171.316 245.749 171.316 246.178C171.316 246.467 171.377 246.729 171.498 246.962C171.629 247.186 171.811 247.363 172.044 247.494C172.277 247.625 172.543 247.69 172.842 247.69ZM173.878 244.918L173.738 244.442L176.034 244.302V244.918H173.878ZM179.695 250.126C179.145 250.126 178.659 250.014 178.239 249.79C177.819 249.557 177.488 249.23 177.245 248.81C177.012 248.381 176.895 247.877 176.895 247.298C176.895 246.654 177.026 246.094 177.287 245.618C177.558 245.133 177.917 244.759 178.365 244.498C178.823 244.227 179.336 244.092 179.905 244.092C180.596 244.092 181.114 244.288 181.459 244.68C181.805 245.072 181.977 245.609 181.977 246.29C181.977 246.365 181.973 246.449 181.963 246.542C181.963 246.626 181.959 246.705 181.949 246.78H181.123V246.29C181.123 245.786 181.021 245.408 180.815 245.156C180.61 244.895 180.288 244.764 179.849 244.764C179.439 244.764 179.079 244.867 178.771 245.072C178.463 245.268 178.225 245.543 178.057 245.898C177.889 246.253 177.805 246.677 177.805 247.172C177.805 247.844 177.997 248.381 178.379 248.782C178.762 249.174 179.261 249.37 179.877 249.37C180.195 249.37 180.498 249.314 180.787 249.202C181.077 249.09 181.357 248.908 181.627 248.656L181.977 249.174C181.725 249.407 181.469 249.594 181.207 249.734C180.955 249.874 180.703 249.972 180.451 250.028C180.199 250.093 179.947 250.126 179.695 250.126ZM177.427 246.78L177.553 246.178H181.823V246.78H177.427ZM185.898 250.098C185.562 250.098 185.259 250.028 184.988 249.888C184.717 249.748 184.507 249.547 184.358 249.286C184.209 249.025 184.134 248.703 184.134 248.32V244.484L184.456 242.972L185.1 242.846V248.166C185.1 248.567 185.193 248.871 185.38 249.076C185.567 249.281 185.823 249.384 186.15 249.384C186.355 249.384 186.561 249.347 186.766 249.272C186.971 249.197 187.172 249.081 187.368 248.922L187.648 249.384C187.387 249.627 187.102 249.809 186.794 249.93C186.495 250.042 186.197 250.098 185.898 250.098ZM187.34 245.002L182.958 244.988L183.028 244.358L187.382 244.302L187.34 245.002ZM193.344 250V246.64C193.344 246.071 193.218 245.632 192.966 245.324C192.714 245.007 192.355 244.848 191.888 244.848C191.646 244.848 191.389 244.899 191.118 245.002C190.857 245.095 190.61 245.245 190.376 245.45C190.143 245.655 189.942 245.921 189.774 246.248L189.438 245.926C189.653 245.506 189.914 245.165 190.222 244.904C190.54 244.633 190.876 244.437 191.23 244.316C191.594 244.185 191.944 244.12 192.28 244.12C192.878 244.12 193.363 244.316 193.736 244.708C194.11 245.091 194.296 245.627 194.296 246.318V250H193.344ZM189.116 250V240.144L190.054 239.962V250H189.116ZM198.891 250.126C198.34 250.126 197.855 250.014 197.435 249.79C197.015 249.557 196.683 249.23 196.441 248.81C196.207 248.381 196.091 247.877 196.091 247.298C196.091 246.654 196.221 246.094 196.483 245.618C196.753 245.133 197.113 244.759 197.561 244.498C198.018 244.227 198.531 244.092 199.101 244.092C199.791 244.092 200.309 244.288 200.655 244.68C201 245.072 201.173 245.609 201.173 246.29C201.173 246.365 201.168 246.449 201.159 246.542C201.159 246.626 201.154 246.705 201.145 246.78H200.319V246.29C200.319 245.786 200.216 245.408 200.011 245.156C199.805 244.895 199.483 244.764 199.045 244.764C198.634 244.764 198.275 244.867 197.967 245.072C197.659 245.268 197.421 245.543 197.253 245.898C197.085 246.253 197.001 246.677 197.001 247.172C197.001 247.844 197.192 248.381 197.575 248.782C197.957 249.174 198.457 249.37 199.073 249.37C199.39 249.37 199.693 249.314 199.983 249.202C200.272 249.09 200.552 248.908 200.823 248.656L201.173 249.174C200.921 249.407 200.664 249.594 200.403 249.734C200.151 249.874 199.899 249.972 199.647 250.028C199.395 250.093 199.143 250.126 198.891 250.126ZM196.623 246.78L196.749 246.178H201.019V246.78H196.623ZM202.909 250V244.274L203.693 244.12L203.861 245.59V250H202.909ZM203.693 246.36L203.455 246.01C203.763 245.422 204.113 244.965 204.505 244.638C204.897 244.302 205.341 244.134 205.835 244.134C206.031 244.134 206.218 244.162 206.395 244.218C206.573 244.265 206.727 244.339 206.857 244.442L206.451 245.24C206.349 245.156 206.213 245.091 206.045 245.044C205.887 244.997 205.723 244.974 205.555 244.974C205.191 244.974 204.855 245.095 204.547 245.338C204.249 245.571 203.964 245.912 203.693 246.36Z" fill="#1A1A1A"/>
</svg>
