<svg width="37" height="12" viewBox="0 0 37 12" fill="none" xmlns="http://www.w3.org/2000/svg">
<path fill-rule="evenodd" clip-rule="evenodd" d="M33.1378 5.63005C26.798 3.95401 23.4459 -0.709756 24.9762 0.0918287C28.7655 2.56945 32.7735 4.39124 37 5.70292C32.9192 7.37896 28.9842 9.12787 25.1948 11.4598C23.7374 12.48 28.0368 7.74332 33.3564 5.99441C22.4257 6.79599 11.3493 6.86886 0.272855 6.06728C-0.0186308 6.14015 -0.0915021 5.92153 0.127112 5.84866C10.9849 4.97421 21.9885 4.90134 33.1378 5.63005Z" fill="#75171E"/>
<path fill-rule="evenodd" clip-rule="evenodd" d="M33.1378 5.63005C26.798 3.95401 23.4459 -0.709756 24.9762 0.0918287C28.7655 2.56945 32.7735 4.39124 37 5.70292C32.9192 7.37896 28.9842 9.12787 25.1948 11.4598C23.7374 12.48 28.0368 7.74332 33.3564 5.99441C22.4257 6.79599 11.3493 6.86886 0.272855 6.06728C-0.0186308 6.14015 -0.0915021 5.92153 0.127112 5.84866C10.9849 4.97421 21.9885 4.90134 33.1378 5.63005Z" fill="black" fill-opacity="0.2"/>
</svg>
