<svg width="1423" height="1081" viewBox="0 0 1423 1081" fill="none" xmlns="http://www.w3.org/2000/svg">
<g opacity="0.04">
<path d="M186.902 316.33C186.601 318.14 186.299 319.649 185.997 320.855H9.05316e-05V317.688C5.73237 316.179 10.107 312.86 13.124 307.732C16.4427 302.603 18.102 295.211 18.102 285.557V39.3706C18.102 29.7163 16.4427 22.3246 13.124 17.1958C10.107 12.0669 5.73237 8.74821 9.05316e-05 7.23971V4.07187H175.136L188.713 78.7423C187.808 79.3457 186.902 79.9491 185.997 80.5525C185.092 80.8542 184.036 81.3067 182.829 81.9101C181.924 78.2897 180.718 72.5575 179.209 64.7133C177.701 56.8691 174.684 49.025 170.158 41.1808C165.633 33.0349 158.995 26.0959 150.246 20.3636C141.497 14.3296 129.731 11.3126 114.947 11.3126H56.116V150.245H103.181C107.707 150.245 111.779 149.189 115.4 147.077C119.322 144.965 122.641 142.401 125.356 139.384C128.071 136.065 130.183 132.595 131.692 128.975C133.502 125.355 134.709 121.885 135.312 118.567H138.027V188.711H135.312C134.709 185.694 133.502 182.376 131.692 178.755C130.183 175.135 128.071 171.816 125.356 168.799C122.641 165.481 119.322 162.765 115.4 160.653C111.779 158.542 107.707 157.486 103.181 157.486H56.116V313.615H114.495C129.278 313.615 141.497 310.447 151.151 304.111C161.107 297.776 169.102 290.233 175.136 281.484C181.17 272.433 185.696 263.08 188.713 253.426C191.73 243.47 193.992 235.022 195.501 228.083C196.406 228.687 197.462 229.29 198.669 229.893C199.875 230.195 200.781 230.648 201.384 231.251C197.764 252.068 195.048 268.209 193.238 279.674L186.902 316.33ZM353.051 308.184C356.068 313.615 360.594 316.33 366.628 316.33V320.855H291.957V317.688C297.689 316.179 302.215 312.86 305.534 307.732C308.852 302.603 310.512 295.211 310.512 285.557V11.3126C298.142 11.3126 286.979 11.6143 277.023 12.2177C267.067 12.8211 258.167 15.2347 250.323 19.4585C242.78 23.6823 236.143 30.6214 230.411 40.2757C224.98 49.9301 220.605 63.8082 217.287 81.9101C216.08 81.3067 215.024 80.7033 214.119 80.0999C213.214 79.4965 212.309 78.8931 211.404 78.2897C213.817 64.7133 216.08 52.4945 218.192 41.6333C219.7 32.2807 221.209 23.8331 222.717 16.2907C224.226 8.44649 224.98 4.37356 224.98 4.07187H433.605C433.605 4.37356 434.208 8.29565 435.415 15.8381C436.923 23.3806 438.583 31.8281 440.393 41.1808C442.203 52.042 444.466 64.4116 447.181 78.2897C446.276 78.8931 445.371 79.4965 444.466 80.0999C443.561 80.7033 442.505 81.3067 441.298 81.9101C437.678 63.2048 432.85 49.025 426.816 39.3706C421.084 29.7163 414.296 22.7772 406.452 18.5534C398.608 14.3296 389.708 12.0669 379.751 11.7652C369.795 11.4635 359.236 11.3126 348.073 11.3126V285.557C348.073 295.211 349.732 302.754 353.051 308.184ZM650.941 316.33C650.639 318.14 650.337 319.649 650.036 320.855H464.039V317.688C469.771 316.179 474.145 312.86 477.162 307.732C480.481 302.603 482.14 295.211 482.14 285.557V39.3706C482.14 29.7163 480.481 22.3246 477.162 17.1958C474.145 12.0669 469.771 8.74821 464.039 7.23971V4.07187H639.175L652.751 78.7423C651.846 79.3457 650.941 79.9491 650.036 80.5525C649.131 80.8542 648.075 81.3067 646.868 81.9101C645.963 78.2897 644.756 72.5575 643.248 64.7133C641.739 56.8691 638.722 49.025 634.197 41.1808C629.671 33.0349 623.034 26.0959 614.284 20.3636C605.535 14.3296 593.769 11.3126 578.986 11.3126H520.154V150.245H567.219C571.745 150.245 575.818 149.189 579.438 147.077C583.36 144.965 586.679 142.401 589.394 139.384C592.11 136.065 594.222 132.595 595.73 128.975C597.54 125.355 598.747 121.885 599.35 118.567H602.066V188.711H599.35C598.747 185.694 597.54 182.376 595.73 178.755C594.222 175.135 592.11 171.816 589.394 168.799C586.679 165.481 583.36 162.765 579.438 160.653C575.818 158.542 571.745 157.486 567.219 157.486H520.154V313.615H578.533C593.316 313.615 605.535 310.447 615.19 304.111C625.146 297.776 633.141 290.233 639.175 281.484C645.209 272.433 649.734 263.08 652.751 253.426C655.768 243.47 658.031 235.022 659.539 228.083C660.444 228.687 661.5 229.29 662.707 229.893C663.914 230.195 664.819 230.648 665.422 231.251C661.802 252.068 659.087 268.209 657.277 279.674L650.941 316.33ZM748.755 307.732C751.772 312.86 756.146 316.179 761.879 317.688V320.855H687.661V317.688C693.393 316.179 697.768 312.86 700.785 307.732C704.103 302.603 705.763 295.211 705.763 285.557V39.8232C705.763 29.8671 704.103 22.3246 700.785 17.1958C697.768 12.0669 693.393 8.74821 687.661 7.23971V4.07187H797.63C810.301 4.07187 821.917 6.03291 832.476 9.95499C843.036 13.5754 852.237 19.1568 860.082 26.6993C867.926 34.2417 873.96 43.8961 878.184 55.6623C882.709 67.4286 884.972 81.1559 884.972 96.8442C884.972 111.326 883.162 123.997 879.541 134.858C875.921 145.418 870.943 154.318 864.607 161.559C858.271 168.799 850.729 174.532 841.98 178.755C833.23 182.677 823.878 185.242 813.922 186.449C822.973 189.466 830.364 193.539 836.097 198.668C842.131 203.796 847.109 210.283 851.031 218.127C855.254 225.67 858.875 234.419 861.892 244.375C865.211 254.331 868.68 265.494 872.3 277.863C875.619 287.819 879.994 296.569 885.424 304.111C891.157 311.654 897.04 316.179 903.074 317.688V320.855H820.71V317.688C824.934 316.481 828.554 314.067 831.571 310.447C834.588 306.525 836.097 302.452 836.097 298.228C836.097 296.116 835.795 294.004 835.192 291.892C831.269 273.489 827.8 257.65 824.783 244.375C821.766 231.1 818.447 220.39 814.827 212.244C811.206 203.796 806.832 197.612 801.703 193.689C796.574 189.767 790.088 187.806 782.243 187.806H743.777V285.557C743.777 295.211 745.436 302.603 748.755 307.732ZM743.777 181.471H801.25C805.776 181.471 810.452 180.113 815.279 177.398C820.408 174.381 825.085 169.704 829.308 163.369C833.532 156.731 837.002 147.982 839.717 137.121C842.734 126.26 844.242 112.834 844.242 96.8442C844.242 79.9491 842.734 65.9201 839.717 54.7573C837.002 43.5944 833.381 34.8451 828.856 28.5095C824.33 21.8721 819.352 17.1958 813.922 14.4805C808.491 11.7652 803.061 10.4075 797.63 10.4075H743.777V181.471ZM949.096 307.732C952.414 312.86 956.94 316.179 962.672 317.688V320.855H918.775V317.688C924.507 316.179 928.882 312.86 931.899 307.732C935.218 302.603 936.877 295.06 936.877 285.104V39.3706C936.877 29.7163 935.218 22.3246 931.899 17.1958C928.882 12.0669 924.507 8.74821 918.775 7.23971V4.07187H965.84L1129.21 265.192V39.3706C1129.21 29.7163 1127.55 22.3246 1124.23 17.1958C1120.91 12.0669 1116.54 8.74821 1111.11 7.23971V4.07187H1154.55V7.23971C1148.82 8.74821 1144.29 12.0669 1140.98 17.1958C1137.96 22.3246 1136.45 29.7163 1136.45 39.3706V320.855H1126.04L944.118 29.8671V285.104C944.118 295.06 945.777 302.603 949.096 307.732ZM1212.96 321.308C1207.22 321.308 1201.19 321.308 1194.85 321.308C1188.52 321.308 1182.79 321.157 1177.66 320.855C1172.83 320.252 1170.42 319.196 1170.42 317.688C1175.85 316.179 1181.28 313.464 1186.71 309.542C1192.44 305.62 1197.27 297.926 1201.19 286.462L1280.84 45.2537L1277.22 34.8451C1279.33 33.6383 1281.89 31.6773 1284.91 28.962C1288.23 26.2467 1291.4 23.2297 1294.41 19.9111C1297.43 16.2907 1300.15 12.8211 1302.56 9.50245C1305.28 5.88206 1307.09 2.71422 1307.99 -0.00106765L1395.33 286.009C1396.84 291.44 1398.65 295.965 1400.76 299.586C1403.18 303.206 1405.59 306.374 1408 309.089C1410.72 311.503 1413.28 313.615 1415.7 315.425C1418.41 317.235 1420.83 319.045 1422.94 320.855H1337.86V317.688C1342.38 316.481 1346.31 314.369 1349.63 311.352C1353.25 308.335 1355.06 303.659 1355.06 297.323C1355.06 292.797 1354.3 287.518 1352.79 281.484C1351.28 275.148 1349.32 268.209 1346.91 260.667C1344.5 253.124 1341.78 245.28 1338.76 237.134C1336.05 228.687 1333.48 220.39 1331.07 212.244H1234.23L1208.88 289.177C1207.37 294.306 1206.62 297.926 1206.62 300.038C1206.62 303.659 1207.22 306.374 1208.43 308.184C1209.64 309.994 1211.15 311.654 1212.96 313.162C1214.77 314.369 1216.58 315.576 1218.39 316.783C1220.5 317.688 1222.31 319.045 1223.82 320.855C1222.31 320.855 1218.69 321.006 1212.96 321.308ZM1236.94 205.003H1328.81C1325.19 192.935 1321.27 180.264 1317.04 166.989C1313.12 153.714 1309.2 140.591 1305.28 127.617C1301.35 114.343 1297.58 101.671 1293.96 89.6034C1290.34 77.2338 1287.02 66.0709 1284.01 56.1149L1236.94 205.003ZM206.362 642.112C207.267 643.017 208.172 643.922 209.077 644.827L195.953 720.855H9.05316e-05V717.688C5.73237 716.179 10.107 712.86 13.124 707.732C16.4427 702.603 18.102 695.211 18.102 685.557V439.823C18.102 429.867 16.4427 422.325 13.124 417.196C10.107 412.067 5.73237 408.748 9.05316e-05 407.24V404.072H74.218V407.24C68.4857 408.748 63.9602 412.067 60.6415 417.196C57.6245 422.325 56.116 429.867 56.116 439.823V716.33H125.356C140.441 716.33 152.81 713.162 162.465 706.826C172.119 700.189 179.812 692.647 185.545 684.199C191.579 675.45 195.803 666.851 198.216 658.404C200.931 649.956 202.591 643.771 203.194 639.849C204.401 640.754 205.457 641.509 206.362 642.112ZM432.194 642.112C433.099 643.017 434.004 643.922 434.909 644.827L421.785 720.855H225.832V717.688C231.564 716.179 235.939 712.86 238.956 707.732C242.275 702.603 243.934 695.211 243.934 685.557V439.823C243.934 429.867 242.275 422.325 238.956 417.196C235.939 412.067 231.564 408.748 225.832 407.24V404.072H300.05V407.24C294.318 408.748 289.792 412.067 286.474 417.196C283.457 422.325 281.948 429.867 281.948 439.823V716.33H351.188C366.273 716.33 378.643 713.162 388.297 706.826C397.951 700.189 405.645 692.647 411.377 684.199C417.411 675.45 421.635 666.851 424.048 658.404C426.763 649.956 428.423 643.771 429.026 639.849C430.233 640.754 431.289 641.509 432.194 642.112ZM581.998 713.162C584.412 715.274 587.579 716.33 591.502 716.33V720.855H517.284V717.688C525.43 715.576 530.408 711.201 532.218 704.564C534.028 697.926 534.933 690.686 534.933 682.841V576.04L469.766 442.086C468.559 439.672 466.749 436.504 464.336 432.582C462.224 428.66 459.81 424.889 457.095 421.269C454.379 417.347 451.362 414.028 448.044 411.313C445.027 408.597 442.161 407.24 439.445 407.24V404.072H513.211V407.24C508.384 409.352 505.367 412.218 504.16 415.838C502.953 419.157 502.35 421.872 502.35 423.984C502.35 427.604 503.406 431.677 505.517 436.203L569.779 568.347C577.623 552.055 584.412 538.026 590.144 526.26C595.876 514.192 600.703 504.085 604.625 495.939C608.547 487.492 611.564 480.854 613.676 476.027C616.09 470.898 617.749 466.976 618.654 464.261C621.973 454.003 623.632 447.064 623.632 443.444C623.934 439.521 624.085 437.41 624.085 437.108C624.085 430.772 623.18 425.492 621.37 421.269C619.559 417.045 617.146 413.877 614.129 411.765C611.112 409.352 608.246 407.843 605.53 407.24V404.072H676.128V407.24C670.094 408.748 664.663 411.765 659.836 416.291C655.009 420.514 650.484 425.492 646.26 431.225C642.036 436.655 638.114 442.689 634.494 449.327C631.175 455.662 628.158 461.696 625.443 467.429L573.852 576.04V683.747C573.852 687.367 574.003 691.138 574.305 695.06C574.606 698.982 575.361 702.603 576.567 705.921C577.774 708.938 579.584 711.352 581.998 713.162ZM151.151 1115.88C139.988 1119.2 127.769 1120.86 114.495 1120.86H9.05316e-05V1117.69C5.73237 1116.18 10.107 1112.86 13.124 1107.73C16.4427 1102.6 18.102 1095.21 18.102 1085.56V839.371C18.102 829.716 16.4427 822.325 13.124 817.196C10.107 812.067 5.73237 808.748 9.05316e-05 807.24V804.072H107.707C119.774 804.072 130.786 805.731 140.743 809.05C151 812.067 159.9 816.894 167.443 823.531C174.985 829.867 180.868 838.013 185.092 847.969C189.316 857.623 191.428 869.239 191.428 882.815C191.428 904.538 186.45 921.282 176.494 933.048C166.538 944.513 153.565 952.357 137.575 956.581C157.487 960.201 173.779 968.648 186.45 981.923C199.423 995.198 205.909 1014.05 205.909 1038.49C205.909 1052.97 203.647 1065.34 199.121 1075.6C194.596 1085.86 188.26 1094.46 180.114 1101.4C171.968 1108.03 162.314 1112.86 151.151 1115.88ZM56.116 954.77H97.7505C102.578 954.77 108.159 954.167 114.495 952.96C120.83 951.753 126.714 948.887 132.144 944.362C137.876 939.535 142.704 932.294 146.626 922.639C150.548 912.985 152.509 899.71 152.509 882.815C152.509 869.239 150.548 857.925 146.626 848.874C142.704 839.521 137.876 832.13 132.144 826.699C126.714 821.269 120.83 817.347 114.495 814.933C108.461 812.519 103.181 811.313 98.6555 811.313H56.116V954.77ZM56.116 1113.61H104.539C109.366 1113.61 115.249 1112.86 122.188 1111.35C129.429 1109.84 136.368 1106.52 143.005 1101.4C149.643 1095.97 155.224 1088.42 159.75 1078.77C164.577 1068.81 166.99 1055.39 166.99 1038.49C166.99 1023.11 164.577 1010.43 159.75 1000.48C155.224 990.22 149.643 982.225 143.005 976.493C136.368 970.459 129.429 966.386 122.188 964.274C115.249 961.86 109.366 960.653 104.539 960.653H56.116V1113.61ZM420.689 1116.33C420.388 1118.14 420.086 1119.65 419.784 1120.86H233.787V1117.69C239.519 1116.18 243.894 1112.86 246.911 1107.73C250.23 1102.6 251.889 1095.21 251.889 1085.56V839.371C251.889 829.716 250.23 822.325 246.911 817.196C243.894 812.067 239.519 808.748 233.787 807.24V804.072H408.923L422.5 878.742C421.594 879.346 420.689 879.949 419.784 880.552C418.879 880.854 417.823 881.307 416.616 881.91C415.711 878.29 414.505 872.557 412.996 864.713C411.488 856.869 408.471 849.025 403.945 841.181C399.42 833.035 392.782 826.096 384.033 820.364C375.284 814.33 363.518 811.313 348.734 811.313H289.903V950.245H336.968C341.493 950.245 345.566 949.189 349.187 947.077C353.109 944.965 356.428 942.401 359.143 939.384C361.858 936.065 363.97 932.595 365.479 928.975C367.289 925.355 368.496 921.885 369.099 918.567H371.814V988.711H369.099C368.496 985.694 367.289 982.376 365.479 978.755C363.97 975.135 361.858 971.816 359.143 968.799C356.428 965.481 353.109 962.765 349.187 960.653C345.566 958.542 341.493 957.486 336.968 957.486H289.903V1113.61H348.282C363.065 1113.61 375.284 1110.45 384.938 1104.11C394.894 1097.78 402.889 1090.23 408.923 1081.48C414.957 1072.43 419.483 1063.08 422.5 1053.43C425.517 1043.47 427.779 1035.02 429.288 1028.08C430.193 1028.69 431.249 1029.29 432.456 1029.89C433.662 1030.2 434.568 1030.65 435.171 1031.25C431.551 1052.07 428.835 1068.21 427.025 1079.67L420.689 1116.33ZM486.825 1107.73C490.144 1112.86 494.669 1116.18 500.401 1117.69V1120.86H456.504V1117.69C462.237 1116.18 466.611 1112.86 469.628 1107.73C472.947 1102.6 474.606 1095.06 474.606 1085.1V839.371C474.606 829.716 472.947 822.325 469.628 817.196C466.611 812.067 462.237 808.748 456.504 807.24V804.072H503.569L666.939 1065.19V839.371C666.939 829.716 665.28 822.325 661.961 817.196C658.642 812.067 654.268 808.748 648.837 807.24V804.072H692.282V807.24C686.55 808.748 682.024 812.067 678.705 817.196C675.688 822.325 674.18 829.716 674.18 839.371V1120.86H663.771L481.847 829.867V1085.1C481.847 1095.06 483.506 1102.6 486.825 1107.73ZM749.78 1107.73C753.099 1112.86 757.624 1116.18 763.357 1117.69V1120.86H719.459V1117.69C725.192 1116.18 729.566 1112.86 732.583 1107.73C735.902 1102.6 737.561 1095.06 737.561 1085.1V839.371C737.561 829.716 735.902 822.325 732.583 817.196C729.566 812.067 725.192 808.748 719.459 807.24V804.072H766.524L929.894 1065.19V839.371C929.894 829.716 928.235 822.325 924.916 817.196C921.598 812.067 917.223 808.748 911.792 807.24V804.072H955.237V807.24C949.505 808.748 944.979 812.067 941.661 817.196C938.644 822.325 937.135 829.716 937.135 839.371V1120.86H926.726L744.802 829.867V1085.1C744.802 1095.06 746.461 1102.6 749.78 1107.73ZM1013.64 1121.31C1007.91 1121.31 1001.87 1121.31 995.538 1121.31C989.203 1121.31 983.471 1121.16 978.342 1120.86C973.514 1120.25 971.101 1119.2 971.101 1117.69C976.531 1116.18 981.962 1113.46 987.393 1109.54C993.125 1105.62 997.952 1097.93 1001.87 1086.46L1081.52 845.254L1077.9 834.845C1080.01 833.638 1082.58 831.677 1085.6 828.962C1088.91 826.247 1092.08 823.23 1095.1 819.911C1098.12 816.291 1100.83 812.821 1103.24 809.502C1105.96 805.882 1107.77 802.714 1108.68 799.999L1196.02 1086.01C1197.53 1091.44 1199.34 1095.97 1201.45 1099.59C1203.86 1103.21 1206.27 1106.37 1208.69 1109.09C1211.4 1111.5 1213.97 1113.61 1216.38 1115.42C1219.1 1117.24 1221.51 1119.05 1223.62 1120.86H1138.54V1117.69C1143.07 1116.48 1146.99 1114.37 1150.31 1111.35C1153.93 1108.33 1155.74 1103.66 1155.74 1097.32C1155.74 1092.8 1154.99 1087.52 1153.48 1081.48C1151.97 1075.15 1150.01 1068.21 1147.59 1060.67C1145.18 1053.12 1142.47 1045.28 1139.45 1037.13C1136.73 1028.69 1134.17 1020.39 1131.76 1012.24H1034.91L1009.57 1089.18C1008.06 1094.31 1007.3 1097.93 1007.3 1100.04C1007.3 1103.66 1007.91 1106.37 1009.11 1108.18C1010.32 1109.99 1011.83 1111.65 1013.64 1113.16C1015.45 1114.37 1017.26 1115.58 1019.07 1116.78C1021.18 1117.69 1022.99 1119.05 1024.5 1120.86C1022.99 1120.86 1019.37 1121.01 1013.64 1121.31ZM1037.63 1005H1129.49C1125.87 992.935 1121.95 980.264 1117.73 966.989C1113.8 953.714 1109.88 940.591 1105.96 927.617C1102.04 914.343 1098.27 901.671 1094.65 889.603C1091.03 877.234 1087.71 866.071 1084.69 856.115L1037.63 1005Z" fill="#75171E"/>
<path d="M186.902 316.33C186.601 318.14 186.299 319.649 185.997 320.855H9.05316e-05V317.688C5.73237 316.179 10.107 312.86 13.124 307.732C16.4427 302.603 18.102 295.211 18.102 285.557V39.3706C18.102 29.7163 16.4427 22.3246 13.124 17.1958C10.107 12.0669 5.73237 8.74821 9.05316e-05 7.23971V4.07187H175.136L188.713 78.7423C187.808 79.3457 186.902 79.9491 185.997 80.5525C185.092 80.8542 184.036 81.3067 182.829 81.9101C181.924 78.2897 180.718 72.5575 179.209 64.7133C177.701 56.8691 174.684 49.025 170.158 41.1808C165.633 33.0349 158.995 26.0959 150.246 20.3636C141.497 14.3296 129.731 11.3126 114.947 11.3126H56.116V150.245H103.181C107.707 150.245 111.779 149.189 115.4 147.077C119.322 144.965 122.641 142.401 125.356 139.384C128.071 136.065 130.183 132.595 131.692 128.975C133.502 125.355 134.709 121.885 135.312 118.567H138.027V188.711H135.312C134.709 185.694 133.502 182.376 131.692 178.755C130.183 175.135 128.071 171.816 125.356 168.799C122.641 165.481 119.322 162.765 115.4 160.653C111.779 158.542 107.707 157.486 103.181 157.486H56.116V313.615H114.495C129.278 313.615 141.497 310.447 151.151 304.111C161.107 297.776 169.102 290.233 175.136 281.484C181.17 272.433 185.696 263.08 188.713 253.426C191.73 243.47 193.992 235.022 195.501 228.083C196.406 228.687 197.462 229.29 198.669 229.893C199.875 230.195 200.781 230.648 201.384 231.251C197.764 252.068 195.048 268.209 193.238 279.674L186.902 316.33ZM353.051 308.184C356.068 313.615 360.594 316.33 366.628 316.33V320.855H291.957V317.688C297.689 316.179 302.215 312.86 305.534 307.732C308.852 302.603 310.512 295.211 310.512 285.557V11.3126C298.142 11.3126 286.979 11.6143 277.023 12.2177C267.067 12.8211 258.167 15.2347 250.323 19.4585C242.78 23.6823 236.143 30.6214 230.411 40.2757C224.98 49.9301 220.605 63.8082 217.287 81.9101C216.08 81.3067 215.024 80.7033 214.119 80.0999C213.214 79.4965 212.309 78.8931 211.404 78.2897C213.817 64.7133 216.08 52.4945 218.192 41.6333C219.7 32.2807 221.209 23.8331 222.717 16.2907C224.226 8.44649 224.98 4.37356 224.98 4.07187H433.605C433.605 4.37356 434.208 8.29565 435.415 15.8381C436.923 23.3806 438.583 31.8281 440.393 41.1808C442.203 52.042 444.466 64.4116 447.181 78.2897C446.276 78.8931 445.371 79.4965 444.466 80.0999C443.561 80.7033 442.505 81.3067 441.298 81.9101C437.678 63.2048 432.85 49.025 426.816 39.3706C421.084 29.7163 414.296 22.7772 406.452 18.5534C398.608 14.3296 389.708 12.0669 379.751 11.7652C369.795 11.4635 359.236 11.3126 348.073 11.3126V285.557C348.073 295.211 349.732 302.754 353.051 308.184ZM650.941 316.33C650.639 318.14 650.337 319.649 650.036 320.855H464.039V317.688C469.771 316.179 474.145 312.86 477.162 307.732C480.481 302.603 482.14 295.211 482.14 285.557V39.3706C482.14 29.7163 480.481 22.3246 477.162 17.1958C474.145 12.0669 469.771 8.74821 464.039 7.23971V4.07187H639.175L652.751 78.7423C651.846 79.3457 650.941 79.9491 650.036 80.5525C649.131 80.8542 648.075 81.3067 646.868 81.9101C645.963 78.2897 644.756 72.5575 643.248 64.7133C641.739 56.8691 638.722 49.025 634.197 41.1808C629.671 33.0349 623.034 26.0959 614.284 20.3636C605.535 14.3296 593.769 11.3126 578.986 11.3126H520.154V150.245H567.219C571.745 150.245 575.818 149.189 579.438 147.077C583.36 144.965 586.679 142.401 589.394 139.384C592.11 136.065 594.222 132.595 595.73 128.975C597.54 125.355 598.747 121.885 599.35 118.567H602.066V188.711H599.35C598.747 185.694 597.54 182.376 595.73 178.755C594.222 175.135 592.11 171.816 589.394 168.799C586.679 165.481 583.36 162.765 579.438 160.653C575.818 158.542 571.745 157.486 567.219 157.486H520.154V313.615H578.533C593.316 313.615 605.535 310.447 615.19 304.111C625.146 297.776 633.141 290.233 639.175 281.484C645.209 272.433 649.734 263.08 652.751 253.426C655.768 243.47 658.031 235.022 659.539 228.083C660.444 228.687 661.5 229.29 662.707 229.893C663.914 230.195 664.819 230.648 665.422 231.251C661.802 252.068 659.087 268.209 657.277 279.674L650.941 316.33ZM748.755 307.732C751.772 312.86 756.146 316.179 761.879 317.688V320.855H687.661V317.688C693.393 316.179 697.768 312.86 700.785 307.732C704.103 302.603 705.763 295.211 705.763 285.557V39.8232C705.763 29.8671 704.103 22.3246 700.785 17.1958C697.768 12.0669 693.393 8.74821 687.661 7.23971V4.07187H797.63C810.301 4.07187 821.917 6.03291 832.476 9.95499C843.036 13.5754 852.237 19.1568 860.082 26.6993C867.926 34.2417 873.96 43.8961 878.184 55.6623C882.709 67.4286 884.972 81.1559 884.972 96.8442C884.972 111.326 883.162 123.997 879.541 134.858C875.921 145.418 870.943 154.318 864.607 161.559C858.271 168.799 850.729 174.532 841.98 178.755C833.23 182.677 823.878 185.242 813.922 186.449C822.973 189.466 830.364 193.539 836.097 198.668C842.131 203.796 847.109 210.283 851.031 218.127C855.254 225.67 858.875 234.419 861.892 244.375C865.211 254.331 868.68 265.494 872.3 277.863C875.619 287.819 879.994 296.569 885.424 304.111C891.157 311.654 897.04 316.179 903.074 317.688V320.855H820.71V317.688C824.934 316.481 828.554 314.067 831.571 310.447C834.588 306.525 836.097 302.452 836.097 298.228C836.097 296.116 835.795 294.004 835.192 291.892C831.269 273.489 827.8 257.65 824.783 244.375C821.766 231.1 818.447 220.39 814.827 212.244C811.206 203.796 806.832 197.612 801.703 193.689C796.574 189.767 790.088 187.806 782.243 187.806H743.777V285.557C743.777 295.211 745.436 302.603 748.755 307.732ZM743.777 181.471H801.25C805.776 181.471 810.452 180.113 815.279 177.398C820.408 174.381 825.085 169.704 829.308 163.369C833.532 156.731 837.002 147.982 839.717 137.121C842.734 126.26 844.242 112.834 844.242 96.8442C844.242 79.9491 842.734 65.9201 839.717 54.7573C837.002 43.5944 833.381 34.8451 828.856 28.5095C824.33 21.8721 819.352 17.1958 813.922 14.4805C808.491 11.7652 803.061 10.4075 797.63 10.4075H743.777V181.471ZM949.096 307.732C952.414 312.86 956.94 316.179 962.672 317.688V320.855H918.775V317.688C924.507 316.179 928.882 312.86 931.899 307.732C935.218 302.603 936.877 295.06 936.877 285.104V39.3706C936.877 29.7163 935.218 22.3246 931.899 17.1958C928.882 12.0669 924.507 8.74821 918.775 7.23971V4.07187H965.84L1129.21 265.192V39.3706C1129.21 29.7163 1127.55 22.3246 1124.23 17.1958C1120.91 12.0669 1116.54 8.74821 1111.11 7.23971V4.07187H1154.55V7.23971C1148.82 8.74821 1144.29 12.0669 1140.98 17.1958C1137.96 22.3246 1136.45 29.7163 1136.45 39.3706V320.855H1126.04L944.118 29.8671V285.104C944.118 295.06 945.777 302.603 949.096 307.732ZM1212.96 321.308C1207.22 321.308 1201.19 321.308 1194.85 321.308C1188.52 321.308 1182.79 321.157 1177.66 320.855C1172.83 320.252 1170.42 319.196 1170.42 317.688C1175.85 316.179 1181.28 313.464 1186.71 309.542C1192.44 305.62 1197.27 297.926 1201.19 286.462L1280.84 45.2537L1277.22 34.8451C1279.33 33.6383 1281.89 31.6773 1284.91 28.962C1288.23 26.2467 1291.4 23.2297 1294.41 19.9111C1297.43 16.2907 1300.15 12.8211 1302.56 9.50245C1305.28 5.88206 1307.09 2.71422 1307.99 -0.00106765L1395.33 286.009C1396.84 291.44 1398.65 295.965 1400.76 299.586C1403.18 303.206 1405.59 306.374 1408 309.089C1410.72 311.503 1413.28 313.615 1415.7 315.425C1418.41 317.235 1420.83 319.045 1422.94 320.855H1337.86V317.688C1342.38 316.481 1346.31 314.369 1349.63 311.352C1353.25 308.335 1355.06 303.659 1355.06 297.323C1355.06 292.797 1354.3 287.518 1352.79 281.484C1351.28 275.148 1349.32 268.209 1346.91 260.667C1344.5 253.124 1341.78 245.28 1338.76 237.134C1336.05 228.687 1333.48 220.39 1331.07 212.244H1234.23L1208.88 289.177C1207.37 294.306 1206.62 297.926 1206.62 300.038C1206.62 303.659 1207.22 306.374 1208.43 308.184C1209.64 309.994 1211.15 311.654 1212.96 313.162C1214.77 314.369 1216.58 315.576 1218.39 316.783C1220.5 317.688 1222.31 319.045 1223.82 320.855C1222.31 320.855 1218.69 321.006 1212.96 321.308ZM1236.94 205.003H1328.81C1325.19 192.935 1321.27 180.264 1317.04 166.989C1313.12 153.714 1309.2 140.591 1305.28 127.617C1301.35 114.343 1297.58 101.671 1293.96 89.6034C1290.34 77.2338 1287.02 66.0709 1284.01 56.1149L1236.94 205.003ZM206.362 642.112C207.267 643.017 208.172 643.922 209.077 644.827L195.953 720.855H9.05316e-05V717.688C5.73237 716.179 10.107 712.86 13.124 707.732C16.4427 702.603 18.102 695.211 18.102 685.557V439.823C18.102 429.867 16.4427 422.325 13.124 417.196C10.107 412.067 5.73237 408.748 9.05316e-05 407.24V404.072H74.218V407.24C68.4857 408.748 63.9602 412.067 60.6415 417.196C57.6245 422.325 56.116 429.867 56.116 439.823V716.33H125.356C140.441 716.33 152.81 713.162 162.465 706.826C172.119 700.189 179.812 692.647 185.545 684.199C191.579 675.45 195.803 666.851 198.216 658.404C200.931 649.956 202.591 643.771 203.194 639.849C204.401 640.754 205.457 641.509 206.362 642.112ZM432.194 642.112C433.099 643.017 434.004 643.922 434.909 644.827L421.785 720.855H225.832V717.688C231.564 716.179 235.939 712.86 238.956 707.732C242.275 702.603 243.934 695.211 243.934 685.557V439.823C243.934 429.867 242.275 422.325 238.956 417.196C235.939 412.067 231.564 408.748 225.832 407.24V404.072H300.05V407.24C294.318 408.748 289.792 412.067 286.474 417.196C283.457 422.325 281.948 429.867 281.948 439.823V716.33H351.188C366.273 716.33 378.643 713.162 388.297 706.826C397.951 700.189 405.645 692.647 411.377 684.199C417.411 675.45 421.635 666.851 424.048 658.404C426.763 649.956 428.423 643.771 429.026 639.849C430.233 640.754 431.289 641.509 432.194 642.112ZM581.998 713.162C584.412 715.274 587.579 716.33 591.502 716.33V720.855H517.284V717.688C525.43 715.576 530.408 711.201 532.218 704.564C534.028 697.926 534.933 690.686 534.933 682.841V576.04L469.766 442.086C468.559 439.672 466.749 436.504 464.336 432.582C462.224 428.66 459.81 424.889 457.095 421.269C454.379 417.347 451.362 414.028 448.044 411.313C445.027 408.597 442.161 407.24 439.445 407.24V404.072H513.211V407.24C508.384 409.352 505.367 412.218 504.16 415.838C502.953 419.157 502.35 421.872 502.35 423.984C502.35 427.604 503.406 431.677 505.517 436.203L569.779 568.347C577.623 552.055 584.412 538.026 590.144 526.26C595.876 514.192 600.703 504.085 604.625 495.939C608.547 487.492 611.564 480.854 613.676 476.027C616.09 470.898 617.749 466.976 618.654 464.261C621.973 454.003 623.632 447.064 623.632 443.444C623.934 439.521 624.085 437.41 624.085 437.108C624.085 430.772 623.18 425.492 621.37 421.269C619.559 417.045 617.146 413.877 614.129 411.765C611.112 409.352 608.246 407.843 605.53 407.24V404.072H676.128V407.24C670.094 408.748 664.663 411.765 659.836 416.291C655.009 420.514 650.484 425.492 646.26 431.225C642.036 436.655 638.114 442.689 634.494 449.327C631.175 455.662 628.158 461.696 625.443 467.429L573.852 576.04V683.747C573.852 687.367 574.003 691.138 574.305 695.06C574.606 698.982 575.361 702.603 576.567 705.921C577.774 708.938 579.584 711.352 581.998 713.162ZM151.151 1115.88C139.988 1119.2 127.769 1120.86 114.495 1120.86H9.05316e-05V1117.69C5.73237 1116.18 10.107 1112.86 13.124 1107.73C16.4427 1102.6 18.102 1095.21 18.102 1085.56V839.371C18.102 829.716 16.4427 822.325 13.124 817.196C10.107 812.067 5.73237 808.748 9.05316e-05 807.24V804.072H107.707C119.774 804.072 130.786 805.731 140.743 809.05C151 812.067 159.9 816.894 167.443 823.531C174.985 829.867 180.868 838.013 185.092 847.969C189.316 857.623 191.428 869.239 191.428 882.815C191.428 904.538 186.45 921.282 176.494 933.048C166.538 944.513 153.565 952.357 137.575 956.581C157.487 960.201 173.779 968.648 186.45 981.923C199.423 995.198 205.909 1014.05 205.909 1038.49C205.909 1052.97 203.647 1065.34 199.121 1075.6C194.596 1085.86 188.26 1094.46 180.114 1101.4C171.968 1108.03 162.314 1112.86 151.151 1115.88ZM56.116 954.77H97.7505C102.578 954.77 108.159 954.167 114.495 952.96C120.83 951.753 126.714 948.887 132.144 944.362C137.876 939.535 142.704 932.294 146.626 922.639C150.548 912.985 152.509 899.71 152.509 882.815C152.509 869.239 150.548 857.925 146.626 848.874C142.704 839.521 137.876 832.13 132.144 826.699C126.714 821.269 120.83 817.347 114.495 814.933C108.461 812.519 103.181 811.313 98.6555 811.313H56.116V954.77ZM56.116 1113.61H104.539C109.366 1113.61 115.249 1112.86 122.188 1111.35C129.429 1109.84 136.368 1106.52 143.005 1101.4C149.643 1095.97 155.224 1088.42 159.75 1078.77C164.577 1068.81 166.99 1055.39 166.99 1038.49C166.99 1023.11 164.577 1010.43 159.75 1000.48C155.224 990.22 149.643 982.225 143.005 976.493C136.368 970.459 129.429 966.386 122.188 964.274C115.249 961.86 109.366 960.653 104.539 960.653H56.116V1113.61ZM420.689 1116.33C420.388 1118.14 420.086 1119.65 419.784 1120.86H233.787V1117.69C239.519 1116.18 243.894 1112.86 246.911 1107.73C250.23 1102.6 251.889 1095.21 251.889 1085.56V839.371C251.889 829.716 250.23 822.325 246.911 817.196C243.894 812.067 239.519 808.748 233.787 807.24V804.072H408.923L422.5 878.742C421.594 879.346 420.689 879.949 419.784 880.552C418.879 880.854 417.823 881.307 416.616 881.91C415.711 878.29 414.505 872.557 412.996 864.713C411.488 856.869 408.471 849.025 403.945 841.181C399.42 833.035 392.782 826.096 384.033 820.364C375.284 814.33 363.518 811.313 348.734 811.313H289.903V950.245H336.968C341.493 950.245 345.566 949.189 349.187 947.077C353.109 944.965 356.428 942.401 359.143 939.384C361.858 936.065 363.97 932.595 365.479 928.975C367.289 925.355 368.496 921.885 369.099 918.567H371.814V988.711H369.099C368.496 985.694 367.289 982.376 365.479 978.755C363.97 975.135 361.858 971.816 359.143 968.799C356.428 965.481 353.109 962.765 349.187 960.653C345.566 958.542 341.493 957.486 336.968 957.486H289.903V1113.61H348.282C363.065 1113.61 375.284 1110.45 384.938 1104.11C394.894 1097.78 402.889 1090.23 408.923 1081.48C414.957 1072.43 419.483 1063.08 422.5 1053.43C425.517 1043.47 427.779 1035.02 429.288 1028.08C430.193 1028.69 431.249 1029.29 432.456 1029.89C433.662 1030.2 434.568 1030.65 435.171 1031.25C431.551 1052.07 428.835 1068.21 427.025 1079.67L420.689 1116.33ZM486.825 1107.73C490.144 1112.86 494.669 1116.18 500.401 1117.69V1120.86H456.504V1117.69C462.237 1116.18 466.611 1112.86 469.628 1107.73C472.947 1102.6 474.606 1095.06 474.606 1085.1V839.371C474.606 829.716 472.947 822.325 469.628 817.196C466.611 812.067 462.237 808.748 456.504 807.24V804.072H503.569L666.939 1065.19V839.371C666.939 829.716 665.28 822.325 661.961 817.196C658.642 812.067 654.268 808.748 648.837 807.24V804.072H692.282V807.24C686.55 808.748 682.024 812.067 678.705 817.196C675.688 822.325 674.18 829.716 674.18 839.371V1120.86H663.771L481.847 829.867V1085.1C481.847 1095.06 483.506 1102.6 486.825 1107.73ZM749.78 1107.73C753.099 1112.86 757.624 1116.18 763.357 1117.69V1120.86H719.459V1117.69C725.192 1116.18 729.566 1112.86 732.583 1107.73C735.902 1102.6 737.561 1095.06 737.561 1085.1V839.371C737.561 829.716 735.902 822.325 732.583 817.196C729.566 812.067 725.192 808.748 719.459 807.24V804.072H766.524L929.894 1065.19V839.371C929.894 829.716 928.235 822.325 924.916 817.196C921.598 812.067 917.223 808.748 911.792 807.24V804.072H955.237V807.24C949.505 808.748 944.979 812.067 941.661 817.196C938.644 822.325 937.135 829.716 937.135 839.371V1120.86H926.726L744.802 829.867V1085.1C744.802 1095.06 746.461 1102.6 749.78 1107.73ZM1013.64 1121.31C1007.91 1121.31 1001.87 1121.31 995.538 1121.31C989.203 1121.31 983.471 1121.16 978.342 1120.86C973.514 1120.25 971.101 1119.2 971.101 1117.69C976.531 1116.18 981.962 1113.46 987.393 1109.54C993.125 1105.62 997.952 1097.93 1001.87 1086.46L1081.52 845.254L1077.9 834.845C1080.01 833.638 1082.58 831.677 1085.6 828.962C1088.91 826.247 1092.08 823.23 1095.1 819.911C1098.12 816.291 1100.83 812.821 1103.24 809.502C1105.96 805.882 1107.77 802.714 1108.68 799.999L1196.02 1086.01C1197.53 1091.44 1199.34 1095.97 1201.45 1099.59C1203.86 1103.21 1206.27 1106.37 1208.69 1109.09C1211.4 1111.5 1213.97 1113.61 1216.38 1115.42C1219.1 1117.24 1221.51 1119.05 1223.62 1120.86H1138.54V1117.69C1143.07 1116.48 1146.99 1114.37 1150.31 1111.35C1153.93 1108.33 1155.74 1103.66 1155.74 1097.32C1155.74 1092.8 1154.99 1087.52 1153.48 1081.48C1151.97 1075.15 1150.01 1068.21 1147.59 1060.67C1145.18 1053.12 1142.47 1045.28 1139.45 1037.13C1136.73 1028.69 1134.17 1020.39 1131.76 1012.24H1034.91L1009.57 1089.18C1008.06 1094.31 1007.3 1097.93 1007.3 1100.04C1007.3 1103.66 1007.91 1106.37 1009.11 1108.18C1010.32 1109.99 1011.83 1111.65 1013.64 1113.16C1015.45 1114.37 1017.26 1115.58 1019.07 1116.78C1021.18 1117.69 1022.99 1119.05 1024.5 1120.86C1022.99 1120.86 1019.37 1121.01 1013.64 1121.31ZM1037.63 1005H1129.49C1125.87 992.935 1121.95 980.264 1117.73 966.989C1113.8 953.714 1109.88 940.591 1105.96 927.617C1102.04 914.343 1098.27 901.671 1094.65 889.603C1091.03 877.234 1087.71 866.071 1084.69 856.115L1037.63 1005Z" fill="black" fill-opacity="0.2"/>
</g>
</svg>
