<svg width="409" height="180" viewBox="0 0 409 180" fill="none" xmlns="http://www.w3.org/2000/svg">
<path d="M13.1601 117.601C6.90673 117.601 3.78006 118.908 3.78006 121.521C3.78006 124.134 6.16006 126.654 10.9201 129.081C15.7734 131.601 21.9334 132.861 29.4001 132.861C36.9601 132.861 45.1734 130.714 54.0401 126.421C51.7067 125.861 47.3667 124.648 41.0201 122.781C28.7934 119.328 19.5067 117.601 13.1601 117.601ZM69.3001 61.0409C69.3001 66.4543 73.5001 69.1609 81.9001 69.1609C86.1934 69.1609 91.0467 67.9476 96.4601 65.5209C101.873 63.0943 107.007 59.9209 111.86 56.0009C116.713 52.0809 120.773 47.1809 124.04 41.3009C127.4 35.4209 129.08 29.4009 129.08 23.2409C129.08 21.2809 128.847 19.3676 128.38 17.5009C121.1 18.6209 113.727 20.9076 106.26 24.3609C98.8867 27.8143 92.5401 31.6876 87.2201 35.9809C81.9934 40.2743 77.7001 44.7076 74.3401 49.2809C70.9801 53.8543 69.3001 57.7743 69.3001 61.0409ZM64.6801 125.721C70.4667 126.841 75.4134 127.401 79.5201 127.401C87.9201 127.401 96.3201 126.141 104.72 123.621C113.213 121.101 120.96 117.741 127.96 113.541C134.96 109.248 141.493 104.301 147.56 98.7009C153.72 93.1009 158.9 87.3143 163.1 81.3409C172.153 68.2743 176.68 56.3276 176.68 45.5009C176.68 39.7143 175.28 34.6276 172.48 30.2409C162.12 38.1743 145.413 54.3676 122.36 78.8209C114.427 87.1276 105.14 95.7609 94.5001 104.721C83.9534 113.681 74.0134 120.681 64.6801 125.721ZM105.28 2.24093C95.6667 2.24093 84.7934 4.8076 72.6601 9.94093C60.5267 15.0743 51.3801 20.7209 45.2201 26.8809L43.4001 25.7609C51.8934 18.4809 62.1134 12.3676 74.0601 7.42093C86.0067 2.47426 96.8334 0.000929356 106.54 0.000929356C119.793 0.000929356 127.82 4.8076 130.62 14.4209C133.607 14.1409 136.593 14.0009 139.58 14.0009C154.14 14.0009 165.107 18.0609 172.48 26.1809C184.147 18.9943 194.88 15.4009 204.68 15.4009C210.56 15.4009 215.18 16.7076 218.54 19.3209C221.9 21.9343 223.58 25.2009 223.58 29.1209C223.58 32.9476 222.04 36.7276 218.96 40.4609C215.973 44.1943 211.54 47.4143 205.66 50.1209L205.38 48.5809C210.047 46.7143 213.78 43.9609 216.58 40.3209C219.473 36.6809 220.92 33.0876 220.92 29.5409C220.92 25.9009 219.38 22.9609 216.3 20.7209C213.313 18.3876 208.787 17.2209 202.72 17.2209C194.32 17.2209 184.94 21.0476 174.58 28.7009C178.687 34.4876 180.74 41.1143 180.74 48.5809C180.74 56.0476 179.247 63.4676 176.26 70.8409C173.367 78.2143 168.933 85.4009 162.96 92.4009C156.987 99.4009 149.94 105.701 141.82 111.301C133.7 116.808 123.947 121.241 112.56 124.601C101.267 128.054 89.3201 129.781 76.7201 129.781C71.5867 129.781 66.1267 129.174 60.3401 127.961C48.3001 133.748 36.5401 136.641 25.0601 136.641C18.1534 136.641 12.2267 135.101 7.28006 132.021C2.42673 129.034 5.85672e-05 125.908 5.85672e-05 122.641C5.85672e-05 120.494 1.16673 118.768 3.50006 117.461C5.92673 116.154 9.42673 115.501 14.0001 115.501C18.5734 115.501 23.1001 115.921 27.5801 116.761C32.0601 117.601 37.8001 119.001 44.8001 120.961C51.8934 122.828 56.3734 123.994 58.2401 124.461C66.8267 119.794 76.3001 112.934 86.6601 103.881C97.1134 94.8276 106.447 85.9609 114.66 77.2809C122.967 68.6009 132.3 59.4543 142.66 49.8409C153.02 40.2276 162.213 32.8076 170.24 27.5809C163.707 20.3009 152.973 16.6609 138.04 16.6609C135.707 16.6609 133.42 16.8009 131.18 17.0809C131.46 18.4809 131.6 20.0209 131.6 21.7009C131.6 28.5143 129.827 35.1409 126.28 41.5809C122.733 48.0209 118.347 53.4343 113.12 57.8209C107.893 62.2076 102.34 65.7076 96.4601 68.3209C90.6734 70.9343 85.5401 72.2409 81.0601 72.2409C76.5801 72.2409 73.2201 71.1676 70.9801 69.0209C68.7401 66.7809 67.6201 63.7476 67.6201 59.9209C67.6201 56.0009 68.9267 51.7076 71.5401 47.0409C74.2467 42.2809 77.9801 37.6609 82.7401 33.1809C87.5934 28.7009 93.9401 24.7809 101.78 21.4209C109.713 17.9676 118.347 15.7276 127.68 14.7009C124.693 6.39427 117.227 2.24093 105.28 2.24093ZM162.002 124.741C165.549 124.741 170.262 122.968 176.142 119.421C182.115 115.781 187.062 112.281 190.982 108.921C194.995 105.561 197.002 103.601 197.002 103.041C197.002 102.481 196.302 102.014 194.902 101.641C193.595 101.268 191.775 101.081 189.442 101.081C187.109 101.081 184.029 102.014 180.202 103.881C176.375 105.654 173.062 107.801 170.262 110.321C167.462 112.841 165.129 115.314 163.262 117.741C161.395 120.168 160.462 121.941 160.462 123.061C160.462 124.181 160.975 124.741 162.002 124.741ZM199.522 101.221C201.389 99.7276 202.415 98.9809 202.602 98.9809C205.122 99.2609 206.429 99.4943 206.522 99.6809C206.615 99.7743 206.662 99.9143 206.662 100.101C206.662 100.288 206.289 100.894 205.542 101.921C204.795 102.854 202.602 105.141 198.962 108.781C189.909 117.648 185.382 123.014 185.382 124.881C185.382 125.628 185.709 126.001 186.362 126.001C190.842 126.001 199.242 121.754 211.562 113.261L211.842 115.361C199.429 123.481 190.655 127.541 185.522 127.541C183.002 127.541 181.742 126.374 181.742 124.041C181.742 121.614 183.189 118.488 186.082 114.661C175.069 122.781 166.482 126.888 160.322 126.981C158.082 126.981 156.962 125.628 156.962 122.921C156.962 118.068 160.042 112.888 166.202 107.381C172.455 101.874 180.669 99.1209 190.842 99.1209C194.202 99.1209 197.095 99.8209 199.522 101.221ZM179.694 163.241C177.174 165.201 175.354 167.068 174.234 168.841C173.114 170.708 172.554 172.668 172.554 174.721C172.554 176.774 173.581 177.801 175.634 177.801C180.674 177.801 195.468 165.294 220.014 140.281C203.494 148.214 193.274 153.534 189.354 156.241C185.341 158.948 182.121 161.281 179.694 163.241ZM174.654 179.761C171.948 179.761 170.594 178.221 170.594 175.141C170.594 172.061 171.994 168.888 174.794 165.621C177.594 162.448 181.748 159.181 187.254 155.821C195.934 150.594 207.554 144.434 222.114 137.341C222.768 137.061 223.281 136.828 223.654 136.641C225.241 135.054 227.761 132.394 231.214 128.661C234.761 124.928 237.841 121.754 240.454 119.141C232.054 124.648 226.221 127.401 222.954 127.401C219.688 127.401 218.054 126.234 218.054 123.901C218.054 120.728 222.254 115.734 230.654 108.921C233.361 106.681 234.714 105.234 234.714 104.581C234.714 103.834 234.341 103.461 233.594 103.461C232.008 103.461 229.348 104.581 225.614 106.821C221.974 109.061 219.688 110.461 218.754 111.021C217.821 111.581 216.421 112.468 214.554 113.681C212.781 114.801 211.521 115.594 210.774 116.061L210.354 114.101C223.141 105.701 231.354 101.501 234.994 101.501C237.421 101.501 238.634 102.854 238.634 105.561C238.634 108.454 234.434 113.261 226.034 119.981C223.234 122.221 221.834 123.714 221.834 124.461C221.834 124.928 222.441 125.161 223.654 125.161C226.454 125.161 230.748 123.341 236.534 119.701C242.321 115.968 247.174 112.281 251.094 108.641C256.788 103.321 259.868 100.661 260.334 100.661C260.894 100.661 261.688 100.801 262.714 101.081C263.834 101.361 264.394 101.688 264.394 102.061C264.394 102.341 263.741 103.088 262.434 104.301C261.128 105.421 252.261 114.194 235.834 130.621C244.981 125.954 252.121 122.034 257.254 118.861C262.481 115.688 265.514 113.821 266.354 113.261L266.634 115.361C262.434 117.788 259.448 119.608 257.674 120.821C251.141 124.834 242.554 129.408 231.914 134.541C218.101 148.354 206.341 159.321 196.634 167.441C186.834 175.654 179.508 179.761 174.654 179.761ZM334.677 22.2609C355.257 22.2609 371.917 45.2209 371.917 73.6409C371.917 102.061 355.257 125.021 334.677 125.021H334.537V124.741C349.657 124.741 365.617 101.641 365.617 73.6409C365.617 45.5009 349.657 22.5409 334.537 22.5409C319.417 22.5409 303.457 45.5009 303.457 73.6409C303.457 101.641 319.417 124.741 334.537 124.741V125.021H334.397C313.817 125.021 297.297 102.061 297.297 73.6409C297.297 45.2209 313.817 22.2609 334.397 22.2609H334.537H334.677ZM408.066 122.361V122.641H385.246V122.361C389.866 122.361 393.646 118.581 393.646 114.101V34.8609C390.006 40.0409 384.686 43.2609 378.806 43.2609C378.666 43.2609 378.526 43.2609 378.386 43.2609C386.366 42.9809 393.646 34.7209 393.646 24.6409H399.806V114.941C400.226 119.141 403.866 122.361 408.066 122.361Z" fill="#75171E"/>
<path d="M13.1601 117.601C6.90673 117.601 3.78006 118.908 3.78006 121.521C3.78006 124.134 6.16006 126.654 10.9201 129.081C15.7734 131.601 21.9334 132.861 29.4001 132.861C36.9601 132.861 45.1734 130.714 54.0401 126.421C51.7067 125.861 47.3667 124.648 41.0201 122.781C28.7934 119.328 19.5067 117.601 13.1601 117.601ZM69.3001 61.0409C69.3001 66.4543 73.5001 69.1609 81.9001 69.1609C86.1934 69.1609 91.0467 67.9476 96.4601 65.5209C101.873 63.0943 107.007 59.9209 111.86 56.0009C116.713 52.0809 120.773 47.1809 124.04 41.3009C127.4 35.4209 129.08 29.4009 129.08 23.2409C129.08 21.2809 128.847 19.3676 128.38 17.5009C121.1 18.6209 113.727 20.9076 106.26 24.3609C98.8867 27.8143 92.5401 31.6876 87.2201 35.9809C81.9934 40.2743 77.7001 44.7076 74.3401 49.2809C70.9801 53.8543 69.3001 57.7743 69.3001 61.0409ZM64.6801 125.721C70.4667 126.841 75.4134 127.401 79.5201 127.401C87.9201 127.401 96.3201 126.141 104.72 123.621C113.213 121.101 120.96 117.741 127.96 113.541C134.96 109.248 141.493 104.301 147.56 98.7009C153.72 93.1009 158.9 87.3143 163.1 81.3409C172.153 68.2743 176.68 56.3276 176.68 45.5009C176.68 39.7143 175.28 34.6276 172.48 30.2409C162.12 38.1743 145.413 54.3676 122.36 78.8209C114.427 87.1276 105.14 95.7609 94.5001 104.721C83.9534 113.681 74.0134 120.681 64.6801 125.721ZM105.28 2.24093C95.6667 2.24093 84.7934 4.8076 72.6601 9.94093C60.5267 15.0743 51.3801 20.7209 45.2201 26.8809L43.4001 25.7609C51.8934 18.4809 62.1134 12.3676 74.0601 7.42093C86.0067 2.47426 96.8334 0.000929356 106.54 0.000929356C119.793 0.000929356 127.82 4.8076 130.62 14.4209C133.607 14.1409 136.593 14.0009 139.58 14.0009C154.14 14.0009 165.107 18.0609 172.48 26.1809C184.147 18.9943 194.88 15.4009 204.68 15.4009C210.56 15.4009 215.18 16.7076 218.54 19.3209C221.9 21.9343 223.58 25.2009 223.58 29.1209C223.58 32.9476 222.04 36.7276 218.96 40.4609C215.973 44.1943 211.54 47.4143 205.66 50.1209L205.38 48.5809C210.047 46.7143 213.78 43.9609 216.58 40.3209C219.473 36.6809 220.92 33.0876 220.92 29.5409C220.92 25.9009 219.38 22.9609 216.3 20.7209C213.313 18.3876 208.787 17.2209 202.72 17.2209C194.32 17.2209 184.94 21.0476 174.58 28.7009C178.687 34.4876 180.74 41.1143 180.74 48.5809C180.74 56.0476 179.247 63.4676 176.26 70.8409C173.367 78.2143 168.933 85.4009 162.96 92.4009C156.987 99.4009 149.94 105.701 141.82 111.301C133.7 116.808 123.947 121.241 112.56 124.601C101.267 128.054 89.3201 129.781 76.7201 129.781C71.5867 129.781 66.1267 129.174 60.3401 127.961C48.3001 133.748 36.5401 136.641 25.0601 136.641C18.1534 136.641 12.2267 135.101 7.28006 132.021C2.42673 129.034 5.85672e-05 125.908 5.85672e-05 122.641C5.85672e-05 120.494 1.16673 118.768 3.50006 117.461C5.92673 116.154 9.42673 115.501 14.0001 115.501C18.5734 115.501 23.1001 115.921 27.5801 116.761C32.0601 117.601 37.8001 119.001 44.8001 120.961C51.8934 122.828 56.3734 123.994 58.2401 124.461C66.8267 119.794 76.3001 112.934 86.6601 103.881C97.1134 94.8276 106.447 85.9609 114.66 77.2809C122.967 68.6009 132.3 59.4543 142.66 49.8409C153.02 40.2276 162.213 32.8076 170.24 27.5809C163.707 20.3009 152.973 16.6609 138.04 16.6609C135.707 16.6609 133.42 16.8009 131.18 17.0809C131.46 18.4809 131.6 20.0209 131.6 21.7009C131.6 28.5143 129.827 35.1409 126.28 41.5809C122.733 48.0209 118.347 53.4343 113.12 57.8209C107.893 62.2076 102.34 65.7076 96.4601 68.3209C90.6734 70.9343 85.5401 72.2409 81.0601 72.2409C76.5801 72.2409 73.2201 71.1676 70.9801 69.0209C68.7401 66.7809 67.6201 63.7476 67.6201 59.9209C67.6201 56.0009 68.9267 51.7076 71.5401 47.0409C74.2467 42.2809 77.9801 37.6609 82.7401 33.1809C87.5934 28.7009 93.9401 24.7809 101.78 21.4209C109.713 17.9676 118.347 15.7276 127.68 14.7009C124.693 6.39427 117.227 2.24093 105.28 2.24093ZM162.002 124.741C165.549 124.741 170.262 122.968 176.142 119.421C182.115 115.781 187.062 112.281 190.982 108.921C194.995 105.561 197.002 103.601 197.002 103.041C197.002 102.481 196.302 102.014 194.902 101.641C193.595 101.268 191.775 101.081 189.442 101.081C187.109 101.081 184.029 102.014 180.202 103.881C176.375 105.654 173.062 107.801 170.262 110.321C167.462 112.841 165.129 115.314 163.262 117.741C161.395 120.168 160.462 121.941 160.462 123.061C160.462 124.181 160.975 124.741 162.002 124.741ZM199.522 101.221C201.389 99.7276 202.415 98.9809 202.602 98.9809C205.122 99.2609 206.429 99.4943 206.522 99.6809C206.615 99.7743 206.662 99.9143 206.662 100.101C206.662 100.288 206.289 100.894 205.542 101.921C204.795 102.854 202.602 105.141 198.962 108.781C189.909 117.648 185.382 123.014 185.382 124.881C185.382 125.628 185.709 126.001 186.362 126.001C190.842 126.001 199.242 121.754 211.562 113.261L211.842 115.361C199.429 123.481 190.655 127.541 185.522 127.541C183.002 127.541 181.742 126.374 181.742 124.041C181.742 121.614 183.189 118.488 186.082 114.661C175.069 122.781 166.482 126.888 160.322 126.981C158.082 126.981 156.962 125.628 156.962 122.921C156.962 118.068 160.042 112.888 166.202 107.381C172.455 101.874 180.669 99.1209 190.842 99.1209C194.202 99.1209 197.095 99.8209 199.522 101.221ZM179.694 163.241C177.174 165.201 175.354 167.068 174.234 168.841C173.114 170.708 172.554 172.668 172.554 174.721C172.554 176.774 173.581 177.801 175.634 177.801C180.674 177.801 195.468 165.294 220.014 140.281C203.494 148.214 193.274 153.534 189.354 156.241C185.341 158.948 182.121 161.281 179.694 163.241ZM174.654 179.761C171.948 179.761 170.594 178.221 170.594 175.141C170.594 172.061 171.994 168.888 174.794 165.621C177.594 162.448 181.748 159.181 187.254 155.821C195.934 150.594 207.554 144.434 222.114 137.341C222.768 137.061 223.281 136.828 223.654 136.641C225.241 135.054 227.761 132.394 231.214 128.661C234.761 124.928 237.841 121.754 240.454 119.141C232.054 124.648 226.221 127.401 222.954 127.401C219.688 127.401 218.054 126.234 218.054 123.901C218.054 120.728 222.254 115.734 230.654 108.921C233.361 106.681 234.714 105.234 234.714 104.581C234.714 103.834 234.341 103.461 233.594 103.461C232.008 103.461 229.348 104.581 225.614 106.821C221.974 109.061 219.688 110.461 218.754 111.021C217.821 111.581 216.421 112.468 214.554 113.681C212.781 114.801 211.521 115.594 210.774 116.061L210.354 114.101C223.141 105.701 231.354 101.501 234.994 101.501C237.421 101.501 238.634 102.854 238.634 105.561C238.634 108.454 234.434 113.261 226.034 119.981C223.234 122.221 221.834 123.714 221.834 124.461C221.834 124.928 222.441 125.161 223.654 125.161C226.454 125.161 230.748 123.341 236.534 119.701C242.321 115.968 247.174 112.281 251.094 108.641C256.788 103.321 259.868 100.661 260.334 100.661C260.894 100.661 261.688 100.801 262.714 101.081C263.834 101.361 264.394 101.688 264.394 102.061C264.394 102.341 263.741 103.088 262.434 104.301C261.128 105.421 252.261 114.194 235.834 130.621C244.981 125.954 252.121 122.034 257.254 118.861C262.481 115.688 265.514 113.821 266.354 113.261L266.634 115.361C262.434 117.788 259.448 119.608 257.674 120.821C251.141 124.834 242.554 129.408 231.914 134.541C218.101 148.354 206.341 159.321 196.634 167.441C186.834 175.654 179.508 179.761 174.654 179.761ZM334.677 22.2609C355.257 22.2609 371.917 45.2209 371.917 73.6409C371.917 102.061 355.257 125.021 334.677 125.021H334.537V124.741C349.657 124.741 365.617 101.641 365.617 73.6409C365.617 45.5009 349.657 22.5409 334.537 22.5409C319.417 22.5409 303.457 45.5009 303.457 73.6409C303.457 101.641 319.417 124.741 334.537 124.741V125.021H334.397C313.817 125.021 297.297 102.061 297.297 73.6409C297.297 45.2209 313.817 22.2609 334.397 22.2609H334.537H334.677ZM408.066 122.361V122.641H385.246V122.361C389.866 122.361 393.646 118.581 393.646 114.101V34.8609C390.006 40.0409 384.686 43.2609 378.806 43.2609C378.666 43.2609 378.526 43.2609 378.386 43.2609C386.366 42.9809 393.646 34.7209 393.646 24.6409H399.806V114.941C400.226 119.141 403.866 122.361 408.066 122.361Z" fill="black" fill-opacity="0.2"/>
</svg>
