<svg width="583" height="662" viewBox="0 0 583 662" fill="none" xmlns="http://www.w3.org/2000/svg">
<path opacity="0.2" d="M104.4 -1.90735e-05C176 -1.90735e-05 234 62.8 234 140C234 217.6 176 280 104.4 280C104.4 280 104.4 280 104 280H5.96046e-08V279.6C12.8 279.6 23.6 268.8 23.6 255.6V24.8C23.6 11.6 12.8 0.799994 5.96046e-08 0.799994V-1.90735e-05H104V0.399976C104.4 0.399976 104.4 -1.90735e-05 104.4 -1.90735e-05ZM104 279.6C156.8 279.6 216.8 216.8 216.8 140C216.8 63.6 156.8 0.799994 104 0.799994H41.2V279.6H104ZM401.234 255.6C401.234 268.8 411.634 279.2 424.834 279.2V280H383.234V260.4C374.834 272.4 361.634 281.6 346.034 284.8C341.234 286 336.034 286.8 330.834 286.8C301.234 286.8 276.834 268 270.434 242.8C269.634 238.8 269.234 234.4 269.234 230C269.234 224 270.434 217.6 272.434 212C280.834 189.6 303.634 173.6 330.834 173.6C330.834 173.6 330.834 173.6 331.234 173.6C331.234 173.6 331.234 173.6 331.634 173.6C353.634 173.6 372.434 184.4 383.234 200V185.2C383.234 162 378.034 145.2 367.634 135.2C357.234 125.2 345.634 120.4 332.434 120.4C326.834 120.4 321.234 121.6 316.034 123.6C302.034 128.8 289.634 141.6 279.634 161.2C278.434 163.2 277.634 165.2 276.434 167.6H274.834L287.634 124L289.234 119.2H290.034C289.234 121.2 289.234 122.8 289.234 124C290.034 130 303.634 125.2 306.834 123.6C310.034 122.4 317.634 120.4 321.234 120C326.434 119.2 331.234 119.2 335.234 119.2C356.434 119.2 368.034 124.4 382.434 135.2C396.834 146 401.234 164 401.234 188.8V255.6ZM326.034 286C327.634 286 329.234 286 330.834 286C341.634 286 351.634 283.6 360.434 278.8C370.034 274 378.034 266.4 383.234 257.6V202.8C379.234 196.4 374.034 190.8 368.034 186.4C357.634 178.8 344.834 174.4 330.834 174.4C328.434 174.4 326.434 174.8 324.034 174.8C302.834 179.6 286.834 202.4 286.834 230C286.834 258.8 304.034 282.4 326.034 286ZM582.525 123.6V124.4C569.325 124.4 554.525 135.2 550.125 148.4L538.125 180.8L508.125 263.6L499.325 286.8L464.525 382.4C462.925 386.4 459.325 389.2 454.525 389.2C448.525 389.2 443.725 384.4 443.725 378C443.725 372.4 448.525 367.6 454.525 367.6C460.525 367.6 465.325 372.4 465.325 378L498.525 286.8L448.125 148.4C443.725 135.2 428.925 124.4 416.125 124.4V123.6H481.325V124.4C468.125 124.4 461.325 135.2 466.125 148.4L507.725 262.4L546.925 154.4L549.325 148.4C554.125 135.2 547.325 124.4 534.125 124.4V123.6H582.525ZM116.4 368C175.2 368 222.8 433.6 222.8 514.8C222.8 596 175.2 661.6 116.4 661.6H116V660.8C159.2 660.8 204.8 594.8 204.8 514.8C204.8 434.4 159.2 368.8 116 368.8C72.8 368.8 27.2 434.4 27.2 514.8C27.2 594.8 72.8 660.8 116 660.8V661.6H115.6C56.8 661.6 9.6 596 9.6 514.8C9.6 433.6 56.8 368 115.6 368H116H116.4ZM441.228 579.2C441.228 638.4 386.028 659.6 356.828 661.2C355.228 661.6 353.228 661.6 351.228 661.6C350.428 661.6 350.028 661.6 349.628 661.6C349.228 661.6 348.828 661.6 348.428 661.6H275.228L254.828 581.6L255.628 581.2C256.828 585.6 258.028 589.2 259.628 593.2C269.228 619.6 284.828 638.4 306.428 650C324.828 659.6 342.428 661.6 354.828 660.8C360.428 660 365.628 659.2 370.428 657.6C376.828 655.2 384.828 651.6 392.828 646C413.628 629.6 423.628 602.4 423.628 579.2C423.628 542 408.428 518.4 390.428 505.2C378.028 496.4 362.828 491.6 347.628 491.2H346.428C340.428 490.8 330.028 490.4 310.828 498C308.828 498.8 306.428 500 304.028 501.2L303.628 500.4C317.628 493.2 322.028 492 335.228 487.6C380.428 472 400.828 454 400.828 419.6C400.828 391.2 384.028 375.2 363.228 370C360.028 369.2 356.428 368.8 352.828 368.8C352.428 368.8 352.428 368.8 352.028 368.8C350.828 368.8 349.228 368.8 347.628 368.8C325.228 368.8 306.828 386.4 293.228 407.2C288.428 414.4 284.428 421.6 280.428 429.2C278.028 434 276.028 438.8 274.028 442.8C273.228 444.4 272.828 446.4 272.028 448V448.4H271.228L285.228 379.6L286.028 380C282.428 397.2 294.428 391.2 306.428 382.8C307.628 382 308.828 381.2 310.028 380.4V380C321.228 372 333.628 368.4 345.228 368C346.028 368 346.828 368 347.628 368C348.028 368 348.028 368 348.028 368C348.428 368 348.428 368 348.428 368C385.628 368 418.828 384.4 418.828 419.6C418.828 480 356.828 482.4 335.628 488.4C328.428 490.4 324.028 492 318.828 494C333.228 490 341.228 490 346.428 490.4H347.628C348.028 490.4 348.028 490.4 348.028 490.4C348.428 490.4 348.428 490.4 348.428 490.4C385.628 490.4 441.228 514.8 441.228 579.2Z" fill="#E4BD95"/>
</svg>
