<svg width="710" height="417" viewBox="0 0 710 417" fill="none" xmlns="http://www.w3.org/2000/svg">
<path d="M6.192 17.192C5.15733 17.192 4.24 16.9627 3.44 16.504C2.64 16.0347 2.01067 15.3947 1.552 14.584C1.09333 13.7627 0.864 12.8347 0.864 11.8C0.864 10.968 1.008 10.216 1.296 9.544C1.59467 8.86133 2 8.28 2.512 7.8C3.03467 7.32 3.632 6.94667 4.304 6.68C4.976 6.41333 5.696 6.28 6.464 6.28C7.488 6.28 8.39467 6.51467 9.184 6.984C9.984 7.44267 10.6133 8.07733 11.072 8.888C11.5307 9.69867 11.76 10.6267 11.76 11.672C11.76 12.504 11.6107 13.2613 11.312 13.944C11.024 14.616 10.624 15.1973 10.112 15.688C9.6 16.168 9.008 16.5413 8.336 16.808C7.664 17.064 6.94933 17.192 6.192 17.192ZM6.496 15.928C7.18933 15.928 7.792 15.7627 8.304 15.432C8.816 15.1013 9.21067 14.6373 9.488 14.04C9.776 13.432 9.92 12.728 9.92 11.928C9.92 11.032 9.74933 10.2587 9.408 9.608C9.06667 8.94667 8.61333 8.44 8.048 8.088C7.48267 7.72533 6.84267 7.544 6.128 7.544C5.46667 7.544 4.88 7.70933 4.368 8.04C3.856 8.36 3.456 8.824 3.168 9.432C2.89067 10.0293 2.752 10.7333 2.752 11.544C2.752 12.44 2.91733 13.2187 3.248 13.88C3.58933 14.5307 4.04267 15.0373 4.608 15.4C5.17333 15.752 5.80267 15.928 6.496 15.928ZM18.3694 17.192C17.5054 17.192 16.7427 17.016 16.0814 16.664C15.4307 16.312 14.924 15.816 14.5614 15.176C14.1987 14.536 14.0174 13.7787 14.0174 12.904V6.472H15.7454V12.552C15.7454 13.2347 15.8627 13.8213 16.0974 14.312C16.332 14.792 16.668 15.16 17.1054 15.416C17.5534 15.672 18.076 15.8 18.6734 15.8C19.2707 15.8 19.7774 15.6827 20.1934 15.448C20.62 15.2027 20.94 14.8667 21.1534 14.44C21.3774 14.0027 21.4894 13.5013 21.4894 12.936V6.472H22.9774V12.552C22.9774 13.4907 22.7854 14.3067 22.4014 15C22.0174 15.6933 21.4787 16.232 20.7854 16.616C20.1027 17 19.2974 17.192 18.3694 17.192ZM25.9281 17V6.472H28.9681C29.7361 6.472 30.4028 6.584 30.9681 6.808C31.5335 7.02133 31.9708 7.33067 32.2801 7.736C32.5895 8.14133 32.7441 8.62667 32.7441 9.192C32.7441 9.65067 32.6375 10.0933 32.4241 10.52C32.2108 10.936 31.9228 11.304 31.5601 11.624C31.1975 11.944 30.7815 12.2 30.3121 12.392C29.8535 12.584 29.3735 12.68 28.8721 12.68H26.5521V11.512H29.0801C29.4321 11.512 29.7521 11.4213 30.0401 11.24C30.3281 11.048 30.5628 10.7973 30.7441 10.488C30.9255 10.1787 31.0161 9.84267 31.0161 9.48C31.0161 8.94667 30.8241 8.52 30.4401 8.2C30.0668 7.88 29.5228 7.72 28.8081 7.72H27.5921V17H25.9281ZM33.8801 17.16C33.4428 17.16 33.0535 17.1013 32.7121 16.984C32.3815 16.856 32.0668 16.6533 31.7681 16.376C31.4801 16.088 31.1761 15.7093 30.8561 15.24L28.8721 12.28L30.2161 11.8L32.4881 14.648C32.7761 15 33.0321 15.272 33.2561 15.464C33.4801 15.656 33.6881 15.7893 33.8801 15.864C34.0828 15.928 34.2801 15.96 34.4721 15.96C34.5468 15.96 34.6481 15.9547 34.7761 15.944C34.9041 15.9333 35.0268 15.9067 35.1441 15.864L35.5121 16.84C35.1921 16.9573 34.8988 17.0373 34.6321 17.08C34.3761 17.1333 34.1255 17.16 33.8801 17.16ZM45.157 14.424C45.157 14.104 45.0663 13.8267 44.885 13.592C44.7143 13.3573 44.485 13.1493 44.197 12.968C43.909 12.7867 43.589 12.616 43.237 12.456C42.8957 12.296 42.5543 12.1253 42.213 11.944C41.8717 11.7627 41.5517 11.56 41.253 11.336C40.965 11.1013 40.7303 10.824 40.549 10.504C40.3783 10.184 40.293 9.80533 40.293 9.368C40.293 8.71733 40.4477 8.168 40.757 7.72C41.0663 7.26133 41.4823 6.90933 42.005 6.664C42.5277 6.408 43.109 6.28 43.749 6.28C44.165 6.28 44.613 6.33333 45.093 6.44C45.5837 6.54667 46.0157 6.70133 46.389 6.904L45.781 8.44C45.461 8.16267 45.0823 7.94933 44.645 7.8C44.2077 7.64 43.8023 7.56 43.429 7.56C43.0557 7.56 42.7517 7.62933 42.517 7.768C42.293 7.90667 42.1277 8.08267 42.021 8.296C41.925 8.50933 41.877 8.72267 41.877 8.936C41.877 9.224 41.9623 9.47467 42.133 9.688C42.3143 9.89067 42.549 10.0773 42.837 10.248C43.1357 10.4187 43.4557 10.5893 43.797 10.76C44.149 10.92 44.4957 11.096 44.837 11.288C45.189 11.4693 45.509 11.688 45.797 11.944C46.0957 12.1893 46.3303 12.4773 46.501 12.808C46.6823 13.1387 46.773 13.5333 46.773 13.992C46.773 14.6747 46.6023 15.256 46.261 15.736C45.9303 16.216 45.4877 16.5787 44.933 16.824C44.389 17.0693 43.781 17.192 43.109 17.192C42.437 17.192 41.8077 17.0907 41.221 16.888C40.645 16.6853 40.1703 16.44 39.797 16.152L40.629 14.728C41.013 15.0693 41.4557 15.3467 41.957 15.56C42.469 15.7733 42.9757 15.88 43.477 15.88C43.9783 15.88 44.3837 15.752 44.693 15.496C45.0023 15.2293 45.157 14.872 45.157 14.424ZM51.6269 17V6.472H53.3869V17H51.6269ZM47.9949 7.816V6.472H57.0509V7.816H47.9949ZM63.1139 17.192C62.0792 17.192 61.1619 16.9627 60.3619 16.504C59.5619 16.0347 58.9325 15.3947 58.4739 14.584C58.0152 13.7627 57.7859 12.8347 57.7859 11.8C57.7859 10.968 57.9299 10.216 58.2179 9.544C58.5165 8.86133 58.9219 8.28 59.4339 7.8C59.9565 7.32 60.5539 6.94667 61.2259 6.68C61.8979 6.41333 62.6179 6.28 63.3859 6.28C64.4099 6.28 65.3165 6.51467 66.1059 6.984C66.9059 7.44267 67.5352 8.07733 67.9939 8.888C68.4525 9.69867 68.6819 10.6267 68.6819 11.672C68.6819 12.504 68.5325 13.2613 68.2339 13.944C67.9459 14.616 67.5459 15.1973 67.0339 15.688C66.5219 16.168 65.9299 16.5413 65.2579 16.808C64.5859 17.064 63.8712 17.192 63.1139 17.192ZM63.4179 15.928C64.1112 15.928 64.7139 15.7627 65.2259 15.432C65.7379 15.1013 66.1325 14.6373 66.4099 14.04C66.6979 13.432 66.8419 12.728 66.8419 11.928C66.8419 11.032 66.6712 10.2587 66.3299 9.608C65.9885 8.94667 65.5352 8.44 64.9699 8.088C64.4045 7.72533 63.7645 7.544 63.0499 7.544C62.3885 7.544 61.8019 7.70933 61.2899 8.04C60.7779 8.36 60.3779 8.824 60.0899 9.432C59.8125 10.0293 59.6739 10.7333 59.6739 11.544C59.6739 12.44 59.8392 13.2187 60.1699 13.88C60.5112 14.5307 60.9645 15.0373 61.5299 15.4C62.0952 15.752 62.7245 15.928 63.4179 15.928ZM71.1313 17V6.472H74.1713C74.9393 6.472 75.6059 6.584 76.1713 6.808C76.7366 7.02133 77.1739 7.33067 77.4833 7.736C77.7926 8.14133 77.9473 8.62667 77.9473 9.192C77.9473 9.65067 77.8406 10.0933 77.6273 10.52C77.4139 10.936 77.1259 11.304 76.7633 11.624C76.4006 11.944 75.9846 12.2 75.5153 12.392C75.0566 12.584 74.5766 12.68 74.0753 12.68H71.7553V11.512H74.2833C74.6353 11.512 74.9553 11.4213 75.2433 11.24C75.5313 11.048 75.7659 10.7973 75.9473 10.488C76.1286 10.1787 76.2193 9.84267 76.2193 9.48C76.2193 8.94667 76.0273 8.52 75.6433 8.2C75.2699 7.88 74.7259 7.72 74.0113 7.72H72.7953V17H71.1313ZM79.0833 17.16C78.6459 17.16 78.2566 17.1013 77.9153 16.984C77.5846 16.856 77.2699 16.6533 76.9713 16.376C76.6833 16.088 76.3793 15.7093 76.0593 15.24L74.0753 12.28L75.4193 11.8L77.6913 14.648C77.9793 15 78.2353 15.272 78.4593 15.464C78.6833 15.656 78.8913 15.7893 79.0833 15.864C79.2859 15.928 79.4833 15.96 79.6753 15.96C79.7499 15.96 79.8513 15.9547 79.9793 15.944C80.1073 15.9333 80.2299 15.9067 80.3473 15.864L80.7153 16.84C80.3953 16.9573 80.1019 17.0373 79.8353 17.08C79.5793 17.1333 79.3286 17.16 79.0833 17.16ZM84.0909 13.256L79.8509 6.472H81.9629L85.2269 12.232L84.0909 13.256ZM83.7389 17V12.248H85.4829V17H83.7389ZM85.1949 13.176L84.2669 12.232L87.5629 6.472H89.4029L85.1949 13.176Z" fill="#5F171D"/>
<path d="M71.96 70.76L71.82 70.9C69.16 60.68 58.24 52.28 48.58 52.28H40.04V142.3C40.6 146.5 44.1 149.86 48.3 149.86V150.14H25.48V149.86C30.1 149.86 33.88 146.08 33.88 141.46V52.28H25.34C15.68 52.28 4.76 60.68 2.1 70.9L1.96 70.76L6.72 52H67.2L71.96 70.76ZM122.884 52C147.804 52 168.104 73.98 168.104 101C168.104 128.16 147.804 150 122.884 150C122.744 150 122.744 150.14 122.744 150V149.86C141.224 149.86 162.084 127.88 162.084 101C162.084 74.26 141.224 52.28 122.744 52.28C104.264 52.28 83.2639 74.26 83.2639 101C83.2639 127.88 104.264 149.86 122.744 149.86V150C122.604 150.14 122.604 150 122.604 150C97.5439 150 77.3839 128.16 77.3839 101C77.3839 73.98 97.5439 52 122.604 52C122.604 52 122.604 52.14 122.744 52.14C122.744 52.14 122.744 52 122.884 52ZM248.66 101.14H271.48V101.28C267 101.28 263.22 105.06 263.22 109.68V150.14H256.92V136.28C248.8 144.82 237.74 150.14 225.56 150.14C225.42 150.14 225.42 150.14 225.42 150.14C225.28 150.14 225.28 150.14 225.28 150.14C200.22 150.14 180.06 128.16 180.06 101.14C180.06 73.98 200.22 52.14 225.28 52.14C225.28 52.14 225.42 52.14 225.56 52.14C233.96 52.14 241.8 54.52 248.52 58.86C248.66 58.86 248.66 59 248.66 59C249.36 59.42 249.92 59.7 250.48 60.12C256.36 64.04 262.8 66.28 262.94 59.28V59.14H263.22V87.28H262.94C260.98 80.14 257.62 73.7 253.28 68.24C245.58 58.58 235.22 52.28 225.42 52.28C206.94 52.28 185.94 74.26 185.94 101C185.94 127.88 206.94 149.86 225.42 149.86C236.76 149.86 249.22 141.32 256.92 128.58V109.68C256.92 105.06 253.28 101.28 248.66 101.28V101.14ZM343.828 121.72L344.108 121.86L337.108 149.86L336.968 150H279.568V149.86C284.048 149.86 287.828 146.08 287.828 141.46V60.68C287.828 56.06 284.048 52.28 279.568 52.28V52H332.768L337.528 70.76L337.248 70.9L335.568 64.46L337.248 70.9C334.588 60.68 323.808 52.28 314.008 52.28H293.988V93.72H310.228C316.528 93.72 321.568 88.68 321.568 82.38H321.848V105.48H321.568V105.34C321.568 99.04 316.528 94 310.228 94H293.988V149.86H308.548C328.288 149.86 339.768 137.26 343.828 121.72ZM420.456 70.76L420.316 70.9C417.656 60.68 406.736 52.28 397.076 52.28H388.536V142.3C389.096 146.5 392.596 149.86 396.796 149.86V150.14H373.976V149.86C378.596 149.86 382.376 146.08 382.376 141.46V52.28H373.836C364.176 52.28 353.256 60.68 350.596 70.9L350.456 70.76L355.216 52H415.696L420.456 70.76ZM502.398 52.28C498.198 52.28 494.558 55.64 494.138 59.84V142.3C494.558 146.5 498.198 149.86 502.398 149.86V150H479.578V149.86C484.198 149.86 487.978 146.08 487.978 141.46V101.14H441.918V142.3C442.478 146.5 445.978 149.86 450.178 149.86V150H427.498V149.86C431.978 149.86 435.758 146.08 435.758 141.46V60.68C435.758 56.06 431.978 52.28 427.498 52.28V52H450.178V52.28C445.978 52.28 442.478 55.64 441.918 59.84V101H487.978V60.68C487.978 56.06 484.198 52.28 479.578 52.28V52H502.398V52.28ZM576.66 121.72L576.94 121.86L569.94 149.86L569.8 150H512.4V149.86C516.88 149.86 520.66 146.08 520.66 141.46V60.68C520.66 56.06 516.88 52.28 512.4 52.28V52H565.6L570.36 70.76L570.08 70.9L568.4 64.46L570.08 70.9C567.42 60.68 556.64 52.28 546.84 52.28H526.82V93.72H543.06C549.36 93.72 554.4 88.68 554.4 82.38H554.68V105.48H554.4V105.34C554.4 99.04 549.36 94 543.06 94H526.82V149.86H541.38C561.12 149.86 572.6 137.26 576.66 121.72ZM640.688 137.12C640.688 144.12 646.288 149.58 653.288 149.86V150C653.148 150 652.168 150 652.028 150C642.368 150 634.668 142.3 634.668 132.78V128.3C634.668 121.3 629.068 115.56 622.068 115.42H600.508V141.46C600.508 146.08 604.288 149.86 608.908 149.86V150H586.088V149.86C590.568 149.86 594.348 146.08 594.348 141.46V60.68C594.348 56.06 590.568 52.28 586.088 52.28V52H614.228C630.328 52 643.348 66.14 643.348 83.64C643.348 99.74 632.428 113.04 618.008 115.14H623.328C632.988 115.14 640.688 123.12 640.688 132.78V137.12ZM600.508 115.14H614.088C625.988 115.14 637.468 100.86 637.468 83.64C637.468 66.42 625.988 52.28 614.088 52.28H600.508V115.14ZM89.18 282.86V283H66.22V282.86C70.84 282.86 73.22 279.08 71.54 274.46L56.84 234.14H26.88L12.18 274.46C10.64 279.08 12.88 282.86 17.5 282.86V283H0.7V282.86C5.18 282.86 10.36 279.08 12.04 274.46L41.72 192.7C39.76 188.5 35 185.28 30.8 185.28V185H45.22L77.84 274.46C79.38 279.08 84.56 282.86 89.18 282.86ZM27.02 234H56.84L42.14 193.68C42 193.4 42 193.26 41.86 193.12L27.02 234ZM141.647 272.92C141.507 273.06 141.507 273.06 141.507 273.06C141.367 273.2 141.227 273.48 141.227 273.62C141.227 273.48 141.227 273.48 141.227 273.48C137.307 279.08 131.287 282.44 124.847 283C124.707 283 124.707 283 124.707 283C124.567 283 124.567 283 124.427 283C124.427 283 124.427 283 124.287 283C121.907 283.14 119.387 283 117.007 282.3C116.867 282.16 116.727 282.16 116.587 282.16C116.447 282.02 116.307 282.02 116.167 282.02C115.887 281.88 115.607 281.74 115.327 281.74C114.067 281.18 112.807 280.62 111.687 279.92C110.987 279.64 110.427 279.22 109.867 278.8C109.867 278.8 109.727 278.8 109.727 278.66C109.307 278.38 108.887 278.1 108.467 277.82C104.267 274.88 100.207 272.78 101.467 278.94H101.187L96.1472 255L96.4272 254.86V255C98.8072 260.88 101.467 265.78 104.827 270.68C109.587 277.82 115.047 282.02 121.487 282.72C122.607 282.86 123.727 282.86 124.847 282.72C131.287 282.16 137.587 278.66 141.367 272.78C141.927 271.94 142.347 271.1 142.907 270.12C145.707 262.14 142.907 252.9 135.487 248.14L130.167 244.64L121.347 238.9L120.927 238.62L107.067 229.66C96.5672 222.66 92.9272 209.22 98.1072 198.16C98.1072 198.02 98.1072 198.02 98.1072 198.02C98.2472 197.74 98.3872 197.6 98.5272 197.32C98.6672 197.18 98.6672 196.9 98.8072 196.76C98.8072 196.62 98.9472 196.62 98.9472 196.62C99.0872 196.34 99.2272 196.06 99.3672 195.78C99.5072 195.64 99.5072 195.5 99.6472 195.22H99.7872C99.7872 195.08 99.7872 195.08 99.7872 195.08C99.9272 194.8 100.067 194.66 100.207 194.52C100.067 194.66 100.067 194.66 100.067 194.66C103.987 189.06 110.147 185.7 116.587 185.14C116.727 185.14 116.727 185.14 116.867 185.14H117.007C119.527 185 121.907 185.14 124.287 185.84C124.427 185.98 124.567 185.98 124.707 185.98C124.847 186.12 124.987 186.12 125.267 186.12C125.407 186.26 125.687 186.4 125.967 186.4C125.967 186.4 125.967 186.4 126.107 186.4C127.367 186.96 128.487 187.52 129.747 188.22C130.307 188.5 130.867 188.92 131.567 189.34C131.567 189.34 131.567 189.34 131.567 189.48C131.987 189.76 132.407 190.04 132.827 190.32C137.027 193.26 141.227 195.36 139.967 189.2H140.247L145.147 213.14L144.867 213.28V213.14C142.487 207.26 139.827 202.36 136.607 197.46C131.707 190.32 126.387 186.12 119.947 185.42C118.827 185.28 117.707 185.28 116.447 185.42C110.007 185.98 103.847 189.48 99.9272 195.36C99.3672 196.2 98.9472 197.04 98.5272 198.02C95.5872 206 98.3872 215.24 105.807 220L111.127 223.5L119.947 229.24L120.367 229.52L134.227 238.48C144.727 245.48 148.367 258.92 143.187 269.98C143.187 270.12 143.187 270.12 143.187 270.12C143.047 270.4 142.907 270.54 142.907 270.82C142.767 270.96 142.627 271.24 142.487 271.38C142.487 271.52 142.487 271.52 142.487 271.52C142.347 271.8 142.207 272.08 141.927 272.36C141.927 272.5 141.787 272.64 141.647 272.92ZM51.38 318C76.3 318 96.6 339.98 96.6 367C96.6 394.16 76.3 416 51.38 416C51.24 416 51.24 416.14 51.24 416V415.86C69.72 415.86 90.58 393.88 90.58 367C90.58 340.26 69.72 318.28 51.24 318.28C32.76 318.28 11.76 340.26 11.76 367C11.76 393.88 32.76 415.86 51.24 415.86V416C51.1 416.14 51.1 416 51.1 416C26.04 416 5.88 394.16 5.88 367C5.88 339.98 26.04 318 51.1 318C51.1 318 51.1 318.14 51.24 318.14C51.24 318.14 51.24 318 51.38 318ZM190.752 318V318.28C186.272 318.28 182.492 322.06 182.492 326.68V416H182.212L115.432 324.3V407.46C115.432 412.08 119.072 415.86 123.692 415.86V416H106.892V415.86C111.372 415.86 115.152 412.08 115.152 407.46V326.68C115.152 322.06 111.372 318.28 106.892 318.28V318H117.112L182.212 407.46V326.68C182.212 322.06 178.432 318.28 173.952 318.28V318H190.752ZM263.027 387.72L263.307 387.86L256.307 415.86L256.167 416H198.767V415.86C203.247 415.86 207.027 412.08 207.027 407.46V326.68C207.027 322.06 203.247 318.28 198.767 318.28V318H251.967L256.727 336.76L256.447 336.9L254.767 330.46L256.447 336.9C253.787 326.68 243.007 318.28 233.207 318.28H213.187V359.72H229.427C235.727 359.72 240.767 354.68 240.767 348.38H241.047V371.48H240.767V371.34C240.767 365.04 235.727 360 229.427 360H213.187V415.86H227.747C247.487 415.86 258.967 403.26 263.027 387.72Z" fill="#5F171D"/>
</svg>
