<svg width="653" height="365" viewBox="0 0 653 365" fill="none" xmlns="http://www.w3.org/2000/svg">
<path d="M71.26 18.76L71.1201 18.9C68.4601 8.68 57.5401 0.279998 47.88 0.279998H39.3401V90.3C39.9001 94.5 43.4001 97.86 47.6001 97.86V98.14H24.7801V97.86C29.4 97.86 33.1801 94.08 33.1801 89.46V0.279998H24.6401C14.98 0.279998 4.06005 8.68 1.40005 18.9L1.26005 18.76L6.02005 -6.67572e-06H66.5001L71.26 18.76ZM122.184 -6.67572e-06C147.104 -6.67572e-06 167.404 21.98 167.404 49C167.404 76.16 147.104 98 122.184 98C122.044 98 122.044 98.14 122.044 98V97.86C140.524 97.86 161.384 75.88 161.384 49C161.384 22.26 140.524 0.279998 122.044 0.279998C103.564 0.279998 82.564 22.26 82.564 49C82.564 75.88 103.564 97.86 122.044 97.86V98C121.904 98.14 121.904 98 121.904 98C96.844 98 76.684 76.16 76.684 49C76.684 21.98 96.844 -6.67572e-06 121.904 -6.67572e-06C121.904 -6.67572e-06 121.904 0.139992 122.044 0.139992C122.044 0.139992 122.044 -6.67572e-06 122.184 -6.67572e-06ZM247.96 49.14H270.78V49.28C266.3 49.28 262.52 53.06 262.52 57.68V98.14H256.22V84.28C248.1 92.82 237.04 98.14 224.86 98.14C224.72 98.14 224.72 98.14 224.72 98.14C224.58 98.14 224.58 98.14 224.58 98.14C199.52 98.14 179.36 76.16 179.36 49.14C179.36 21.98 199.52 0.139992 224.58 0.139992C224.58 0.139992 224.72 0.139992 224.86 0.139992C233.26 0.139992 241.1 2.51999 247.82 6.86C247.96 6.86 247.96 6.99999 247.96 6.99999C248.66 7.42 249.22 7.69999 249.78 8.12C255.66 12.04 262.1 14.28 262.24 7.28V7.13999H262.52V35.28H262.24C260.28 28.14 256.92 21.7 252.58 16.24C244.88 6.57999 234.52 0.279998 224.72 0.279998C206.24 0.279998 185.24 22.26 185.24 49C185.24 75.88 206.24 97.86 224.72 97.86C236.06 97.86 248.52 89.32 256.22 76.58V57.68C256.22 53.06 252.58 49.28 247.96 49.28V49.14ZM343.128 69.72L343.408 69.86L336.408 97.86L336.268 98H278.868V97.86C283.348 97.86 287.128 94.08 287.128 89.46V8.68C287.128 4.06 283.348 0.279998 278.868 0.279998V-6.67572e-06H332.068L336.828 18.76L336.548 18.9L334.868 12.46L336.548 18.9C333.888 8.68 323.108 0.279998 313.308 0.279998H293.288V41.72H309.528C315.828 41.72 320.868 36.68 320.868 30.38H321.148V53.48H320.868V53.34C320.868 47.04 315.828 42 309.528 42H293.288V97.86H307.848C327.588 97.86 339.068 85.26 343.128 69.72ZM419.756 18.76L419.616 18.9C416.956 8.68 406.036 0.279998 396.376 0.279998H387.836V90.3C388.396 94.5 391.896 97.86 396.096 97.86V98.14H373.276V97.86C377.896 97.86 381.676 94.08 381.676 89.46V0.279998H373.136C363.476 0.279998 352.556 8.68 349.896 18.9L349.756 18.76L354.516 -6.67572e-06H414.996L419.756 18.76ZM501.698 0.279998C497.498 0.279998 493.858 3.64 493.438 7.83999V90.3C493.858 94.5 497.498 97.86 501.698 97.86V98H478.878V97.86C483.498 97.86 487.278 94.08 487.278 89.46V49.14H441.218V90.3C441.778 94.5 445.278 97.86 449.478 97.86V98H426.798V97.86C431.278 97.86 435.058 94.08 435.058 89.46V8.68C435.058 4.06 431.278 0.279998 426.798 0.279998V-6.67572e-06H449.478V0.279998C445.278 0.279998 441.778 3.64 441.218 7.83999V49H487.278V8.68C487.278 4.06 483.498 0.279998 478.878 0.279998V-6.67572e-06H501.698V0.279998ZM575.96 69.72L576.24 69.86L569.24 97.86L569.1 98H511.7V97.86C516.18 97.86 519.96 94.08 519.96 89.46V8.68C519.96 4.06 516.18 0.279998 511.7 0.279998V-6.67572e-06H564.9L569.66 18.76L569.38 18.9L567.7 12.46L569.38 18.9C566.72 8.68 555.94 0.279998 546.14 0.279998H526.12V41.72H542.36C548.66 41.72 553.7 36.68 553.7 30.38H553.98V53.48H553.7V53.34C553.7 47.04 548.66 42 542.36 42H526.12V97.86H540.68C560.42 97.86 571.9 85.26 575.96 69.72ZM639.988 85.12C639.988 92.12 645.588 97.58 652.588 97.86V98C652.448 98 651.468 98 651.328 98C641.668 98 633.968 90.3 633.968 80.78V76.3C633.968 69.3 628.368 63.56 621.368 63.42H599.808V89.46C599.808 94.08 603.588 97.86 608.208 97.86V98H585.388V97.86C589.868 97.86 593.648 94.08 593.648 89.46V8.68C593.648 4.06 589.868 0.279998 585.388 0.279998V-6.67572e-06H613.528C629.628 -6.67572e-06 642.648 14.14 642.648 31.64C642.648 47.74 631.728 61.04 617.308 63.14H622.628C632.288 63.14 639.988 71.12 639.988 80.78V85.12ZM599.808 63.14H613.388C625.288 63.14 636.768 48.86 636.768 31.64C636.768 14.42 625.288 0.279998 613.388 0.279998H599.808V63.14ZM88.4801 230.86V231H65.5201V230.86C70.1401 230.86 72.52 227.08 70.8401 222.46L56.1401 182.14H26.18L11.48 222.46C9.94005 227.08 12.18 230.86 16.8 230.86V231H4.88777e-05V230.86C4.48005 230.86 9.66005 227.08 11.34 222.46L41.02 140.7C39.0601 136.5 34.3 133.28 30.1001 133.28V133H44.5201L77.1401 222.46C78.6801 227.08 83.8601 230.86 88.4801 230.86ZM26.32 182H56.1401L41.4401 141.68C41.3001 141.4 41.3001 141.26 41.1601 141.12L26.32 182ZM140.947 220.92C140.807 221.06 140.807 221.06 140.807 221.06C140.667 221.2 140.527 221.48 140.527 221.62C140.527 221.48 140.527 221.48 140.527 221.48C136.607 227.08 130.587 230.44 124.147 231C124.007 231 124.007 231 124.007 231C123.867 231 123.867 231 123.727 231C123.727 231 123.727 231 123.587 231C121.207 231.14 118.687 231 116.307 230.3C116.167 230.16 116.027 230.16 115.887 230.16C115.747 230.02 115.607 230.02 115.467 230.02C115.187 229.88 114.907 229.74 114.627 229.74C113.367 229.18 112.107 228.62 110.987 227.92C110.287 227.64 109.727 227.22 109.167 226.8C109.167 226.8 109.027 226.8 109.027 226.66C108.607 226.38 108.187 226.1 107.767 225.82C103.567 222.88 99.5072 220.78 100.767 226.94H100.487L95.4472 203L95.7272 202.86V203C98.1072 208.88 100.767 213.78 104.127 218.68C108.887 225.82 114.347 230.02 120.787 230.72C121.907 230.86 123.027 230.86 124.147 230.72C130.587 230.16 136.887 226.66 140.667 220.78C141.227 219.94 141.647 219.1 142.207 218.12C145.007 210.14 142.207 200.9 134.787 196.14L129.467 192.64L120.647 186.9L120.227 186.62L106.367 177.66C95.8672 170.66 92.2272 157.22 97.4072 146.16C97.4072 146.02 97.4072 146.02 97.4072 146.02C97.5472 145.74 97.6872 145.6 97.8272 145.32C97.9672 145.18 97.9672 144.9 98.1072 144.76C98.1072 144.62 98.2472 144.62 98.2472 144.62C98.3872 144.34 98.5272 144.06 98.6672 143.78C98.8072 143.64 98.8072 143.5 98.9472 143.22H99.0872C99.0872 143.08 99.0872 143.08 99.0872 143.08C99.2272 142.8 99.3672 142.66 99.5072 142.52C99.3672 142.66 99.3672 142.66 99.3672 142.66C103.287 137.06 109.447 133.7 115.887 133.14C116.027 133.14 116.027 133.14 116.167 133.14H116.307C118.827 133 121.207 133.14 123.587 133.84C123.727 133.98 123.867 133.98 124.007 133.98C124.147 134.12 124.287 134.12 124.567 134.12C124.707 134.26 124.987 134.4 125.267 134.4C125.267 134.4 125.267 134.4 125.407 134.4C126.667 134.96 127.787 135.52 129.047 136.22C129.607 136.5 130.167 136.92 130.867 137.34C130.867 137.34 130.867 137.34 130.867 137.48C131.287 137.76 131.707 138.04 132.127 138.32C136.327 141.26 140.527 143.36 139.267 137.2H139.547L144.447 161.14L144.167 161.28V161.14C141.787 155.26 139.127 150.36 135.907 145.46C131.007 138.32 125.687 134.12 119.247 133.42C118.127 133.28 117.007 133.28 115.747 133.42C109.307 133.98 103.147 137.48 99.2272 143.36C98.6672 144.2 98.2472 145.04 97.8272 146.02C94.8872 154 97.6872 163.24 105.107 168L110.427 171.5L119.247 177.24L119.667 177.52L133.527 186.48C144.027 193.48 147.667 206.92 142.487 217.98C142.487 218.12 142.487 218.12 142.487 218.12C142.347 218.4 142.207 218.54 142.207 218.82C142.067 218.96 141.927 219.24 141.787 219.38C141.787 219.52 141.787 219.52 141.787 219.52C141.647 219.8 141.507 220.08 141.227 220.36C141.227 220.5 141.087 220.64 140.947 220.92ZM50.6801 266C75.6001 266 95.9001 287.98 95.9001 315C95.9001 342.16 75.6001 364 50.6801 364C50.5401 364 50.5401 364.14 50.5401 364V363.86C69.0201 363.86 89.8801 341.88 89.8801 315C89.8801 288.26 69.0201 266.28 50.5401 266.28C32.0601 266.28 11.06 288.26 11.06 315C11.06 341.88 32.0601 363.86 50.5401 363.86V364C50.4001 364.14 50.4001 364 50.4001 364C25.34 364 5.18005 342.16 5.18005 315C5.18005 287.98 25.34 266 50.4001 266C50.4001 266 50.4001 266.14 50.5401 266.14C50.5401 266.14 50.5401 266 50.6801 266ZM190.052 266V266.28C185.572 266.28 181.792 270.06 181.792 274.68V364H181.512L114.732 272.3V355.46C114.732 360.08 118.372 363.86 122.992 363.86V364H106.192V363.86C110.672 363.86 114.452 360.08 114.452 355.46V274.68C114.452 270.06 110.672 266.28 106.192 266.28V266H116.412L181.512 355.46V274.68C181.512 270.06 177.732 266.28 173.252 266.28V266H190.052ZM262.327 335.72L262.607 335.86L255.607 363.86L255.467 364H198.067V363.86C202.547 363.86 206.327 360.08 206.327 355.46V274.68C206.327 270.06 202.547 266.28 198.067 266.28V266H251.267L256.027 284.76L255.747 284.9L254.067 278.46L255.747 284.9C253.087 274.68 242.307 266.28 232.507 266.28H212.487V307.72H228.727C235.027 307.72 240.067 302.68 240.067 296.38H240.347V319.48H240.067V319.34C240.067 313.04 235.027 308 228.727 308H212.487V363.86H227.047C246.787 363.86 258.267 351.26 262.327 335.72Z" fill="#5F171D"/>
</svg>
