<svg width="519" height="209" viewBox="0 0 519 209" fill="none" xmlns="http://www.w3.org/2000/svg">
<path d="M93.18 97.86V98H70.22V97.86C74.84 97.86 77.22 94.08 75.54 89.46L60.84 49.14H30.88L16.18 89.46C14.64 94.08 16.88 97.86 21.5 97.86V98H4.7V97.86C9.18 97.86 14.36 94.08 16.04 89.46L45.72 7.69999C43.76 3.5 39 0.279998 34.8 0.279998V-6.67572e-06H49.22L81.84 89.46C83.38 94.08 88.56 97.86 93.18 97.86ZM31.02 49H60.84L46.14 8.68C46 8.39999 46 8.26 45.86 8.12L31.02 49ZM173.841 35.28H173.561C171.601 28.14 168.241 21.7 163.901 16.24C156.201 6.43999 145.841 0.279998 136.041 0.279998C117.561 0.279998 96.5608 22.26 96.5608 49.14C96.5608 75.88 117.561 97.86 136.041 97.86C147.521 97.86 159.981 89.18 167.821 76.3C167.821 76.3 171.601 70.28 173.561 62.86V76.3C165.441 89.46 151.861 98.14 136.181 98.14C136.041 98.14 136.041 98.14 136.041 98.14C135.901 98.14 135.901 98.14 135.901 98.14C110.841 98.14 90.6808 76.16 90.6808 49.14C90.6808 21.98 110.841 0.139992 135.901 0.139992C135.901 0.139992 135.901 0.139992 136.041 0.139992C136.041 -6.67572e-06 136.041 0.139992 136.181 0.139992C144.581 0.139992 152.421 2.51999 159.141 6.86C159.281 6.86 159.281 6.99999 159.281 6.99999C159.981 7.42 160.541 7.69999 161.101 8.12C166.981 12.04 173.561 14.28 173.561 7.13999H173.841V35.28ZM281.834 0.139992C306.754 0.139992 327.054 21.98 327.054 49.14C327.054 76.16 306.754 98 281.834 98H281.694H281.554C272.594 98 264.194 95.2 257.194 90.44C250.334 95.2 242.074 98 233.114 98C232.974 98 232.974 98 232.974 98C232.834 98 232.834 98 232.834 98C207.774 98 187.614 76.16 187.614 49.14C187.614 21.98 207.774 0.139992 232.834 0.139992C232.834 0.139992 232.834 0.139992 232.974 0.139992C232.974 0.139992 232.974 0.139992 233.114 0.139992C241.514 0.139992 249.354 2.51999 256.074 6.86C256.214 6.99999 256.214 6.99999 256.214 6.99999C256.634 7.28 256.914 7.42 257.334 7.69999C264.334 2.94 272.594 0.139992 281.554 0.139992H281.694H281.834ZM232.974 97.86C240.254 97.86 247.954 94.36 254.674 88.48C243.474 79.52 236.334 65.24 236.334 49.14C236.334 32.9 243.474 18.62 254.674 9.65999C247.954 3.77999 240.254 0.419996 232.974 0.419996C214.494 0.419996 193.494 22.26 193.494 49.14C193.494 75.88 214.494 97.86 232.974 97.86ZM281.694 97.86C300.174 97.86 321.034 75.88 321.034 49.14C321.034 22.26 300.174 0.419996 281.694 0.419996C274.414 0.419996 266.854 3.77999 260.134 9.52C265.454 12.46 270.494 13.44 270.494 7.13999H270.774V35.28H270.494C268.534 28.14 265.034 21.7 260.834 16.24C259.714 14.84 258.594 13.44 257.334 12.18C248.514 21.14 242.354 34.44 242.354 49.14C242.354 63.7 248.514 77 257.334 85.96C259.994 83.16 262.514 79.8 264.754 76.3C264.754 76.3 268.534 70.28 270.494 62.86V76.3C267.554 80.92 264.054 84.98 259.854 88.34C266.574 94.36 274.274 97.86 281.694 97.86ZM391.758 85.12C391.758 92.12 397.358 97.58 404.358 97.86V98C404.218 98 403.238 98 403.098 98C393.438 98 385.738 90.3 385.738 80.78V76.3C385.738 69.3 380.138 63.56 373.138 63.42H351.578V89.46C351.578 94.08 355.358 97.86 359.978 97.86V98H337.158V97.86C341.638 97.86 345.418 94.08 345.418 89.46V8.68C345.418 4.06 341.638 0.279998 337.158 0.279998V-6.67572e-06H365.298C381.398 -6.67572e-06 394.418 14.14 394.418 31.64C394.418 47.74 383.498 61.04 369.078 63.14H374.398C384.058 63.14 391.758 71.12 391.758 80.78V85.12ZM351.578 63.14H365.158C377.058 63.14 388.538 48.86 388.538 31.64C388.538 14.42 377.058 0.279998 365.158 0.279998H351.578V63.14ZM448.487 -6.67572e-06C473.547 -6.67572e-06 493.847 21.98 493.847 49C493.847 76.16 473.547 98 448.487 98C448.487 98 448.487 98 448.347 98H411.947V97.86C416.427 97.86 420.207 94.08 420.207 89.46V8.68C420.207 4.06 416.427 0.279998 411.947 0.279998V-6.67572e-06H448.347V0.139992C448.487 0.139992 448.487 -6.67572e-06 448.487 -6.67572e-06ZM448.347 97.86C466.827 97.86 487.827 75.88 487.827 49C487.827 22.26 466.827 0.279998 448.347 0.279998H426.367V97.86H448.347Z" fill="#5F171D"/>
<path d="M37.973 149L33.273 136.66H33.833L29.153 149H27.653L33.073 135.84H34.333L39.553 149H37.973ZM30.033 144.48L30.453 143.3H36.373L37.013 144.48H30.033ZM42.5863 149V135.84H50.3063V137.02H44.0663V149H42.5863ZM43.0863 143.36V142.18H49.5463V143.36H43.0863ZM56.7466 149V135.84H58.2666V149H56.7466ZM51.7666 137.02V135.84H63.2466V137.02H51.7666ZM74.2652 149H65.9652V135.84H73.6452V137.02H67.4052V147.82H74.2652V149ZM66.4652 142.9V141.76H72.8852V142.9H66.4652ZM77.5472 149V135.84H81.1072C82.0139 135.84 82.7939 135.973 83.4472 136.24C84.1139 136.507 84.6272 136.887 84.9872 137.38C85.3472 137.873 85.5272 138.467 85.5272 139.16C85.5272 139.72 85.3939 140.253 85.1272 140.76C84.8739 141.267 84.5272 141.72 84.0872 142.12C83.6472 142.507 83.1405 142.813 82.5672 143.04C82.0072 143.267 81.4139 143.38 80.7872 143.38H78.1072V142.3H80.9672C81.5139 142.3 82.0139 142.167 82.4672 141.9C82.9339 141.633 83.3072 141.28 83.5872 140.84C83.8805 140.387 84.0272 139.907 84.0272 139.4C84.0272 138.64 83.7672 138.04 83.2472 137.6C82.7272 137.16 81.9739 136.94 80.9872 136.94H78.9872V149H77.5472ZM87.5872 149.18C87.0539 149.18 86.5739 149.1 86.1472 148.94C85.7339 148.767 85.3272 148.493 84.9272 148.12C84.5405 147.733 84.1205 147.22 83.6672 146.58L81.1272 142.98L82.3072 142.56L85.0672 146.06C85.4939 146.593 85.8739 147.013 86.2072 147.32C86.5405 147.613 86.8539 147.82 87.1472 147.94C87.4539 148.06 87.7605 148.12 88.0672 148.12C88.1872 148.12 88.3339 148.113 88.5072 148.1C88.6805 148.087 88.8539 148.053 89.0272 148L89.3272 148.86C88.9939 148.98 88.6872 149.06 88.4072 149.1C88.1272 149.153 87.8539 149.18 87.5872 149.18ZM108.745 149L108.185 136.52L108.865 136.28L103.365 147.88H102.465L97.1647 136.86L97.1847 135.84H98.2247L103.345 146.4H102.885L107.885 135.84H109.445L110.225 149H108.745ZM95.6847 149L96.5447 135.84H97.6247L97.0447 149H95.6847ZM122.585 149H114.285V135.84H121.965V137.02H115.725V147.82H122.585V149ZM114.785 142.9V141.76H121.205V142.9H114.785ZM134.168 149H125.868V135.84H133.548V137.02H127.308V147.82H134.168V149ZM126.368 142.9V141.76H132.788V142.9H126.368ZM140.79 149V135.84H142.31V149H140.79ZM135.81 137.02V135.84H147.29V137.02H135.81ZM150.148 149V135.84H151.688V149H150.148ZM156.18 149V135.84H157.32L157.52 149H156.18ZM166.66 149H166.04L156.68 136.82L156.7 135.84H157.68L166.62 147.38L166.66 149ZM167.28 135.84V149H166.12L165.94 135.84H167.28ZM177.849 149.18C176.395 149.18 175.122 148.907 174.029 148.36C172.949 147.8 172.109 147.027 171.509 146.04C170.909 145.04 170.609 143.887 170.609 142.58C170.609 141.58 170.782 140.66 171.129 139.82C171.489 138.967 171.995 138.233 172.649 137.62C173.302 136.993 174.075 136.513 174.969 136.18C175.862 135.833 176.849 135.66 177.929 135.66C178.729 135.66 179.509 135.767 180.269 135.98C181.029 136.193 181.702 136.527 182.289 136.98L181.629 138.3C181.015 137.74 180.362 137.347 179.669 137.12C178.989 136.88 178.309 136.76 177.629 136.76C176.509 136.76 175.542 137 174.729 137.48C173.929 137.96 173.302 138.62 172.849 139.46C172.409 140.3 172.189 141.267 172.189 142.36C172.189 143.493 172.435 144.493 172.929 145.36C173.435 146.213 174.129 146.887 175.009 147.38C175.902 147.86 176.929 148.1 178.089 148.1C178.729 148.1 179.355 148.027 179.969 147.88C180.595 147.72 181.175 147.48 181.709 147.16L180.969 148.08V144H177.989V142.9H182.349V148.08C181.922 148.32 181.455 148.527 180.949 148.7C180.455 148.86 179.942 148.98 179.409 149.06C178.889 149.14 178.369 149.18 177.849 149.18ZM199.985 149L195.285 136.66H195.845L191.165 149H189.665L195.085 135.84H196.345L201.565 149H199.985ZM192.045 144.48L192.465 143.3H198.385L199.025 144.48H192.045ZM204.598 149V135.84H205.738L205.938 149H204.598ZM215.078 149H214.458L205.098 136.82L205.118 135.84H206.098L215.038 147.38L215.078 149ZM215.698 135.84V149H214.538L214.358 135.84H215.698ZM220.067 149V135.84H224.147C225.253 135.84 226.26 135.987 227.167 136.28C228.073 136.573 228.853 137 229.507 137.56C230.16 138.12 230.66 138.793 231.007 139.58C231.353 140.367 231.527 141.247 231.527 142.22C231.527 143.06 231.387 143.887 231.107 144.7C230.827 145.513 230.387 146.247 229.787 146.9C229.187 147.54 228.413 148.053 227.467 148.44C226.52 148.813 225.4 149 224.107 149H220.067ZM221.547 147.92H224.227C225.267 147.92 226.147 147.773 226.867 147.48C227.6 147.187 228.193 146.787 228.647 146.28C229.113 145.76 229.447 145.18 229.647 144.54C229.86 143.887 229.967 143.193 229.967 142.46C229.967 141.447 229.747 140.527 229.307 139.7C228.88 138.86 228.22 138.193 227.327 137.7C226.433 137.193 225.3 136.94 223.927 136.94H221.547V147.92ZM245.974 149.18C244.52 149.18 243.247 148.907 242.154 148.36C241.074 147.8 240.234 147.027 239.634 146.04C239.034 145.04 238.734 143.887 238.734 142.58C238.734 141.58 238.907 140.66 239.254 139.82C239.614 138.967 240.12 138.233 240.774 137.62C241.427 136.993 242.2 136.513 243.094 136.18C243.987 135.833 244.974 135.66 246.054 135.66C246.854 135.66 247.634 135.767 248.394 135.98C249.154 136.193 249.827 136.527 250.414 136.98L249.754 138.3C249.14 137.74 248.487 137.347 247.794 137.12C247.114 136.88 246.434 136.76 245.754 136.76C244.634 136.76 243.667 137 242.854 137.48C242.054 137.96 241.427 138.62 240.974 139.46C240.534 140.3 240.314 141.267 240.314 142.36C240.314 143.493 240.56 144.493 241.054 145.36C241.56 146.213 242.254 146.887 243.134 147.38C244.027 147.86 245.054 148.1 246.214 148.1C246.854 148.1 247.48 148.027 248.094 147.88C248.72 147.72 249.3 147.48 249.834 147.16L249.094 148.08V144H246.114V142.9H250.474V148.08C250.047 148.32 249.58 148.527 249.074 148.7C248.58 148.86 248.067 148.98 247.534 149.06C247.014 149.14 246.494 149.18 245.974 149.18ZM262.488 149H254.188V135.84H261.868V137.02H255.628V147.82H262.488V149ZM254.688 142.9V141.76H261.108V142.9H254.688ZM269.11 149V135.84H270.63V149H269.11ZM264.13 137.02V135.84H275.61V137.02H264.13ZM281.668 149V135.84H283.188V149H281.668ZM276.688 137.02V135.84H288.168V137.02H276.688ZM291.027 149V135.84H292.567V149H291.027ZM297.059 149V135.84H298.199L298.399 149H297.059ZM307.539 149H306.919L297.559 136.82L297.579 135.84H298.559L307.499 147.38L307.539 149ZM308.159 135.84V149H306.999L306.819 135.84H308.159ZM318.728 149.18C317.274 149.18 316.001 148.907 314.908 148.36C313.828 147.8 312.988 147.027 312.388 146.04C311.788 145.04 311.488 143.887 311.488 142.58C311.488 141.58 311.661 140.66 312.008 139.82C312.368 138.967 312.874 138.233 313.528 137.62C314.181 136.993 314.954 136.513 315.848 136.18C316.741 135.833 317.728 135.66 318.808 135.66C319.608 135.66 320.388 135.767 321.148 135.98C321.908 136.193 322.581 136.527 323.168 136.98L322.508 138.3C321.894 137.74 321.241 137.347 320.548 137.12C319.868 136.88 319.188 136.76 318.508 136.76C317.388 136.76 316.421 137 315.608 137.48C314.808 137.96 314.181 138.62 313.728 139.46C313.288 140.3 313.068 141.267 313.068 142.36C313.068 143.493 313.314 144.493 313.808 145.36C314.314 146.213 315.008 146.887 315.888 147.38C316.781 147.86 317.808 148.1 318.968 148.1C319.608 148.1 320.234 148.027 320.848 147.88C321.474 147.72 322.054 147.48 322.588 147.16L321.848 148.08V144H318.868V142.9H323.228V148.08C322.801 148.32 322.334 148.527 321.828 148.7C321.334 148.86 320.821 148.98 320.288 149.06C319.768 149.14 319.248 149.18 318.728 149.18ZM335.204 149V135.84H336.724V149H335.204ZM330.224 137.02V135.84H341.704V137.02H330.224ZM349.398 149.18C348.118 149.18 346.971 148.893 345.958 148.32C344.958 147.747 344.171 146.953 343.598 145.94C343.024 144.927 342.738 143.773 342.738 142.48C342.738 141.467 342.911 140.54 343.258 139.7C343.618 138.86 344.111 138.14 344.738 137.54C345.378 136.94 346.111 136.48 346.938 136.16C347.778 135.827 348.678 135.66 349.638 135.66C350.918 135.66 352.058 135.947 353.058 136.52C354.058 137.093 354.844 137.887 355.418 138.9C355.991 139.9 356.278 141.053 356.278 142.36C356.278 143.373 356.098 144.3 355.738 145.14C355.391 145.98 354.904 146.7 354.278 147.3C353.651 147.9 352.918 148.367 352.078 148.7C351.251 149.02 350.358 149.18 349.398 149.18ZM349.658 148.1C350.658 148.1 351.538 147.867 352.298 147.4C353.058 146.933 353.644 146.287 354.058 145.46C354.484 144.62 354.698 143.66 354.698 142.58C354.698 141.407 354.464 140.387 353.998 139.52C353.531 138.64 352.891 137.96 352.078 137.48C351.278 136.987 350.371 136.74 349.358 136.74C348.384 136.74 347.518 136.973 346.758 137.44C346.011 137.907 345.424 138.553 344.998 139.38C344.571 140.207 344.358 141.167 344.358 142.26C344.358 143.42 344.591 144.44 345.058 145.32C345.524 146.2 346.158 146.887 346.958 147.38C347.771 147.86 348.671 148.1 349.658 148.1ZM372.28 149L365.72 142.28L371.64 135.84H373.5L366.96 142.5L367.08 141.78L374.46 149H372.28ZM364.52 149V135.84H365.96V149H364.52ZM376.825 149V135.84H377.965L378.165 149H376.825ZM387.305 149H386.685L377.325 136.82L377.345 135.84H378.325L387.265 147.38L387.305 149ZM387.925 135.84V149H386.765L386.585 135.84H387.925ZM397.913 149.18C396.633 149.18 395.487 148.893 394.473 148.32C393.473 147.747 392.687 146.953 392.113 145.94C391.54 144.927 391.253 143.773 391.253 142.48C391.253 141.467 391.427 140.54 391.773 139.7C392.133 138.86 392.627 138.14 393.253 137.54C393.893 136.94 394.627 136.48 395.453 136.16C396.293 135.827 397.193 135.66 398.153 135.66C399.433 135.66 400.573 135.947 401.573 136.52C402.573 137.093 403.36 137.887 403.933 138.9C404.507 139.9 404.793 141.053 404.793 142.36C404.793 143.373 404.613 144.3 404.253 145.14C403.907 145.98 403.42 146.7 402.793 147.3C402.167 147.9 401.433 148.367 400.593 148.7C399.767 149.02 398.873 149.18 397.913 149.18ZM398.173 148.1C399.173 148.1 400.053 147.867 400.813 147.4C401.573 146.933 402.16 146.287 402.573 145.46C403 144.62 403.213 143.66 403.213 142.58C403.213 141.407 402.98 140.387 402.513 139.52C402.047 138.64 401.407 137.96 400.593 137.48C399.793 136.987 398.887 136.74 397.873 136.74C396.9 136.74 396.033 136.973 395.273 137.44C394.527 137.907 393.94 138.553 393.513 139.38C393.087 140.207 392.873 141.167 392.873 142.26C392.873 143.42 393.107 144.44 393.573 145.32C394.04 146.2 394.673 146.887 395.473 147.38C396.287 147.86 397.187 148.1 398.173 148.1ZM419.199 149L415.019 135.84H416.459L420.519 148.64H419.639L423.159 135.84H424.579L420.659 149H419.199ZM410.559 149L406.659 135.84H408.219L411.819 148.64H410.979L414.919 135.84H416.099L412.019 149H410.559ZM442.086 149V135.84H443.566V149H442.086ZM432.606 149V135.84H434.086V149H432.606ZM433.106 142.92V141.72H443.086V142.92H433.106ZM448.058 149V135.84H449.598V149H448.058ZM466.85 149L466.29 136.52L466.97 136.28L461.47 147.88H460.57L455.27 136.86L455.29 135.84H456.33L461.45 146.4H460.99L465.99 135.84H467.55L468.33 149H466.85ZM453.79 149L454.65 135.84H455.73L455.15 149H453.79ZM486.313 149L481.613 136.66H482.173L477.493 149H475.993L481.413 135.84H482.673L487.893 149H486.313ZM478.373 144.48L478.793 143.3H484.713L485.353 144.48H478.373ZM490.926 149V135.84H492.066L492.266 149H490.926ZM501.406 149H500.786L491.426 136.82L491.446 135.84H492.426L501.366 147.38L501.406 149ZM502.026 135.84V149H500.866L500.686 135.84H502.026ZM506.395 149V135.84H510.475C511.582 135.84 512.588 135.987 513.495 136.28C514.402 136.573 515.182 137 515.835 137.56C516.488 138.12 516.988 138.793 517.335 139.58C517.682 140.367 517.855 141.247 517.855 142.22C517.855 143.06 517.715 143.887 517.435 144.7C517.155 145.513 516.715 146.247 516.115 146.9C515.515 147.54 514.742 148.053 513.795 148.44C512.848 148.813 511.728 149 510.435 149H506.395ZM507.875 147.92H510.555C511.595 147.92 512.475 147.773 513.195 147.48C513.928 147.187 514.522 146.787 514.975 146.28C515.442 145.76 515.775 145.18 515.975 144.54C516.188 143.887 516.295 143.193 516.295 142.46C516.295 141.447 516.075 140.527 515.635 139.7C515.208 138.86 514.548 138.193 513.655 137.7C512.762 137.193 511.628 136.94 510.255 136.94H507.875V147.92ZM77.8475 176V162.84H79.3275V176H77.8475ZM68.3675 176V162.84H69.8475V176H68.3675ZM68.8675 169.92V168.72H78.8475V169.92H68.8675ZM83.82 176V162.84H85.36V176H83.82ZM95.6119 172.82C95.6119 172.34 95.4985 171.933 95.2719 171.6C95.0452 171.267 94.7385 170.98 94.3519 170.74C93.9785 170.487 93.5652 170.26 93.1119 170.06C92.6585 169.847 92.2052 169.627 91.7519 169.4C91.2985 169.173 90.8785 168.92 90.4919 168.64C90.1185 168.36 89.8185 168.027 89.5919 167.64C89.3652 167.24 89.2519 166.76 89.2519 166.2C89.2519 165.467 89.4252 164.84 89.7719 164.32C90.1185 163.787 90.5985 163.38 91.2119 163.1C91.8252 162.807 92.5252 162.66 93.3119 162.66C93.8719 162.66 94.4452 162.733 95.0319 162.88C95.6185 163.013 96.1385 163.22 96.5919 163.5L96.0519 164.82C95.6519 164.487 95.1785 164.227 94.6319 164.04C94.0985 163.853 93.5719 163.76 93.0519 163.76C92.5052 163.76 92.0452 163.86 91.6719 164.06C91.3119 164.26 91.0452 164.52 90.8719 164.84C90.6985 165.147 90.6119 165.487 90.6119 165.86C90.6119 166.273 90.7252 166.633 90.9519 166.94C91.1919 167.233 91.4985 167.493 91.8719 167.72C92.2585 167.947 92.6785 168.167 93.1319 168.38C93.5852 168.58 94.0385 168.8 94.4919 169.04C94.9452 169.267 95.3585 169.533 95.7319 169.84C96.1185 170.147 96.4252 170.513 96.6519 170.94C96.8919 171.367 97.0119 171.873 97.0119 172.46C97.0119 173.247 96.8252 173.92 96.4519 174.48C96.0785 175.04 95.5652 175.467 94.9119 175.76C94.2719 176.053 93.5385 176.2 92.7119 176.2C91.8852 176.2 91.1119 176.08 90.3919 175.84C89.6852 175.587 89.0985 175.253 88.6319 174.84L89.3719 173.62C89.8519 174.073 90.4119 174.427 91.0519 174.68C91.6919 174.933 92.3385 175.06 92.9919 175.06C93.8185 175.06 94.4585 174.86 94.9119 174.46C95.3785 174.047 95.6119 173.5 95.6119 172.82ZM105.223 176V162.84H112.943V164.02H106.703V176H105.223ZM105.723 170.36V169.18H112.183V170.36H105.723ZM124.575 176L119.875 163.66H120.435L115.755 176H114.255L119.675 162.84H120.935L126.155 176H124.575ZM116.635 171.48L117.055 170.3H122.975L123.615 171.48H116.635ZM141.948 176L141.388 163.52L142.068 163.28L136.568 174.88H135.668L130.368 163.86L130.388 162.84H131.428L136.548 173.4H136.088L141.088 162.84H142.648L143.428 176H141.948ZM128.888 176L129.748 162.84H130.828L130.248 176H128.888ZM147.629 176V162.84H149.169V176H147.629ZM153.66 176V162.84H155.14V176H153.66ZM154.16 176V174.82H161.98V176H154.16ZM166.969 171.04L161.649 162.84H163.469L167.949 170.16L166.969 171.04ZM166.669 176V170.14H168.169V176H166.669ZM167.909 170.98L167.089 170.16L171.629 162.84H173.209L167.909 170.98ZM175.986 179.68L175.366 179.32C175.673 178.92 175.899 178.473 176.046 177.98C176.206 177.487 176.286 176.993 176.286 176.5C176.286 175.993 176.219 175.547 176.086 175.16C175.953 174.773 175.753 174.473 175.486 174.26L176.686 173.64C177.046 173.933 177.299 174.28 177.446 174.68C177.606 175.08 177.686 175.513 177.686 175.98C177.686 176.46 177.619 176.927 177.486 177.38C177.353 177.847 177.159 178.273 176.906 178.66C176.653 179.06 176.346 179.4 175.986 179.68ZM195.914 176V162.84H197.394V176H195.914ZM186.434 176V162.84H187.914V176H186.434ZM186.934 169.92V168.72H196.914V169.92H186.934ZM210.046 176H201.746V162.84H209.426V164.02H203.186V174.82H210.046V176ZM202.246 169.9V168.76H208.666V169.9H202.246ZM213.328 176V162.84H216.888C217.795 162.84 218.575 162.973 219.228 163.24C219.895 163.507 220.408 163.887 220.768 164.38C221.128 164.873 221.308 165.467 221.308 166.16C221.308 166.72 221.175 167.253 220.908 167.76C220.655 168.267 220.308 168.72 219.868 169.12C219.428 169.507 218.922 169.813 218.348 170.04C217.788 170.267 217.195 170.38 216.568 170.38H213.888V169.3H216.748C217.295 169.3 217.795 169.167 218.248 168.9C218.715 168.633 219.088 168.28 219.368 167.84C219.662 167.387 219.808 166.907 219.808 166.4C219.808 165.64 219.548 165.04 219.028 164.6C218.508 164.16 217.755 163.94 216.768 163.94H214.768V176H213.328ZM223.368 176.18C222.835 176.18 222.355 176.1 221.928 175.94C221.515 175.767 221.108 175.493 220.708 175.12C220.322 174.733 219.902 174.22 219.448 173.58L216.908 169.98L218.088 169.56L220.848 173.06C221.275 173.593 221.655 174.013 221.988 174.32C222.322 174.613 222.635 174.82 222.928 174.94C223.235 175.06 223.542 175.12 223.848 175.12C223.968 175.12 224.115 175.113 224.288 175.1C224.462 175.087 224.635 175.053 224.808 175L225.108 175.86C224.775 175.98 224.468 176.06 224.188 176.1C223.908 176.153 223.635 176.18 223.368 176.18ZM231.766 176V162.84H239.486V164.02H233.246V176H231.766ZM232.266 170.36V169.18H238.726V170.36H232.266ZM251.118 176L246.418 163.66H246.978L242.298 176H240.798L246.218 162.84H247.478L252.698 176H251.118ZM243.178 171.48L243.598 170.3H249.518L250.158 171.48H243.178ZM268.491 176L267.931 163.52L268.611 163.28L263.111 174.88H262.211L256.911 163.86L256.931 162.84H257.971L263.091 173.4H262.631L267.631 162.84H269.191L269.971 176H268.491ZM255.431 176L256.291 162.84H257.371L256.791 176H255.431ZM274.172 176V162.84H275.712V176H274.172ZM280.203 176V162.84H281.683V176H280.203ZM280.703 176V174.82H288.523V176H280.703ZM293.512 171.04L288.192 162.84H290.012L294.492 170.16L293.512 171.04ZM293.212 176V170.14H294.712V176H293.212ZM294.452 170.98L293.632 170.16L298.172 162.84H299.752L294.452 170.98ZM307.391 176V162.84H315.111V164.02H308.871V176H307.391ZM307.891 170.36V169.18H314.351V170.36H307.891ZM326.511 176H318.211V162.84H325.891V164.02H319.651V174.82H326.511V176ZM318.711 169.9V168.76H325.131V169.9H318.711ZM329.793 176V162.84H331.273V176H329.793ZM330.293 176V174.82H338.113V176H330.293ZM342.606 176V162.84H344.126V176H342.606ZM337.626 164.02V162.84H349.106V164.02H337.626ZM362.466 176.18C361.133 176.18 359.953 175.907 358.926 175.36C357.913 174.8 357.12 174.027 356.546 173.04C355.986 172.04 355.706 170.88 355.706 169.56C355.706 168.52 355.88 167.58 356.226 166.74C356.573 165.887 357.06 165.16 357.686 164.56C358.326 163.947 359.066 163.48 359.906 163.16C360.76 162.827 361.686 162.66 362.686 162.66C363.42 162.66 364.126 162.753 364.806 162.94C365.486 163.127 366.126 163.4 366.726 163.76L366.026 165.06C365.453 164.633 364.873 164.313 364.286 164.1C363.7 163.873 363.06 163.76 362.366 163.76C361.34 163.76 360.446 163.993 359.686 164.46C358.926 164.927 358.333 165.58 357.906 166.42C357.493 167.247 357.286 168.213 357.286 169.32C357.286 170.48 357.52 171.493 357.986 172.36C358.466 173.227 359.106 173.9 359.906 174.38C360.706 174.86 361.6 175.1 362.586 175.1C363.333 175.1 364.013 174.973 364.626 174.72C365.24 174.467 365.793 174.12 366.286 173.68L366.926 174.84C366.26 175.28 365.56 175.613 364.826 175.84C364.093 176.067 363.306 176.18 362.466 176.18ZM375.335 176.18C374.055 176.18 372.908 175.893 371.895 175.32C370.895 174.747 370.108 173.953 369.535 172.94C368.962 171.927 368.675 170.773 368.675 169.48C368.675 168.467 368.848 167.54 369.195 166.7C369.555 165.86 370.048 165.14 370.675 164.54C371.315 163.94 372.048 163.48 372.875 163.16C373.715 162.827 374.615 162.66 375.575 162.66C376.855 162.66 377.995 162.947 378.995 163.52C379.995 164.093 380.782 164.887 381.355 165.9C381.928 166.9 382.215 168.053 382.215 169.36C382.215 170.373 382.035 171.3 381.675 172.14C381.328 172.98 380.842 173.7 380.215 174.3C379.588 174.9 378.855 175.367 378.015 175.7C377.188 176.02 376.295 176.18 375.335 176.18ZM375.595 175.1C376.595 175.1 377.475 174.867 378.235 174.4C378.995 173.933 379.582 173.287 379.995 172.46C380.422 171.62 380.635 170.66 380.635 169.58C380.635 168.407 380.402 167.387 379.935 166.52C379.468 165.64 378.828 164.96 378.015 164.48C377.215 163.987 376.308 163.74 375.295 163.74C374.322 163.74 373.455 163.973 372.695 164.44C371.948 164.907 371.362 165.553 370.935 166.38C370.508 167.207 370.295 168.167 370.295 169.26C370.295 170.42 370.528 171.44 370.995 172.32C371.462 173.2 372.095 173.887 372.895 174.38C373.708 174.86 374.608 175.1 375.595 175.1ZM385.535 176V162.84H386.675L386.875 176H385.535ZM396.015 176H395.395L386.035 163.82L386.055 162.84H387.035L395.975 174.38L396.015 176ZM396.635 162.84V176H395.475L395.295 162.84H396.635ZM401.004 176V162.84H408.724V164.02H402.484V176H401.004ZM401.504 170.36V169.18H407.964V170.36H401.504ZM411.965 176V162.84H413.505V176H411.965ZM417.996 176V162.84H422.076C423.183 162.84 424.19 162.987 425.096 163.28C426.003 163.573 426.783 164 427.436 164.56C428.09 165.12 428.59 165.793 428.936 166.58C429.283 167.367 429.456 168.247 429.456 169.22C429.456 170.06 429.316 170.887 429.036 171.7C428.756 172.513 428.316 173.247 427.716 173.9C427.116 174.54 426.343 175.053 425.396 175.44C424.45 175.813 423.33 176 422.036 176H417.996ZM419.476 174.92H422.156C423.196 174.92 424.076 174.773 424.796 174.48C425.53 174.187 426.123 173.787 426.576 173.28C427.043 172.76 427.376 172.18 427.576 171.54C427.79 170.887 427.896 170.193 427.896 169.46C427.896 168.447 427.676 167.527 427.236 166.7C426.81 165.86 426.15 165.193 425.256 164.7C424.363 164.193 423.23 163.94 421.856 163.94H419.476V174.92ZM441.082 176H432.782V162.84H440.462V164.02H434.222V174.82H441.082V176ZM433.282 169.9V168.76H439.702V169.9H433.282ZM444.364 176V162.84H445.504L445.704 176H444.364ZM454.844 176H454.224L444.864 163.82L444.884 162.84H445.864L454.804 174.38L454.844 176ZM455.464 162.84V176H454.304L454.124 162.84H455.464ZM463.172 176V162.84H464.692V176H463.172ZM458.192 164.02V162.84H469.672V164.02H458.192ZM486.313 176L481.613 163.66H482.173L477.493 176H475.993L481.413 162.84H482.673L487.893 176H486.313ZM478.373 171.48L478.793 170.3H484.713L485.353 171.48H478.373ZM490.926 176V162.84H492.066L492.266 176H490.926ZM501.406 176H500.786L491.426 163.82L491.446 162.84H492.426L501.366 174.38L501.406 176ZM502.026 162.84V176H500.866L500.686 162.84H502.026ZM506.395 176V162.84H510.475C511.582 162.84 512.588 162.987 513.495 163.28C514.402 163.573 515.182 164 515.835 164.56C516.488 165.12 516.988 165.793 517.335 166.58C517.682 167.367 517.855 168.247 517.855 169.22C517.855 170.06 517.715 170.887 517.435 171.7C517.155 172.513 516.715 173.247 516.115 173.9C515.515 174.54 514.742 175.053 513.795 175.44C512.848 175.813 511.728 176 510.435 176H506.395ZM507.875 174.92H510.555C511.595 174.92 512.475 174.773 513.195 174.48C513.928 174.187 514.522 173.787 514.975 173.28C515.442 172.76 515.775 172.18 515.975 171.54C516.188 170.887 516.295 170.193 516.295 169.46C516.295 168.447 516.075 167.527 515.635 166.7C515.208 165.86 514.548 165.193 513.655 164.7C512.762 164.193 511.628 163.94 510.255 163.94H507.875V174.92ZM267.457 203V189.84H268.937V203H267.457ZM257.977 203V189.84H259.457V203H257.977ZM258.477 196.92V195.72H268.457V196.92H258.477ZM282.289 203L277.589 190.66H278.149L273.469 203H271.969L277.389 189.84H278.649L283.869 203H282.289ZM274.349 198.48L274.769 197.3H280.689L281.329 198.48H274.349ZM290.003 198.34C289.789 198.34 289.469 198.327 289.043 198.3C288.629 198.273 288.223 198.22 287.823 198.14V197.04C288.289 197.093 288.716 197.133 289.103 197.16C289.503 197.187 289.856 197.2 290.163 197.2C290.989 197.2 291.676 197.073 292.223 196.82C292.783 196.553 293.203 196.187 293.483 195.72C293.763 195.24 293.903 194.673 293.903 194.02C293.903 193.02 293.569 192.26 292.903 191.74C292.249 191.22 291.376 190.96 290.283 190.96H288.363V203H286.903V189.84H290.523C291.496 189.84 292.343 189.993 293.063 190.3C293.796 190.593 294.369 191.027 294.783 191.6C295.196 192.173 295.403 192.873 295.403 193.7C295.403 194.34 295.276 194.94 295.023 195.5C294.769 196.06 294.403 196.553 293.923 196.98C293.456 197.407 292.889 197.74 292.223 197.98C291.569 198.22 290.829 198.34 290.003 198.34ZM301.663 198.34C301.449 198.34 301.129 198.327 300.703 198.3C300.289 198.273 299.883 198.22 299.483 198.14V197.04C299.949 197.093 300.376 197.133 300.763 197.16C301.163 197.187 301.516 197.2 301.823 197.2C302.649 197.2 303.336 197.073 303.883 196.82C304.443 196.553 304.863 196.187 305.143 195.72C305.423 195.24 305.563 194.673 305.563 194.02C305.563 193.02 305.229 192.26 304.563 191.74C303.909 191.22 303.036 190.96 301.943 190.96H300.023V203H298.563V189.84H302.183C303.156 189.84 304.003 189.993 304.723 190.3C305.456 190.593 306.029 191.027 306.443 191.6C306.856 192.173 307.063 192.873 307.063 193.7C307.063 194.34 306.936 194.94 306.683 195.5C306.429 196.06 306.063 196.553 305.583 196.98C305.116 197.407 304.549 197.74 303.883 197.98C303.229 198.22 302.489 198.34 301.663 198.34ZM313.903 198.04L308.583 189.84H310.403L314.883 197.16L313.903 198.04ZM313.603 203V197.14H315.103V203H313.603ZM314.843 197.98L314.023 197.16L318.563 189.84H320.143L314.843 197.98ZM336.782 203L332.082 190.66H332.642L327.962 203H326.462L331.882 189.84H333.142L338.362 203H336.782ZM328.842 198.48L329.262 197.3H335.182L335.822 198.48H328.842ZM345.055 196.56L345.275 195.72C346.195 195.72 347.002 195.867 347.695 196.16C348.388 196.453 348.928 196.867 349.315 197.4C349.702 197.92 349.895 198.547 349.895 199.28C349.895 200.013 349.702 200.66 349.315 201.22C348.928 201.767 348.375 202.2 347.655 202.52C346.948 202.84 346.108 203 345.135 203H341.395V189.84H345.055C345.882 189.84 346.588 189.967 347.175 190.22C347.762 190.473 348.215 190.84 348.535 191.32C348.868 191.787 349.035 192.347 349.035 193C349.035 193.493 348.935 193.96 348.735 194.4C348.535 194.827 348.255 195.207 347.895 195.54C347.535 195.86 347.115 196.113 346.635 196.3C346.155 196.473 345.628 196.56 345.055 196.56ZM342.315 195.62H345.195C345.928 195.62 346.522 195.407 346.975 194.98C347.442 194.54 347.675 193.967 347.675 193.26C347.675 192.58 347.448 192.02 346.995 191.58C346.555 191.14 345.828 190.92 344.815 190.92H342.795V201.92H345.355C346.342 201.92 347.102 201.68 347.635 201.2C348.168 200.72 348.435 200.08 348.435 199.28C348.435 198.467 348.142 197.827 347.555 197.36C346.982 196.893 346.115 196.66 344.955 196.66H342.315V195.62ZM358.695 203.18C357.415 203.18 356.268 202.893 355.255 202.32C354.255 201.747 353.468 200.953 352.895 199.94C352.321 198.927 352.035 197.773 352.035 196.48C352.035 195.467 352.208 194.54 352.555 193.7C352.915 192.86 353.408 192.14 354.035 191.54C354.675 190.94 355.408 190.48 356.235 190.16C357.075 189.827 357.975 189.66 358.935 189.66C360.215 189.66 361.355 189.947 362.355 190.52C363.355 191.093 364.141 191.887 364.715 192.9C365.288 193.9 365.575 195.053 365.575 196.36C365.575 197.373 365.395 198.3 365.035 199.14C364.688 199.98 364.201 200.7 363.575 201.3C362.948 201.9 362.215 202.367 361.375 202.7C360.548 203.02 359.655 203.18 358.695 203.18ZM358.955 202.1C359.955 202.1 360.835 201.867 361.595 201.4C362.355 200.933 362.941 200.287 363.355 199.46C363.781 198.62 363.995 197.66 363.995 196.58C363.995 195.407 363.761 194.387 363.295 193.52C362.828 192.64 362.188 191.96 361.375 191.48C360.575 190.987 359.668 190.74 358.655 190.74C357.681 190.74 356.815 190.973 356.055 191.44C355.308 191.907 354.721 192.553 354.295 193.38C353.868 194.207 353.655 195.167 353.655 196.26C353.655 197.42 353.888 198.44 354.355 199.32C354.821 200.2 355.455 200.887 356.255 201.38C357.068 201.86 357.968 202.1 358.955 202.1ZM373.955 203.18C372.888 203.18 371.948 202.96 371.135 202.52C370.335 202.08 369.708 201.46 369.255 200.66C368.815 199.86 368.595 198.913 368.595 197.82V189.84H370.075V197.52C370.075 198.44 370.242 199.233 370.575 199.9C370.908 200.567 371.388 201.08 372.015 201.44C372.642 201.8 373.375 201.98 374.215 201.98C375.042 201.98 375.748 201.813 376.335 201.48C376.935 201.133 377.395 200.647 377.715 200.02C378.035 199.393 378.195 198.673 378.195 197.86V189.84H379.495V197.54C379.495 198.673 379.262 199.667 378.795 200.52C378.342 201.36 377.702 202.013 376.875 202.48C376.048 202.947 375.075 203.18 373.955 203.18ZM386.844 203V189.84H388.364V203H386.844ZM381.864 191.02V189.84H393.344V191.02H381.864ZM404.325 203V189.84H405.845V203H404.325ZM399.345 191.02V189.84H410.825V191.02H399.345ZM423.023 203V189.84H424.503V203H423.023ZM413.543 203V189.84H415.023V203H413.543ZM414.043 196.92V195.72H424.023V196.92H414.043ZM437.156 203H428.856V189.84H436.536V191.02H430.296V201.82H437.156V203ZM429.356 196.9V195.76H435.776V196.9H429.356ZM458.12 203L457.56 190.52L458.24 190.28L452.74 201.88H451.84L446.54 190.86L446.56 189.84H447.6L452.72 200.4H452.26L457.26 189.84H458.82L459.6 203H458.12ZM445.06 203L445.92 189.84H447L446.42 203H445.06ZM472.66 203L467.96 190.66H468.52L463.84 203H462.34L467.76 189.84H469.02L474.24 203H472.66ZM464.72 198.48L465.14 197.3H471.06L471.7 198.48H464.72ZM479.129 203V189.84H480.649V203H479.129ZM474.149 191.02V189.84H485.629V191.02H474.149ZM493.423 203.18C492.09 203.18 490.91 202.907 489.883 202.36C488.87 201.8 488.077 201.027 487.503 200.04C486.943 199.04 486.663 197.88 486.663 196.56C486.663 195.52 486.837 194.58 487.183 193.74C487.53 192.887 488.017 192.16 488.643 191.56C489.283 190.947 490.023 190.48 490.863 190.16C491.717 189.827 492.643 189.66 493.643 189.66C494.377 189.66 495.083 189.753 495.763 189.94C496.443 190.127 497.083 190.4 497.683 190.76L496.983 192.06C496.41 191.633 495.83 191.313 495.243 191.1C494.657 190.873 494.017 190.76 493.323 190.76C492.297 190.76 491.403 190.993 490.643 191.46C489.883 191.927 489.29 192.58 488.863 193.42C488.45 194.247 488.243 195.213 488.243 196.32C488.243 197.48 488.477 198.493 488.943 199.36C489.423 200.227 490.063 200.9 490.863 201.38C491.663 201.86 492.557 202.1 493.543 202.1C494.29 202.1 494.97 201.973 495.583 201.72C496.197 201.467 496.75 201.12 497.243 200.68L497.883 201.84C497.217 202.28 496.517 202.613 495.783 202.84C495.05 203.067 494.263 203.18 493.423 203.18ZM510.25 203V189.84H511.73V203H510.25ZM500.77 203V189.84H502.25V203H500.77ZM501.27 196.92V195.72H511.25V196.92H501.27ZM516.462 203.1C516.156 203.1 515.902 203.007 515.702 202.82C515.516 202.633 515.422 202.393 515.422 202.1C515.422 201.793 515.516 201.547 515.702 201.36C515.902 201.173 516.156 201.08 516.462 201.08C516.769 201.08 517.009 201.173 517.182 201.36C517.369 201.547 517.462 201.793 517.462 202.1C517.462 202.393 517.369 202.633 517.182 202.82C517.009 203.007 516.769 203.1 516.462 203.1Z" fill="#1A1A1A"/>
</svg>
