<svg width="155" height="155" viewBox="0 0 155 155" fill="none" xmlns="http://www.w3.org/2000/svg">
<path d="M154.131 9.72622C153.358 7.50422 150.922 6.32522 148.698 7.09722C147.084 7.65822 146.228 9.42822 146.789 11.0412C147.204 12.2342 148.513 12.8682 149.706 12.4522C150.609 12.1382 151.088 11.1482 150.774 10.2452C150.656 9.90522 150.412 9.63122 150.088 9.47422C149.764 9.31722 149.398 9.29622 149.058 9.41422C148.803 9.50222 148.669 9.78122 148.757 10.0352C148.845 10.2892 149.123 10.4242 149.378 10.3352C149.472 10.3022 149.573 10.3082 149.662 10.3512C149.751 10.3942 149.819 10.4702 149.851 10.5642C149.917 10.7552 149.905 10.9612 149.817 11.1432C149.729 11.3252 149.575 11.4622 149.384 11.5282C148.699 11.7672 147.948 11.4032 147.71 10.7182C147.326 9.61222 147.912 8.40022 149.018 8.01622C150.731 7.41922 152.612 8.32922 153.208 10.0442C154.111 12.6402 152.734 15.4862 150.138 16.3892C148.973 16.7952 147.567 16.2602 145.94 15.6422C143.056 14.5452 139.606 13.2322 135.931 16.6942C135.301 16.0002 134.662 15.1412 134.014 14.0892C133.939 13.9672 133.814 13.8852 133.673 13.8632C133.532 13.8412 133.388 13.8832 133.279 13.9762L130.043 16.7712C123.392 11.0052 118.619 10.7392 110.609 15.6172C107.788 17.3342 104.75 16.5452 103.122 15.0862C101.635 13.7532 101.249 11.8862 102.089 10.0912C102.927 8.29922 104.657 7.44622 106.298 8.01722C107.403 8.40122 107.99 9.61322 107.606 10.7192C107.368 11.4042 106.617 11.7682 105.932 11.5292C105.741 11.4632 105.587 11.3262 105.499 11.1442C105.411 10.9622 105.399 10.7562 105.466 10.5652C105.498 10.4712 105.566 10.3962 105.655 10.3522C105.744 10.3092 105.845 10.3032 105.939 10.3362C106.194 10.4252 106.472 10.2902 106.56 10.0362C106.649 9.78122 106.514 9.50322 106.259 9.41522C105.919 9.29722 105.553 9.31822 105.229 9.47522C104.905 9.63222 104.661 9.90622 104.543 10.2462C104.391 10.6832 104.418 11.1542 104.62 11.5712C104.822 11.9882 105.173 12.3012 105.611 12.4532C106.804 12.8682 108.113 12.2352 108.528 11.0422C109.089 9.42822 108.233 7.65922 106.619 7.09822C104.523 6.36822 102.247 7.45522 101.205 9.68022C100.173 11.8862 100.646 14.1802 102.47 15.8152C102.944 16.2402 103.521 16.6162 104.169 16.9102H89.2868C89.5018 16.7962 89.7058 16.6532 89.8858 16.4722C90.9758 15.3812 90.7138 13.4482 90.7018 13.3662C90.6708 13.1512 90.5028 12.9832 90.2878 12.9522C90.2208 12.9422 88.9088 12.7652 87.8368 13.3032C87.9358 12.8662 88.0008 12.4732 88.0008 12.1912C88.0008 10.8232 86.6308 9.78122 86.5728 9.73722C86.3988 9.60722 86.1608 9.60722 85.9878 9.73722C85.9298 9.78122 84.5598 10.8232 84.5598 12.1912C84.5598 12.4732 84.6248 12.8662 84.7238 13.3032C83.6518 12.7652 82.3398 12.9422 82.2728 12.9522C82.0578 12.9832 81.8898 13.1512 81.8588 13.3662C81.8468 13.4482 81.5848 15.3812 82.6748 16.4722C82.8558 16.6532 83.0598 16.7962 83.2738 16.9102H73.3548C76.1278 16.3872 77.5838 14.9222 78.2568 13.9762C79.3028 12.5042 79.6328 10.6702 79.1178 9.19022C78.3778 7.06422 76.0468 5.93522 73.9208 6.67522C72.3738 7.21322 71.5528 8.90922 72.0908 10.4572C72.4898 11.6042 73.7488 12.2122 74.8948 11.8142C75.7658 11.5112 76.2278 10.5562 75.9248 9.68522C75.8098 9.35622 75.5748 9.09022 75.2598 8.93922C74.9448 8.78722 74.5908 8.76622 74.2618 8.88122C73.9958 8.97322 73.7818 9.16422 73.6598 9.41722C73.5368 9.67022 73.5208 9.95622 73.6128 10.2222C73.7008 10.4772 73.9798 10.6122 74.2338 10.5232C74.4888 10.4352 74.6228 10.1562 74.5348 9.90222C74.5208 9.86222 74.5418 9.81822 74.5828 9.80422C74.6668 9.77522 74.7558 9.78022 74.8348 9.81922C74.9138 9.85722 74.9738 9.92422 75.0028 10.0072C75.1288 10.3702 74.9368 10.7672 74.5738 10.8942C73.9358 11.1162 73.2348 10.7772 73.0118 10.1382C72.6508 9.09922 73.2018 7.96022 74.2408 7.59922C75.0248 7.32622 75.8668 7.37522 76.6148 7.73722C77.3618 8.09822 77.9238 8.72922 78.1958 9.51322C78.6088 10.7002 78.3268 12.1942 77.4608 13.4132C76.9038 14.1972 75.7128 15.3882 73.4578 15.8912C73.7618 15.4462 73.9398 14.9082 73.9398 14.3302C73.9398 12.7992 72.6938 11.5532 71.1628 11.5532C69.6318 11.5532 68.3858 12.7992 68.3858 14.3302C68.3858 14.9222 68.5738 15.4702 68.8898 15.9212C66.6808 15.4852 65.4728 14.4422 64.8248 13.5322C63.9698 12.3282 63.7128 10.7892 64.1568 9.51422C64.4298 8.73022 64.9908 8.10022 65.7378 7.73822C66.4848 7.37722 67.3278 7.32822 68.1108 7.60022C69.1498 7.96122 69.7008 9.10022 69.3398 10.1392C69.1178 10.7782 68.4168 11.1182 67.7788 10.8952C67.4158 10.7692 67.2238 10.3712 67.3498 10.0082C67.4098 9.83622 67.5978 9.74522 67.7698 9.80522C67.8098 9.81922 67.8308 9.86322 67.8168 9.90322C67.7278 10.1582 67.8628 10.4362 68.1178 10.5242C68.3718 10.6132 68.6508 10.4782 68.7388 10.2232C68.9298 9.67522 68.6388 9.07322 68.0908 8.88322C67.4098 8.64522 66.6648 9.00722 66.4278 9.68822C66.1248 10.5592 66.5878 11.5142 67.4578 11.8172C68.6048 12.2162 69.8628 11.6072 70.2618 10.4602C70.7998 8.91322 69.9788 7.21622 68.4318 6.67822C67.4018 6.32022 66.2938 6.38422 65.3128 6.85922C64.3308 7.33422 63.5938 8.16322 63.2348 9.19322C62.6888 10.7622 62.9938 12.6412 64.0288 14.0982C64.8038 15.1882 66.2498 16.4422 68.8838 16.9142H59.0158C59.2308 16.8002 59.4348 16.6572 59.6148 16.4762C60.7048 15.3852 60.4428 13.4522 60.4308 13.3702C60.3998 13.1552 60.2318 12.9872 60.0168 12.9562C59.9498 12.9462 58.6378 12.7692 57.5658 13.3072C57.6648 12.8702 57.7298 12.4772 57.7298 12.1952C57.7298 10.8272 56.3598 9.78522 56.3018 9.74122C56.1288 9.61122 55.8898 9.61122 55.7168 9.74122C55.6588 9.78522 54.2888 10.8272 54.2888 12.1952C54.2888 12.4772 54.3538 12.8702 54.4528 13.3072C53.3808 12.7692 52.0688 12.9462 52.0018 12.9562C51.7868 12.9872 51.6188 13.1552 51.5878 13.3702C51.5758 13.4522 51.3128 15.3852 52.4038 16.4762C52.5848 16.6572 52.7888 16.8002 53.0038 16.9142H43.0478C45.8208 16.3912 47.2768 14.9262 47.9498 13.9802C48.9958 12.5082 49.3258 10.6742 48.8108 9.19422C48.0708 7.06822 45.7398 5.93922 43.6138 6.67922C42.0668 7.21722 41.2458 8.91322 41.7838 10.4612C42.1828 11.6082 43.4408 12.2162 44.5878 11.8182C45.4588 11.5152 45.9208 10.5602 45.6178 9.68922C45.5028 9.36022 45.2668 9.09422 44.9528 8.94322C44.6388 8.79122 44.2838 8.77022 43.9548 8.88522C43.6888 8.97722 43.4748 9.16822 43.3528 9.42122C43.2308 9.67422 43.2138 9.96022 43.3058 10.2262C43.3938 10.4812 43.6728 10.6162 43.9268 10.5272C44.1818 10.4392 44.3158 10.1602 44.2278 9.90622C44.2138 9.86622 44.2348 9.82222 44.2758 9.80822C44.3598 9.77922 44.4488 9.78422 44.5278 9.82322C44.6068 9.86122 44.6668 9.92822 44.6958 10.0112C44.8218 10.3742 44.6298 10.7712 44.2668 10.8982C43.6298 11.1202 42.9278 10.7812 42.7048 10.1422C42.3438 9.10322 42.8948 7.96422 43.9338 7.60322C44.7178 7.33022 45.5608 7.37922 46.3078 7.74122C47.0548 8.10222 47.6158 8.73322 47.8888 9.51722C48.3018 10.7042 48.0198 12.1982 47.1538 13.4172C46.5968 14.2012 45.4058 15.3922 43.1508 15.8952C43.4548 15.4502 43.6328 14.9122 43.6328 14.3342C43.6328 12.8032 42.3868 11.5572 40.8558 11.5572C39.3248 11.5572 38.0788 12.8032 38.0788 14.3342C38.0788 14.9262 38.2668 15.4742 38.5828 15.9252C36.3728 15.4892 35.1648 14.4462 34.5178 13.5362C33.6628 12.3322 33.4058 10.7932 33.8498 9.51822C34.1228 8.73422 34.6838 8.10422 35.4308 7.74222C36.1778 7.38122 37.0208 7.33222 37.8048 7.60422C38.8438 7.96522 39.3948 9.10422 39.0338 10.1432C38.8118 10.7822 38.1128 11.1212 37.4718 10.8992C37.1098 10.7732 36.9168 10.3752 37.0428 10.0122C37.1028 9.84022 37.2908 9.74922 37.4628 9.80922C37.5028 9.82322 37.5238 9.86722 37.5098 9.90722C37.4208 10.1622 37.5558 10.4402 37.8108 10.5282C38.0658 10.6172 38.3438 10.4822 38.4318 10.2272C38.6228 9.67922 38.3318 9.07722 37.7838 8.88722C37.1038 8.64922 36.3578 9.01122 36.1208 9.69222C35.8188 10.5632 36.2808 11.5182 37.1508 11.8212C38.2968 12.2202 39.5558 11.6112 39.9548 10.4642C40.4928 8.91722 39.6718 7.22022 38.1248 6.68222C37.0948 6.32422 35.9878 6.38822 35.0058 6.86322C34.7448 6.98922 34.5028 7.14222 34.2788 7.31522C34.3908 6.62522 34.3308 5.91422 34.0948 5.23522C33.8228 4.45322 33.2628 3.82422 32.5178 3.46422C31.7728 3.10322 30.9318 3.05422 30.1498 3.32722C28.9568 3.74222 28.3238 5.05022 28.7388 6.24422C29.0528 7.14722 30.0438 7.62622 30.9458 7.31222C31.2858 7.19422 31.5598 6.95022 31.7158 6.62622C31.8728 6.30222 31.8938 5.93622 31.7758 5.59622C31.6878 5.34122 31.4098 5.20622 31.1548 5.29622C30.8998 5.38522 30.7658 5.66322 30.8538 5.91722C30.8868 6.01122 30.8808 6.11222 30.8368 6.20122C30.7938 6.29022 30.7178 6.35822 30.6238 6.39022C30.2308 6.52622 29.7968 6.31822 29.6598 5.92322C29.4218 5.23822 29.7848 4.48722 30.4698 4.24922C31.0048 4.06322 31.5808 4.09622 32.0918 4.34322C32.6018 4.59022 32.9858 5.02122 33.1718 5.55622C33.4608 6.38622 33.4088 7.28022 33.0258 8.07122C32.6428 8.86322 31.9748 9.45722 31.1438 9.74622C28.5478 10.6482 25.7018 9.27222 24.7988 6.67622C24.7768 6.61222 24.7428 6.55622 24.6998 6.50822C24.3668 5.14922 23.3768 3.97922 21.9598 3.48622C20.4558 2.96322 18.8388 3.05722 17.4058 3.75022C15.9728 4.44422 14.8948 5.65422 14.3728 7.15722C13.8148 8.76122 13.8078 10.6282 14.3528 12.4132C14.4168 12.6232 14.6108 12.7592 14.8198 12.7592C14.8668 12.7592 14.9148 12.7522 14.9628 12.7382C15.2208 12.6592 15.3658 12.3862 15.2868 12.1282C14.8088 10.5632 14.8118 8.86822 15.2948 7.47922C15.7328 6.22122 16.6328 5.20922 17.8318 4.63022C19.0308 4.05022 20.3828 3.97122 21.6398 4.40922C22.4708 4.69822 23.1388 5.29322 23.5218 6.08422C23.9048 6.87522 23.9568 7.76922 23.6678 8.59922C23.2838 9.70422 22.0718 10.2912 20.9658 9.90722C20.6338 9.79222 20.3668 9.55422 20.2138 9.23822C20.0608 8.92222 20.0398 8.56522 20.1558 8.23322C20.2228 8.04222 20.3588 7.88822 20.5418 7.80022C20.7238 7.71222 20.9298 7.70022 21.1198 7.76622C21.3138 7.83322 21.4168 8.04622 21.3488 8.24022C21.2608 8.49522 21.3948 8.77322 21.6498 8.86122C21.9048 8.94822 22.1828 8.81522 22.2708 8.56022C22.5148 7.85822 22.1418 7.08822 21.4398 6.84422C21.0028 6.69222 20.5328 6.71922 20.1158 6.92122C19.6988 7.12322 19.3858 7.47522 19.2338 7.91222C19.0328 8.49022 19.0688 9.11222 19.3358 9.66322C19.6028 10.2142 20.0678 10.6282 20.6458 10.8292C22.2598 11.3902 24.0288 10.5342 24.5908 8.92022C24.6328 8.79822 24.6668 8.67522 24.6978 8.55222C25.8198 10.0872 27.6208 11.0002 29.5148 11.0002C30.1628 11.0002 30.8218 10.8932 31.4678 10.6692C31.9388 10.5052 32.3658 10.2622 32.7428 9.95822C32.5058 11.3472 32.8518 12.8732 33.7238 14.1012C34.4988 15.1922 35.9448 16.4462 38.5788 16.9172H21.1818C20.4648 16.9172 19.7778 16.7942 19.1378 16.5522C18.8858 16.4552 18.6038 16.5842 18.5088 16.8362C18.4128 17.0882 18.5408 17.3702 18.7928 17.4652C19.5428 17.7492 20.3468 17.8932 21.1818 17.8932H40.3718V23.9642C40.1858 23.6012 39.9818 23.2452 39.7408 22.9112C38.5008 21.1962 36.7398 20.2122 34.9088 20.2122L20.2058 20.2112L20.2068 34.9142C20.2068 36.7462 21.1908 38.5072 22.9058 39.7462C23.2398 39.9872 23.5948 40.1912 23.9588 40.3772H17.8878V21.1872C17.8878 20.3522 17.7438 19.5482 17.4598 18.7982C17.3648 18.5462 17.0828 18.4192 16.8308 18.5142C16.5788 18.6102 16.4508 18.8912 16.5468 19.1432C16.7888 19.7832 16.9118 20.4702 16.9118 21.1872V38.5862C16.4408 35.9532 15.1868 34.5062 14.0958 33.7312C12.8678 32.8582 11.3418 32.5122 9.95282 32.7502C10.2558 32.3732 10.4998 31.9462 10.6628 31.4752C10.8878 30.8292 10.9938 30.1702 10.9938 29.5222C10.9938 27.6282 10.0808 25.8282 8.54582 24.7052C8.66882 24.6742 8.79182 24.6402 8.91382 24.5982C10.5278 24.0372 11.3838 22.2672 10.8228 20.6542C10.6218 20.0762 10.2078 19.6112 9.65682 19.3442C9.10582 19.0772 8.48382 19.0412 7.90582 19.2432C7.46882 19.3952 7.11682 19.7082 6.91482 20.1252C6.71282 20.5422 6.68582 21.0132 6.83782 21.4492C7.08182 22.1512 7.85182 22.5242 8.55382 22.2802C8.80882 22.1912 8.94282 21.9142 8.85482 21.6592C8.76682 21.4042 8.48782 21.2702 8.23382 21.3582C8.03982 21.4252 7.82682 21.3232 7.75982 21.1292C7.69382 20.9382 7.70582 20.7332 7.79382 20.5512C7.88182 20.3692 8.03582 20.2322 8.22682 20.1652C8.55882 20.0502 8.91482 20.0702 9.23182 20.2232C9.54782 20.3762 9.78582 20.6432 9.90082 20.9752C10.2848 22.0812 9.69882 23.2932 8.59282 23.6772C7.76282 23.9662 6.86882 23.9142 6.07782 23.5312C5.28582 23.1482 4.69082 22.4802 4.40282 21.6492C3.96482 20.3922 4.04382 19.0392 4.62382 17.8402C5.20382 16.6422 6.21582 15.7412 7.47382 15.3032C8.86382 14.8202 10.5578 14.8172 12.1228 15.2952C12.3808 15.3742 12.6538 15.2282 12.7328 14.9712C12.7468 14.9232 12.7538 14.8752 12.7538 14.8282C12.7538 14.6192 12.6188 14.4262 12.4088 14.3612C10.6238 13.8162 8.75782 13.8232 7.15282 14.3812C5.64882 14.9042 4.43882 15.9812 3.74582 17.4152C3.05282 18.8482 2.95882 20.4652 3.48182 21.9692C3.97482 23.3862 5.14482 24.3762 6.50382 24.7092C6.55082 24.7522 6.60782 24.7862 6.67082 24.8082C9.26682 25.7112 10.6428 28.5572 9.74082 31.1532C9.45182 31.9842 8.85682 32.6522 8.06582 33.0352C7.27482 33.4182 6.38082 33.4702 5.55082 33.1812C5.01582 32.9952 4.58482 32.6112 4.33782 32.1012C4.09082 31.5902 4.05782 31.0152 4.24382 30.4792C4.48182 29.7942 5.23282 29.4312 5.91782 29.6692C6.31282 29.8072 6.52082 30.2402 6.38482 30.6332C6.35182 30.7272 6.28482 30.8022 6.19482 30.8462C6.10582 30.8892 6.00482 30.8952 5.91082 30.8632C5.65682 30.7742 5.37782 30.9092 5.28982 31.1632C5.19982 31.4182 5.33582 31.6962 5.59082 31.7842C5.93082 31.9022 6.29682 31.8812 6.62082 31.7242C6.94482 31.5672 7.18882 31.2942 7.30682 30.9542C7.62082 30.0522 7.14182 29.0612 6.23882 28.7472C5.04582 28.3322 3.73682 28.9652 3.32182 30.1582C3.04882 30.9402 3.09782 31.7812 3.45882 32.5262C3.81882 33.2712 4.44782 33.8312 5.22982 34.1032C5.90882 34.3392 6.61982 34.3992 7.30982 34.2872C7.13682 34.5112 6.98382 34.7532 6.85782 35.0142C6.38282 35.9962 6.31882 37.1042 6.67682 38.1332C7.21482 39.6802 8.91082 40.5012 10.4588 39.9632C11.6058 39.5642 12.2148 38.3052 11.8158 37.1592C11.5128 36.2882 10.5578 35.8262 9.68682 36.1292C9.00682 36.3662 8.64482 37.1122 8.88182 37.7922C9.07282 38.3402 9.67382 38.6312 10.2218 38.4402C10.4768 38.3512 10.6118 38.0732 10.5228 37.8192C10.4348 37.5642 10.1558 37.4302 9.90182 37.5182C9.86182 37.5322 9.81782 37.5112 9.80382 37.4702C9.74382 37.2982 9.83482 37.1102 10.0068 37.0502C10.3688 36.9242 10.7668 37.1162 10.8938 37.4792C11.1158 38.1202 10.7768 38.8192 10.1378 39.0412C9.09882 39.4022 7.95982 38.8512 7.59882 37.8122C7.32682 37.0292 7.37482 36.1862 7.73682 35.4382C8.09782 34.6912 8.72882 34.1302 9.51282 33.8572C10.7878 33.4142 12.3278 33.6692 13.5308 34.5252C14.4418 35.1732 15.4838 36.3802 15.9198 38.5902C15.4688 38.2732 14.9208 38.0862 14.3288 38.0862C12.7978 38.0862 11.5518 39.3322 11.5518 40.8632C11.5518 42.3942 12.7978 43.6402 14.3288 43.6402C14.9078 43.6402 15.4448 43.4622 15.8898 43.1582C15.3868 45.4132 14.1958 46.6032 13.4118 47.1602C12.1938 48.0262 10.6988 48.3082 9.51182 47.8952C8.72782 47.6222 8.09782 47.0612 7.73582 46.3142C7.37482 45.5672 7.32482 44.7242 7.59782 43.9402C7.95882 42.9012 9.09782 42.3502 10.1368 42.7112C10.7758 42.9342 11.1148 43.6352 10.8928 44.2732C10.7668 44.6362 10.3688 44.8282 10.0058 44.7022C9.92282 44.6732 9.85582 44.6132 9.81782 44.5342C9.77982 44.4552 9.77382 44.3662 9.80282 44.2822C9.81682 44.2422 9.86082 44.2202 9.90082 44.2342C10.1548 44.3232 10.4338 44.1882 10.5218 43.9332C10.6108 43.6792 10.4758 43.4002 10.2208 43.3122C9.95482 43.2202 9.66982 43.2362 9.41582 43.3592C9.16282 43.4812 8.97282 43.6952 8.87982 43.9612C8.76482 44.2902 8.78582 44.6442 8.93782 44.9592C9.08982 45.2732 9.35482 45.5092 9.68382 45.6242C10.5548 45.9272 11.5098 45.4652 11.8128 44.5942C12.2108 43.4472 11.6028 42.1892 10.4558 41.7902C8.90882 41.2522 7.21182 42.0732 6.67382 43.6202C5.93382 45.7462 7.06182 48.0782 9.18882 48.8172C10.6698 49.3322 12.5038 49.0022 13.9748 47.9562C14.9208 47.2832 16.3858 45.8272 16.9088 43.0542V53.0102C16.7948 52.7952 16.6518 52.5912 16.4708 52.4112C15.3798 51.3202 13.4468 51.5832 13.3648 51.5952C13.1498 51.6262 12.9818 51.7942 12.9508 52.0092C12.9408 52.0762 12.7638 53.3882 13.3018 54.4602C12.8648 54.3612 12.4718 54.2962 12.1898 54.2962C10.8218 54.2962 9.77982 55.6662 9.73582 55.7242C9.60582 55.8982 9.60582 56.1362 9.73582 56.3092C9.77982 56.3672 10.8218 57.7372 12.1898 57.7372C12.4718 57.7372 12.8648 57.6722 13.3018 57.5732C12.7638 58.6452 12.9408 59.9572 12.9508 60.0242C12.9818 60.2392 13.1498 60.4072 13.3648 60.4382C13.4468 60.4502 15.3798 60.7132 16.4708 59.6222C16.6518 59.4412 16.7948 59.2372 16.9088 59.0232V68.8912C16.4378 66.2582 15.1838 64.8122 14.0928 64.0362C12.6358 63.0012 10.7568 62.6962 9.18782 63.2422C8.15782 63.6002 7.32882 64.3382 6.85382 65.3202C6.37882 66.3022 6.31482 67.4092 6.67282 68.4392C7.21082 69.9862 8.90682 70.8072 10.4548 70.2692C11.6018 69.8702 12.2108 68.6122 11.8118 67.4652C11.5088 66.5942 10.5538 66.1322 9.68282 66.4352C9.00282 66.6722 8.64082 67.4172 8.87782 68.0982C9.06882 68.6462 9.66982 68.9372 10.2178 68.7462C10.4728 68.6582 10.6078 68.3792 10.5188 68.1252C10.4308 67.8702 10.1518 67.7362 9.89782 67.8242C9.85782 67.8382 9.81382 67.8172 9.79982 67.7772C9.73982 67.6052 9.83082 67.4172 10.0028 67.3572C10.3648 67.2312 10.7628 67.4242 10.8898 67.7862C11.1128 68.4242 10.7728 69.1252 10.1338 69.3472C9.09482 69.7082 7.95582 69.1572 7.59482 68.1182C7.32282 67.3342 7.37082 66.4912 7.73282 65.7442C8.09382 64.9972 8.72482 64.4362 9.50882 64.1632C10.7838 63.7192 12.3238 63.9762 13.5268 64.8312C14.4378 65.4792 15.4798 66.6862 15.9158 68.8962C15.4648 68.5792 14.9168 68.3922 14.3248 68.3922C12.7938 68.3922 11.5478 69.6382 11.5478 71.1692C11.5478 72.7002 12.7938 73.9462 14.3248 73.9462C14.9038 73.9462 15.4408 73.7682 15.8858 73.4642C15.3828 75.7192 14.1918 76.9092 13.4078 77.4672C12.1898 78.3332 10.6948 78.6152 9.50782 78.2022C8.72382 77.9292 8.09382 77.3682 7.73182 76.6212C7.37082 75.8742 7.32082 75.0312 7.59382 74.2472C7.95482 73.2082 9.09382 72.6572 10.1328 73.0182C10.7718 73.2412 11.1108 73.9422 10.8888 74.5802C10.7628 74.9432 10.3648 75.1352 10.0018 75.0092C9.91882 74.9802 9.85182 74.9202 9.81382 74.8412C9.77582 74.7622 9.76982 74.6732 9.79882 74.5892C9.81282 74.5492 9.85682 74.5272 9.89682 74.5412C10.1508 74.6302 10.4298 74.4952 10.5178 74.2402C10.6068 73.9852 10.4718 73.7072 10.2168 73.6192C9.95082 73.5272 9.66582 73.5432 9.41182 73.6662C9.15882 73.7892 8.96882 74.0032 8.87582 74.2682C8.76082 74.5972 8.78182 74.9512 8.93382 75.2662C9.08582 75.5802 9.35082 75.8162 9.67982 75.9312C10.5508 76.2342 11.5058 75.7722 11.8088 74.9012C12.2068 73.7542 11.5988 72.4962 10.4518 72.0972C8.90482 71.5592 7.20782 72.3802 6.66982 73.9272C5.92982 76.0542 7.05782 78.3852 9.18482 79.1242C10.6658 79.6392 12.4998 79.3092 13.9708 78.2632C14.9168 77.5902 16.3818 76.1342 16.9048 73.3612V83.2802C16.7908 83.0652 16.6478 82.8612 16.4668 82.6812C15.3758 81.5902 13.4428 81.8532 13.3608 81.8652C13.1458 81.8962 12.9778 82.0642 12.9468 82.2792C12.9368 82.3462 12.7598 83.6592 13.2978 84.7302C12.8608 84.6312 12.4678 84.5662 12.1858 84.5662C10.8178 84.5662 9.77582 85.9362 9.73182 85.9942C9.60182 86.1682 9.60182 86.4062 9.73182 86.5792C9.77582 86.6372 10.8178 88.0072 12.1858 88.0072C12.4678 88.0072 12.8608 87.9422 13.2978 87.8432C12.7598 88.9152 12.9368 90.2272 12.9468 90.2942C12.9778 90.5082 13.1458 90.6772 13.3608 90.7082C13.4428 90.7202 15.3758 90.9832 16.4668 89.8922C16.6478 89.7112 16.7908 89.5072 16.9048 89.2932V104.175C16.6108 103.526 16.2348 102.95 15.8098 102.476C14.1738 100.651 11.8808 100.178 9.67482 101.211C7.44982 102.253 6.36282 104.529 7.09282 106.625C7.65382 108.239 9.42282 109.095 11.0368 108.534C12.2298 108.119 12.8628 106.81 12.4478 105.617C12.2958 105.18 11.9828 104.828 11.5658 104.626C11.1488 104.424 10.6788 104.397 10.2408 104.549C9.90082 104.667 9.62682 104.911 9.46982 105.235C9.31382 105.559 9.29282 105.926 9.41082 106.265C9.49882 106.52 9.77782 106.654 10.0318 106.566C10.2858 106.477 10.4208 106.2 10.3328 105.945C10.2998 105.851 10.3058 105.75 10.3488 105.661C10.3918 105.572 10.4678 105.504 10.5618 105.472C10.7528 105.405 10.9588 105.417 11.1408 105.505C11.3228 105.593 11.4598 105.747 11.5258 105.938C11.7648 106.623 11.4008 107.374 10.7158 107.612C9.61082 107.996 8.39882 107.41 8.01382 106.304C7.44282 104.664 8.29582 102.933 10.0878 102.095C11.8828 101.255 13.7498 101.641 15.0818 103.128C16.5408 104.756 17.3298 107.794 15.6128 110.615C10.7348 118.625 11.0008 123.399 16.7668 130.049L13.9718 133.285C13.8788 133.393 13.8368 133.538 13.8588 133.678C13.8808 133.82 13.9638 133.944 14.0848 134.019C15.1368 134.667 15.9948 135.306 16.6898 135.936C13.2288 139.611 14.5408 143.061 15.6378 145.945C16.2558 147.572 16.7908 148.978 16.3848 150.143C15.4818 152.739 12.6358 154.116 10.0398 153.213C8.32582 152.617 7.41582 150.736 8.01182 149.022C8.39582 147.917 9.60782 147.33 10.7138 147.714C11.3988 147.953 11.7628 148.703 11.5238 149.388C11.4578 149.579 11.3208 149.733 11.1388 149.821C10.9568 149.909 10.7508 149.921 10.5598 149.855C10.4658 149.822 10.3908 149.755 10.3468 149.666C10.3038 149.577 10.2978 149.476 10.3308 149.382C10.4198 149.127 10.2848 148.849 10.0298 148.761C9.77582 148.672 9.49682 148.807 9.40882 149.062C9.29082 149.402 9.31182 149.768 9.46782 150.092C9.62482 150.416 9.89882 150.66 10.2388 150.778C11.1418 151.092 12.1318 150.613 12.4458 149.71C12.8618 148.517 12.2278 147.208 11.0348 146.793C9.42082 146.232 7.65182 147.088 7.09082 148.702C6.31782 150.926 7.49682 153.362 9.71982 154.135C12.8238 155.215 16.2278 153.567 17.3078 150.464C17.3398 150.371 17.3678 150.278 17.3918 150.184C17.4158 150.278 17.4438 150.371 17.4758 150.464C18.5558 153.568 21.9588 155.215 25.0638 154.135C26.8238 153.523 27.9298 151.867 27.9298 150.1C27.9298 149.636 27.8538 149.164 27.6928 148.702C27.1318 147.088 25.3618 146.232 23.7478 146.793C22.5538 147.208 21.9208 148.517 22.3368 149.71C22.6508 150.613 23.6408 151.092 24.5438 150.778C24.8838 150.66 25.1578 150.416 25.3148 150.092C25.4708 149.768 25.4928 149.401 25.3748 149.062C25.2868 148.807 25.0078 148.673 24.7538 148.761C24.4998 148.849 24.3638 149.127 24.4538 149.382C24.4868 149.476 24.4808 149.577 24.4378 149.666C24.3948 149.755 24.3188 149.823 24.2248 149.855C24.0338 149.921 23.8278 149.909 23.6458 149.821C23.4638 149.733 23.3268 149.579 23.2608 149.388C23.0228 148.704 23.3858 147.952 24.0708 147.714C25.1768 147.33 26.3888 147.916 26.7728 149.022C27.3678 150.735 26.4598 152.616 24.7448 153.213C22.1488 154.116 19.3028 152.738 18.3998 150.143C17.9948 148.977 18.5288 147.572 19.1468 145.945C20.2438 143.06 21.5558 139.61 18.0948 135.936C18.7888 135.306 19.6478 134.667 20.6998 134.019C20.8208 133.944 20.9028 133.821 20.9258 133.681C20.9478 133.54 20.9088 133.398 20.8178 133.289L18.0558 130.005C23.7858 123.377 24.0398 118.606 19.1728 110.614C17.4558 107.794 18.2438 104.756 19.7038 103.127C21.0368 101.64 22.9038 101.254 24.6988 102.094C26.4908 102.933 27.3438 104.666 26.7728 106.303C26.3888 107.408 25.1768 107.995 24.0708 107.611C23.3858 107.373 23.0228 106.622 23.2608 105.937C23.3268 105.746 23.4638 105.592 23.6458 105.504C23.8278 105.416 24.0338 105.404 24.2248 105.47C24.3188 105.503 24.3938 105.57 24.4378 105.659C24.4808 105.748 24.4868 105.849 24.4538 105.943C24.3638 106.198 24.4998 106.476 24.7538 106.564C25.0088 106.653 25.2868 106.518 25.3748 106.263C25.4938 105.923 25.4718 105.557 25.3148 105.233C25.1578 104.909 24.8838 104.665 24.5438 104.547C24.1068 104.395 23.6358 104.422 23.2198 104.624C22.8028 104.826 22.4898 105.177 22.3378 105.615C21.9218 106.808 22.5558 108.116 23.7488 108.532C25.3628 109.093 27.1328 108.237 27.6938 106.623C27.8458 106.185 27.9188 105.739 27.9188 105.299C27.9188 103.837 27.1158 102.431 25.7328 101.551C27.0448 101.987 28.5028 102.016 29.9058 101.528C32.3218 100.687 33.6038 98.0372 32.7638 95.6222C32.4698 94.7752 31.8628 94.0942 31.0558 93.7042C30.2488 93.3142 29.3388 93.2612 28.4918 93.5552C27.2058 94.0022 26.5238 95.4122 26.9718 96.6972C27.3078 97.6642 28.3678 98.1762 29.3348 97.8402C30.0808 97.5812 30.4778 96.7632 30.2168 96.0162C30.1288 95.7612 29.8498 95.6272 29.5958 95.7162C29.3418 95.8052 29.2058 96.0822 29.2948 96.3372C29.3768 96.5752 29.2518 96.8362 29.0138 96.9182C28.7918 96.9952 28.5528 96.9812 28.3418 96.8792C28.1308 96.7772 27.9708 96.5982 27.8938 96.3762C27.7628 95.9992 27.7868 95.5942 27.9598 95.2362C28.1338 94.8772 28.4368 94.6082 28.8128 94.4772C29.4128 94.2682 30.0588 94.3062 30.6308 94.5832C31.2028 94.8602 31.6328 95.3432 31.8418 95.9432C32.5058 97.8512 31.4928 99.9432 29.5848 100.606C28.1918 101.09 26.6928 101.003 25.3648 100.361C24.0368 99.7192 23.0388 98.5972 22.5538 97.2042C21.7258 94.8232 22.2038 91.7682 23.7458 89.6022C25.0428 87.7782 26.9308 86.7742 29.0628 86.7742C29.3318 86.7742 29.5508 86.5552 29.5508 86.2862C29.5508 86.0172 29.3318 85.7982 29.0628 85.7982C26.9308 85.7982 25.0428 84.7932 23.7458 82.9702C22.2048 80.8032 21.7268 77.7482 22.5538 75.3682C23.0388 73.9752 24.0368 72.8532 25.3648 72.2112C26.6928 71.5682 28.1908 71.4822 29.5848 71.9662C30.5088 72.2872 31.2528 72.9502 31.6788 73.8302C32.1048 74.7112 32.1628 75.7052 31.8408 76.6292C31.6318 77.2292 31.2018 77.7122 30.6298 77.9892C30.0578 78.2662 29.4118 78.3032 28.8118 78.0952C28.4358 77.9642 28.1318 77.6942 27.9588 77.3362C27.7858 76.9782 27.7618 76.5722 27.8928 76.1962C28.0528 75.7382 28.5548 75.4952 29.0128 75.6542C29.2518 75.7372 29.3768 76.0002 29.2938 76.2352C29.2038 76.4902 29.3398 76.7682 29.5948 76.8562C29.8498 76.9452 30.1278 76.8102 30.2158 76.5562C30.4758 75.8092 30.0788 74.9912 29.3338 74.7322C28.3678 74.3962 27.3078 74.9082 26.9708 75.8752C26.7538 76.4972 26.7928 77.1682 27.0798 77.7612C27.3668 78.3552 27.8678 78.8012 28.4908 79.0172C30.2378 79.6252 32.1548 78.6982 32.7618 76.9502C32.9358 76.4512 33.0218 75.9352 33.0218 75.4222C33.0218 74.7322 32.8658 74.0452 32.5558 73.4052C32.0508 72.3612 31.1898 71.5652 30.1228 71.1332C32.3938 70.2112 33.5758 67.6572 32.7608 65.3162C32.1528 63.5692 30.2368 62.6412 28.4898 63.2492C27.2038 63.6972 26.5218 65.1062 26.9698 66.3912C27.3058 67.3582 28.3658 67.8702 29.3328 67.5342C30.0788 67.2742 30.4758 66.4572 30.2148 65.7102C30.1268 65.4552 29.8478 65.3212 29.5938 65.4092C29.3398 65.4972 29.2038 65.7752 29.2928 66.0302C29.3748 66.2682 29.2498 66.5292 29.0118 66.6112C28.7898 66.6882 28.5508 66.6742 28.3398 66.5722C28.1288 66.4702 27.9688 66.2912 27.8918 66.0692C27.7608 65.6922 27.7848 65.2872 27.9578 64.9292C28.1318 64.5702 28.4348 64.3012 28.8108 64.1702C29.4108 63.9612 30.0568 63.9992 30.6288 64.2762C31.2008 64.5532 31.6308 65.0362 31.8398 65.6362C32.5018 67.5432 31.4908 69.6362 29.5828 70.3002C28.1898 70.7842 26.6908 70.6972 25.3628 70.0552C24.0348 69.4122 23.0368 68.2912 22.5518 66.8982C21.7238 64.5172 22.2018 61.4632 23.7438 59.2962C25.0408 57.4722 26.9288 56.4682 29.0608 56.4682H38.3768C38.6468 56.4682 38.8648 56.2492 38.8648 55.9802V50.3442C40.2938 50.5742 41.8468 50.7342 43.4248 50.8962C46.8098 51.2432 50.2788 51.6012 52.6688 52.6772C51.5928 50.2872 51.2348 46.8182 50.8878 43.4332C50.7258 41.8552 50.5658 40.3022 50.3358 38.8732H55.9668C56.2368 38.8732 56.4548 38.6552 56.4548 38.3852V29.0692C56.4548 26.9372 57.4588 25.0492 59.2828 23.7522C61.4498 22.2112 64.5038 21.7332 66.8848 22.5612C68.2778 23.0462 69.3988 24.0442 70.0418 25.3722C70.6838 26.7002 70.7708 28.1982 70.2868 29.5922C69.6228 31.5002 67.5298 32.5112 65.6228 31.8492C65.0228 31.6402 64.5398 31.2102 64.2628 30.6382C63.9858 30.0662 63.9488 29.4212 64.1568 28.8202C64.2878 28.4432 64.5578 28.1402 64.9158 27.9672C65.2748 27.7932 65.6798 27.7702 66.0558 27.9012C66.2778 27.9782 66.4568 28.1372 66.5588 28.3492C66.6608 28.5612 66.6748 28.8002 66.5978 29.0212C66.5148 29.2592 66.2548 29.3852 66.0168 29.3022C65.7618 29.2122 65.4838 29.3482 65.3958 29.6032C65.3068 29.8582 65.4418 30.1362 65.6958 30.2242C66.4428 30.4852 67.2598 30.0872 67.5198 29.3422C67.8568 28.3762 67.3438 27.3162 66.3768 26.9792C65.0918 26.5312 63.6818 27.2142 63.2348 28.4992C62.6268 30.2472 63.5538 32.1632 65.3018 32.7702C67.6428 33.5852 70.1978 32.4032 71.1188 30.1322C71.5508 31.1992 72.3478 32.0602 73.3908 32.5652C74.0308 32.8752 74.7178 33.0312 75.4078 33.0312C75.9208 33.0312 76.4358 32.9452 76.9358 32.7712C78.6828 32.1632 79.6108 30.2472 79.0028 28.5002C78.7868 27.8772 78.3408 27.3762 77.7468 27.0892C77.1528 26.8022 76.4828 26.7632 75.8608 26.9802C74.8948 27.3162 74.3818 28.3762 74.7178 29.3432C74.9768 30.0892 75.7948 30.4852 76.5418 30.2252C76.7968 30.1362 76.9308 29.8582 76.8428 29.6042C76.7538 29.3502 76.4768 29.2142 76.2218 29.3032C75.9858 29.3862 75.7238 29.2602 75.6408 29.0222C75.4818 28.5642 75.7248 28.0612 76.1828 27.9022C76.5598 27.7712 76.9648 27.7952 77.3228 27.9682C77.6818 28.1422 77.9508 28.4452 78.0818 28.8212C78.2908 29.4212 78.2528 30.0672 77.9758 30.6392C77.6988 31.2112 77.2158 31.6412 76.6158 31.8502C75.6908 32.1722 74.6968 32.1132 73.8168 31.6882C72.9358 31.2622 72.2738 30.5182 71.9528 29.5942C71.4678 28.2012 71.5548 26.7022 72.1978 25.3742C72.8398 24.0462 73.9618 23.0482 75.3548 22.5632C77.7358 21.7362 80.7898 22.2142 82.9568 23.7542C84.7798 25.0512 85.7848 26.9392 85.7848 29.0712C85.7848 29.3412 86.0028 29.5592 86.2728 29.5592C86.5428 29.5592 86.7608 29.3402 86.7608 29.0712C86.7608 26.9392 87.7648 25.0512 89.5888 23.7542C91.7548 22.2132 94.8098 21.7352 97.1908 22.5632C98.5838 23.0482 99.7048 24.0462 100.348 25.3742C100.991 26.7022 101.077 28.2002 100.593 29.5942C99.9288 31.5022 97.8378 32.5152 95.9288 31.8512C95.3288 31.6422 94.8458 31.2122 94.5688 30.6402C94.2918 30.0682 94.2548 29.4232 94.4628 28.8222C94.5938 28.4452 94.8638 28.1422 95.2218 27.9692C95.5808 27.7952 95.9848 27.7722 96.3618 27.9032C96.5838 27.9802 96.7628 28.1392 96.8648 28.3512C96.9668 28.5632 96.9808 28.8022 96.9038 29.0232C96.8218 29.2612 96.5608 29.3872 96.3228 29.3042C96.0678 29.2142 95.7898 29.3502 95.7018 29.6052C95.6128 29.8602 95.7478 30.1382 96.0028 30.2262C96.7498 30.4872 97.5668 30.0892 97.8268 29.3442C98.1638 28.3782 97.6508 27.3182 96.6838 26.9812C95.3978 26.5332 93.9888 27.2162 93.5418 28.5012C93.2468 29.3482 93.2998 30.2582 93.6908 31.0652C94.0808 31.8722 94.7628 32.4782 95.6088 32.7732C98.0238 33.6132 100.675 32.3312 101.515 29.9152C102.003 28.5112 101.974 27.0542 101.538 25.7422C102.418 27.1242 103.824 27.9282 105.286 27.9282C105.727 27.9282 106.173 27.8552 106.61 27.7032C108.224 27.1422 109.08 25.3732 108.519 23.7592C108.104 22.5662 106.796 21.9322 105.602 22.3482C105.165 22.5002 104.813 22.8132 104.611 23.2302C104.409 23.6472 104.382 24.1172 104.534 24.5542C104.652 24.8942 104.896 25.1682 105.22 25.3252C105.544 25.4822 105.911 25.5032 106.25 25.3852C106.505 25.2972 106.639 25.0182 106.551 24.7642C106.462 24.5092 106.185 24.3742 105.93 24.4632C105.836 24.4962 105.735 24.4902 105.646 24.4472C105.557 24.4042 105.489 24.3282 105.457 24.2342C105.391 24.0432 105.402 23.8372 105.491 23.6552C105.579 23.4732 105.733 23.3362 105.924 23.2702C106.609 23.0322 107.36 23.3952 107.598 24.0802C107.982 25.1862 107.396 26.3982 106.29 26.7822C104.653 27.3522 102.92 26.5002 102.081 24.7082C101.241 22.9132 101.627 21.0462 103.114 19.7132C104.743 18.2542 107.781 17.4652 110.601 19.1822C118.593 24.0492 123.364 23.7952 129.992 18.0652L133.276 20.8272C133.385 20.9182 133.527 20.9572 133.668 20.9352C133.808 20.9122 133.931 20.8302 134.006 20.7092C134.654 19.6572 135.293 18.7992 135.923 18.1042C139.598 21.5652 143.047 20.2522 145.932 19.1562C147.559 18.5382 148.964 18.0032 150.13 18.4092C152.726 19.3122 154.103 22.1582 153.2 24.7542C152.604 26.4692 150.722 27.3772 149.01 26.7822C147.905 26.3982 147.318 25.1862 147.702 24.0802C147.94 23.3952 148.692 23.0322 149.376 23.2702C149.567 23.3372 149.721 23.4732 149.809 23.6552C149.897 23.8372 149.909 24.0432 149.843 24.2342C149.81 24.3282 149.743 24.4032 149.654 24.4472C149.565 24.4902 149.464 24.4962 149.37 24.4632C149.115 24.3742 148.837 24.5092 148.749 24.7642C148.66 25.0192 148.795 25.2972 149.05 25.3852C149.389 25.5032 149.756 25.4822 150.08 25.3252C150.404 25.1682 150.648 24.8942 150.766 24.5542C151.08 23.6512 150.601 22.6612 149.698 22.3472C148.505 21.9312 147.196 22.5642 146.781 23.7582C146.22 25.3722 147.076 27.1412 148.69 27.7022C149.153 27.8632 149.624 27.9392 150.088 27.9392C151.854 27.9392 153.51 26.8332 154.123 25.0732C155.203 21.9692 153.556 18.5652 150.452 17.4852C150.359 17.4532 150.266 17.4252 150.172 17.4012C150.266 17.3772 150.359 17.3492 150.452 17.3172C153.564 16.2352 155.211 12.8312 154.131 9.72622ZM14.3278 42.6592C13.3348 42.6592 12.5268 41.8512 12.5268 40.8582C12.5268 39.8652 13.3348 39.0572 14.3278 39.0572C15.3198 39.0572 16.1268 39.8632 16.1288 40.8542C16.1288 40.8562 16.1288 40.8582 16.1288 40.8612C16.1278 41.8532 15.3208 42.6592 14.3278 42.6592ZM12.1928 56.7562C11.6228 56.7562 11.0868 56.3172 10.7818 56.0102C11.1128 55.6792 11.6528 55.2662 12.1928 55.2662C12.7698 55.2662 14.1038 55.6542 15.1978 56.0112C14.1038 56.3692 12.7698 56.7562 12.1928 56.7562ZM15.7828 58.9272C15.2728 59.4372 14.3988 59.5022 13.8938 59.4922C13.8838 58.9862 13.9488 58.1132 14.4598 57.6042C14.9698 57.0942 15.8438 57.0292 16.3488 57.0392C16.3558 57.5422 16.2928 58.4172 15.7828 58.9272ZM16.3488 54.9852C15.8448 54.9952 14.9698 54.9292 14.4608 54.4202C13.9518 53.9102 13.8818 53.0382 13.8958 52.5312C14.3998 52.5212 15.2738 52.5872 15.7838 53.0962C16.2928 53.6062 16.3618 54.4792 16.3488 54.9852ZM14.3278 72.9662C13.3348 72.9662 12.5268 72.1582 12.5268 71.1652C12.5268 70.1722 13.3348 69.3642 14.3278 69.3642C15.3198 69.3642 16.1268 70.1702 16.1288 71.1612C16.1288 71.1632 16.1288 71.1652 16.1288 71.1682C16.1278 72.1592 15.3208 72.9662 14.3278 72.9662ZM12.1928 87.0262C11.6228 87.0262 11.0868 86.5872 10.7818 86.2802C11.1128 85.9492 11.6528 85.5372 12.1928 85.5372C12.7698 85.5372 14.1038 85.9252 15.1978 86.2822C14.1038 86.6392 12.7698 87.0262 12.1928 87.0262ZM15.7828 89.1972C15.2728 89.7072 14.3988 89.7722 13.8938 89.7622C13.8848 89.2602 13.9498 88.3842 14.4598 87.8742C14.9698 87.3642 15.8438 87.2982 16.3488 87.3082C16.3558 87.8102 16.2928 88.6872 15.7828 89.1972ZM16.3488 85.2542C15.8448 85.2642 14.9698 85.1982 14.4608 84.6892C13.9518 84.1792 13.8818 83.3062 13.8958 82.8002C14.3998 82.7902 15.2738 82.8562 15.7838 83.3652C16.2928 83.8752 16.3618 84.7482 16.3488 85.2542ZM87.8748 14.4592C88.3848 13.9492 89.2608 13.8842 89.7628 13.8932C89.7728 14.3972 89.7078 15.2722 89.1978 15.7822C88.6878 16.2922 87.8108 16.3542 87.3098 16.3482C87.2998 15.8432 87.3648 14.9692 87.8748 14.4592ZM82.8008 13.8942C83.3068 13.8802 84.1798 13.9502 84.6898 14.4592C85.1998 14.9692 85.2648 15.8442 85.2548 16.3472C84.7478 16.3602 83.8758 16.2912 83.3658 15.7822C82.8568 15.2722 82.7908 14.3982 82.8008 13.8942ZM57.6048 14.4592C58.1148 13.9492 58.9878 13.8832 59.4928 13.8932C59.5028 14.3972 59.4368 15.2722 58.9278 15.7822C58.4178 16.2922 57.5418 16.3542 57.0398 16.3482C57.0298 15.8432 57.0958 14.9692 57.6048 14.4592ZM52.5318 13.8942C53.0378 13.8802 53.9108 13.9502 54.4208 14.4592C54.9308 14.9692 54.9958 15.8442 54.9868 16.3472C54.4808 16.3602 53.6078 16.2912 53.0978 15.7822C52.5868 15.2722 52.5218 14.3982 52.5318 13.8942ZM39.0578 14.3272C39.0578 13.3342 39.8658 12.5262 40.8588 12.5262C41.8518 12.5262 42.6598 13.3342 42.6598 14.3272C42.6598 15.3192 41.8528 16.1262 40.8608 16.1282C40.8588 16.1282 40.8568 16.1282 40.8538 16.1282C39.8638 16.1262 39.0578 15.3192 39.0578 14.3272ZM23.4768 38.9482C22.0188 37.8942 21.1818 36.4212 21.1818 34.9072L21.1808 21.1812L34.9068 21.1822C36.4208 21.1822 37.8938 22.0182 38.9478 23.4762C40.1868 25.1912 40.6178 27.4182 40.0458 29.1502C39.6908 30.2222 38.9398 31.0932 37.9308 31.6002C36.9218 32.1082 35.7748 32.1912 34.7028 31.8372C34.0008 31.6052 33.4298 31.1132 33.0978 30.4522C32.7658 29.7912 32.7098 29.0402 32.9428 28.3382C33.2478 27.4152 34.2458 26.9142 35.1688 27.2182C35.7268 27.4032 36.0308 28.0072 35.8468 28.5652C35.7448 28.8722 35.4118 29.0392 35.1068 28.9372C35.0428 28.9162 34.9898 28.8712 34.9598 28.8112C34.9288 28.7512 34.9248 28.6822 34.9458 28.6182C35.0308 28.3622 34.8918 28.0862 34.6358 28.0012C34.3788 27.9162 34.1038 28.0552 34.0188 28.3112C33.9158 28.6232 33.9398 28.9562 34.0878 29.2502C34.2348 29.5432 34.4888 29.7622 34.7998 29.8652C35.1958 29.9972 35.6188 29.9652 35.9918 29.7782C36.3648 29.5912 36.6418 29.2692 36.7728 28.8732C37.1258 27.8042 36.5438 26.6462 35.4748 26.2932C34.0408 25.8182 32.4888 26.6002 32.0158 28.0332C31.7018 28.9832 31.7758 29.9992 32.2258 30.8932C32.6758 31.7872 33.4458 32.4522 34.3968 32.7662C34.9338 32.9442 35.4858 33.0322 36.0358 33.0322C36.8368 33.0322 37.6328 32.8452 38.3698 32.4742C38.4778 32.4192 38.5808 32.3572 38.6848 32.2962C41.8548 32.3932 42.6978 36.3512 43.5848 40.5472C43.8708 41.9022 44.1628 43.2762 44.5428 44.5462C43.2728 44.1662 41.8988 43.8752 40.5438 43.5882C36.3488 42.7012 32.3908 41.8582 32.2938 38.6882C32.3548 38.5842 32.4178 38.4812 32.4718 38.3732C32.8428 37.6362 33.0298 36.8402 33.0298 36.0392C33.0298 35.4892 32.9418 34.9372 32.7638 34.4002C32.4498 33.4502 31.7848 32.6792 30.8908 32.2292C29.9968 31.7792 28.9818 31.7052 28.0308 32.0192C26.5978 32.4932 25.8158 34.0442 26.2908 35.4782C26.6438 36.5472 27.8018 37.1292 28.8708 36.7762C29.2668 36.6452 29.5878 36.3672 29.7758 35.9952C29.9638 35.6232 29.9948 35.1992 29.8628 34.8032C29.7598 34.4912 29.5418 34.2382 29.2478 34.0912C28.9548 33.9432 28.6208 33.9192 28.3088 34.0222C28.0528 34.1072 27.9138 34.3822 27.9988 34.6392C28.0838 34.8952 28.3598 35.0342 28.6158 34.9492C28.6798 34.9282 28.7488 34.9332 28.8088 34.9632C28.8688 34.9932 28.9138 35.0452 28.9348 35.1102C29.0368 35.4152 28.8698 35.7482 28.5628 35.8502C28.0048 36.0342 27.4008 35.7302 27.2158 35.1722C26.9118 34.2492 27.4128 33.2512 28.3358 32.9462C29.0388 32.7142 29.7888 32.7692 30.4498 33.1012C31.1108 33.4332 31.6028 34.0032 31.8348 34.7062C32.1888 35.7782 32.1048 36.9252 31.5978 37.9342C31.0898 38.9432 30.2198 39.6942 29.1478 40.0492C27.4188 40.6192 25.1918 40.1882 23.4768 38.9482ZM18.2398 145.593C17.8978 146.492 17.5658 147.366 17.3988 148.208C17.2318 147.365 16.8998 146.492 16.5578 145.593C15.5248 142.878 14.3838 139.875 17.3988 136.622C20.4148 139.876 19.2728 142.878 18.2398 145.593ZM19.7158 133.484C18.8058 134.074 18.0388 134.661 17.3988 135.243C16.7598 134.662 15.9968 134.077 15.0878 133.488L17.4338 130.771L19.7158 133.484ZM18.3448 111.116C22.9658 118.705 22.7708 123.025 17.3988 129.274C12.0278 123.026 11.8328 118.705 16.4528 111.116C16.9258 110.34 17.2278 109.55 17.3988 108.769C17.5698 109.55 17.8728 110.34 18.3448 111.116ZM22.9578 89.0322C21.2158 91.4822 20.6988 94.8142 21.6398 97.5212C22.1518 98.9922 23.1418 100.161 24.3758 100.918C22.4068 100.298 20.4358 100.849 18.9828 102.47C18.5578 102.944 18.1818 103.521 17.8878 104.17V86.7332H21.8808L19.4948 89.1192C19.3038 89.3102 19.3038 89.6182 19.4948 89.8092C19.6858 90.0002 19.9948 90.0002 20.1848 89.8092L23.1588 86.8352C23.1888 86.8052 23.2058 86.7682 23.2268 86.7332H25.4638C24.5048 87.2782 23.6548 88.0512 22.9578 89.0322ZM21.6398 75.0422C20.6978 77.7492 21.2158 81.0802 22.9578 83.5302C23.6248 84.4692 24.4328 85.2162 25.3418 85.7562H23.1948C23.1818 85.7392 23.1748 85.7182 23.1588 85.7022L20.1848 82.7282C19.9938 82.5372 19.6848 82.5372 19.4948 82.7282C19.3038 82.9192 19.3038 83.2282 19.4948 83.4182L21.8328 85.7562H17.8878V71.5792H24.4848C23.1538 72.3592 22.1518 73.5702 21.6398 75.0422ZM22.9578 58.7252C21.2158 61.1752 20.6988 64.5072 21.6398 67.2142C22.1498 68.6802 23.1358 69.8462 24.3638 70.6032H17.8868V56.4632H21.5838L19.4938 58.5532C19.3028 58.7442 19.3028 59.0532 19.4938 59.2432C19.6848 59.4342 19.9938 59.4342 20.1838 59.2432L22.9638 56.4632H25.3988C24.4668 57.0062 23.6398 57.7662 22.9578 58.7252ZM23.1588 55.4872C23.1588 55.4862 23.1588 55.4862 23.1588 55.4872L20.1838 52.5122C19.9928 52.3212 19.6838 52.3212 19.4938 52.5122C19.3028 52.7032 19.3028 53.0122 19.4938 53.2022L21.7788 55.4872H17.8868V41.3472H24.3548C23.0878 42.1292 22.1348 43.3112 21.6388 44.7362C20.6968 47.4432 21.2148 50.7742 22.9568 53.2242C23.6388 54.1842 24.4658 54.9442 25.3988 55.4872H23.1588ZM37.8978 55.4872H29.0698C26.9378 55.4872 25.0498 54.4822 23.7528 52.6592C22.2118 50.4922 21.7338 47.4372 22.5608 45.0572C23.0458 43.6642 24.0438 42.5422 25.3718 41.9002C26.6998 41.2572 28.1978 41.1702 29.5918 41.6552C30.5158 41.9762 31.2598 42.6392 31.6858 43.5192C32.1118 44.4002 32.1698 45.3932 31.8478 46.3182C31.6388 46.9182 31.2088 47.4012 30.6368 47.6782C30.0648 47.9552 29.4188 47.9922 28.8188 47.7842C28.4428 47.6532 28.1388 47.3832 27.9658 47.0242C27.7918 46.6652 27.7688 46.2612 27.8998 45.8842C28.0598 45.4262 28.5618 45.1832 29.0198 45.3422C29.1348 45.3822 29.2278 45.4652 29.2808 45.5742C29.3338 45.6842 29.3408 45.8072 29.3008 45.9232C29.2108 46.1782 29.3468 46.4562 29.6018 46.5442C29.8568 46.6332 30.1348 46.4982 30.2228 46.2442C30.3488 45.8832 30.3258 45.4942 30.1598 45.1492C29.9928 44.8052 29.7018 44.5462 29.3408 44.4202C28.3748 44.0842 27.3148 44.5972 26.9778 45.5632C26.7608 46.1852 26.7998 46.8562 27.0868 47.4492C27.3738 48.0432 27.8748 48.4892 28.4978 48.7052C30.0188 49.2342 31.6668 48.6002 32.4688 47.2742C33.3068 48.8652 35.3388 49.6712 37.8958 50.1702V55.4872H37.8978ZM51.0898 51.0892C48.8378 50.4702 46.1608 50.1942 43.5338 49.9252C38.1318 49.3712 33.0298 48.8482 33.0298 45.4822C33.0298 45.4612 33.0208 45.4442 33.0178 45.4242C33.0248 45.3202 33.0308 45.2162 33.0308 45.1122C33.0308 44.4222 32.8748 43.7352 32.5648 43.0952C32.0368 42.0042 31.1218 41.1812 29.9868 40.7642C30.5408 40.5122 31.0378 40.1662 31.4658 39.7452C32.2828 42.8272 36.3678 43.7012 40.3418 44.5412C42.4158 44.9792 44.5368 45.4292 46.1798 46.1812C45.4278 44.5392 44.9788 42.4172 44.5398 40.3432C43.6988 36.3692 42.8258 32.2842 39.7438 31.4672C40.1648 31.0392 40.5108 30.5422 40.7628 29.9882C41.1788 31.1232 42.0028 32.0382 43.0938 32.5662C43.7338 32.8762 44.4208 33.0322 45.1108 33.0322C45.2148 33.0322 45.3188 33.0262 45.4228 33.0192C45.4428 33.0212 45.4598 33.0312 45.4808 33.0312C48.8468 33.0312 49.3698 38.1332 49.9238 43.5352C50.1948 46.1602 50.4708 48.8362 51.0898 51.0892ZM55.4878 37.8972H50.1728C49.6738 35.3402 48.8668 33.3082 47.2768 32.4702C48.6018 31.6672 49.2368 30.0192 48.7078 28.4992C48.4918 27.8762 48.0448 27.3752 47.4518 27.0882C46.8578 26.8012 46.1878 26.7622 45.5658 26.9792C44.5998 27.3152 44.0868 28.3752 44.4228 29.3422C44.5478 29.7032 44.8078 29.9942 45.1518 30.1612C45.4968 30.3282 45.8858 30.3502 46.2468 30.2242C46.5018 30.1352 46.6358 29.8572 46.5468 29.6032C46.4578 29.3492 46.1798 29.2132 45.9258 29.3022C45.8098 29.3412 45.6868 29.3342 45.5768 29.2822C45.4668 29.2292 45.3848 29.1362 45.3448 29.0212C45.1858 28.5632 45.4288 28.0602 45.8868 27.9012C46.2638 27.7702 46.6678 27.7942 47.0268 27.9672C47.3858 28.1402 47.6548 28.4442 47.7858 28.8202C47.9948 29.4202 47.9568 30.0662 47.6798 30.6382C47.4028 31.2102 46.9198 31.6402 46.3198 31.8492C45.3948 32.1712 44.4008 32.1122 43.5208 31.6872C42.6398 31.2612 41.9778 30.5172 41.6568 29.5932C41.1718 28.2002 41.2588 26.7012 41.9018 25.3732C42.5448 24.0452 43.6658 23.0472 45.0588 22.5622C47.4398 21.7352 50.4938 22.2132 52.6608 23.7532C54.4848 25.0502 55.4888 26.9382 55.4888 29.0702L55.4878 37.8972ZM55.4878 21.7782L53.2028 19.4932C53.0118 19.3022 52.7028 19.3022 52.5128 19.4932C52.3218 19.6842 52.3218 19.9932 52.5128 20.1832L55.4868 23.1572L55.4878 25.3982C54.9448 24.4652 54.1848 23.6382 53.2258 22.9562C50.7758 21.2142 47.4438 20.6962 44.7378 21.6382C43.3128 22.1342 42.1298 23.0872 41.3488 24.3542V17.8862H55.4888L55.4878 21.7782ZM56.0128 15.1972C55.6558 14.1032 55.2678 12.7692 55.2678 12.1922C55.2678 11.6512 55.6808 11.1122 56.0108 10.7812C56.3178 11.0872 56.7568 11.6232 56.7568 12.1922C56.7568 12.7692 56.3698 14.1032 56.0128 15.1972ZM70.6038 24.3632C69.8468 23.1352 68.6798 22.1492 67.2148 21.6392C64.5088 20.6972 61.1768 21.2152 58.7258 22.9572C57.7658 23.6392 57.0058 24.4662 56.4628 25.3992V22.9642L59.2428 20.1842C59.4338 19.9932 59.4338 19.6842 59.2428 19.4942C59.0518 19.3032 58.7428 19.3032 58.5528 19.4942L56.4628 21.5842V17.8872H70.6028L70.6038 24.3632ZM71.1618 16.1282C70.1708 16.1262 69.3648 15.3192 69.3648 14.3272C69.3648 13.3342 70.1728 12.5262 71.1658 12.5262C72.1588 12.5262 72.9668 13.3342 72.9668 14.3272C72.9668 15.3192 72.1598 16.1262 71.1678 16.1282C71.1658 16.1282 71.1638 16.1282 71.1618 16.1282ZM85.7578 21.8322L83.4198 19.4942C83.2288 19.3032 82.9208 19.3032 82.7298 19.4942C82.5388 19.6852 82.5388 19.9942 82.7298 20.1842L85.7038 23.1582C85.7198 23.1742 85.7408 23.1812 85.7578 23.1942V25.3412C85.2178 24.4322 84.4708 23.6252 83.5318 22.9572C81.0818 21.2152 77.7498 20.6972 75.0438 21.6392C73.5708 22.1512 72.3608 23.1542 71.5808 24.4842V17.8872H85.7578V21.8322ZM86.2818 15.1972C85.9248 14.1032 85.5368 12.7692 85.5368 12.1922C85.5368 11.6512 85.9498 11.1122 86.2808 10.7812C86.5878 11.0862 87.0268 11.6232 87.0268 12.1922C87.0268 12.7692 86.6398 14.1032 86.2818 15.1972ZM102.471 18.9822C100.85 20.4352 100.299 22.4072 100.919 24.3752C100.162 23.1412 98.9918 22.1512 97.5218 21.6392C94.8158 20.6972 91.4838 21.2152 89.0328 22.9572C88.0518 23.6552 87.2788 24.5042 86.7338 25.4632V23.2262C86.7688 23.2052 86.8058 23.1882 86.8358 23.1582L89.8098 20.1842C90.0008 19.9932 90.0008 19.6842 89.8098 19.4942C89.6188 19.3032 89.3108 19.3032 89.1198 19.4942L86.7338 21.8802V17.8872H104.171C103.522 18.1802 102.945 18.5572 102.471 18.9822ZM111.117 18.3442C110.341 17.8722 109.55 17.5692 108.77 17.3992C109.55 17.2292 110.341 16.9262 111.117 16.4532C118.706 11.8332 123.027 12.0272 129.274 17.3992C123.026 22.7702 118.706 22.9642 111.117 18.3442ZM133.485 19.7152L130.772 17.4342L133.489 15.0882C134.078 15.9962 134.664 16.7602 135.244 17.3992C134.662 18.0382 134.075 18.8052 133.485 19.7152ZM145.594 18.2392C142.878 19.2722 139.876 20.4142 136.624 17.3982C139.876 14.3832 142.879 15.5242 145.594 16.5572C146.493 16.8992 147.367 17.2312 148.21 17.3982C147.367 17.5652 146.493 17.8972 145.594 18.2392Z" fill="#E4BD95"/>
<path d="M13.0732 7.282C13.2122 7.282 13.3452 7.223 13.4372 7.119C13.4942 7.056 14.8222 5.545 14.8222 3.637C14.8222 1.729 13.4942 0.219 13.4372 0.156C13.2522 -0.052 12.8942 -0.052 12.7092 0.156C12.6522 0.219 11.3242 1.73 11.3242 3.637C11.3242 5.545 12.6522 7.055 12.7092 7.119C12.8012 7.223 12.9342 7.282 13.0732 7.282ZM13.0742 1.302C13.4072 1.815 13.8462 2.676 13.8462 3.637C13.8462 4.594 13.4052 5.457 13.0722 5.973C12.7402 5.459 12.3002 4.599 12.3002 3.637C12.3002 2.681 12.7412 1.817 13.0742 1.302Z" fill="#E4BD95"/>
<path d="M25.031 14.8173C25.134 14.8173 25.237 14.7853 25.324 14.7203C25.382 14.6763 26.752 13.6343 26.752 12.2663C26.752 10.8983 25.382 9.85634 25.324 9.81234C25.15 9.68234 24.912 9.68234 24.739 9.81234C24.681 9.85634 23.311 10.8983 23.311 12.2663C23.311 13.6343 24.681 14.6763 24.739 14.7203C24.825 14.7853 24.928 14.8173 25.031 14.8173ZM24.286 12.2663C24.286 11.7263 24.699 11.1863 25.029 10.8543C25.336 11.1603 25.775 11.6963 25.775 12.2663C25.775 12.8073 25.362 13.3463 25.032 13.6773C24.725 13.3723 24.286 12.8363 24.286 12.2663Z" fill="#E4BD95"/>
<path d="M115.396 16.9084C115.266 17.0824 115.266 17.3204 115.396 17.4934C115.48 17.6064 117.494 20.2534 120.078 20.2534C122.663 20.2534 124.676 17.6064 124.761 17.4934C124.891 17.3194 124.891 17.0814 124.761 16.9084C124.677 16.7954 122.663 14.1484 120.078 14.1484C117.494 14.1484 115.481 16.7964 115.396 16.9084ZM123.736 17.2014C123.177 17.8354 121.726 19.2774 120.078 19.2774C118.437 19.2774 116.981 17.8354 116.421 17.2014C116.981 16.5674 118.436 15.1254 120.078 15.1254C121.72 15.1254 123.176 16.5684 123.736 17.2014Z" fill="#E4BD95"/>
<path d="M28.1369 25.0859H25.0869V28.1359C25.0869 28.4059 25.3059 28.6239 25.5749 28.6239H28.6249V25.5739C28.6249 25.3049 28.4059 25.0859 28.1369 25.0859ZM26.0619 27.6489V26.0629H27.6479V27.6489H26.0619Z" fill="#E4BD95"/>
<path d="M30.5771 22.5232C30.5771 22.2532 30.3591 22.0352 30.0891 22.0352H24.6591C24.3891 22.0352 24.1711 22.2542 24.1711 22.5232V24.1092H24.1101V24.1702H22.5241C22.2541 24.1702 22.0361 24.3882 22.0361 24.6582V30.0882C22.0361 30.3582 22.2551 30.5762 22.5241 30.5762H30.5771V22.5232ZM23.0121 29.6002V25.1462H24.5981C24.7491 25.1462 24.8781 25.0742 24.9681 24.9672C25.0751 24.8772 25.1471 24.7482 25.1471 24.5972V23.0112H29.6011V29.6002H23.0121Z" fill="#E4BD95"/>
<path d="M35.0391 4.6224C35.0631 4.6254 35.2691 4.6544 35.5681 4.6544C36.1661 4.6544 37.1391 4.5424 37.7841 3.8974C38.7511 2.9304 38.5201 1.2244 38.5091 1.1524C38.4781 0.9384 38.3101 0.769402 38.0951 0.738402C38.0231 0.728402 36.3171 0.496401 35.3501 1.4634C34.3831 2.4304 34.6141 4.1364 34.6251 4.2084C34.6561 4.4234 34.8241 4.5924 35.0391 4.6224ZM36.0401 2.1544C36.4221 1.7724 37.0971 1.6824 37.5661 1.6824C37.5651 2.1514 37.4761 2.8254 37.0941 3.2084C36.7121 3.5904 36.0371 3.6804 35.5691 3.6804C35.5681 3.2114 35.6581 2.5364 36.0401 2.1544Z" fill="#E4BD95"/>
<path d="M16.9721 16.9711L18.9851 14.9581C19.1761 14.7671 19.1761 14.4581 18.9851 14.2681L17.2001 12.4831C17.0091 12.2921 16.7001 12.2921 16.5101 12.4831L14.4971 14.4961L12.4841 16.5091C12.2931 16.7001 12.2931 17.0091 12.4841 17.1991L14.2681 18.9831C14.4591 19.1741 14.7681 19.1741 14.9581 18.9831L16.9721 16.9711ZM13.5191 16.8541L15.1871 15.1861L16.8551 13.5181L17.9491 14.6121L16.2811 16.2801L14.6131 17.9481L13.5191 16.8541Z" fill="#E4BD95"/>
<path d="M3.637 14.8222C5.544 14.8222 7.055 13.4942 7.118 13.4372C7.222 13.3452 7.281 13.2122 7.281 13.0732C7.281 12.9342 7.222 12.8012 7.118 12.7092C7.055 12.6522 5.544 11.3242 3.637 11.3242C1.729 11.3242 0.219 12.6522 0.156 12.7092C-0.052 12.8942 -0.052 13.2522 0.156 13.4372C0.218 13.4932 1.729 14.8222 3.637 14.8222ZM3.637 12.3002C4.599 12.3002 5.459 12.7392 5.972 13.0722C5.457 13.4052 4.593 13.8462 3.637 13.8462C2.675 13.8462 1.815 13.4072 1.302 13.0742C1.816 12.7412 2.68 12.3002 3.637 12.3002Z" fill="#E4BD95"/>
<path d="M13.559 13.5585C13.475 8.4725 12.039 3.6505 2.56299 2.5625C3.64999 12.0375 8.47299 13.4745 13.559 13.5585ZM12.549 12.5485C8.60599 12.3405 4.89799 11.0675 3.70199 3.7015C11.068 4.8975 12.341 8.6055 12.549 12.5485Z" fill="#E4BD95"/>
<path d="M12.2649 23.3125C10.8969 23.3125 9.85488 24.6825 9.81088 24.7405C9.68088 24.9145 9.68088 25.1525 9.81088 25.3255C9.85488 25.3835 10.8969 26.7535 12.2649 26.7535C13.6329 26.7535 14.6749 25.3835 14.7189 25.3255C14.7839 25.2385 14.8159 25.1355 14.8159 25.0325C14.8159 24.9295 14.7839 24.8265 14.7189 24.7395C14.6749 24.6825 13.6329 23.3125 12.2649 23.3125ZM12.2649 25.7785C11.6959 25.7785 11.1589 25.3395 10.8529 25.0325C11.1849 24.7015 11.7239 24.2885 12.2649 24.2885C12.8349 24.2885 13.3709 24.7275 13.6769 25.0345C13.3449 25.3655 12.8059 25.7785 12.2649 25.7785Z" fill="#E4BD95"/>
<path d="M16.9079 115.398C16.7949 115.482 14.1479 117.496 14.1479 120.08C14.1479 122.665 16.7949 124.678 16.9079 124.763C17.0819 124.893 17.3199 124.893 17.4929 124.763C17.6059 124.679 20.2529 122.665 20.2529 120.08C20.2529 117.495 17.6059 115.482 17.4929 115.398C17.3199 115.268 17.0819 115.268 16.9079 115.398ZM19.2769 120.081C19.2769 121.729 17.8349 123.18 17.2009 123.739C16.5669 123.179 15.1239 121.723 15.1239 120.081C15.1239 118.439 16.5659 116.984 17.1999 116.424C17.8349 116.984 19.2769 118.439 19.2769 120.081Z" fill="#E4BD95"/>
<path d="M4.61991 35.0391C4.58891 34.8241 4.42092 34.6561 4.20592 34.6251C4.13392 34.6151 2.42792 34.3831 1.46092 35.3501C0.493918 36.3171 0.724916 38.0231 0.735916 38.0951C0.766916 38.3101 0.934917 38.4781 1.14992 38.5091C1.22192 38.5191 2.92792 38.7511 3.89492 37.7841C4.53992 37.1391 4.65192 36.1671 4.65192 35.5681C4.65192 35.2691 4.62391 35.0631 4.61991 35.0391ZM3.20492 37.0941C2.82292 37.4761 2.14792 37.5661 1.67892 37.5661C1.67892 37.0981 1.76892 36.4231 2.15092 36.0401C2.53392 35.6581 3.20792 35.5681 3.67692 35.5681C3.67692 36.0361 3.58792 36.7111 3.20492 37.0941Z" fill="#E4BD95"/>
<path d="M40.3421 40.3421C39.9071 37.5911 38.9121 35.5801 37.3661 34.3761C36.1971 33.4651 34.7341 33.0661 33.2321 33.2321C33.0661 34.7341 33.4651 36.1971 34.3761 37.3661C35.5801 38.9121 37.5911 39.9071 40.3421 40.3421ZM36.7651 35.1461C37.8441 35.9861 38.6191 37.3121 39.0891 39.0901C37.3111 38.6201 35.9861 37.8451 35.1451 36.7661C34.4471 35.8711 34.2241 34.9321 34.1791 34.1801C34.9311 34.2251 35.8701 34.4491 36.7651 35.1461Z" fill="#E4BD95"/>
</svg>
