<svg width="148" height="74" viewBox="0 0 148 74" fill="none" xmlns="http://www.w3.org/2000/svg">
<path opacity="0.8" d="M12.1825 5.77718C11.6772 6.68032 11.3678 7.54468 11.2543 8.37025C11.0664 9.73761 11.7142 10.5232 13.1976 10.7271C13.5788 10.727 13.8668 10.6877 14.0615 10.6093C14.2692 10.5327 14.4995 10.3869 14.7525 10.172C15.0073 9.94414 15.2494 9.76055 15.4788 9.62123L15.5756 9.63452C15.4118 10.348 15.0929 10.8036 14.6188 11.0013C14.1594 11.1879 13.5557 11.2298 12.8075 11.127C11.195 10.9053 10.4174 10.1084 10.4746 8.73623C10.364 9.06275 10.0132 9.41541 9.42229 9.7942C8.84602 10.1619 8.3515 10.3173 7.93871 10.2606C7.91291 10.257 7.88066 10.2526 7.84196 10.2473C7.07233 9.91806 6.73805 9.38581 6.83912 8.65054C6.97033 7.69597 7.59462 6.83547 8.712 6.06903C9.58349 5.46594 10.3869 5.21492 11.1221 5.31599C11.5349 5.37273 11.8884 5.52646 12.1825 5.77718ZM7.45224 8.63624C7.42388 8.84263 7.40728 9.01121 7.40244 9.14198C7.41229 9.26162 7.46171 9.38014 7.55072 9.49752C7.65264 9.61667 7.80679 9.69043 8.01318 9.7188C8.58431 9.77102 9.21394 9.39755 9.90209 8.5984C10.6049 7.78812 11.0191 7.0696 11.1447 6.44284C10.9738 6.15648 10.7077 5.98847 10.3465 5.93883C9.88213 5.875 9.35762 6.1052 8.77298 6.62943C8.18833 7.15365 7.74809 7.82259 7.45224 8.63624ZM13.1545 15.6302C13.2751 14.7531 13.4249 13.9982 13.6038 13.3656C13.781 12.746 14.0933 11.9083 14.5407 10.8526L18.2412 4.44132C18.2928 4.44841 18.3379 4.45462 18.3766 4.45993C18.8926 4.53086 19.1071 4.88236 19.0203 5.51444C18.8944 6.4303 18.3376 7.51695 17.3498 8.77437C16.7444 9.54546 16.2223 10.0454 15.7834 10.2742C15.8401 10.9129 16.32 11.2943 17.223 11.4184C18.3582 11.5745 19.5318 11.3546 20.744 10.759C20.8708 10.6975 20.9799 10.6205 21.0715 10.528C21.1778 10.4243 21.2667 10.3511 21.3383 10.3083C21.4099 10.2656 21.5166 10.254 21.6585 10.2735C21.6018 10.6863 21.2234 11.0483 20.5235 11.3595C19.8253 11.6578 19.1138 11.8623 18.3888 11.973C17.6768 12.0854 17.1061 12.1253 16.6769 12.0925C16.645 12.3247 16.6569 12.6681 16.7127 13.1226C16.7668 13.5901 16.7716 13.9851 16.7273 14.3075C16.6812 14.6429 16.5191 15.153 16.241 15.8376C15.9758 16.524 15.6118 17.164 15.1491 17.7576C14.6974 18.3658 14.2523 18.6398 13.8138 18.5795C13.1172 18.4838 12.8974 17.5007 13.1545 15.6302ZM13.7256 15.4919C13.5146 17.0269 13.6348 17.8255 14.0863 17.8875C14.4217 17.9336 14.8398 17.4259 15.3405 16.3644C15.8524 15.3176 16.1474 14.5104 16.2254 13.9428C16.3017 13.3882 16.2816 12.9122 16.1654 12.5151C16.0473 12.1309 15.7334 11.7854 15.2235 11.4788C14.8726 11.6408 14.5578 12.1627 14.2788 13.0444C14.0128 13.9279 13.8284 14.7437 13.7256 15.4919ZM16.5805 8.49118L16.5539 8.68467C16.9571 8.33266 17.3268 7.8906 17.6628 7.35848C17.9988 6.82636 18.1987 6.32811 18.2625 5.86372C18.2661 5.83793 18.2667 5.78544 18.2644 5.70627C18.2751 5.62887 18.2813 5.58372 18.2831 5.57082L18.0656 5.71837L16.5805 8.49118ZM21.5713 7.89572L21.3311 7.92185C21.2871 7.95523 21.1731 7.97241 20.9889 7.97339C20.8048 7.97436 20.6306 7.95043 20.4665 7.90158C20.3023 7.85273 20.2338 7.77759 20.2609 7.67617C20.2865 7.29853 20.5482 7.16364 21.046 7.27149C21.5695 7.38289 21.9022 7.25775 22.0439 6.89607L23.4294 3.55754L23.8475 3.24044C23.9712 3.29687 24.0198 3.42183 23.9932 3.61532L23.9472 3.80616L22.5351 7.33818L22.5218 7.43492C22.6197 7.48781 22.7718 7.52843 22.9782 7.5568C23.1846 7.58517 23.562 7.56476 24.1104 7.49556C24.6606 7.41346 24.9743 7.37773 25.0517 7.38837C24.9542 8.09784 24.4282 8.38698 23.4736 8.25577C23.1769 8.21499 22.846 8.13664 22.4807 8.02072C22.1083 8.62669 21.8848 9.20057 21.8104 9.74235C21.7377 10.2712 21.8122 10.7809 22.0339 11.2714C22.2574 11.749 22.6659 12.0286 23.2592 12.1101C23.8779 12.1032 24.3618 12.0251 24.7109 11.8759C25.0747 11.7157 25.3393 11.6074 25.5047 11.5513C25.6719 11.4823 25.8329 11.4584 25.9877 11.4797C26.1425 11.501 26.3075 11.5434 26.4828 11.6069C26.033 12.2022 24.9296 12.4843 23.1727 12.4531C23.134 12.4478 23.1017 12.4434 23.0759 12.4398C22.1859 12.3175 21.6312 11.9061 21.4121 11.2056C21.2455 10.6965 21.2048 10.1323 21.2899 9.51308C21.3767 8.88101 21.4706 8.34189 21.5713 7.89572ZM25.8145 10.5884C25.8175 10.4706 25.8262 10.36 25.8403 10.2568C25.9538 9.43128 26.3417 8.61714 27.0041 7.81444C27.6793 7.01352 28.4491 6.67245 29.3134 6.79125C29.4811 6.8143 29.6094 6.88451 29.6984 7.00189C29.7892 7.10638 29.8186 7.27471 29.7867 7.5069C29.7566 7.7262 29.6557 7.98177 29.4842 8.27363C29.3273 8.55436 29.0986 8.83179 28.7981 9.10592C28.5104 9.38182 28.263 9.60411 28.0558 9.77278C27.8486 9.94145 27.556 10.1575 27.1781 10.421C26.8131 10.6863 26.5939 10.8467 26.5205 10.9024C26.4934 11.0038 26.479 11.0609 26.4772 11.0738C26.4293 11.4221 26.5598 11.7161 26.8686 11.9557C27.1774 12.1953 27.5124 12.3399 27.8736 12.3895C28.7378 12.5083 29.4428 12.4475 29.9884 12.2071C30.547 11.9684 31.2121 11.5275 31.984 10.8844C32.1049 10.7696 32.1771 10.6744 32.2007 10.5988C32.2371 10.5249 32.3196 10.4508 32.4481 10.3765C32.57 10.4458 32.6177 10.5772 32.5911 10.7707C32.4071 11.1529 32.0897 11.5496 31.6389 11.9608C31.1899 12.3591 30.6787 12.6831 30.1055 12.9329C29.3117 13.2575 28.6568 13.3844 28.1409 13.3134C27.6378 13.2443 27.1715 13.0028 26.7421 12.5889C26.3127 12.175 26.0035 11.5082 25.8145 10.5884ZM29.2537 7.51249C28.699 7.43625 28.1422 7.66202 27.5834 8.18979C27.0245 8.71757 26.7079 9.25234 26.6334 9.79413C26.6086 9.97472 26.6037 10.1055 26.6189 10.1864C27.1316 9.99404 27.6821 9.62284 28.2703 9.07281C28.8603 8.50988 29.1881 7.98977 29.2537 7.51249ZM37.1215 12.9509C37.0937 13.2494 37.299 13.4288 37.7376 13.4891C37.9956 13.5245 38.2929 13.5128 38.6296 13.454C38.9663 13.3951 39.2847 13.3731 39.5849 13.3881C39.8981 13.4049 40.0422 13.5036 40.0174 13.6841C39.426 13.9709 38.6486 14.0809 37.6851 14.0142C37.6318 14.02 37.5793 14.0193 37.5277 14.0122C37.1665 13.9626 36.8942 13.8397 36.7109 13.6437C36.5422 13.4365 36.4721 13.2297 36.5004 13.0233C36.5288 12.8169 36.5656 12.6445 36.6109 12.5062C36.6499 12.2224 36.7647 11.8176 36.9553 11.2918C37.1588 10.7677 37.2791 10.3702 37.3163 10.0993C37.0842 10.0674 36.6772 10.0641 36.0954 10.0892C35.5283 10.1033 35.1169 10.1322 34.8612 10.1759C34.3171 11.744 33.6088 12.7375 32.7363 13.1565C32.4828 13.2794 32.2916 13.3319 32.1626 13.3142C32.0465 13.2983 31.9597 13.26 31.9023 13.1996C31.8596 13.128 31.8436 13.0535 31.8542 12.9761C31.8666 12.8858 31.9406 12.7777 32.0762 12.6517C32.4726 12.7325 32.7958 12.5798 33.0461 12.1936C33.2928 11.8332 33.5043 11.4417 33.6807 11.0191C33.8717 10.5853 34.0201 10.2706 34.1259 10.0748C33.5533 9.7464 33.2927 9.39514 33.3441 9.02106C33.4381 8.33738 33.7986 7.91378 34.4257 7.75025C34.6427 7.70122 34.8545 7.69089 35.0608 7.71926C35.2672 7.74763 35.4445 7.84429 35.5927 8.00923C35.7538 8.17595 35.8166 8.3883 35.7812 8.64629C35.7457 8.90428 35.5292 9.23597 35.1318 9.64136C35.1705 9.64668 35.4098 9.62699 35.8497 9.58231C37.0661 9.43407 37.7968 9.37679 38.0419 9.41048C37.9869 9.81037 37.8327 10.4069 37.5791 11.2001C37.3272 11.9803 37.1747 12.564 37.1215 12.9509ZM34.8149 8.21775C34.5698 8.18407 34.3271 8.42014 34.0867 8.92597C34.0548 9.15816 34.2161 9.37091 34.5707 9.56423C34.8788 9.33057 35.0506 9.08475 35.0861 8.82676C35.1002 8.72356 35.0839 8.60303 35.0372 8.46517C35.0051 8.31618 34.931 8.23371 34.8149 8.21775ZM62.4771 16.377C62.4829 16.4304 62.4841 16.47 62.4805 16.4958C62.438 16.8053 61.9806 17.0251 61.1084 17.1549C60.2492 17.2865 59.6067 17.3231 59.181 17.2645C57.5815 17.0447 56.8854 16.1801 57.0929 14.6709C57.1479 14.271 57.3235 13.7103 57.6198 12.9887C57.9162 12.2671 58.0909 11.7128 58.1441 11.3258C57.296 11.4721 56.3562 12.0461 55.3248 13.0478C54.2951 14.0366 53.4507 15.064 52.7916 16.13C52.7036 16.1968 52.5924 16.2406 52.4581 16.2616C52.3238 16.2826 52.2279 16.2628 52.1705 16.2024C52.1278 16.1308 52.1135 16.0434 52.1277 15.9402C52.1437 15.8241 52.2219 15.6377 52.3623 15.381L54.1151 11.5212C54.0648 11.4092 53.9881 11.346 53.8849 11.3318C53.5495 11.2857 52.8925 11.7146 51.914 12.6184C51.6592 12.8463 51.0986 13.3869 50.2321 14.2404C49.1567 15.2755 48.4835 15.7744 48.2126 15.7372C48.1868 15.7337 48.1508 15.709 48.1045 15.6632C48.06 15.6045 48.046 15.5631 48.0624 15.5391L49.9556 12.0929L51.1941 9.68052C51.2621 9.66359 51.3219 9.65866 51.3735 9.66576C51.567 9.69235 51.6487 9.8153 51.6185 10.0346C51.5884 10.2539 51.5316 10.4761 51.4481 10.7012C51.3663 10.9134 51.0601 11.5153 50.5295 12.507L53.7758 10.548C54.0404 10.4398 54.2501 10.3963 54.4048 10.4176C54.6757 10.4548 54.7819 10.6863 54.7234 11.112C54.6897 11.357 54.5503 11.7979 54.305 12.4345C54.0727 13.0729 53.943 13.4428 53.9159 13.5442C54.1747 13.3826 54.7267 12.9525 55.5719 12.2538C57.0387 11.049 58.0301 10.4821 58.5461 10.5531C58.7267 10.5779 58.8735 10.6572 58.9865 10.791C58.928 11.2167 58.7121 11.8311 58.3389 12.6341C57.9656 13.4371 57.7409 14.1159 57.6647 14.6706C57.5015 15.8574 58.0907 16.543 59.4323 16.7274C60.1547 16.8266 61.1696 16.7099 62.4771 16.377ZM62.0751 15.5726C62.0782 15.4547 62.0868 15.3442 62.101 15.241C62.2144 14.4154 62.6024 13.6013 63.2647 12.7986C63.94 11.9976 64.7097 11.6566 65.574 11.7754C65.7417 11.7984 65.87 11.8686 65.959 11.986C66.0498 12.0905 66.0793 12.2588 66.0474 12.491C66.0172 12.7103 65.9164 12.9659 65.7448 13.2578C65.5879 13.5385 65.3592 13.8159 65.0587 14.09C64.771 14.3659 64.5236 14.5882 64.3164 14.7569C64.1092 14.9256 63.8167 15.1416 63.4387 15.4051C63.0737 15.6704 62.8545 15.8308 62.7811 15.8865C62.754 15.9879 62.7396 16.0451 62.7378 16.058C62.69 16.4063 62.8204 16.7002 63.1292 16.9398C63.438 17.1794 63.773 17.324 64.1342 17.3736C64.9985 17.4924 65.7034 17.4316 66.249 17.1912C66.8076 16.9525 67.4728 16.5116 68.2446 15.8686C68.3655 15.7538 68.4378 15.6585 68.4613 15.5829C68.4977 15.5091 68.5802 15.435 68.7087 15.3606C68.8306 15.43 68.8783 15.5614 68.8517 15.7549C68.6677 16.137 68.3503 16.5337 67.8995 16.9449C67.4505 17.3432 66.9393 17.6672 66.3661 17.917C65.5724 18.2416 64.9175 18.3685 64.4015 18.2976C63.8984 18.2284 63.4322 17.9869 63.0028 17.573C62.5733 17.1591 62.2641 16.4923 62.0751 15.5726ZM65.5143 12.4966C64.9596 12.4204 64.4028 12.6461 63.844 13.1739C63.2852 13.7017 62.9685 14.2365 62.894 14.7782C62.8692 14.9588 62.8644 15.0896 62.8795 15.1706C63.3923 14.9782 63.9427 14.607 64.5309 14.0569C65.1209 13.494 65.4487 12.9739 65.5143 12.4966ZM68.383 16.4396C68.386 16.3217 68.3947 16.2112 68.4088 16.108C68.5223 15.2824 68.9102 14.4683 69.5726 13.6656C70.2478 12.8647 71.0176 12.5236 71.8819 12.6424C72.0496 12.6655 72.1779 12.7357 72.2669 12.8531C72.3577 12.9575 72.3871 13.1259 72.3552 13.3581C72.3251 13.5774 72.2242 13.8329 72.0527 14.1248C71.8958 14.4055 71.6671 14.6829 71.3666 14.9571C71.0789 15.233 70.8315 15.4553 70.6243 15.6239C70.4171 15.7926 70.1246 16.0087 69.7466 16.2722C69.3816 16.5374 69.1624 16.6979 69.089 16.7535C69.0619 16.8549 69.0475 16.9121 69.0457 16.925C68.9978 17.2733 69.1283 17.5672 69.4371 17.8068C69.7459 18.0464 70.0809 18.191 70.4421 18.2407C71.3063 18.3595 72.0113 18.2987 72.5569 18.0582C73.1155 17.8195 73.7806 17.3787 74.5525 16.7356C74.6734 16.6208 74.7456 16.5256 74.7692 16.45C74.8056 16.3761 74.8881 16.302 75.0166 16.2277C75.1385 16.297 75.1862 16.4284 75.1596 16.6219C74.9756 17.0041 74.6582 17.4007 74.2074 17.8119C73.7584 18.2102 73.2472 18.5343 72.674 18.784C71.8802 19.1087 71.2253 19.2355 70.7094 19.1646C70.2063 19.0954 69.74 18.8539 69.3106 18.44C68.8812 18.0261 68.572 17.3593 68.383 16.4396ZM71.8222 13.3636C71.2675 13.2874 70.7107 13.5132 70.1519 14.0409C69.593 14.5687 69.2764 15.1035 69.2019 15.6453C69.1771 15.8259 69.1722 15.9566 69.1874 16.0376C69.7002 15.8452 70.2506 15.474 70.8388 14.924C71.4288 14.361 71.7566 13.8409 71.8222 13.3636ZM75.3044 15.2815L75.0642 15.3076C75.0202 15.341 74.9061 15.3582 74.722 15.3591C74.5378 15.3601 74.3637 15.3362 74.1995 15.2873C74.0354 15.2385 73.9669 15.1633 73.9939 15.0619C74.0196 14.6843 74.2813 14.5494 74.779 14.6572C75.3026 14.7686 75.6352 14.6435 75.7769 14.2818L77.1624 10.9433L77.5806 10.6262C77.7043 10.6826 77.7528 10.8076 77.7262 11.0011L77.6803 11.1919L76.2682 14.7239L76.2549 14.8207C76.3528 14.8736 76.5049 14.9142 76.7113 14.9426C76.9177 14.9709 77.2951 14.9505 77.8435 14.8813C78.3936 14.7992 78.7074 14.7635 78.7848 14.7741C78.6873 15.4836 78.1612 15.7727 77.2067 15.6415C76.91 15.6007 76.579 15.5224 76.2138 15.4065C75.8414 16.0124 75.6179 16.5863 75.5434 17.1281C75.4707 17.657 75.5452 18.1667 75.767 18.6572C75.9905 19.1348 76.3989 19.4143 76.9923 19.4959C77.611 19.4889 78.0949 19.4109 78.444 19.2617C78.8077 19.1014 79.0723 18.9932 79.2378 18.9371C79.405 18.8681 79.566 18.8442 79.7208 18.8655C79.8756 18.8867 80.0406 18.9291 80.2159 18.9927C79.766 19.588 78.6626 19.8701 76.9057 19.8389C76.867 19.8335 76.8348 19.8291 76.809 19.8256C75.9189 19.7032 75.3643 19.2918 75.1451 18.5914C74.9786 18.0822 74.9378 17.518 75.0229 16.8988C75.1098 16.2668 75.2036 15.7276 75.3044 15.2815ZM80.089 15.8997L80.201 15.6588C80.5724 14.8687 80.8485 14.486 81.029 14.5109C81.287 14.5463 81.4027 14.6608 81.3761 14.8543C81.3708 14.893 81.359 14.9308 81.3408 14.9677C80.6858 16.1 80.2837 17.2079 80.1348 18.2915C80.0674 18.7817 80.1332 19.2113 80.3322 19.5804C80.533 19.9366 80.8849 20.1492 81.388 20.2184C82.7195 19.902 83.5465 19.7659 83.869 19.8102C83.9722 19.8244 84.0203 19.8573 84.0132 19.9089C83.9919 20.0637 83.6255 20.2434 82.9139 20.4478C82.2041 20.6394 81.6558 20.7086 81.2688 20.6554C80.8947 20.604 80.6153 20.5328 80.4307 20.4417C80.2443 20.3635 80.1095 20.2924 80.0263 20.2284C79.9431 20.1644 79.8485 20.0396 79.7426 19.8542C79.6384 19.6559 79.5865 19.4122 79.5868 19.1231C79.5889 18.8211 79.6271 18.3992 79.7016 17.8574C79.7761 17.3156 79.9052 16.663 80.089 15.8997ZM87.9618 19.1505C87.9938 18.9183 88.0487 18.5184 88.1267 17.9508C88.2194 17.3721 88.2941 16.8764 88.3509 16.4636C87.979 16.4913 87.3863 16.883 86.5727 17.6387C85.772 18.3961 85.3368 18.7897 85.267 18.8195C84.6717 19.4211 84.2126 19.8443 83.8898 20.0891C83.7525 20.2279 83.5548 20.2796 83.2968 20.2442L83.3553 19.8185L84.557 17.2433C84.6864 16.3016 84.9434 15.6272 85.328 15.2201C85.436 15.1035 85.5287 15.0505 85.6061 15.0611C85.7351 15.0789 85.7695 15.307 85.7092 15.7456C85.6507 16.1713 85.5206 16.6397 85.3189 17.1509C85.119 17.6491 84.9951 18.0724 84.9472 18.4207C85.0646 18.3317 85.4238 18.013 86.0249 17.4648C86.626 16.9165 86.9852 16.5979 87.1026 16.5089C87.2 16.4697 87.3725 16.362 87.6202 16.1857C88.1413 15.8368 88.576 15.6862 88.9243 15.7341C89.1178 15.7607 89.2315 15.842 89.2653 15.9781C89.2587 16.1218 89.2333 16.3549 89.1889 16.6774C89.1464 16.987 89.0265 17.4765 88.8294 18.146C88.634 18.8026 88.5023 19.3299 88.4345 19.728C88.3511 20.3343 88.561 20.672 89.0641 20.7412C89.4253 20.7908 89.7869 20.742 90.1488 20.5946C90.5126 20.4343 90.8145 20.2458 91.0546 20.029C91.2965 19.7994 91.575 19.542 91.8902 19.2567C92.2072 18.9586 92.4795 18.7463 92.7072 18.6199L92.6806 18.8134C92.5955 19.4325 92.107 20.0225 91.215 20.5834C90.3248 21.1313 89.5507 21.3601 88.8929 21.2697L88.2543 21.1819C88.0786 21.0263 87.9664 20.886 87.9179 20.7611C87.8823 20.6379 87.8551 20.5487 87.8364 20.4936C87.8177 20.4384 87.809 20.3584 87.8102 20.2534C87.8262 20.1373 87.8377 20.0535 87.8448 20.0019L87.9618 19.1505ZM96.7267 18.2063L96.0241 22.171C96.0223 22.1839 96.0143 22.242 96.0001 22.3452C95.9988 22.4501 95.9964 22.5155 95.9929 22.5413C96.4011 22.4397 97.016 22.2219 97.8373 21.8879C98.6604 21.5411 99.4069 21.3217 100.077 21.2297C100.195 21.3249 100.246 21.4305 100.23 21.5466C100.227 21.5724 99.9088 21.6864 99.2764 21.8886C97.2948 22.5362 96.0941 23.0481 95.6744 23.4241C95.2078 25.3841 94.8693 26.6519 94.6587 27.2275C94.4611 27.8049 94.3323 28.1684 94.2723 28.3178C94.2234 28.482 94.1197 28.7109 93.961 29.0045C93.8024 29.2981 93.6488 29.507 93.5003 29.6312C93.0988 29.9703 92.6723 30.1088 92.2209 30.0468C91.7694 29.9847 91.3368 29.8333 90.923 29.5924C90.5204 29.3662 90.2409 29.1043 90.0846 28.8068C90.0766 28.6743 90.0929 28.4597 90.1337 28.163C90.2649 27.2084 90.9252 26.182 92.1144 25.0837C92.2007 25.0299 92.4659 24.8692 92.9102 24.6017C94.0996 23.8845 94.7824 23.4592 94.9585 23.3257C95.1176 23.1242 95.2406 22.7073 95.3275 22.0753C95.3328 22.0366 95.3432 21.9131 95.3587 21.705C95.387 21.4986 95.4039 21.376 95.4092 21.3373C94.3953 21.8288 93.5788 22.032 92.9596 21.9469C92.4214 21.8467 92.0696 21.4895 91.9043 20.8753C91.8366 20.6031 91.8275 20.2864 91.8772 19.9252C91.9286 19.5512 92.1557 19.1421 92.5585 18.698C93.2066 17.9985 94.1812 17.5541 95.4821 17.3649C96.3721 17.4873 96.787 17.7677 96.7267 18.2063ZM90.7248 28.1654C90.6805 28.4879 90.8256 28.7707 91.1602 29.0138C91.493 29.2699 91.8465 29.4236 92.2206 29.475C92.6076 29.5282 92.9684 29.3412 93.3032 28.9141C93.649 28.5016 93.9205 27.9606 94.1177 27.2911C94.469 26.1697 94.6952 25.2413 94.7962 24.506L94.8574 24.061C93.9298 24.4987 93.0334 25.0917 92.1682 25.8403C91.3141 26.6035 90.833 27.3785 90.7248 28.1654ZM92.4787 20.8557C92.4362 21.1653 92.6471 21.352 93.1115 21.4158C93.9019 21.4982 94.5507 21.2719 95.058 20.737C95.5652 20.2022 95.849 19.7154 95.9093 19.2769C95.9146 19.2382 95.9199 19.1995 95.9252 19.1608L95.9518 18.9673C95.9908 18.6835 95.9574 18.4489 95.8514 18.2634C95.7473 18.0651 95.5791 17.95 95.3469 17.9181C95.2971 17.8981 95.2399 17.8837 95.1754 17.8748C94.5949 17.795 94.0144 18.0504 93.4338 18.6409C92.8661 19.2331 92.5467 19.7873 92.4758 20.3032C92.451 20.4838 92.452 20.668 92.4787 20.8557ZM113.728 19.7348C113.222 20.638 112.913 21.5024 112.8 22.3279C112.612 23.6953 113.259 24.4809 114.743 24.6848C115.124 24.6846 115.412 24.6454 115.607 24.567C115.814 24.4904 116.045 24.3446 116.298 24.1297C116.553 23.9018 116.795 23.7182 117.024 23.5789L117.121 23.5922C116.957 24.3057 116.638 24.7613 116.164 24.959C115.705 25.1456 115.101 25.1875 114.353 25.0846C112.74 24.863 111.963 24.0661 112.02 22.6939C111.909 23.0204 111.558 23.3731 110.968 23.7519C110.391 24.1195 109.897 24.275 109.484 24.2183C109.458 24.2147 109.426 24.2103 109.387 24.205C108.618 23.8757 108.283 23.3435 108.384 22.6082C108.516 21.6536 109.14 20.7931 110.257 20.0267C111.129 19.4236 111.932 19.1726 112.667 19.2737C113.08 19.3304 113.434 19.4841 113.728 19.7348ZM108.997 22.5939C108.969 22.8003 108.953 22.9689 108.948 23.0997C108.958 23.2193 109.007 23.3378 109.096 23.4552C109.198 23.5743 109.352 23.6481 109.558 23.6765C110.13 23.7287 110.759 23.3552 111.447 22.5561C112.15 21.7458 112.564 21.0273 112.69 20.4005C112.519 20.1141 112.253 19.9461 111.892 19.8965C111.427 19.8327 110.903 20.0629 110.318 20.5871C109.734 21.1113 109.293 21.7803 108.997 22.5939ZM120.643 23.6426C120.675 23.4104 120.73 23.0105 120.808 22.4429C120.9 21.8642 120.975 21.3685 121.032 20.9557C120.66 20.9834 120.067 21.3751 119.254 22.1307C118.453 22.8881 118.018 23.2818 117.948 23.3116C117.353 23.9132 116.894 24.3364 116.571 24.5812C116.433 24.72 116.236 24.7717 115.978 24.7363L116.036 24.3106L117.238 21.7354C117.367 20.7937 117.624 20.1193 118.009 19.7122C118.117 19.5956 118.21 19.5426 118.287 19.5532C118.416 19.571 118.45 19.7991 118.39 20.2377C118.332 20.6634 118.202 21.1318 118 21.643C117.8 22.1412 117.676 22.5645 117.628 22.9128C117.746 22.8238 118.105 22.5051 118.706 21.9569C119.307 21.4086 119.666 21.09 119.784 21.001C119.881 20.9618 120.054 20.8541 120.301 20.6778C120.822 20.3289 121.257 20.1783 121.605 20.2262C121.799 20.2528 121.912 20.3341 121.946 20.4702C121.94 20.6139 121.914 20.847 121.87 21.1695C121.827 21.479 121.708 21.9686 121.51 22.6381C121.315 23.2947 121.183 23.822 121.115 24.2201C121.032 24.8264 121.242 25.1641 121.745 25.2333C122.106 25.2829 122.468 25.234 122.83 25.0867C123.194 24.9264 123.496 24.7379 123.736 24.5211C123.977 24.2915 124.256 24.0341 124.571 23.7488C124.888 23.4507 125.161 23.2384 125.388 23.112L125.362 23.3054C125.276 23.9246 124.788 24.5146 123.896 25.0755C123.006 25.6234 122.232 25.8522 121.574 25.7618L120.935 25.674C120.76 25.5184 120.647 25.3781 120.599 25.2532C120.563 25.13 120.536 25.0408 120.517 24.9857C120.499 24.9305 120.49 24.8505 120.491 24.7455C120.507 24.6294 120.519 24.5455 120.526 24.494L120.643 23.6426ZM124.56 24.6935C124.935 23.8776 125.306 23.2321 125.674 22.7569C126.054 22.2835 126.472 21.9663 126.928 21.8056C127.386 21.6319 127.792 21.5432 128.148 21.5395C128.505 21.5228 128.993 21.5571 129.612 21.6422C129.672 21.4927 129.778 21.1984 129.931 20.7594C130.085 20.3074 130.192 20.0067 130.252 19.8572C130.326 19.6966 130.432 19.4548 130.568 19.1318C130.799 18.5984 131.012 18.2005 131.206 17.9379C131.414 17.6643 131.543 17.4914 131.592 17.4194C131.642 17.3473 131.674 17.2992 131.691 17.2752C131.722 17.2401 131.76 17.2058 131.804 17.1724C131.862 17.1279 131.95 17.1136 132.066 17.1296C132.466 17.1846 132.607 17.6377 132.49 18.4891L132.466 18.6632C132.374 19.334 131.963 20.2238 131.232 21.3325C130.503 22.4284 130.096 23.2859 130.011 23.9051C129.821 25.2853 130.1 26.0269 130.848 26.1297C131.094 26.1634 131.442 26.1127 131.895 25.9777C132.347 25.8428 132.695 25.7921 132.941 25.8258L133.131 25.8718C132.866 26.177 132.501 26.3962 132.036 26.5294C131.583 26.6644 131.215 26.7124 130.931 26.6734C130.661 26.6362 130.474 26.604 130.373 26.5769C130.272 26.5498 130.178 26.5107 130.093 26.4596C130.01 26.3956 129.938 26.3463 129.877 26.3116C129.829 26.2787 129.773 26.2118 129.708 26.1109C129.657 25.9988 129.615 25.9208 129.582 25.8768C129.562 25.8345 129.529 25.738 129.484 25.5872C129.439 25.4365 129.406 25.34 129.386 25.2977C129.378 25.2573 129.348 25.1414 129.295 24.9502C129.256 24.7607 129.227 24.6384 129.208 24.5833C129.164 24.6167 128.993 24.7575 128.696 25.0058C128.401 25.2413 128.195 25.4035 128.077 25.4925C127.962 25.5686 127.76 25.6986 127.472 25.8824C127.197 26.068 126.969 26.1944 126.789 26.2617C126.276 26.4541 125.833 26.5246 125.458 26.4731C125.097 26.4235 124.844 26.3033 124.7 26.1126C124.57 25.9107 124.499 25.7103 124.487 25.5115C124.489 25.3016 124.514 25.0289 124.56 24.6935ZM128.469 22.2145C127.746 22.1152 127.049 22.361 126.376 22.952C125.716 23.5448 125.34 24.183 125.246 24.8667C125.153 25.5375 125.288 25.8977 125.649 25.9473C126.152 26.0165 126.849 25.7246 127.741 25.0717C128.647 24.4076 129.137 23.8047 129.212 23.2629C129.256 22.9405 129.217 22.6985 129.095 22.5371C128.987 22.3646 128.778 22.257 128.469 22.2145ZM131.977 18.0637C131.578 18.482 131.214 19.0695 130.887 19.8262C130.574 20.5718 130.381 21.209 130.309 21.7379C130.305 21.7637 130.304 21.8227 130.304 21.9147L130.502 21.7645C130.678 21.631 131.12 20.7586 131.828 19.1472L131.879 18.9177C131.9 18.7629 131.914 18.6662 131.919 18.6275C131.924 18.5888 131.931 18.4911 131.94 18.3346C131.961 18.1798 131.973 18.0895 131.977 18.0637ZM9.31277 24.3603L8.61009 28.325C8.60832 28.3379 8.60034 28.3959 8.58616 28.4991C8.58487 28.6041 8.58246 28.6695 8.57891 28.6953C8.98717 28.5937 9.60199 28.3759 10.4233 28.0419C11.2465 27.695 11.9929 27.4756 12.6627 27.3837C12.7811 27.4788 12.8323 27.5844 12.8163 27.7005C12.8128 27.7263 12.4948 27.8403 11.8624 28.0426C9.88079 28.6902 8.68012 29.202 8.26042 29.5781C7.79387 31.538 7.45532 32.8058 7.24476 33.3815C7.0471 33.9589 6.91829 34.3223 6.85831 34.4718C6.80946 34.6359 6.70571 34.8648 6.54706 35.1585C6.38841 35.4521 6.23484 35.661 6.08634 35.7852C5.68486 36.1243 5.25838 36.2628 4.80689 36.2007C4.35541 36.1387 3.92278 35.9872 3.50902 35.7463C3.10639 35.5201 2.82694 35.2583 2.67068 34.9608C2.66261 34.8283 2.67897 34.6136 2.71975 34.317C2.85096 33.3624 3.5112 32.336 4.70048 31.2377C4.78675 31.1838 5.05198 31.0231 5.4962 30.7556C6.68565 30.0385 7.36842 29.6132 7.54449 29.4797C7.70363 29.2781 7.82664 28.8613 7.91352 28.2292C7.91884 28.1905 7.92923 28.0671 7.9447 27.8589C7.97307 27.6525 7.98992 27.53 7.99524 27.4913C6.98136 27.9828 6.16483 28.186 5.54566 28.1009C5.00742 28.0006 4.65565 27.6434 4.49035 27.0292C4.42261 26.7571 4.41357 26.4404 4.46322 26.0792C4.51464 25.7051 4.74173 25.296 5.14449 24.8519C5.79266 24.1524 6.76719 23.7081 8.06809 23.5189C8.95816 23.6412 9.37306 23.9217 9.31277 24.3603ZM3.31087 34.3193C3.26654 34.6418 3.41167 34.9246 3.74627 35.1678C4.07908 35.4238 4.43254 35.5776 4.80662 35.629C5.19361 35.6822 5.55446 35.4952 5.88918 35.068C6.23503 34.6556 6.50654 34.1146 6.70371 33.4451C7.05501 32.3236 7.28119 31.3953 7.38225 30.66L7.44343 30.2149C6.51581 30.6526 5.61941 31.2457 4.75421 31.9942C3.90014 32.7574 3.41903 33.5325 3.31087 34.3193ZM5.06478 27.0096C5.02222 27.3192 5.23314 27.5059 5.69752 27.5698C6.48794 27.6521 7.13677 27.4259 7.64402 26.891C8.15127 26.3561 8.43503 25.8694 8.49532 25.4308C8.50064 25.3921 8.50596 25.3534 8.51127 25.3147L8.53787 25.1212C8.57688 24.8374 8.54341 24.6028 8.43746 24.4174C8.33329 24.2191 8.16511 24.104 7.93292 24.072C7.88309 24.052 7.82593 24.0376 7.76143 24.0288C7.18095 23.949 6.60041 24.2043 6.0198 24.7948C5.45209 25.3871 5.13277 25.9412 5.06185 26.4572C5.03703 26.6378 5.038 26.8219 5.06478 27.0096ZM12.1408 26.8782C12.1438 26.7603 12.1525 26.6498 12.1666 26.5466C12.2801 25.721 12.668 24.9069 13.3304 24.1042C14.0056 23.3033 14.7754 22.9622 15.6397 23.081C15.8074 23.1041 15.9357 23.1743 16.0247 23.2916C16.1155 23.3961 16.1449 23.5645 16.113 23.7967C16.0829 24.016 15.982 24.2715 15.8105 24.5634C15.6536 24.8441 15.4249 25.1215 15.1243 25.3957C14.8367 25.6716 14.5893 25.8939 14.3821 26.0625C14.1749 26.2312 13.8823 26.4473 13.5044 26.7108C13.1394 26.976 12.9202 27.1365 12.8468 27.1921C12.8197 27.2935 12.8053 27.3507 12.8035 27.3636C12.7556 27.7119 12.8861 28.0058 13.1949 28.2454C13.5037 28.485 13.8387 28.6296 14.1999 28.6793C15.0641 28.7981 15.7691 28.7373 16.3147 28.4968C16.8732 28.2581 17.5384 27.8173 18.3103 27.1742C18.4312 27.0594 18.5034 26.9642 18.527 26.8885C18.5634 26.8147 18.6459 26.7406 18.7744 26.6663C18.8963 26.7356 18.9439 26.867 18.9174 27.0605C18.7334 27.4427 18.416 27.8393 17.9652 28.2505C17.5161 28.6488 17.005 28.9729 16.4318 29.2226C15.638 29.5473 14.9831 29.6741 14.4672 29.6032C13.9641 29.534 13.4978 29.2925 13.0684 28.8786C12.639 28.4647 12.3298 27.7979 12.1408 26.8782ZM15.5799 23.8022C15.0253 23.726 14.4685 23.9518 13.9097 24.4795C13.3508 25.0073 13.0342 25.5421 12.9597 26.0839C12.9349 26.2645 12.93 26.3952 12.9452 26.4762C13.4579 26.2838 14.0084 25.9126 14.5966 25.3626C15.1866 24.7996 15.5143 24.2795 15.5799 23.8022ZM19.0622 25.7201L18.822 25.7462C18.778 25.7796 18.6639 25.7968 18.4798 25.7977C18.2956 25.7987 18.1215 25.7748 17.9573 25.7259C17.7932 25.6771 17.7246 25.6019 17.7517 25.5005C17.7774 25.1229 18.039 24.988 18.5368 25.0958C19.0604 25.2072 19.393 25.0821 19.5347 24.7204L20.9202 21.3819L21.3384 21.0648C21.4621 21.1212 21.5106 21.2462 21.484 21.4397L21.4381 21.6305L20.026 25.1625L20.0127 25.2593C20.1106 25.3122 20.2627 25.3528 20.4691 25.3812C20.6755 25.4095 21.0529 25.3891 21.6012 25.3199C22.1514 25.2378 22.4652 25.2021 22.5426 25.2127C22.4451 25.9222 21.919 26.2113 20.9645 26.0801C20.6678 26.0393 20.3368 25.961 19.9716 25.8451C19.5991 26.451 19.3757 27.0249 19.3012 27.5667C19.2285 28.0956 19.303 28.6053 19.5248 29.0958C19.7483 29.5734 20.1567 29.8529 20.7501 29.9345C21.3688 29.9275 21.8527 29.8495 22.2018 29.7003C22.5655 29.54 22.8301 29.4318 22.9955 29.3757C23.1628 29.3067 23.3238 29.2828 23.4785 29.3041C23.6333 29.3253 23.7984 29.3677 23.9736 29.4313C23.5238 30.0266 22.4204 30.3087 20.6635 30.2775C20.6248 30.2721 20.5926 30.2677 20.5668 30.2642C19.6767 30.1418 19.1221 29.7304 18.9029 29.03C18.7363 28.5208 18.6956 27.9566 18.7807 27.3374C18.8676 26.7054 18.9614 26.1662 19.0622 25.7201ZM23.9188 26.3876L23.6787 26.4138C23.6347 26.4472 23.5206 26.4643 23.3364 26.4653C23.1523 26.4663 22.9782 26.4423 22.814 26.3935C22.6499 26.3446 22.5813 26.2695 22.6084 26.1681C22.634 25.7905 22.8957 25.6556 23.3935 25.7634C23.917 25.8748 24.2497 25.7497 24.3914 25.388L25.7769 22.0495L26.1951 21.7324C26.3187 21.7888 26.3673 21.9137 26.3407 22.1072L26.2947 22.2981L24.8827 25.8301L24.8694 25.9268C24.9672 25.9797 25.1194 26.0204 25.3258 26.0487C25.5322 26.0771 25.9095 26.0567 26.4579 25.9875C27.0081 25.9054 27.3219 25.8696 27.3993 25.8803C27.3017 26.5898 26.7757 26.8789 25.8211 26.7477C25.5244 26.7069 25.1935 26.6286 24.8283 26.5126C24.4558 27.1186 24.2324 27.6925 24.1579 28.2343C24.0852 28.7631 24.1597 29.2728 24.3814 29.7633C24.605 30.2409 25.0134 30.5205 25.6068 30.6021C26.2255 30.5951 26.7094 30.517 27.0584 30.3679C27.4222 30.2076 27.6868 30.0994 27.8522 30.0432C28.0194 29.9742 28.1804 29.9504 28.3352 29.9716C28.49 29.9929 28.6551 30.0353 28.8303 30.0988C28.3805 30.6942 27.2771 30.9762 25.5202 30.945C25.4815 30.9397 25.4493 30.9353 25.4235 30.9317C24.5334 30.8094 23.9788 30.398 23.7596 29.6976C23.593 29.1884 23.5523 28.6242 23.6374 28.005C23.7243 27.3729 23.8181 26.8338 23.9188 26.3876ZM28.7034 27.0059L28.8154 26.765C29.1869 25.9749 29.4629 25.5922 29.6435 25.617C29.9015 25.6525 30.0172 25.767 29.9906 25.9605C29.9853 25.9992 29.9735 26.037 29.9553 26.0739C29.3002 27.2062 28.8982 28.3141 28.7493 29.3977C28.6819 29.8878 28.7477 30.3175 28.9467 30.6866C29.1475 31.0427 29.4994 31.2554 30.0025 31.3245C31.334 31.0081 32.161 30.8721 32.4835 30.9164C32.5867 30.9306 32.6347 30.9635 32.6277 31.0151C32.6064 31.1699 32.24 31.3495 31.5284 31.554C30.8186 31.7456 30.2702 31.8148 29.8832 31.7616C29.5092 31.7102 29.2298 31.6389 29.0452 31.5478C28.8588 31.4696 28.724 31.3985 28.6408 31.3345C28.5576 31.2705 28.463 31.1458 28.357 30.9604C28.2529 30.762 28.2009 30.5183 28.2012 30.2292C28.2033 29.9272 28.2416 29.5053 28.3161 28.9635C28.3905 28.4218 28.5197 27.7692 28.7034 27.0059ZM36.5763 30.2566C36.6082 30.0245 36.6632 29.6246 36.7412 29.057C36.8339 28.4783 36.9086 27.9825 36.9653 27.5698C36.5935 27.5975 36.0008 27.9892 35.1872 28.7448C34.3865 29.5022 33.9512 29.8958 33.8814 29.9257C33.2861 30.5273 32.8271 30.9505 32.5043 31.1953C32.3669 31.3341 32.1693 31.3858 31.9113 31.3503L31.9698 30.9247L33.1715 28.3495C33.3009 27.4078 33.5579 26.7334 33.9425 26.3262C34.0505 26.2096 34.1432 26.1567 34.2206 26.1673C34.3496 26.185 34.3839 26.4132 34.3237 26.8518C34.2651 27.2775 34.135 27.7459 33.9334 28.257C33.7334 28.7553 33.6095 29.1786 33.5617 29.5268C33.679 29.4378 34.0383 29.1192 34.6394 28.5709C35.2405 28.0227 35.5997 27.7041 35.7171 27.615C35.8145 27.5759 35.987 27.4681 36.2347 27.2919C36.7558 26.9429 37.1905 26.7924 37.5388 26.8403C37.7323 26.8669 37.8459 26.9482 37.8798 27.0843C37.8732 27.228 37.8477 27.461 37.8034 27.7835C37.7609 28.0931 37.641 28.5827 37.4438 29.2521C37.2484 29.9087 37.1168 30.4361 37.0489 30.8342C36.9656 31.4405 37.1755 31.7782 37.6786 31.8473C38.0397 31.897 38.4013 31.8481 38.7633 31.7007C39.1271 31.5404 39.429 31.3519 39.6691 31.1352C39.9109 30.9056 40.1895 30.6481 40.5047 30.3629C40.8217 30.0647 41.094 29.8524 41.3217 29.726L41.2951 29.9195C41.21 30.5387 40.7214 31.1287 39.8295 31.6895C38.9393 32.2375 38.1652 32.4663 37.5073 32.3758L36.8688 32.2881C36.693 32.1325 36.5809 31.9922 36.5324 31.8672C36.4967 31.744 36.4695 31.6549 36.4508 31.5997C36.4321 31.5446 36.4234 31.4645 36.4247 31.3596C36.4407 31.2435 36.4522 31.1596 36.4593 31.108L36.5763 30.2566ZM45.3412 29.3125L44.6385 33.2772C44.6368 33.2901 44.6288 33.3481 44.6146 33.4513C44.6133 33.5563 44.6109 33.6217 44.6073 33.6475C45.0156 33.5459 45.6304 33.3281 46.4518 32.9941C47.2749 32.6472 48.0214 32.4278 48.6912 32.3359C48.8095 32.431 48.8607 32.5366 48.8448 32.6527C48.8412 32.6785 48.5233 32.7925 47.8909 32.9948C45.9092 33.6424 44.7085 34.1542 44.2888 34.5303C43.8223 36.4902 43.4837 37.758 43.2732 38.3337C43.0755 38.9111 42.9467 39.2745 42.8867 39.424C42.8379 39.5882 42.7341 39.817 42.5755 40.1107C42.4168 40.4043 42.2633 40.6132 42.1148 40.7374C41.7133 41.0765 41.2868 41.215 40.8353 41.153C40.3838 41.0909 39.9512 40.9394 39.5375 40.6985C39.1348 40.4723 38.8554 40.2105 38.6991 39.913C38.691 39.7805 38.7074 39.5659 38.7482 39.2692C38.8794 38.3146 39.5396 37.2882 40.7289 36.1899C40.8152 36.136 41.0804 35.9753 41.5246 35.7078C42.7141 34.9907 43.3969 34.5654 43.5729 34.4319C43.7321 34.2303 43.8551 33.8135 43.942 33.1814C43.9473 33.1427 43.9577 33.0193 43.9731 32.8111C44.0015 32.6047 44.0183 32.4822 44.0237 32.4435C43.0098 32.935 42.1933 33.1382 41.5741 33.0531C41.0359 32.9528 40.6841 32.5956 40.5188 31.9814C40.451 31.7093 40.442 31.3926 40.4916 31.0314C40.5431 30.6573 40.7702 30.2482 41.1729 29.8041C41.8211 29.1046 42.7956 28.6603 44.0965 28.4711C44.9866 28.5934 45.4015 28.8739 45.3412 29.3125ZM39.3393 39.2716C39.295 39.594 39.4401 39.8769 39.7747 40.12C40.1075 40.376 40.461 40.5298 40.8351 40.5812C41.222 40.6344 41.5829 40.4474 41.9176 40.0202C42.2635 39.6078 42.535 39.0668 42.7321 38.3973C43.0834 37.2758 43.3096 36.3475 43.4107 35.6122L43.4719 35.1672C42.5442 35.6048 41.6478 36.1979 40.7826 36.9464C39.9286 37.7096 39.4475 38.4847 39.3393 39.2716ZM41.0932 31.9618C41.0507 32.2714 41.2616 32.4581 41.726 32.522C42.5164 32.6043 43.1652 32.3781 43.6725 31.8432C44.1797 31.3083 44.4635 30.8216 44.5237 30.383C44.5291 30.3443 44.5344 30.3056 44.5397 30.2669L44.5663 30.0734C44.6053 29.7896 44.5718 29.555 44.4659 29.3696C44.3617 29.1713 44.1935 29.0562 43.9614 29.0242C43.9115 29.0043 43.8544 28.9898 43.7899 28.981C43.2094 28.9012 42.6288 29.1565 42.0482 29.747C41.4805 30.3393 41.1612 30.8934 41.0903 31.4094C41.0655 31.59 41.0664 31.7741 41.0932 31.9618ZM57.7028 31.0313L57.4626 31.0575C57.4186 31.0908 57.3045 31.108 57.1204 31.109C56.9362 31.11 56.7621 31.086 56.5979 31.0372C56.4338 30.9883 56.3652 30.9132 56.3923 30.8118C56.4179 30.4341 56.6796 30.2993 57.1774 30.4071C57.701 30.5185 58.0336 30.3934 58.1753 30.0317L59.5608 26.6932L59.979 26.376C60.1027 26.4325 60.1512 26.5574 60.1246 26.7509L60.0787 26.9418L58.6666 30.4738L58.6533 30.5705C58.7511 30.6234 58.9033 30.664 59.1097 30.6924C59.3161 30.7208 59.6935 30.7004 60.2418 30.6312C60.792 30.5491 61.1058 30.5133 61.1832 30.524C61.0857 31.2335 60.5596 31.5226 59.605 31.3914C59.3084 31.3506 58.9774 31.2722 58.6122 31.1563C58.2397 31.7623 58.0163 32.3362 57.9418 32.878C57.8691 33.4068 57.9436 33.9165 58.1654 34.407C58.3889 34.8846 58.7973 35.1642 59.3907 35.2457C60.0094 35.2388 60.4933 35.1607 60.8424 35.0116C61.2061 34.8513 61.4707 34.7431 61.6361 34.6869C61.8033 34.6179 61.9643 34.594 62.1191 34.6153C62.2739 34.6366 62.439 34.679 62.6142 34.7425C62.1644 35.3379 61.061 35.6199 59.3041 35.5887C59.2654 35.5834 59.2332 35.579 59.2074 35.5754C58.3173 35.4531 57.7627 35.0417 57.5435 34.3413C57.3769 33.8321 57.3362 33.2679 57.4213 32.6487C57.5082 32.0166 57.602 31.4775 57.7028 31.0313ZM67.8565 31.0272L67.7941 31.7678C67.7569 32.0387 67.7083 32.2489 67.6483 32.3984C67.603 32.5367 67.5686 32.6437 67.545 32.7193C67.5215 32.795 67.4751 32.8937 67.4057 33.0156C67.3382 33.1246 67.2944 33.204 67.2744 33.2539C67.2544 33.3037 67.196 33.3942 67.0991 33.5255C67.0022 33.6567 66.9382 33.74 66.9071 33.7751C66.8888 33.812 66.8157 33.9137 66.6877 34.0801C66.5744 34.2354 66.5012 34.3371 66.4683 34.3851L66.8553 34.4383C67.6035 34.5411 68.7496 34.3307 70.2937 33.8069L70.4245 34.0023C69.0496 34.8253 67.5175 35.1668 65.8282 35.0266L63.9818 35.8374C63.8093 35.9451 63.4586 35.9626 62.9297 35.8899C62.4137 35.819 62.0978 35.631 61.982 35.3259C61.8809 35.0097 61.8729 34.542 61.958 33.9229C62.0431 33.3037 62.3978 32.6361 63.0219 31.9202C63.6589 31.206 64.3193 30.8959 65.003 30.9899C65.3126 31.0324 65.4948 31.1889 65.5496 31.4593C64.7971 31.5793 64.1256 31.8747 63.5352 32.3456C62.9447 32.8165 62.6007 33.4066 62.5032 34.1161C62.4695 34.3612 62.4558 34.5565 62.4621 34.7019C62.4684 34.8473 62.5216 34.9861 62.6218 35.1181C62.7219 35.2502 62.9397 35.3393 63.275 35.3854C63.9716 35.4811 64.5791 35.2689 65.0975 34.7487C64.9986 34.5117 64.9829 34.1481 65.0503 33.6579C65.1194 33.1548 65.2228 32.6893 65.3605 32.2613C65.5129 31.8223 65.7464 31.4141 66.0611 31.0367C66.3759 30.6594 66.7267 30.4974 67.1137 30.5505C67.5007 30.6037 67.7483 30.7626 67.8565 31.0272ZM67.2284 31.8675L67.2823 31.6186C67.3178 31.3606 67.2617 31.1952 67.114 31.1223C66.752 31.2697 66.4332 31.5808 66.1577 32.0555C65.8821 32.5302 65.7151 32.9804 65.6566 33.4061C65.5981 33.8318 65.6316 34.0664 65.757 34.1099C66.1466 33.9532 66.47 33.6559 66.7273 33.2181C66.9975 32.7821 67.1628 32.3448 67.2231 31.9062L67.2284 31.8675ZM78.0589 38.1272L79.9837 32.2998L82.0301 27.0215C82.388 26.8079 82.6702 26.7152 82.8766 26.7436C83.1862 26.7861 83.2975 27.1235 83.2107 27.7555C83.0351 29.0326 82.2852 30.855 80.9608 33.2228C80.4738 34.089 80.01 34.8335 79.5695 35.4564C79.6869 35.3674 79.9243 35.1701 80.2818 34.8643C80.6521 34.5604 80.918 34.3472 81.0794 34.2248C81.2537 34.1042 81.5069 33.9353 81.8391 33.7181C82.1859 33.4897 82.4834 33.3335 82.7315 33.2493C83.3563 33.0066 83.9672 32.9131 84.5641 32.9689C84.9832 33.1711 85.1697 33.4398 85.1236 33.7752C85.0793 34.0977 84.6985 34.5251 83.9813 35.0574C83.2788 35.5786 82.5187 35.9932 81.7008 36.3014C81.9706 36.8248 82.3736 37.2876 82.9097 37.6899C83.4477 38.0793 83.994 38.3121 84.5487 38.3883C85.1033 38.4646 85.4878 38.3926 85.7021 38.1723C85.7279 38.1758 85.7566 38.2061 85.7882 38.263C85.8345 38.3088 85.8559 38.3446 85.8523 38.3704C85.8168 38.6284 85.6513 38.829 85.3555 38.9724C85.0598 39.1158 84.8475 39.1786 84.7185 39.1609C84.6024 39.1449 84.5259 39.1278 84.489 39.1096C83.9912 39.0017 83.476 38.7338 82.9434 38.3057C82.4237 37.8794 81.9271 37.476 81.4537 37.0955C80.9949 36.7038 80.5979 36.485 80.2625 36.4389C79.94 36.3945 79.7254 36.3782 79.6186 36.3898C79.5088 36.5193 79.3775 36.7575 79.2247 37.1045C79.0847 37.4533 78.9296 37.7211 78.7594 37.908C78.5891 38.0949 78.3556 38.168 78.0589 38.1272ZM80.5028 35.4073C80.7062 35.5535 80.982 35.6506 81.3303 35.6985C81.6786 35.7463 82.142 35.626 82.7205 35.3375C83.5983 34.8799 84.1458 34.2914 84.3629 33.5721C83.4342 33.4444 82.1475 34.0562 80.5028 35.4073ZM82.294 27.8267L79.9963 33.6422C80.0639 33.5332 80.1945 33.3474 80.3883 33.0849C80.5839 32.8095 80.7146 32.6237 80.7804 32.5276C80.8479 32.4186 80.9566 32.2496 81.1064 32.0204C81.2579 31.7784 81.3719 31.5706 81.4484 31.3971C81.5377 31.2254 81.647 31.0039 81.7763 30.7325C82.0002 30.2507 82.2537 29.6021 82.5366 28.7866C82.6235 28.1546 82.5831 27.827 82.4154 27.8039C82.3767 27.7986 82.3362 27.8062 82.294 27.8267ZM89.9611 37.5945C89.993 37.3623 90.048 36.9625 90.126 36.3949C90.2187 35.8162 90.2934 35.3204 90.3501 34.9076C89.9783 34.9354 89.3856 35.3271 88.572 36.0827C87.7713 36.8401 87.336 37.2337 87.2662 37.2635C86.6709 37.8652 86.2119 38.2884 85.8891 38.5332C85.7517 38.672 85.554 38.7237 85.296 38.6882L85.3545 38.2625L86.5563 35.6873C86.6857 34.7457 86.9427 34.0713 87.3272 33.6641C87.4353 33.5475 87.528 33.4946 87.6054 33.5052C87.7344 33.5229 87.7687 33.7511 87.7084 34.1897C87.6499 34.6153 87.5198 35.0838 87.3181 35.5949C87.1182 36.0932 86.9943 36.5164 86.9464 36.8647C87.0638 36.7757 87.4231 36.4571 88.0241 35.9088C88.6252 35.3606 88.9845 35.0419 89.1018 34.9529C89.1992 34.9137 89.3718 34.806 89.6194 34.6298C90.1405 34.2808 90.5753 34.1303 90.9235 34.1781C91.117 34.2047 91.2307 34.2861 91.2646 34.4222C91.258 34.5658 91.2325 34.7989 91.1882 35.1214C91.1456 35.431 91.0258 35.9205 90.8286 36.59C90.6332 37.2466 90.5016 37.774 90.4337 38.1721C90.3504 38.7784 90.5602 39.1161 91.0633 39.1852C91.4245 39.2349 91.7861 39.186 92.1481 39.0386C92.5118 38.8783 92.8138 38.6898 93.0538 38.4731C93.2957 38.2435 93.5742 37.986 93.8895 37.7008C94.2064 37.4026 94.4788 37.1903 94.7064 37.0639L94.6798 37.2574C94.5947 37.8766 94.1062 38.4666 93.2142 39.0274C92.324 39.5754 91.55 39.8041 90.8921 39.7137L90.2536 39.6259C90.0778 39.4704 89.9657 39.3301 89.9171 39.2051C89.8815 39.0819 89.8543 38.9928 89.8356 38.9376C89.8169 38.8825 89.8082 38.8024 89.8095 38.6974C89.8254 38.5813 89.837 38.4975 89.8441 38.4459L89.9611 37.5945ZM99.8022 35.4183L99.7399 36.1589C99.7026 36.4297 99.654 36.6399 99.594 36.7894C99.5487 36.9277 99.5143 37.0347 99.4908 37.1104C99.4672 37.186 99.4208 37.2847 99.3515 37.4067C99.2839 37.5157 99.2401 37.5951 99.2202 37.6449C99.2002 37.6947 99.1417 37.7853 99.0448 37.9165C98.9479 38.0478 98.8839 38.131 98.8528 38.1661C98.8346 38.2031 98.7614 38.3047 98.6334 38.4711C98.5201 38.6264 98.447 38.7281 98.4141 38.7761L98.8011 38.8293C99.5492 38.9322 100.695 38.7217 102.239 38.1979L102.37 38.3933C100.995 39.2164 99.4632 39.5578 97.7739 39.4176L95.9275 40.2284C95.755 40.3361 95.4043 40.3536 94.8754 40.2809C94.3594 40.21 94.0435 40.022 93.9278 39.717C93.8266 39.4008 93.8186 38.9331 93.9038 38.3139C93.9889 37.6947 94.3435 37.0272 94.9676 36.3112C95.6047 35.597 96.265 35.2869 96.9487 35.3809C97.2583 35.4235 97.4405 35.5799 97.4953 35.8503C96.7428 35.9703 96.0713 36.2658 95.4809 36.7366C94.8904 37.2075 94.5464 37.7976 94.4489 38.5071C94.4152 38.7522 94.4015 38.9475 94.4078 39.0929C94.4141 39.2384 94.4673 39.3771 94.5675 39.5092C94.6676 39.6412 94.8854 39.7303 95.2208 39.7764C95.9173 39.8721 96.5248 39.6599 97.0432 39.1397C96.9443 38.9027 96.9286 38.5391 96.996 38.0489C97.0651 37.5458 97.1685 37.0803 97.3062 36.6524C97.4586 36.2133 97.6921 35.8051 98.0069 35.4278C98.3216 35.0505 98.6724 34.8884 99.0594 34.9416C99.4464 34.9948 99.694 35.1537 99.8022 35.4183ZM99.1741 36.2585L99.2281 36.0096C99.2635 35.7517 99.2074 35.5862 99.0597 35.5133C98.6977 35.6607 98.3789 35.9718 98.1034 36.4465C97.8279 36.9212 97.6608 37.3714 97.6023 37.7971C97.5438 38.2228 97.5773 38.4574 97.7027 38.5009C98.0923 38.3442 98.4157 38.0469 98.6731 37.6091C98.9433 37.1731 99.1085 36.7358 99.1688 36.2972L99.1741 36.2585ZM101.778 37.6811C101.876 36.9716 102.014 36.156 102.193 35.2343C102.322 35.2521 102.425 35.3187 102.501 35.4343C102.592 35.5388 102.617 35.6869 102.578 35.8786C102.538 36.0704 102.457 36.6177 102.332 37.5207C102.208 38.4236 102.142 38.9994 102.134 39.2481C102.083 40.0033 102.18 40.3978 102.425 40.4315C102.554 40.4492 102.73 40.3682 102.952 40.1884C103.487 39.7363 104.025 38.9757 104.566 37.9066C104.769 37.4875 104.878 37.2199 104.894 37.1038C104.911 36.9748 104.922 36.8974 104.925 36.8716L105.39 36.9355C105.396 37.0809 105.387 37.4805 105.363 38.1344C105.333 39.6943 105.41 40.6118 105.596 40.887C105.901 40.8633 106.171 40.4798 106.405 39.7365C106.64 38.9802 106.79 38.3634 106.856 37.8862L107.277 37.5497C107.334 37.8993 107.374 38.1348 107.397 38.2562C107.432 38.3794 107.493 38.5126 107.578 38.6557C107.664 38.7989 107.769 38.8923 107.895 38.9358C108.033 38.9811 108.225 39.0206 108.47 39.0543C108.99 38.8103 109.295 38.6945 109.385 38.7069C109.488 38.7211 109.537 38.7476 109.532 38.7863C109.507 38.9669 109.317 39.1511 108.963 39.3389C108.623 39.5157 108.415 39.5987 108.337 39.5881C108.26 39.5775 108.215 39.5713 108.202 39.5695C107.725 39.5039 107.405 39.3942 107.242 39.2403C107.222 39.2902 107.168 39.4405 107.081 39.6914C106.994 39.9423 106.904 40.1665 106.811 40.3641C106.72 40.5487 106.607 40.75 106.472 40.968C106.182 41.4539 105.824 41.6675 105.398 41.609C105.217 41.5842 105.081 41.4275 104.99 41.1389C104.866 40.7933 104.773 40.373 104.709 39.878C104.648 39.3701 104.619 39.1033 104.622 39.0775C103.479 40.6027 102.663 41.3316 102.173 41.2643C101.592 41.1845 101.461 39.9901 101.778 37.6811ZM125.313 43.5972C124.547 44.0045 123.751 44.1515 122.926 44.038C122.5 43.9795 122.17 43.8026 121.934 43.5074C121.712 43.2139 121.595 42.8693 121.583 42.4734C121.574 42.0647 121.578 41.7037 121.594 41.3906C121.626 41.0663 121.656 40.801 121.684 40.5946C121.714 40.3753 121.758 40.1513 121.816 39.9227C121.797 39.7755 121.626 39.6797 121.303 39.6354C120.994 39.5928 120.668 39.7124 120.327 39.9941C119.986 40.2758 119.688 40.6291 119.432 41.054C119.192 41.4678 118.951 41.8815 118.71 42.2953C118.482 42.7108 118.275 43.0176 118.09 43.2156C117.906 43.4136 117.761 43.5056 117.658 43.4914C117.555 43.4772 117.479 43.4536 117.431 43.4208C117.429 43.3416 117.435 43.2504 117.449 43.1472C117.538 42.5022 117.954 41.1466 118.698 39.0802C119.442 37.0138 120.138 35.2497 120.786 33.7878C120.824 33.7011 120.922 33.5173 121.079 33.2366C121.25 32.9448 121.416 32.7441 121.575 32.6346C121.737 32.5122 121.895 32.4616 122.05 32.4829C122.205 32.5042 122.323 32.5533 122.404 32.6302L122.409 32.5915C122.526 32.6995 122.599 32.933 122.629 33.2919C122.658 33.6509 122.659 33.9335 122.63 34.1399C122.464 35.3525 121.995 36.4184 121.225 37.3377C120.91 37.715 120.599 38.0665 120.291 38.3922C119.984 38.718 119.73 39.0314 119.531 39.3327C119.345 39.6356 119.241 39.8645 119.22 40.0193C119.199 40.1741 119.185 40.2709 119.18 40.3096C120.026 39.4138 120.849 39.0209 121.649 39.1308C121.932 39.1698 122.134 39.2305 122.254 39.3127C122.349 39.3914 122.401 39.4905 122.411 39.6102C122.422 39.7169 122.397 39.996 122.335 40.4475C122.288 40.8879 122.255 41.2711 122.236 41.5971C122.232 41.912 122.244 42.2554 122.272 42.6272C122.302 42.9861 122.374 43.2261 122.489 43.347C122.616 43.4697 122.738 43.539 122.854 43.555C122.97 43.5709 123.097 43.5555 123.235 43.5088C124.447 43.1101 125.233 42.9356 125.594 42.9853C125.762 43.0083 125.839 43.0714 125.824 43.1746C125.81 43.2778 125.64 43.4187 125.313 43.5972ZM121.296 34.0945C120.565 35.8735 120.176 36.8912 120.127 37.1474C120.093 37.3925 120.075 37.5279 120.071 37.5537L120.053 37.8273C120.693 37.6655 121.273 36.6542 121.791 34.7935C121.945 34.2494 122.046 33.8033 122.094 33.455C122.141 33.1067 122.107 32.9246 121.991 32.9086C121.875 32.8926 121.643 33.2879 121.296 34.0945ZM126.069 40.3891L126.181 40.1482C126.553 39.358 126.829 38.9754 127.009 39.0002C127.267 39.0357 127.383 39.1502 127.356 39.3437C127.351 39.3824 127.339 39.4202 127.321 39.4571C126.666 40.5894 126.264 41.6973 126.115 42.7809C126.048 43.271 126.113 43.7007 126.312 44.0697C126.513 44.4259 126.865 44.6386 127.368 44.7077C128.7 44.3913 129.527 44.2553 129.849 44.2996C129.952 44.3138 130.001 44.3467 129.993 44.3983C129.972 44.5531 129.606 44.7327 128.894 44.9372C128.184 45.1288 127.636 45.198 127.249 45.1448C126.875 45.0934 126.596 45.0221 126.411 44.931C126.225 44.8528 126.09 44.7817 126.007 44.7177C125.923 44.6537 125.829 44.529 125.723 44.3436C125.619 44.1452 125.567 43.9015 125.567 43.6124C125.569 43.3104 125.607 42.8885 125.682 42.3467C125.756 41.805 125.885 41.1524 126.069 40.3891ZM143.596 45.6962C143.602 45.7496 143.603 45.7892 143.599 45.815C143.557 46.1246 143.099 46.3443 142.227 46.4741C141.368 46.6057 140.725 46.6423 140.3 46.5838C138.7 46.3639 138.004 45.4994 138.211 43.9901C138.266 43.5902 138.442 43.0295 138.738 42.3079C139.035 41.5863 139.21 41.0321 139.263 40.6451C138.415 40.7914 137.475 41.3653 136.443 42.367C135.414 43.3558 134.569 44.3832 133.91 45.4492C133.822 45.516 133.711 45.5599 133.577 45.5808C133.442 45.6018 133.347 45.582 133.289 45.5216C133.246 45.45 133.232 45.3626 133.246 45.2594C133.262 45.1433 133.34 44.9569 133.481 44.7002L135.234 40.8404C135.183 40.7284 135.107 40.6653 135.003 40.6511C134.668 40.605 134.011 41.0338 133.033 41.9376C132.778 42.1655 132.217 42.7062 131.351 43.5597C130.275 44.5947 129.602 45.0937 129.331 45.0564C129.305 45.0529 129.269 45.0282 129.223 44.9824C129.179 44.9237 129.165 44.8824 129.181 44.8583L131.074 41.4122L132.313 38.9997C132.381 38.9828 132.441 38.9779 132.492 38.985C132.686 39.0116 132.767 39.1345 132.737 39.3538C132.707 39.5731 132.65 39.7953 132.567 40.0204C132.485 40.2326 132.179 40.8345 131.648 41.8262L134.894 39.8672C135.159 39.759 135.369 39.7155 135.523 39.7368C135.794 39.774 135.901 40.0055 135.842 40.4312C135.808 40.6763 135.669 41.1171 135.424 41.7537C135.191 42.3921 135.062 42.762 135.035 42.8634C135.293 42.7018 135.845 42.2717 136.691 41.573C138.157 40.3683 139.149 39.8014 139.665 39.8723C139.845 39.8971 139.992 39.9764 140.105 40.1103C140.047 40.5359 139.831 41.1503 139.457 41.9533C139.084 42.7563 138.86 43.4352 138.783 43.9898C138.62 45.1766 139.209 45.8622 140.551 46.0466C141.273 46.1459 142.288 46.0291 143.596 45.6962ZM7.2803 41.4418C6.77501 42.345 6.46562 43.2093 6.35214 44.0349C6.1642 45.4023 6.81195 46.1879 8.2954 46.3918C8.67657 46.3916 8.96455 46.3523 9.15933 46.274C9.36701 46.1974 9.59734 46.0516 9.85032 45.8367C10.1051 45.6088 10.3472 45.4252 10.5766 45.2859L10.6734 45.2992C10.5096 46.0127 10.1907 46.4683 9.71661 46.666C9.25723 46.8526 8.65346 46.8945 7.90529 46.7916C6.29284 46.57 5.51521 45.7731 5.57239 44.4009C5.46179 44.7274 5.11102 45.0801 4.52008 45.4589C3.94382 45.8265 3.44929 45.982 3.0365 45.9252C3.01071 45.9217 2.97846 45.9173 2.93976 45.912C2.17013 45.5827 1.83585 45.0505 1.93691 44.3152C2.06812 43.3606 2.69241 42.5001 3.80979 41.7337C4.68129 41.1306 5.48467 40.8796 6.21994 40.9807C6.63273 41.0374 6.98618 41.1911 7.2803 41.4418ZM2.55004 44.3009C2.52167 44.5073 2.50507 44.6759 2.50024 44.8066C2.51008 44.9263 2.55951 45.0448 2.64852 45.1622C2.75043 45.2813 2.90458 45.3551 3.11097 45.3835C3.6821 45.4357 4.31174 45.0622 4.99989 44.2631C5.70271 43.4528 6.11691 42.7343 6.24249 42.1075C6.07156 41.8211 5.8055 41.6531 5.44431 41.6035C4.97993 41.5397 4.45541 41.7699 3.87077 42.2941C3.28613 42.8183 2.84588 43.4873 2.55004 44.3009ZM14.1954 45.3496C14.2273 45.1174 14.2823 44.7175 14.3603 44.1499C14.453 43.5712 14.5277 43.0755 14.5844 42.6627C14.2126 42.6904 13.6199 43.0821 12.8063 43.8377C12.0056 44.5951 11.5703 44.9888 11.5005 45.0186C10.9052 45.6202 10.4462 46.0434 10.1234 46.2882C9.98603 46.427 9.78835 46.4787 9.53036 46.4433L9.58887 46.0176L10.7906 43.4424C10.92 42.5007 11.177 41.8263 11.5616 41.4192C11.6696 41.3026 11.7623 41.2496 11.8397 41.2602C11.9687 41.278 12.003 41.5061 11.9428 41.9447C11.8842 42.3704 11.7541 42.8388 11.5524 43.35C11.3525 43.8482 11.2286 44.2715 11.1808 44.6198C11.2981 44.5308 11.6574 44.2121 12.2585 43.6639C12.8596 43.1156 13.2188 42.797 13.3362 42.708C13.4336 42.6688 13.6061 42.5611 13.8538 42.3848C14.3749 42.0359 14.8096 41.8853 15.1579 41.9332C15.3514 41.9598 15.465 42.0411 15.4989 42.1772C15.4923 42.3209 15.4668 42.554 15.4225 42.8764C15.38 43.186 15.2601 43.6756 15.0629 44.3451C14.8675 45.0017 14.7359 45.529 14.668 45.9271C14.5847 46.5334 14.7946 46.8711 15.2977 46.9403C15.6588 46.9899 16.0204 46.941 16.3824 46.7937C16.7462 46.6334 17.0481 46.4448 17.2882 46.2281C17.53 45.9985 17.8086 45.7411 18.1238 45.4558C18.4408 45.1577 18.7131 44.9454 18.9408 44.8189L18.9142 45.0124C18.8291 45.6316 18.3405 46.2216 17.4486 46.7825C16.5584 47.3304 15.7843 47.5592 15.1264 47.4688L14.4879 47.381C14.3121 47.2254 14.2 47.0851 14.1515 46.9602C14.1158 46.837 14.0886 46.7478 14.0699 46.6927C14.0512 46.6375 14.0425 46.5575 14.0438 46.4525C14.0598 46.3364 14.0713 46.2525 14.0784 46.2009L14.1954 45.3496ZM18.1122 46.4005C18.4872 45.5846 18.8585 44.9391 19.2262 44.4639C19.6067 43.9904 20.0248 43.6733 20.4807 43.5126C20.9383 43.3389 21.3448 43.2502 21.7001 43.2465C22.0573 43.2298 22.5454 43.2641 23.1646 43.3492C23.2246 43.1997 23.3308 42.9054 23.4831 42.4664C23.6373 42.0144 23.7443 41.7137 23.8043 41.5642C23.8789 41.4036 23.9844 41.1618 24.1208 40.8388C24.3519 40.3054 24.5643 39.9075 24.7581 39.6449C24.9666 39.3713 25.0955 39.1984 25.1448 39.1264C25.1942 39.0543 25.2271 39.0062 25.2435 38.9822C25.2746 38.9471 25.3122 38.9128 25.3562 38.8794C25.4149 38.8349 25.5023 38.8206 25.6184 38.8366C26.0183 38.8916 26.1597 39.3447 26.0427 40.1961L26.0187 40.3702C25.9265 41.041 25.5151 41.9308 24.7844 43.0395C24.0555 44.1354 23.6484 44.9929 23.5633 45.612C23.3736 46.9923 23.6528 47.7338 24.401 47.8367C24.6461 47.8704 24.9948 47.8197 25.4471 47.6847C25.8993 47.5498 26.248 47.4991 26.4931 47.5328L26.684 47.5787C26.4186 47.884 26.0533 48.1032 25.5881 48.2364C25.1358 48.3714 24.7678 48.4194 24.484 48.3804C24.2131 48.3432 24.0269 48.311 23.9255 48.2839C23.8241 48.2568 23.7309 48.2177 23.6459 48.1666C23.5627 48.1026 23.4906 48.0533 23.4297 48.0186C23.3816 47.9857 23.3251 47.9188 23.2601 47.8179C23.2098 47.7058 23.168 47.6278 23.1346 47.5838C23.1141 47.5415 23.0814 47.445 23.0364 47.2942C22.9914 47.1435 22.9587 47.047 22.9382 47.0047C22.9306 46.9643 22.9005 46.8484 22.8479 46.6572C22.8083 46.4677 22.7791 46.3454 22.7604 46.2903C22.7163 46.3237 22.5458 46.4645 22.2488 46.7128C21.9536 46.9483 21.7473 47.1105 21.6299 47.1995C21.5143 47.2756 21.3125 47.4056 21.0243 47.5894C20.7491 47.775 20.5214 47.9014 20.3413 47.9687C19.8286 48.1611 19.3852 48.2316 19.0111 48.1801C18.6499 48.1305 18.397 48.0103 18.2523 47.8196C18.1223 47.6177 18.0513 47.4173 18.0392 47.2185C18.0418 47.0086 18.0661 46.7359 18.1122 46.4005ZM22.0214 43.9215C21.299 43.8222 20.6015 44.068 19.9288 44.659C19.269 45.2518 18.8921 45.89 18.7981 46.5737C18.7059 47.2445 18.8404 47.6047 19.2016 47.6543C19.7047 47.7235 20.402 47.4316 21.2935 46.7787C22.1996 46.1146 22.6899 45.5117 22.7644 44.9699C22.8087 44.6474 22.7697 44.4055 22.6473 44.2441C22.5396 44.0716 22.3309 43.964 22.0214 43.9215ZM25.5294 39.7707C25.1302 40.189 24.7669 40.7765 24.4394 41.5332C24.1266 42.2788 23.9339 42.916 23.8612 43.4449C23.8577 43.4707 23.8561 43.5297 23.8566 43.6217L24.0547 43.4715C24.2308 43.338 24.6727 42.4656 25.3805 40.8542L25.4317 40.6247C25.453 40.4699 25.4663 40.3732 25.4716 40.3345C25.477 40.2958 25.4838 40.1981 25.4922 40.0416C25.5135 39.8868 25.5259 39.7965 25.5294 39.7707ZM42.6975 50.4107C41.9318 50.8181 41.1361 50.965 40.3105 50.8515C39.8849 50.793 39.5543 50.6161 39.3189 50.3209C39.0963 50.0275 38.9794 49.6828 38.9681 49.287C38.9586 48.8782 38.9622 48.5173 38.979 48.2041C39.0104 47.8799 39.0403 47.6145 39.0686 47.4081C39.0988 47.1889 39.1427 46.9649 39.2004 46.7362C39.1812 46.589 39.0104 46.4933 38.6879 46.4489C38.3783 46.4064 38.053 46.5259 37.712 46.8077C37.371 47.0894 37.0727 47.4427 36.8171 47.8676C36.5763 48.2813 36.3354 48.6951 36.0945 49.1088C35.8665 49.5244 35.6601 49.8311 35.4751 50.0292C35.2902 50.2272 35.1461 50.3191 35.0429 50.3049C34.9397 50.2907 34.8641 50.2672 34.8161 50.2343C34.8138 50.1551 34.8198 50.0639 34.834 49.9607C34.9226 49.3158 35.339 47.9601 36.083 45.8937C36.827 43.8274 37.523 42.0632 38.1708 40.6014C38.209 40.5146 38.3065 40.3309 38.4634 40.0502C38.635 39.7583 38.8005 39.5576 38.9602 39.4481C39.1216 39.3257 39.2797 39.2752 39.4345 39.2965C39.5892 39.3177 39.7074 39.3668 39.7888 39.4437L39.7941 39.405C39.9107 39.5131 39.9837 39.7465 40.0133 40.1055C40.0428 40.4644 40.0434 40.7471 40.015 40.9535C39.8483 42.166 39.3798 43.2319 38.6094 44.1512C38.2947 44.5285 37.9835 44.8801 37.6759 45.2058C37.3682 45.5315 37.1149 45.845 36.9157 46.1462C36.7295 46.4492 36.6258 46.6781 36.6045 46.8329C36.5832 46.9877 36.5699 47.0844 36.5646 47.1231C37.4106 46.2274 38.2335 45.8344 39.0333 45.9444C39.3171 45.9834 39.519 46.044 39.6391 46.1262C39.7335 46.2049 39.7856 46.3041 39.7954 46.4237C39.807 46.5305 39.7818 46.8096 39.7197 47.2611C39.6724 47.7014 39.6394 48.0846 39.6209 48.4106C39.617 48.7256 39.629 49.0689 39.6567 49.4408C39.6862 49.7997 39.7584 50.0396 39.8732 50.1605C40.0009 50.2832 40.1228 50.3526 40.2389 50.3685C40.355 50.3845 40.482 50.3691 40.6199 50.3223C41.8313 49.9237 42.6176 49.7492 42.9787 49.7988C43.1464 49.8218 43.2232 49.885 43.209 49.9882C43.1948 50.0914 43.0243 50.2322 42.6975 50.4107ZM38.6806 40.908C37.9498 42.6871 37.5602 43.7047 37.5118 43.9609C37.4782 44.206 37.4595 44.3415 37.456 44.3673L37.4381 44.6408C38.0781 44.479 38.6574 43.4678 39.176 41.607C39.3296 41.063 39.4304 40.6168 39.4783 40.2685C39.5261 39.9202 39.492 39.7381 39.3759 39.7221C39.2598 39.7062 39.0281 40.1015 38.6806 40.908ZM43.4539 47.2026L43.5659 46.9617C43.9373 46.1716 44.2134 45.7889 44.394 45.8138C44.6519 45.8492 44.7676 45.9637 44.741 46.1572C44.7357 46.1959 44.724 46.2337 44.7057 46.2706C44.0507 47.4029 43.6487 48.5108 43.4997 49.5944C43.4323 50.0846 43.4981 50.5142 43.6971 50.8833C43.8979 51.2395 44.2498 51.4521 44.7529 51.5213C46.0844 51.2049 46.9114 51.0688 47.2339 51.1131C47.3371 51.1273 47.3852 51.1602 47.3781 51.2118C47.3568 51.3666 46.9904 51.5462 46.2788 51.7507C45.5691 51.9423 45.0207 52.0115 44.6337 51.9583C44.2596 51.9069 43.9802 51.8357 43.7956 51.7446C43.6092 51.6664 43.4744 51.5953 43.3912 51.5313C43.308 51.4672 43.2134 51.3425 43.1075 51.1571C43.0033 50.9588 42.9514 50.7151 42.9517 50.426C42.9538 50.1239 42.992 49.7021 43.0665 49.1603C43.141 48.6185 43.2701 47.9659 43.4539 47.2026ZM48.2088 50.0445L48.4023 50.0711C48.586 49.9781 48.9504 49.7653 49.4955 49.4328C50.0554 49.0892 50.3637 48.9015 50.4206 48.8699C50.4922 48.8272 50.9169 48.511 51.6945 47.9213C51.755 47.8639 51.851 47.7391 51.9825 47.5469C52.2657 47.1126 52.5556 46.9159 52.8523 46.9567C53.0329 46.9815 53.1099 47.0907 53.0833 47.2841C53.0584 47.4647 52.9656 47.6623 52.8047 47.8767C52.6438 48.0912 52.5544 48.2629 52.5367 48.3919L52.0394 52.0102C53.0971 52.1556 53.8479 52.0485 54.2916 51.6889C54.4677 51.5554 54.7124 51.3525 55.0259 51.0801C55.3522 50.8095 55.6797 50.5785 56.0083 50.3871L55.9817 50.5806C55.9196 51.0321 55.5785 51.4584 54.9582 51.8594C54.3397 52.2476 53.7122 52.5096 53.0758 52.6456C52.4394 52.7815 52.005 52.8335 51.7729 52.8016C51.5407 52.7697 51.3803 52.7411 51.2918 52.7158C50.9435 52.6679 50.6234 52.5582 50.3316 52.3867C50.0379 52.228 49.7016 51.9978 49.3225 51.6959C48.9563 51.3959 48.6586 51.171 48.4295 51.0212C47.838 51.3079 47.3682 51.4273 47.0199 51.3794C46.6845 51.3333 46.5266 51.2393 46.5461 51.0974C46.5549 51.0329 46.6327 50.9451 46.7795 50.8338C46.9133 50.7208 47.1899 50.6208 47.6093 50.5339L47.3188 49.9222C47.2614 49.8617 47.2731 49.8239 47.3541 49.8088C47.4368 49.7807 47.4975 49.7693 47.5362 49.7746L47.8545 49.8973C48.0778 49.9937 48.1959 50.0428 48.2088 50.0445ZM49.2612 50.5638C49.3641 50.8671 49.6667 51.1518 50.169 51.418C50.6713 51.6842 51.1353 51.8465 51.5609 51.905C51.7152 50.7828 51.7761 49.766 51.7436 48.8546C51.4368 48.9833 51.2394 49.081 51.1513 49.1478C51.0651 49.2017 50.7569 49.4353 50.227 49.8488C49.697 50.2622 49.3751 50.5006 49.2612 50.5638ZM62.8755 58.803C62.996 57.9258 63.1458 57.171 63.3247 56.5384C63.5019 55.9187 63.8142 55.081 64.2616 54.0254L67.9621 47.6141C68.0137 47.6212 68.0588 47.6274 68.0975 47.6327C68.6135 47.7036 68.8281 48.0551 68.7412 48.6872C68.6153 49.6031 68.0585 50.6897 67.0708 51.9471C66.4653 52.7182 65.9432 53.2182 65.5043 53.447C65.5611 54.0857 66.0409 54.4671 66.9439 54.5912C68.0791 54.7472 69.2528 54.5274 70.465 53.9317C70.5917 53.8703 70.7008 53.7933 70.7924 53.7007C70.8987 53.597 70.9876 53.5238 71.0592 53.4811C71.1308 53.4384 71.2375 53.4268 71.3794 53.4463C71.3227 53.859 70.9443 54.221 70.2444 54.5323C69.5462 54.8306 68.8347 55.0351 68.1097 55.1458C67.3977 55.2582 66.827 55.298 66.3978 55.2653C66.3659 55.4975 66.3778 55.8409 66.4337 56.2954C66.4877 56.7629 66.4926 57.1578 66.4482 57.4803C66.4021 57.8157 66.24 58.3257 65.9619 59.0104C65.6967 59.6968 65.3327 60.3368 64.87 60.9303C64.4184 61.5386 63.9733 61.8125 63.5347 61.7523C62.8381 61.6565 62.6184 60.6734 62.8755 58.803ZM63.4465 58.6646C63.2355 60.1997 63.3557 60.9982 63.8072 61.0603C64.1426 61.1064 64.5607 60.5987 65.0615 59.5372C65.5734 58.4904 65.8683 57.6832 65.9463 57.1156C66.0226 56.5609 66.0026 56.085 65.8863 55.6879C65.7682 55.3036 65.4543 54.9582 64.9444 54.6515C64.5936 54.8136 64.2787 55.3355 63.9998 56.2172C63.7338 57.1006 63.5493 57.9164 63.4465 58.6646ZM66.3014 51.6639L66.2748 51.8574C66.678 51.5054 67.0477 51.0634 67.3837 50.5312C67.7197 49.9991 67.9196 49.5009 67.9834 49.0365C67.987 49.0107 67.9876 48.9582 67.9854 48.879C67.996 48.8016 68.0022 48.7565 68.004 48.7436L67.7866 48.8911L66.3014 51.6639ZM75.9317 50.8782C75.4264 51.7813 75.117 52.6457 75.0035 53.4712C74.8156 54.8386 75.4633 55.6242 76.9468 55.8281C77.328 55.8279 77.6159 55.7887 77.8107 55.7103C78.0184 55.6337 78.2487 55.4879 78.5017 55.273C78.7565 55.0451 78.9986 54.8615 79.228 54.7222L79.3247 54.7355C79.161 55.449 78.842 55.9046 78.368 56.1023C77.9086 56.2889 77.3048 56.3308 76.5567 56.2279C74.9442 56.0063 74.1666 55.2094 74.2238 53.8372C74.1132 54.1637 73.7624 54.5164 73.1715 54.8952C72.5952 55.2628 72.1007 55.4183 71.6879 55.3616C71.6621 55.358 71.6298 55.3536 71.5911 55.3483C70.8215 55.019 70.4872 54.4868 70.5883 53.7515C70.7195 52.797 71.3438 51.9365 72.4612 51.17C73.3327 50.5669 74.1361 50.3159 74.8713 50.417C75.2841 50.4737 75.6376 50.6274 75.9317 50.8782ZM71.2014 53.7372C71.1731 53.9436 71.1565 54.1122 71.1516 54.243C71.1615 54.3626 71.2109 54.4811 71.2999 54.5985C71.4018 54.7177 71.556 54.7914 71.7624 54.8198C72.3335 54.872 72.9631 54.4985 73.6513 53.6994C74.3541 52.8891 74.7683 52.1706 74.8939 51.5438C74.7229 51.2575 74.4569 51.0895 74.0957 51.0398C73.6313 50.976 73.1068 51.2062 72.5222 51.7304C71.9375 52.2546 71.4973 52.9236 71.2014 53.7372ZM92.5004 56.8423C92.5062 56.8956 92.5074 56.9352 92.5038 56.961C92.4613 57.2706 92.0039 57.4903 91.1318 57.6202C90.2725 57.7518 89.63 57.7883 89.2043 57.7298C87.6048 57.51 86.9088 56.6454 87.1162 55.1362C87.1712 54.7363 87.3468 54.1755 87.6431 53.454C87.9395 52.7324 88.1142 52.1781 88.1674 51.7911C87.3193 51.9374 86.3795 52.5114 85.3481 53.5131C84.3184 54.5019 83.4741 55.5293 82.8149 56.5953C82.7269 56.662 82.6157 56.7059 82.4814 56.7269C82.3471 56.7478 82.2512 56.7281 82.1938 56.6676C82.1511 56.596 82.1368 56.5087 82.151 56.4055C82.167 56.2894 82.2452 56.103 82.3856 55.8463L84.1385 51.9865C84.0881 51.8744 84.0114 51.8113 83.9082 51.7971C83.5728 51.751 82.9158 52.1799 81.9373 53.0837C81.6825 53.3115 81.1219 53.8522 80.2554 54.7057C79.18 55.7408 78.5068 56.2397 78.2359 56.2025C78.2101 56.1989 78.1741 56.1743 78.1278 56.1285C78.0833 56.0698 78.0693 56.0284 78.0857 56.0044L79.9789 52.5582L81.2174 50.1458C81.2854 50.1289 81.3452 50.1239 81.3968 50.131C81.5903 50.1576 81.672 50.2806 81.6419 50.4999C81.6117 50.7192 81.5549 50.9414 81.4714 51.1665C81.3896 51.3787 81.0835 51.9806 80.5529 52.9723L83.7991 51.0132C84.0637 50.905 84.2734 50.8616 84.4282 50.8828C84.6991 50.9201 84.8052 51.1515 84.7467 51.5772C84.713 51.8223 84.5736 52.2632 84.3284 52.8998C84.096 53.5381 83.9663 53.908 83.9393 54.0095C84.198 53.8479 84.75 53.4177 85.5952 52.719C87.062 51.5143 88.0534 50.9474 88.5694 51.0183C88.75 51.0432 88.8968 51.1225 89.0098 51.2563C88.9513 51.682 88.7354 52.2964 88.3622 53.0994C87.989 53.9024 87.7642 54.5812 87.688 55.1359C87.5248 56.3227 88.1141 57.0082 89.4556 57.1926C90.178 57.2919 91.1929 57.1751 92.5004 56.8423ZM92.6399 53.9633L92.7518 53.7224C93.1233 52.9323 93.3993 52.5497 93.5799 52.5745C93.8379 52.61 93.9536 52.7245 93.927 52.9179C93.9217 52.9566 93.9099 52.9945 93.8917 53.0314C93.2366 54.1637 92.8346 55.2716 92.6857 56.3551C92.6183 56.8453 92.6841 57.275 92.8831 57.644C93.0839 58.0002 93.4358 58.2129 93.9389 58.282C95.2704 57.9656 96.0974 57.8296 96.4199 57.8739C96.5231 57.8881 96.5712 57.921 96.5641 57.9726C96.5428 58.1274 96.1764 58.307 95.4648 58.5115C94.755 58.7031 94.2066 58.7723 93.8197 58.7191C93.4456 58.6677 93.1662 58.5964 92.9816 58.5053C92.7952 58.4271 92.6604 58.356 92.5772 58.292C92.494 58.228 92.3994 58.1033 92.2935 57.9179C92.1893 57.7195 92.1373 57.4758 92.1377 57.1867C92.1397 56.8847 92.178 56.4628 92.2525 55.921C92.327 55.3792 92.4561 54.7267 92.6399 53.9633ZM96.2104 56.3862C96.4606 54.9485 97.1145 53.2509 98.1722 51.2934C99.2298 49.3358 100.036 48.3031 100.589 48.1952C100.744 48.2165 100.833 48.3799 100.857 48.6855C100.881 48.991 100.879 49.2405 100.853 49.434C100.757 50.1306 100.495 50.9358 100.067 51.8496C99.6411 52.7505 99.1882 53.4637 98.7085 53.9892C98.5182 54.2259 98.2682 54.4675 97.9583 54.7141C97.6613 54.9624 97.425 55.1994 97.2494 55.425C97.0885 55.6394 96.9832 55.9272 96.9336 56.2884C96.8449 56.9334 96.9463 57.4862 97.2379 57.9469C97.5423 58.4093 98.0171 58.6849 98.662 58.7735C99.7327 58.9207 100.46 58.6461 100.845 57.9499L101.058 57.9791C100.989 58.4822 100.683 58.8475 100.139 59.0751C99.5948 59.3026 99.0068 59.3729 98.3747 59.286C97.7426 59.1992 97.2337 58.8861 96.8478 58.3467C96.4637 57.7945 96.2512 57.141 96.2104 56.3862ZM100.334 49.481C100.214 49.5829 100.003 49.8299 99.6995 50.2218C99.4088 50.6156 99.2352 50.8743 99.1788 50.998C98.0042 53.1366 97.4045 54.2963 97.3797 54.4768C97.9729 54.1772 98.5833 53.466 99.2108 52.343C99.8401 51.2072 100.214 50.2532 100.334 49.481ZM101.988 54.2232C102.143 54.2444 102.192 54.4154 102.135 54.7361C102.079 55.044 101.929 55.6147 101.683 56.4483C101.438 57.2691 101.306 57.7568 101.284 57.9116L101.21 58.4534C101.189 58.6082 101.183 58.6929 101.195 58.7076C101.219 58.7241 101.24 58.7599 101.259 58.815C101.277 58.8701 101.307 58.8939 101.347 58.8863C101.401 58.8805 101.451 58.9005 101.497 58.9463C101.558 58.981 101.636 58.9852 101.732 58.9589C102.248 59.0298 102.684 58.8664 103.041 58.4686C103.241 58.2594 103.405 58.0716 103.533 57.9052C103.674 57.7406 103.82 57.4848 103.973 57.1378C104.141 56.7797 104.253 56.5387 104.309 56.4151C104.38 56.2803 104.481 56.0247 104.612 55.6483L104.827 55.0865C104.897 55.0567 104.977 55.0479 105.067 55.0604C105.17 55.0745 105.269 55.167 105.364 55.3378L105.354 55.4152C105.293 55.8537 105.103 56.5177 104.784 57.4069C104.479 58.2851 104.284 59.0337 104.199 59.6529C104.355 59.5692 104.783 59.3718 105.483 59.0605C106.196 58.7511 106.596 58.5694 106.682 58.5156C106.783 58.4506 106.892 58.3736 107.009 58.2846C107.127 58.1956 107.182 58.1768 107.175 58.2284C107.164 58.3058 106.952 58.6053 106.539 59.1268C106.466 59.1824 106.111 59.4163 105.476 59.8285C104.856 60.2295 104.517 60.4523 104.458 60.4968C103.923 61.3301 103.443 62.7165 103.019 64.656C102.879 65.2938 102.69 65.8988 102.454 66.4709C102.003 67.5524 101.203 68.0143 100.055 67.8564C99.9135 67.8369 99.7338 67.8057 99.5162 67.7626C99.3098 67.7343 99.1481 67.62 99.031 67.4199C98.9122 67.2327 98.8714 67.0037 98.9086 66.7328C99.0522 65.6879 99.5801 64.525 100.492 63.2441C101.404 61.9631 102.369 60.9194 103.387 60.113C103.538 59.871 103.643 59.5435 103.699 59.1308C103.756 58.718 103.801 58.4415 103.833 58.3014C102.935 59.1901 102.132 59.5856 101.422 59.4881C101.41 59.4863 101.397 59.4846 101.384 59.4828C100.816 59.4048 100.621 58.7208 100.798 57.4308C100.813 57.3276 100.856 57.0576 100.929 56.6208C101.004 56.1711 101.233 55.414 101.616 54.3494C101.633 54.3254 101.689 54.3002 101.784 54.274C101.882 54.2348 101.95 54.2178 101.988 54.2232ZM103.163 61.1666C102.776 61.1134 102.098 61.7955 101.127 63.2131C100.168 64.6453 99.6469 65.6645 99.5636 66.2708C99.4785 66.89 99.6488 67.2288 100.074 67.2873C100.1 67.2909 100.178 67.3015 100.307 67.3193C100.449 67.3388 100.639 67.2926 100.878 67.1809C101.116 67.0691 101.327 66.8747 101.51 66.5975C101.705 66.3221 101.871 66.0293 102.005 65.7192C102.153 65.4109 102.291 65.029 102.419 64.5735C102.547 64.118 102.654 63.7252 102.739 63.3951C102.823 63.0651 102.912 62.6632 103.003 62.1894C103.105 61.7304 103.184 61.3994 103.238 61.1965C103.225 61.1948 103.213 61.1866 103.202 61.1719L103.163 61.1666Z" fill="#1A1A1A"/>
</svg>
