<svg width="432" height="320" viewBox="0 0 432 320" fill="none" xmlns="http://www.w3.org/2000/svg">
<path d="M61.2001 65.91V66H46.4401V65.91C49.4101 65.91 50.9401 63.48 49.8601 60.51L40.4101 34.59H21.1501L11.7001 60.51C10.7101 63.48 12.1501 65.91 15.1201 65.91V66H4.32012V65.91C7.20012 65.91 10.5301 63.48 11.6101 60.51L30.6901 7.95C29.4301 5.25 26.3701 3.18 23.6701 3.18V3H32.9401L53.9101 60.51C54.9001 63.48 58.2301 65.91 61.2001 65.91ZM21.2401 34.5H40.4101L30.9601 8.58C30.8701 8.4 30.8701 8.31 30.7801 8.22L21.2401 34.5ZM147.331 25.68H147.151C145.891 21.09 143.731 16.95 140.941 13.44C135.991 7.14 129.331 3.18 123.031 3.18C111.151 3.18 97.6508 17.31 97.6508 34.59C97.6508 51.78 111.151 65.91 123.031 65.91C130.411 65.91 138.421 60.33 143.461 52.05C143.461 52.05 145.891 48.18 147.151 43.41V52.05C141.931 60.51 133.201 66.09 123.121 66.09C123.031 66.09 123.031 66.09 123.031 66.09C122.941 66.09 122.941 66.09 122.941 66.09C106.831 66.09 93.8708 51.96 93.8708 34.59C93.8708 17.13 106.831 3.08999 122.941 3.08999C122.941 3.08999 122.941 3.08999 123.031 3.08999C123.031 3 123.031 3.08999 123.121 3.08999C128.521 3.08999 133.561 4.62 137.881 7.41C137.971 7.41 137.971 7.5 137.971 7.5C138.421 7.77 138.781 7.95 139.141 8.22C142.921 10.74 147.151 12.18 147.151 7.59H147.331V25.68ZM169.696 3.18C166.996 3.18 164.746 5.34 164.386 8.04V61.05C164.746 63.75 166.996 65.91 169.696 65.91V66H155.116V65.91C157.996 65.91 160.426 63.48 160.426 60.51V8.58C160.426 5.61 157.996 3.18 155.116 3.18V3H169.696V3.18ZM219.232 15.06L219.142 15.15C217.432 8.58 210.412 3.18 204.202 3.18H198.712V61.05C199.072 63.75 201.322 65.91 204.022 65.91V66.09H189.352V65.91C192.322 65.91 194.752 63.48 194.752 60.51V3.18H189.262C183.052 3.18 176.032 8.58 174.322 15.15L174.232 15.06L177.292 3H216.172L219.232 15.06ZM268.488 3L268.398 3.18C265.428 3.18 261.648 5.61 259.938 8.58L245.898 32.88V60.51C245.898 63.48 248.238 65.91 251.208 65.91V66H236.538V65.91C239.508 65.91 241.848 63.48 241.848 60.51V32.88L227.808 8.58C226.098 5.61 222.318 3.18 219.438 3.18L219.348 3H234.018L234.108 3.18C231.138 3.18 230.148 5.61 231.858 8.58L245.808 32.7L259.758 8.58C261.468 5.61 260.478 3.18 257.508 3.18L257.598 3H268.488ZM296.747 66.72C301.067 66.72 305.267 64.56 309.347 60.24V60.15C309.347 57.27 310.727 54.57 313.487 52.05C313.307 51.39 312.797 51.06 311.957 51.06C307.517 51.06 303.587 52.74 300.167 56.1C296.747 59.4 295.037 62.31 295.037 64.83C295.037 66.09 295.607 66.72 296.747 66.72ZM310.697 49.71C313.877 49.71 315.467 50.76 315.467 52.86C315.467 54.66 314.357 56.82 312.137 59.34V60.06C312.137 62.04 313.007 63.03 314.747 63.03C315.827 63.03 317.027 62.58 318.347 61.68L322.757 58.8L322.937 60.15L318.797 62.76C316.877 64.02 314.987 64.65 313.127 64.65C311.327 64.65 310.127 63.72 309.527 61.86C304.727 66.12 300.167 68.25 295.847 68.25C293.267 68.25 291.977 67.02 291.977 64.56C291.977 61.44 293.807 58.2 297.467 54.84C301.127 51.42 305.537 49.71 310.697 49.71ZM293.01 99.93C293.01 100.59 293.37 100.92 294.09 100.92C296.19 100.92 299.25 98.64 303.27 94.08C307.29 89.52 311.1 84.33 314.7 78.51C318.3 72.69 320.73 67.86 321.99 64.02C321.81 63.78 321.72 63.48 321.72 63.12C313.38 72 306.51 79.86 301.11 86.7C295.71 93.54 293.01 97.95 293.01 99.93ZM375.63 16.59C375.63 16.17 375.33 15.96 374.73 15.96C372.27 15.96 366.54 19.95 357.54 27.93C348.6 35.85 338.73 45.39 327.93 56.55C336.93 50.79 347.13 43.2 358.53 33.78C369.93 24.36 375.63 18.63 375.63 16.59ZM323.97 62.76C324.39 64.68 325.8 65.64 328.2 65.64C331.74 65.64 336.84 63.36 343.5 58.8L343.68 60.15C337.08 64.59 331.62 66.81 327.3 66.81C325.32 66.81 323.85 66.33 322.89 65.37C320.79 70.17 318.06 75.27 314.7 80.67C311.34 86.13 307.62 91.05 303.54 95.43C299.4 99.87 295.92 102.09 293.1 102.09C291.42 102.09 290.58 101.37 290.58 99.93C290.58 96.69 294.39 90.33 302.01 80.85C309.63 71.43 318.27 61.86 327.93 52.14C337.65 42.36 347.19 33.66 356.55 26.04C365.97 18.36 372.24 14.52 375.36 14.52C376.74 14.52 377.43 14.97 377.43 15.87C377.43 17.91 374.1 21.93 367.44 27.93C360.84 33.93 353.43 39.96 345.21 46.02C337.05 52.02 330.3 56.58 324.96 59.7L324.87 59.79C324.75 60.33 324.45 61.32 323.97 62.76Z" fill="#1A1A1A"/>
<path d="M61.1101 119.68H60.9301C59.6701 115.09 57.5101 110.95 54.7201 107.44C49.7701 101.14 43.1101 97.18 36.8101 97.18C24.9301 97.18 11.4301 111.31 11.4301 128.59C11.4301 145.78 24.9301 159.91 36.8101 159.91C44.1901 159.91 52.2001 154.33 57.2401 146.05C57.2401 146.05 59.6701 142.18 60.9301 137.41V146.05C55.7101 154.51 46.9801 160.09 36.9001 160.09C36.8101 160.09 36.8101 160.09 36.8101 160.09C36.7201 160.09 36.7201 160.09 36.7201 160.09C20.6101 160.09 7.65012 145.96 7.65012 128.59C7.65012 111.13 20.6101 97.09 36.7201 97.09C36.7201 97.09 36.7201 97.09 36.8101 97.09C36.8101 97 36.8101 97.09 36.9001 97.09C42.3001 97.09 47.3401 98.62 51.6601 101.41C51.7501 101.41 51.7501 101.5 51.7501 101.5C52.2001 101.77 52.5601 101.95 52.9201 102.22C56.7001 104.74 60.9301 106.18 60.9301 101.59H61.1101V119.68ZM119.465 97V97.18C116.495 97.18 114.065 99.61 114.065 102.58V140.38C114.065 151.27 105.245 160 94.3546 160C94.2646 160 94.1746 160 94.0846 160C93.9946 160 93.9046 160 93.9046 160C82.5646 160 73.3846 150.91 73.3846 139.57V102.58C73.3846 99.61 70.9546 97.18 68.0746 97.18V97.09H82.7446V97.18C79.7746 97.18 77.3446 99.61 77.3446 102.58V144.7C77.3446 151.72 83.5546 157.66 90.3946 159.46C91.6546 159.73 93.0046 159.91 94.3546 159.91C105.155 159.91 113.975 151.09 113.975 140.29V102.58C113.975 99.61 111.545 97.18 108.575 97.18V97H119.465ZM161.698 147.94L161.878 148.03L158.818 160H124.618V159.91C127.498 159.91 129.928 157.48 129.928 154.51V102.58C129.928 99.61 127.498 97.18 124.618 97.18V97H139.198V97.18C136.498 97.18 134.248 99.34 133.888 102.04V159.91H146.758C153.058 159.91 159.988 154.51 161.698 147.94ZM200.247 109.06L200.157 109.15C198.447 102.58 191.427 97.18 185.217 97.18H179.727V155.05C180.087 157.75 182.337 159.91 185.037 159.91V160.09H170.367V159.91C173.337 159.91 175.767 157.48 175.767 154.51V97.18H170.277C164.067 97.18 157.047 102.58 155.337 109.15L155.247 109.06L158.307 97H197.187L200.247 109.06ZM254.904 97V97.18C251.934 97.18 249.504 99.61 249.504 102.58V140.38C249.504 151.27 240.684 160 229.794 160C229.704 160 229.614 160 229.524 160C229.434 160 229.344 160 229.344 160C218.004 160 208.824 150.91 208.824 139.57V102.58C208.824 99.61 206.394 97.18 203.514 97.18V97.09H218.184V97.18C215.214 97.18 212.784 99.61 212.784 102.58V144.7C212.784 151.72 218.994 157.66 225.834 159.46C227.094 159.73 228.444 159.91 229.794 159.91C240.594 159.91 249.414 151.09 249.414 140.29V102.58C249.414 99.61 246.984 97.18 244.014 97.18V97H254.904ZM295.067 151.72C295.067 156.22 298.667 159.73 303.167 159.91V160C303.077 160 302.447 160 302.357 160C296.147 160 291.197 155.05 291.197 148.93V146.05C291.197 141.55 287.597 137.86 283.097 137.77H269.237V154.51C269.237 157.48 271.667 159.91 274.637 159.91V160H259.967V159.91C262.847 159.91 265.277 157.48 265.277 154.51V102.58C265.277 99.61 262.847 97.18 259.967 97.18V97H278.057C288.407 97 296.777 106.09 296.777 117.34C296.777 127.69 289.757 136.24 280.487 137.59H283.907C290.117 137.59 295.067 142.72 295.067 148.93V151.72ZM269.237 137.59H277.967C285.617 137.59 292.997 128.41 292.997 117.34C292.997 106.27 285.617 97.18 277.967 97.18H269.237V137.59ZM349.356 141.82L349.536 141.91L345.036 159.91L344.946 160H308.046V159.91C310.926 159.91 313.356 157.48 313.356 154.51V102.58C313.356 99.61 310.926 97.18 308.046 97.18V97H342.246L345.306 109.06L345.126 109.15L344.046 105.01L345.126 109.15C343.416 102.58 336.486 97.18 330.186 97.18H317.316V123.82H327.756C331.806 123.82 335.046 120.58 335.046 116.53H335.226V131.38H335.046V131.29C335.046 127.24 331.806 124 327.756 124H317.316V159.91H326.676C339.366 159.91 346.746 151.81 349.356 141.82Z" fill="#1A1A1A"/>
<path d="M3.24012 222.18C5.52012 222.18 8.55012 221.04 12.3301 218.76C16.1701 216.42 19.3501 214.17 21.8701 212.01C24.4501 209.85 25.7401 208.59 25.7401 208.23C25.7401 207.87 25.2901 207.57 24.3901 207.33C23.5501 207.09 22.3801 206.97 20.8801 206.97C19.3801 206.97 17.4001 207.57 14.9401 208.77C12.4801 209.91 10.3501 211.29 8.55012 212.91C6.75012 214.53 5.25012 216.12 4.05012 217.68C2.85012 219.24 2.25012 220.38 2.25012 221.1C2.25012 221.82 2.58012 222.18 3.24012 222.18ZM27.3601 207.06C28.5601 206.1 29.2201 205.62 29.3401 205.62C30.9601 205.8 31.8001 205.95 31.8601 206.07C31.9201 206.13 31.9501 206.22 31.9501 206.34C31.9501 206.46 31.7101 206.85 31.2301 207.51C30.7501 208.11 29.3401 209.58 27.0001 211.92C21.1801 217.62 18.2701 221.07 18.2701 222.27C18.2701 222.75 18.4801 222.99 18.9001 222.99C21.7801 222.99 27.1801 220.26 35.1001 214.8L35.2801 216.15C27.3001 221.37 21.6601 223.98 18.3601 223.98C16.7401 223.98 15.9301 223.23 15.9301 221.73C15.9301 220.17 16.8601 218.16 18.7201 215.7C11.6401 220.92 6.12012 223.56 2.16012 223.62C0.720117 223.62 0.000117056 222.75 0.000117056 221.01C0.000117056 217.89 1.98012 214.56 5.94012 211.02C9.96012 207.48 15.2401 205.71 21.7801 205.71C23.9401 205.71 25.8001 206.16 27.3601 207.06ZM50.6139 205.8C51.8739 205.8 52.5039 206.49 52.5039 207.87C52.5039 209.19 51.5439 211.14 49.6239 213.72C56.4639 208.98 61.9539 206.61 66.0939 206.61C67.7139 206.61 68.5239 207.3 68.5239 208.68C68.5239 210.06 67.9239 211.5 66.7239 213C65.5239 214.44 64.2039 215.7 62.7639 216.78C58.9239 219.54 57.0039 221.28 57.0039 222C57.0039 222.42 57.3339 222.63 57.9939 222.63C58.7139 222.63 59.8839 222.27 61.5039 221.55C63.1239 220.83 64.5639 220.11 65.8239 219.39C67.0839 218.61 68.5839 217.68 70.3239 216.6C72.1239 215.46 73.0839 214.86 73.2039 214.8L73.3839 216.15C65.2839 221.55 59.6139 224.25 56.3739 224.25C54.8139 224.25 54.0339 223.5 54.0339 222C54.0339 220.98 54.6639 219.78 55.9239 218.4C57.2439 216.96 58.6539 215.64 60.1539 214.44C64.2939 211.32 66.3639 209.25 66.3639 208.23C66.3639 207.93 66.0339 207.78 65.3739 207.78C63.1539 207.78 59.8539 208.98 55.4739 211.38C51.0939 213.78 46.2339 217.68 40.8939 223.08C40.5339 223.44 39.8439 223.62 38.8239 223.62C37.8639 223.62 37.3839 223.35 37.3839 222.81C37.3839 222.63 39.4539 220.41 43.5939 216.15C47.7339 211.89 49.8039 209.13 49.8039 207.87C49.8039 207.57 49.5939 207.42 49.1739 207.42C48.8139 207.42 48.0039 207.81 46.7439 208.59C45.5439 209.37 43.6539 210.63 41.0739 212.37C38.5539 214.05 36.3939 215.46 34.5939 216.6L34.3239 215.34C35.2239 214.74 36.4539 213.9 38.0139 212.82C39.5739 211.74 40.8639 210.87 41.8839 210.21C42.9039 209.49 44.0139 208.74 45.2139 207.96C47.5539 206.52 49.3539 205.8 50.6139 205.8ZM73.6405 222.18C75.7405 222.18 78.6505 221.1 82.3705 218.94C86.0905 216.72 89.3005 214.5 92.0005 212.28C94.7605 210 96.1405 208.68 96.1405 208.32C96.1405 207.9 95.6905 207.57 94.7905 207.33C93.9505 207.09 92.7805 206.97 91.2805 206.97C89.7805 206.97 87.8005 207.57 85.3405 208.77C82.8805 209.91 80.7505 211.29 78.9505 212.91C77.1505 214.53 75.6505 216.12 74.4505 217.68C73.2505 219.24 72.6505 220.38 72.6505 221.1C72.6505 221.82 72.9805 222.18 73.6405 222.18ZM119.541 189.69C117.081 192.09 114.171 194.97 110.811 198.33C107.451 201.63 104.781 204.3 102.801 206.34C100.881 208.32 99.2605 209.94 97.9405 211.2C96.6805 212.46 95.6005 213.57 94.7005 214.53C93.8005 215.43 92.8405 216.42 91.8205 217.5C90.8005 218.58 90.0205 219.54 89.4805 220.38C88.9405 221.16 88.6705 221.79 88.6705 222.27C88.6705 222.75 88.8805 222.99 89.3005 222.99C92.1805 222.99 97.5805 220.26 105.501 214.8L105.681 216.15C97.7005 221.37 92.0605 223.98 88.7605 223.98C87.1405 223.98 86.3305 223.23 86.3305 221.73C86.3305 220.11 87.2905 218.1 89.2105 215.7C82.1305 220.92 76.5805 223.56 72.5605 223.62C71.1205 223.62 70.4005 222.75 70.4005 221.01C70.4005 217.89 72.3805 214.56 76.3405 211.02C80.3605 207.48 85.6405 205.71 92.1805 205.71C94.4005 205.71 96.2905 206.16 97.8505 207.06C98.1505 206.82 98.5105 206.49 98.9305 206.07L136.551 169.62C136.911 169.26 137.631 169.08 138.711 169.08C139.791 169.08 140.331 169.41 140.331 170.07C140.331 170.31 140.181 170.58 139.881 170.88C139.641 171.12 138.771 171.9 137.271 173.22C135.771 174.54 134.301 175.86 132.861 177.18C131.481 178.44 129.531 180.24 127.011 182.58C124.491 184.92 122.001 187.29 119.541 189.69Z" fill="#1A1A1A"/>
<path d="M68.2201 256.09C84.2401 256.09 97.2901 270.13 97.2901 287.59C97.2901 304.96 84.2401 319 68.2201 319H68.1301H68.0401C62.2801 319 56.8801 317.2 52.3801 314.14C47.9701 317.2 42.6601 319 36.9001 319C36.8101 319 36.8101 319 36.8101 319C36.7201 319 36.7201 319 36.7201 319C20.6101 319 7.65012 304.96 7.65012 287.59C7.65012 270.13 20.6101 256.09 36.7201 256.09C36.7201 256.09 36.7201 256.09 36.8101 256.09C36.8101 256.09 36.8101 256.09 36.9001 256.09C42.3001 256.09 47.3401 257.62 51.6601 260.41C51.7501 260.5 51.7501 260.5 51.7501 260.5C52.0201 260.68 52.2001 260.77 52.4701 260.95C56.9701 257.89 62.2801 256.09 68.0401 256.09H68.1301H68.2201ZM36.8101 318.91C41.4901 318.91 46.4401 316.66 50.7601 312.88C43.5601 307.12 38.9701 297.94 38.9701 287.59C38.9701 277.15 43.5601 267.97 50.7601 262.21C46.4401 258.43 41.4901 256.27 36.8101 256.27C24.9301 256.27 11.4301 270.31 11.4301 287.59C11.4301 304.78 24.9301 318.91 36.8101 318.91ZM68.1301 318.91C80.0101 318.91 93.4201 304.78 93.4201 287.59C93.4201 270.31 80.0101 256.27 68.1301 256.27C63.4501 256.27 58.5901 258.43 54.2701 262.12C57.6901 264.01 60.9301 264.64 60.9301 260.59H61.1101V278.68H60.9301C59.6701 274.09 57.4201 269.95 54.7201 266.44C54.0001 265.54 53.2801 264.64 52.4701 263.83C46.8001 269.59 42.8401 278.14 42.8401 287.59C42.8401 296.95 46.8001 305.5 52.4701 311.26C54.1801 309.46 55.8001 307.3 57.2401 305.05C57.2401 305.05 59.6701 301.18 60.9301 296.41V305.05C59.0401 308.02 56.7901 310.63 54.0901 312.79C58.4101 316.66 63.3601 318.91 68.1301 318.91ZM140.956 306.94L141.136 307.03L138.076 319H103.876V318.91C106.756 318.91 109.186 316.48 109.186 313.51V261.58C109.186 258.61 106.756 256.18 103.876 256.18V256H118.456V256.18C115.756 256.18 113.506 258.34 113.146 261.04V318.91H126.016C132.316 318.91 139.246 313.51 140.956 306.94ZM173.834 256C189.854 256 202.904 270.13 202.904 287.5C202.904 304.96 189.854 319 173.834 319C173.744 319 173.744 319.09 173.744 319V318.91C185.624 318.91 199.034 304.78 199.034 287.5C199.034 270.31 185.624 256.18 173.744 256.18C161.864 256.18 148.364 270.31 148.364 287.5C148.364 304.78 161.864 318.91 173.744 318.91V319C173.654 319.09 173.654 319 173.654 319C157.544 319 144.584 304.96 144.584 287.5C144.584 270.13 157.544 256 173.654 256C173.654 256 173.654 256.09 173.744 256.09C173.744 256.09 173.744 256 173.834 256ZM260.09 256V256.18C257.12 256.18 254.69 258.61 254.69 261.58V299.38C254.69 310.27 245.87 319 234.98 319C234.89 319 234.8 319 234.71 319C234.62 319 234.53 319 234.53 319C223.19 319 214.01 309.91 214.01 298.57V261.58C214.01 258.61 211.58 256.18 208.7 256.18V256.09H223.37V256.18C220.4 256.18 217.97 258.61 217.97 261.58V303.7C217.97 310.72 224.18 316.66 231.02 318.46C232.28 318.73 233.63 318.91 234.98 318.91C245.78 318.91 254.6 310.09 254.6 299.29V261.58C254.6 258.61 252.17 256.18 249.2 256.18V256H260.09ZM300.253 310.72C300.253 315.22 303.853 318.73 308.353 318.91V319C308.263 319 307.633 319 307.543 319C301.333 319 296.383 314.05 296.383 307.93V305.05C296.383 300.55 292.783 296.86 288.283 296.77H274.423V313.51C274.423 316.48 276.853 318.91 279.823 318.91V319H265.153V318.91C268.033 318.91 270.463 316.48 270.463 313.51V261.58C270.463 258.61 268.033 256.18 265.153 256.18V256H283.243C293.593 256 301.963 265.09 301.963 276.34C301.963 286.69 294.943 295.24 285.673 296.59H289.093C295.303 296.59 300.253 301.72 300.253 307.93V310.72ZM274.423 296.59H283.153C290.803 296.59 298.183 287.41 298.183 276.34C298.183 265.27 290.803 256.18 283.153 256.18H274.423V296.59ZM343.132 312.52C343.042 312.61 343.042 312.61 343.042 312.61C342.952 312.7 342.862 312.88 342.862 312.97C342.862 312.88 342.862 312.88 342.862 312.88C340.342 316.48 336.472 318.64 332.332 319C332.242 319 332.242 319 332.242 319C332.152 319 332.152 319 332.062 319C332.062 319 332.062 319 331.972 319C330.442 319.09 328.822 319 327.292 318.55C327.202 318.46 327.112 318.46 327.022 318.46C326.932 318.37 326.842 318.37 326.752 318.37C326.572 318.28 326.392 318.19 326.212 318.19C325.402 317.83 324.592 317.47 323.872 317.02C323.422 316.84 323.062 316.57 322.702 316.3C322.702 316.3 322.612 316.3 322.612 316.21C322.342 316.03 322.072 315.85 321.802 315.67C319.102 313.78 316.492 312.43 317.302 316.39H317.122L313.882 301L314.062 300.91V301C315.592 304.78 317.302 307.93 319.462 311.08C322.522 315.67 326.032 318.37 330.172 318.82C330.892 318.91 331.612 318.91 332.332 318.82C336.472 318.46 340.522 316.21 342.952 312.43C343.312 311.89 343.582 311.35 343.942 310.72C345.742 305.59 343.942 299.65 339.172 296.59L335.752 294.34L330.082 290.65L329.812 290.47L320.902 284.71C314.152 280.21 311.812 271.57 315.142 264.46C315.142 264.37 315.142 264.37 315.142 264.37C315.232 264.19 315.322 264.1 315.412 263.92C315.502 263.83 315.502 263.65 315.592 263.56C315.592 263.47 315.682 263.47 315.682 263.47C315.772 263.29 315.862 263.11 315.952 262.93C316.042 262.84 316.042 262.75 316.132 262.57H316.222C316.222 262.48 316.222 262.48 316.222 262.48C316.312 262.3 316.402 262.21 316.492 262.12C316.402 262.21 316.402 262.21 316.402 262.21C318.922 258.61 322.882 256.45 327.022 256.09C327.112 256.09 327.112 256.09 327.202 256.09H327.292C328.912 256 330.442 256.09 331.972 256.54C332.062 256.63 332.152 256.63 332.242 256.63C332.332 256.72 332.422 256.72 332.602 256.72C332.692 256.81 332.872 256.9 333.052 256.9C333.052 256.9 333.052 256.9 333.142 256.9C333.952 257.26 334.672 257.62 335.482 258.07C335.842 258.25 336.202 258.52 336.652 258.79C336.652 258.79 336.652 258.79 336.652 258.88C336.922 259.06 337.192 259.24 337.462 259.42C340.162 261.31 342.862 262.66 342.052 258.7H342.232L345.382 274.09L345.202 274.18V274.09C343.672 270.31 341.962 267.16 339.892 264.01C336.742 259.42 333.322 256.72 329.182 256.27C328.462 256.18 327.742 256.18 326.932 256.27C322.792 256.63 318.832 258.88 316.312 262.66C315.952 263.2 315.682 263.74 315.412 264.37C313.522 269.5 315.322 275.44 320.092 278.5L323.512 280.75L329.182 284.44L329.452 284.62L338.362 290.38C345.112 294.88 347.452 303.52 344.122 310.63C344.122 310.72 344.122 310.72 344.122 310.72C344.032 310.9 343.942 310.99 343.942 311.17C343.852 311.26 343.762 311.44 343.672 311.53C343.672 311.62 343.672 311.62 343.672 311.62C343.582 311.8 343.492 311.98 343.312 312.16C343.312 312.25 343.222 312.34 343.132 312.52Z" fill="#1A1A1A"/>
</svg>
