<svg width="1142" height="154" viewBox="0 0 1142 154" fill="none" xmlns="http://www.w3.org/2000/svg">
<path d="M79.9401 -6.67572e-06V0.279998C75.3201 0.279998 71.5401 4.06 71.5401 8.68V67.48C71.5401 84.42 57.8201 98 40.8801 98C40.7401 98 40.6001 98 40.4601 98C40.3201 98 40.1801 98 40.1801 98C22.5401 98 8.26006 83.86 8.26006 66.22V8.68C8.26006 4.06 4.48006 0.279998 5.88149e-05 0.279998V0.139992H22.8201V0.279998C18.2001 0.279998 14.4201 4.06 14.4201 8.68V74.2C14.4201 85.12 24.0801 94.36 34.7201 97.16C36.6801 97.58 38.7801 97.86 40.8801 97.86C57.6801 97.86 71.4001 84.14 71.4001 67.34V8.68C71.4001 4.06 67.6201 0.279998 63.0001 0.279998V-6.67572e-06H79.9401ZM171.816 -6.67572e-06V0.279998C167.336 0.279998 163.556 4.06 163.556 8.68V98H163.276L96.4962 6.3V89.46C96.4962 94.08 100.136 97.86 104.756 97.86V98H87.9562V97.86C92.4362 97.86 96.2162 94.08 96.2162 89.46V8.68C96.2162 4.06 92.4362 0.279998 87.9562 0.279998V-6.67572e-06H98.1762L163.276 89.46V8.68C163.276 4.06 159.496 0.279998 155.016 0.279998V-6.67572e-06H171.816ZM202.511 0.279998C198.311 0.279998 194.811 3.64 194.251 7.83999V90.3C194.811 94.5 198.311 97.86 202.511 97.86V98H179.831V97.86C184.311 97.86 188.091 94.08 188.091 89.46V8.68C188.091 4.06 184.311 0.279998 179.831 0.279998V-6.67572e-06H202.511V0.279998ZM279.567 18.76L279.427 18.9C276.767 8.68 265.847 0.279998 256.187 0.279998H247.647V90.3C248.207 94.5 251.707 97.86 255.907 97.86V98.14H233.087V97.86C237.707 97.86 241.487 94.08 241.487 89.46V0.279998H232.947C223.287 0.279998 212.367 8.68 209.707 18.9L209.567 18.76L214.327 -6.67572e-06H274.807L279.567 18.76ZM350.868 69.72L351.148 69.86L344.148 97.86L344.008 98H286.608V97.86C291.088 97.86 294.868 94.08 294.868 89.46V8.68C294.868 4.06 291.088 0.279998 286.608 0.279998V-6.67572e-06H339.808L344.569 18.76L344.288 18.9L342.609 12.46L344.288 18.9C341.629 8.68 330.848 0.279998 321.048 0.279998H301.028V41.72H317.268C323.568 41.72 328.608 36.68 328.608 30.38H328.888V53.48H328.608V53.34C328.608 47.04 323.568 42 317.268 42H301.028V97.86H315.588C335.328 97.86 346.809 85.26 350.868 69.72ZM396.977 -6.67572e-06C422.037 -6.67572e-06 442.337 21.98 442.337 49C442.337 76.16 422.037 98 396.977 98C396.977 98 396.977 98 396.837 98H360.437V97.86C364.917 97.86 368.697 94.08 368.697 89.46V8.68C368.697 4.06 364.917 0.279998 360.437 0.279998V-6.67572e-06H396.837V0.139992C396.977 0.139992 396.977 -6.67572e-06 396.977 -6.67572e-06ZM396.837 97.86C415.317 97.86 436.317 75.88 436.317 49C436.317 22.26 415.317 0.279998 396.837 0.279998H374.857V97.86H396.837ZM573.309 17.22C568.642 17.22 557.722 24.7333 540.549 39.76C523.375 54.7867 509.469 68.6 498.829 81.2C511.242 72.7067 526.875 60.76 545.729 45.36C564.582 29.8667 574.009 20.6267 574.009 17.64C574.009 17.36 573.775 17.22 573.309 17.22ZM491.269 98.7C495.375 98.7 503.215 94.08 514.789 84.84C515.909 81.76 517.682 78.9133 520.109 76.3C522.535 73.6867 525.009 72.38 527.529 72.38C528.462 72.38 528.929 72.7067 528.929 73.36C528.929 75.5067 525.102 79.66 517.449 85.82C517.169 86.8467 517.029 87.6867 517.029 88.34C517.029 91.42 518.149 92.96 520.389 92.96C523.095 92.96 527.435 90.9533 533.409 86.94L533.689 88.9C526.969 93.5667 521.975 95.9 518.709 95.9C515.535 95.9 513.949 93.5667 513.949 88.9V88.48C503.029 96.7867 495.049 100.94 490.009 100.94C487.115 100.94 485.669 99.7733 485.669 97.44C485.669 92.3067 491.642 83.0667 503.589 69.72C515.629 56.28 528.882 43.8667 543.349 32.48C557.909 21.0933 568.222 15.4 574.289 15.4C575.409 15.4 575.969 15.82 575.969 16.66C575.969 18.9 573.682 22.4467 569.109 27.3C564.629 32.06 558.562 37.52 550.909 43.68C543.255 49.84 536.115 55.44 529.489 60.48C522.862 65.52 515.675 70.8867 507.929 76.58C500.182 82.18 495.749 85.4467 494.629 86.38C490.895 91.3267 489.029 94.8267 489.029 96.88C489.029 98.0933 489.775 98.7 491.269 98.7ZM499.671 136.78C497.151 138.74 495.331 140.607 494.211 142.38C493.091 144.247 492.531 146.207 492.531 148.26C492.531 150.313 493.558 151.34 495.611 151.34C500.651 151.34 515.444 138.833 539.991 113.82C523.471 121.753 513.251 127.073 509.331 129.78C505.318 132.487 502.098 134.82 499.671 136.78ZM494.631 153.3C491.924 153.3 490.571 151.76 490.571 148.68C490.571 145.6 491.971 142.427 494.771 139.16C497.571 135.987 501.724 132.72 507.231 129.36C515.911 124.133 527.531 117.973 542.091 110.88C542.744 110.6 543.258 110.367 543.631 110.18C545.218 108.593 547.738 105.933 551.191 102.2C554.738 98.4667 557.818 95.2933 560.431 92.68C552.031 98.1867 546.198 100.94 542.931 100.94C539.664 100.94 538.031 99.7733 538.031 97.44C538.031 94.2667 542.231 89.2733 550.631 82.46C553.338 80.22 554.691 78.7733 554.691 78.12C554.691 77.3733 554.318 77 553.571 77C551.984 77 549.324 78.12 545.591 80.36C541.951 82.6 539.664 84 538.731 84.56C537.798 85.12 536.398 86.0067 534.531 87.22C532.758 88.34 531.498 89.1333 530.751 89.6L530.331 87.64C543.118 79.24 551.331 75.04 554.971 75.04C557.398 75.04 558.611 76.3933 558.611 79.1C558.611 81.9933 554.411 86.8 546.011 93.52C543.211 95.76 541.811 97.2533 541.811 98C541.811 98.4667 542.418 98.7 543.631 98.7C546.431 98.7 550.724 96.88 556.511 93.24C562.298 89.5067 567.151 85.82 571.071 82.18C576.764 76.86 579.844 74.2 580.311 74.2C580.871 74.2 581.664 74.34 582.691 74.62C583.811 74.9 584.371 75.2267 584.371 75.6C584.371 75.88 583.718 76.6267 582.411 77.84C581.104 78.96 572.238 87.7333 555.811 104.16C564.958 99.4933 572.098 95.5733 577.231 92.4C582.458 89.2267 585.491 87.36 586.331 86.8L586.611 88.9C582.411 91.3267 579.424 93.1467 577.651 94.36C571.118 98.3733 562.531 102.947 551.891 108.08C538.078 121.893 526.318 132.86 516.611 140.98C506.811 149.193 499.484 153.3 494.631 153.3ZM673.559 -6.67572e-06C698.619 -6.67572e-06 718.919 21.98 718.919 49C718.919 76.16 698.619 98 673.559 98C673.559 98 673.559 98 673.419 98H637.019V97.86C641.499 97.86 645.279 94.08 645.279 89.46V8.68C645.279 4.06 641.499 0.279998 637.019 0.279998V-6.67572e-06H673.419V0.139992C673.559 0.139992 673.559 -6.67572e-06 673.559 -6.67572e-06ZM673.419 97.86C691.899 97.86 712.899 75.88 712.899 49C712.899 22.26 691.899 0.279998 673.419 0.279998H651.439V97.86H673.419ZM793.427 69.72L793.707 69.86L786.707 97.86L786.567 98H729.167V97.86C733.647 97.86 737.427 94.08 737.427 89.46V8.68C737.427 4.06 733.647 0.279998 729.167 0.279998V-6.67572e-06H782.367L787.127 18.76L786.847 18.9L785.167 12.46L786.847 18.9C784.187 8.68 773.407 0.279998 763.607 0.279998H743.587V41.72H759.827C766.127 41.72 771.167 36.68 771.167 30.38H771.447V53.48H771.167V53.34C771.167 47.04 766.127 42 759.827 42H743.587V97.86H758.147C777.887 97.86 789.367 85.26 793.427 69.72ZM850.875 87.92C850.735 88.06 850.735 88.06 850.735 88.06C850.595 88.2 850.455 88.48 850.455 88.62C850.455 88.48 850.455 88.48 850.455 88.48C846.535 94.08 840.515 97.44 834.075 98C833.935 98 833.935 98 833.935 98C833.795 98 833.795 98 833.655 98C833.655 98 833.655 98 833.515 98C831.135 98.14 828.615 98 826.235 97.3C826.095 97.16 825.955 97.16 825.815 97.16C825.675 97.02 825.535 97.02 825.395 97.02C825.115 96.88 824.835 96.74 824.555 96.74C823.295 96.18 822.035 95.62 820.915 94.92C820.215 94.64 819.655 94.22 819.095 93.8C819.095 93.8 818.955 93.8 818.955 93.66C818.535 93.38 818.115 93.1 817.695 92.82C813.495 89.88 809.435 87.78 810.695 93.94H810.415L805.375 70L805.655 69.86V70C808.035 75.88 810.695 80.78 814.055 85.68C818.815 92.82 824.275 97.02 830.715 97.72C831.835 97.86 832.955 97.86 834.075 97.72C840.515 97.16 846.815 93.66 850.595 87.78C851.155 86.94 851.575 86.1 852.135 85.12C854.935 77.14 852.135 67.9 844.715 63.14L839.395 59.64L830.575 53.9L830.155 53.62L816.295 44.66C805.795 37.66 802.155 24.22 807.335 13.16C807.335 13.02 807.335 13.02 807.335 13.02C807.475 12.74 807.615 12.6 807.755 12.32C807.895 12.18 807.895 11.9 808.035 11.76C808.035 11.62 808.175 11.62 808.175 11.62C808.315 11.34 808.455 11.06 808.595 10.78C808.735 10.64 808.735 10.5 808.875 10.22H809.015C809.015 10.08 809.015 10.08 809.015 10.08C809.155 9.79999 809.295 9.65999 809.435 9.52C809.295 9.65999 809.295 9.65999 809.295 9.65999C813.215 4.06 819.375 0.699993 825.815 0.139992C825.955 0.139992 825.955 0.139992 826.095 0.139992H826.235C828.755 -6.67572e-06 831.135 0.139992 833.515 0.839999C833.655 0.979997 833.795 0.979997 833.935 0.979997C834.075 1.12 834.215 1.12 834.495 1.12C834.635 1.25999 834.915 1.39999 835.195 1.39999C835.195 1.39999 835.195 1.39999 835.335 1.39999C836.595 1.95999 837.715 2.51999 838.975 3.21999C839.535 3.5 840.095 3.91999 840.795 4.34C840.795 4.34 840.795 4.34 840.795 4.47999C841.215 4.76 841.635 5.04 842.055 5.31999C846.255 8.26 850.455 10.36 849.195 4.2H849.475L854.375 28.14L854.095 28.28V28.14C851.715 22.26 849.055 17.36 845.835 12.46C840.935 5.31999 835.615 1.12 829.175 0.419996C828.055 0.279998 826.935 0.279998 825.675 0.419996C819.235 0.979997 813.075 4.47999 809.155 10.36C808.595 11.2 808.175 12.04 807.755 13.02C804.815 21 807.615 30.24 815.035 35L820.355 38.5L829.175 44.24L829.595 44.52L843.455 53.48C853.955 60.48 857.595 73.92 852.415 84.98C852.415 85.12 852.415 85.12 852.415 85.12C852.275 85.4 852.135 85.54 852.135 85.82C851.995 85.96 851.855 86.24 851.715 86.38C851.715 86.52 851.715 86.52 851.715 86.52C851.575 86.8 851.435 87.08 851.155 87.36C851.155 87.5 851.015 87.64 850.875 87.92ZM933.903 18.76L933.763 18.9C931.103 8.68 920.183 0.279998 910.523 0.279998H901.983V90.3C902.543 94.5 906.043 97.86 910.243 97.86V98.14H887.423V97.86C892.043 97.86 895.823 94.08 895.823 89.46V0.279998H887.283C877.623 0.279998 866.703 8.68 864.043 18.9L863.903 18.76L868.663 -6.67572e-06H929.143L933.903 18.76ZM963.624 0.279998C959.424 0.279998 955.924 3.64 955.364 7.83999V90.3C955.924 94.5 959.424 97.86 963.624 97.86V98H940.944V97.86C945.424 97.86 949.204 94.08 949.204 89.46V8.68C949.204 4.06 945.424 0.279998 940.944 0.279998V-6.67572e-06H963.624V0.279998ZM1057.48 -6.67572e-06V0.279998C1053 0.279998 1049.22 4.06 1049.22 8.68V98H1048.94L982.16 6.3V89.46C982.16 94.08 985.8 97.86 990.42 97.86V98H973.62V97.86C978.1 97.86 981.88 94.08 981.88 89.46V8.68C981.88 4.06 978.1 0.279998 973.62 0.279998V-6.67572e-06H983.84L1048.94 89.46V8.68C1048.94 4.06 1045.16 0.279998 1040.68 0.279998V-6.67572e-06H1057.48ZM1135.76 -6.67572e-06L1135.62 0.279998C1131 0.279998 1125.12 4.06 1122.46 8.68L1100.62 46.48V89.46C1100.62 94.08 1104.26 97.86 1108.88 97.86V98H1086.06V97.86C1090.68 97.86 1094.32 94.08 1094.32 89.46V46.48L1072.48 8.68C1069.82 4.06 1063.94 0.279998 1059.46 0.279998L1059.32 -6.67572e-06H1082.14L1082.28 0.279998C1077.66 0.279998 1076.12 4.06 1078.78 8.68L1100.48 46.2L1122.18 8.68C1124.84 4.06 1123.3 0.279998 1118.68 0.279998L1118.82 -6.67572e-06H1135.76ZM1136.51 101.78C1133.71 101.78 1131.61 99.68 1131.61 96.88C1131.61 94.08 1133.71 91.98 1136.51 91.98C1139.31 91.98 1141.41 94.08 1141.41 96.88C1141.41 99.68 1139.31 101.78 1136.51 101.78Z" fill="#75171E"/>
<path d="M79.9401 -6.67572e-06V0.279998C75.3201 0.279998 71.5401 4.06 71.5401 8.68V67.48C71.5401 84.42 57.8201 98 40.8801 98C40.7401 98 40.6001 98 40.4601 98C40.3201 98 40.1801 98 40.1801 98C22.5401 98 8.26006 83.86 8.26006 66.22V8.68C8.26006 4.06 4.48006 0.279998 5.88149e-05 0.279998V0.139992H22.8201V0.279998C18.2001 0.279998 14.4201 4.06 14.4201 8.68V74.2C14.4201 85.12 24.0801 94.36 34.7201 97.16C36.6801 97.58 38.7801 97.86 40.8801 97.86C57.6801 97.86 71.4001 84.14 71.4001 67.34V8.68C71.4001 4.06 67.6201 0.279998 63.0001 0.279998V-6.67572e-06H79.9401ZM171.816 -6.67572e-06V0.279998C167.336 0.279998 163.556 4.06 163.556 8.68V98H163.276L96.4962 6.3V89.46C96.4962 94.08 100.136 97.86 104.756 97.86V98H87.9562V97.86C92.4362 97.86 96.2162 94.08 96.2162 89.46V8.68C96.2162 4.06 92.4362 0.279998 87.9562 0.279998V-6.67572e-06H98.1762L163.276 89.46V8.68C163.276 4.06 159.496 0.279998 155.016 0.279998V-6.67572e-06H171.816ZM202.511 0.279998C198.311 0.279998 194.811 3.64 194.251 7.83999V90.3C194.811 94.5 198.311 97.86 202.511 97.86V98H179.831V97.86C184.311 97.86 188.091 94.08 188.091 89.46V8.68C188.091 4.06 184.311 0.279998 179.831 0.279998V-6.67572e-06H202.511V0.279998ZM279.567 18.76L279.427 18.9C276.767 8.68 265.847 0.279998 256.187 0.279998H247.647V90.3C248.207 94.5 251.707 97.86 255.907 97.86V98.14H233.087V97.86C237.707 97.86 241.487 94.08 241.487 89.46V0.279998H232.947C223.287 0.279998 212.367 8.68 209.707 18.9L209.567 18.76L214.327 -6.67572e-06H274.807L279.567 18.76ZM350.868 69.72L351.148 69.86L344.148 97.86L344.008 98H286.608V97.86C291.088 97.86 294.868 94.08 294.868 89.46V8.68C294.868 4.06 291.088 0.279998 286.608 0.279998V-6.67572e-06H339.808L344.569 18.76L344.288 18.9L342.609 12.46L344.288 18.9C341.629 8.68 330.848 0.279998 321.048 0.279998H301.028V41.72H317.268C323.568 41.72 328.608 36.68 328.608 30.38H328.888V53.48H328.608V53.34C328.608 47.04 323.568 42 317.268 42H301.028V97.86H315.588C335.328 97.86 346.809 85.26 350.868 69.72ZM396.977 -6.67572e-06C422.037 -6.67572e-06 442.337 21.98 442.337 49C442.337 76.16 422.037 98 396.977 98C396.977 98 396.977 98 396.837 98H360.437V97.86C364.917 97.86 368.697 94.08 368.697 89.46V8.68C368.697 4.06 364.917 0.279998 360.437 0.279998V-6.67572e-06H396.837V0.139992C396.977 0.139992 396.977 -6.67572e-06 396.977 -6.67572e-06ZM396.837 97.86C415.317 97.86 436.317 75.88 436.317 49C436.317 22.26 415.317 0.279998 396.837 0.279998H374.857V97.86H396.837ZM573.309 17.22C568.642 17.22 557.722 24.7333 540.549 39.76C523.375 54.7867 509.469 68.6 498.829 81.2C511.242 72.7067 526.875 60.76 545.729 45.36C564.582 29.8667 574.009 20.6267 574.009 17.64C574.009 17.36 573.775 17.22 573.309 17.22ZM491.269 98.7C495.375 98.7 503.215 94.08 514.789 84.84C515.909 81.76 517.682 78.9133 520.109 76.3C522.535 73.6867 525.009 72.38 527.529 72.38C528.462 72.38 528.929 72.7067 528.929 73.36C528.929 75.5067 525.102 79.66 517.449 85.82C517.169 86.8467 517.029 87.6867 517.029 88.34C517.029 91.42 518.149 92.96 520.389 92.96C523.095 92.96 527.435 90.9533 533.409 86.94L533.689 88.9C526.969 93.5667 521.975 95.9 518.709 95.9C515.535 95.9 513.949 93.5667 513.949 88.9V88.48C503.029 96.7867 495.049 100.94 490.009 100.94C487.115 100.94 485.669 99.7733 485.669 97.44C485.669 92.3067 491.642 83.0667 503.589 69.72C515.629 56.28 528.882 43.8667 543.349 32.48C557.909 21.0933 568.222 15.4 574.289 15.4C575.409 15.4 575.969 15.82 575.969 16.66C575.969 18.9 573.682 22.4467 569.109 27.3C564.629 32.06 558.562 37.52 550.909 43.68C543.255 49.84 536.115 55.44 529.489 60.48C522.862 65.52 515.675 70.8867 507.929 76.58C500.182 82.18 495.749 85.4467 494.629 86.38C490.895 91.3267 489.029 94.8267 489.029 96.88C489.029 98.0933 489.775 98.7 491.269 98.7ZM499.671 136.78C497.151 138.74 495.331 140.607 494.211 142.38C493.091 144.247 492.531 146.207 492.531 148.26C492.531 150.313 493.558 151.34 495.611 151.34C500.651 151.34 515.444 138.833 539.991 113.82C523.471 121.753 513.251 127.073 509.331 129.78C505.318 132.487 502.098 134.82 499.671 136.78ZM494.631 153.3C491.924 153.3 490.571 151.76 490.571 148.68C490.571 145.6 491.971 142.427 494.771 139.16C497.571 135.987 501.724 132.72 507.231 129.36C515.911 124.133 527.531 117.973 542.091 110.88C542.744 110.6 543.258 110.367 543.631 110.18C545.218 108.593 547.738 105.933 551.191 102.2C554.738 98.4667 557.818 95.2933 560.431 92.68C552.031 98.1867 546.198 100.94 542.931 100.94C539.664 100.94 538.031 99.7733 538.031 97.44C538.031 94.2667 542.231 89.2733 550.631 82.46C553.338 80.22 554.691 78.7733 554.691 78.12C554.691 77.3733 554.318 77 553.571 77C551.984 77 549.324 78.12 545.591 80.36C541.951 82.6 539.664 84 538.731 84.56C537.798 85.12 536.398 86.0067 534.531 87.22C532.758 88.34 531.498 89.1333 530.751 89.6L530.331 87.64C543.118 79.24 551.331 75.04 554.971 75.04C557.398 75.04 558.611 76.3933 558.611 79.1C558.611 81.9933 554.411 86.8 546.011 93.52C543.211 95.76 541.811 97.2533 541.811 98C541.811 98.4667 542.418 98.7 543.631 98.7C546.431 98.7 550.724 96.88 556.511 93.24C562.298 89.5067 567.151 85.82 571.071 82.18C576.764 76.86 579.844 74.2 580.311 74.2C580.871 74.2 581.664 74.34 582.691 74.62C583.811 74.9 584.371 75.2267 584.371 75.6C584.371 75.88 583.718 76.6267 582.411 77.84C581.104 78.96 572.238 87.7333 555.811 104.16C564.958 99.4933 572.098 95.5733 577.231 92.4C582.458 89.2267 585.491 87.36 586.331 86.8L586.611 88.9C582.411 91.3267 579.424 93.1467 577.651 94.36C571.118 98.3733 562.531 102.947 551.891 108.08C538.078 121.893 526.318 132.86 516.611 140.98C506.811 149.193 499.484 153.3 494.631 153.3ZM673.559 -6.67572e-06C698.619 -6.67572e-06 718.919 21.98 718.919 49C718.919 76.16 698.619 98 673.559 98C673.559 98 673.559 98 673.419 98H637.019V97.86C641.499 97.86 645.279 94.08 645.279 89.46V8.68C645.279 4.06 641.499 0.279998 637.019 0.279998V-6.67572e-06H673.419V0.139992C673.559 0.139992 673.559 -6.67572e-06 673.559 -6.67572e-06ZM673.419 97.86C691.899 97.86 712.899 75.88 712.899 49C712.899 22.26 691.899 0.279998 673.419 0.279998H651.439V97.86H673.419ZM793.427 69.72L793.707 69.86L786.707 97.86L786.567 98H729.167V97.86C733.647 97.86 737.427 94.08 737.427 89.46V8.68C737.427 4.06 733.647 0.279998 729.167 0.279998V-6.67572e-06H782.367L787.127 18.76L786.847 18.9L785.167 12.46L786.847 18.9C784.187 8.68 773.407 0.279998 763.607 0.279998H743.587V41.72H759.827C766.127 41.72 771.167 36.68 771.167 30.38H771.447V53.48H771.167V53.34C771.167 47.04 766.127 42 759.827 42H743.587V97.86H758.147C777.887 97.86 789.367 85.26 793.427 69.72ZM850.875 87.92C850.735 88.06 850.735 88.06 850.735 88.06C850.595 88.2 850.455 88.48 850.455 88.62C850.455 88.48 850.455 88.48 850.455 88.48C846.535 94.08 840.515 97.44 834.075 98C833.935 98 833.935 98 833.935 98C833.795 98 833.795 98 833.655 98C833.655 98 833.655 98 833.515 98C831.135 98.14 828.615 98 826.235 97.3C826.095 97.16 825.955 97.16 825.815 97.16C825.675 97.02 825.535 97.02 825.395 97.02C825.115 96.88 824.835 96.74 824.555 96.74C823.295 96.18 822.035 95.62 820.915 94.92C820.215 94.64 819.655 94.22 819.095 93.8C819.095 93.8 818.955 93.8 818.955 93.66C818.535 93.38 818.115 93.1 817.695 92.82C813.495 89.88 809.435 87.78 810.695 93.94H810.415L805.375 70L805.655 69.86V70C808.035 75.88 810.695 80.78 814.055 85.68C818.815 92.82 824.275 97.02 830.715 97.72C831.835 97.86 832.955 97.86 834.075 97.72C840.515 97.16 846.815 93.66 850.595 87.78C851.155 86.94 851.575 86.1 852.135 85.12C854.935 77.14 852.135 67.9 844.715 63.14L839.395 59.64L830.575 53.9L830.155 53.62L816.295 44.66C805.795 37.66 802.155 24.22 807.335 13.16C807.335 13.02 807.335 13.02 807.335 13.02C807.475 12.74 807.615 12.6 807.755 12.32C807.895 12.18 807.895 11.9 808.035 11.76C808.035 11.62 808.175 11.62 808.175 11.62C808.315 11.34 808.455 11.06 808.595 10.78C808.735 10.64 808.735 10.5 808.875 10.22H809.015C809.015 10.08 809.015 10.08 809.015 10.08C809.155 9.79999 809.295 9.65999 809.435 9.52C809.295 9.65999 809.295 9.65999 809.295 9.65999C813.215 4.06 819.375 0.699993 825.815 0.139992C825.955 0.139992 825.955 0.139992 826.095 0.139992H826.235C828.755 -6.67572e-06 831.135 0.139992 833.515 0.839999C833.655 0.979997 833.795 0.979997 833.935 0.979997C834.075 1.12 834.215 1.12 834.495 1.12C834.635 1.25999 834.915 1.39999 835.195 1.39999C835.195 1.39999 835.195 1.39999 835.335 1.39999C836.595 1.95999 837.715 2.51999 838.975 3.21999C839.535 3.5 840.095 3.91999 840.795 4.34C840.795 4.34 840.795 4.34 840.795 4.47999C841.215 4.76 841.635 5.04 842.055 5.31999C846.255 8.26 850.455 10.36 849.195 4.2H849.475L854.375 28.14L854.095 28.28V28.14C851.715 22.26 849.055 17.36 845.835 12.46C840.935 5.31999 835.615 1.12 829.175 0.419996C828.055 0.279998 826.935 0.279998 825.675 0.419996C819.235 0.979997 813.075 4.47999 809.155 10.36C808.595 11.2 808.175 12.04 807.755 13.02C804.815 21 807.615 30.24 815.035 35L820.355 38.5L829.175 44.24L829.595 44.52L843.455 53.48C853.955 60.48 857.595 73.92 852.415 84.98C852.415 85.12 852.415 85.12 852.415 85.12C852.275 85.4 852.135 85.54 852.135 85.82C851.995 85.96 851.855 86.24 851.715 86.38C851.715 86.52 851.715 86.52 851.715 86.52C851.575 86.8 851.435 87.08 851.155 87.36C851.155 87.5 851.015 87.64 850.875 87.92ZM933.903 18.76L933.763 18.9C931.103 8.68 920.183 0.279998 910.523 0.279998H901.983V90.3C902.543 94.5 906.043 97.86 910.243 97.86V98.14H887.423V97.86C892.043 97.86 895.823 94.08 895.823 89.46V0.279998H887.283C877.623 0.279998 866.703 8.68 864.043 18.9L863.903 18.76L868.663 -6.67572e-06H929.143L933.903 18.76ZM963.624 0.279998C959.424 0.279998 955.924 3.64 955.364 7.83999V90.3C955.924 94.5 959.424 97.86 963.624 97.86V98H940.944V97.86C945.424 97.86 949.204 94.08 949.204 89.46V8.68C949.204 4.06 945.424 0.279998 940.944 0.279998V-6.67572e-06H963.624V0.279998ZM1057.48 -6.67572e-06V0.279998C1053 0.279998 1049.22 4.06 1049.22 8.68V98H1048.94L982.16 6.3V89.46C982.16 94.08 985.8 97.86 990.42 97.86V98H973.62V97.86C978.1 97.86 981.88 94.08 981.88 89.46V8.68C981.88 4.06 978.1 0.279998 973.62 0.279998V-6.67572e-06H983.84L1048.94 89.46V8.68C1048.94 4.06 1045.16 0.279998 1040.68 0.279998V-6.67572e-06H1057.48ZM1135.76 -6.67572e-06L1135.62 0.279998C1131 0.279998 1125.12 4.06 1122.46 8.68L1100.62 46.48V89.46C1100.62 94.08 1104.26 97.86 1108.88 97.86V98H1086.06V97.86C1090.68 97.86 1094.32 94.08 1094.32 89.46V46.48L1072.48 8.68C1069.82 4.06 1063.94 0.279998 1059.46 0.279998L1059.32 -6.67572e-06H1082.14L1082.28 0.279998C1077.66 0.279998 1076.12 4.06 1078.78 8.68L1100.48 46.2L1122.18 8.68C1124.84 4.06 1123.3 0.279998 1118.68 0.279998L1118.82 -6.67572e-06H1135.76ZM1136.51 101.78C1133.71 101.78 1131.61 99.68 1131.61 96.88C1131.61 94.08 1133.71 91.98 1136.51 91.98C1139.31 91.98 1141.41 94.08 1141.41 96.88C1141.41 99.68 1139.31 101.78 1136.51 101.78Z" fill="black" fill-opacity="0.2"/>
</svg>
