<svg width="640" height="372" viewBox="0 0 640 372" fill="none" xmlns="http://www.w3.org/2000/svg">
<path d="M70.5591 33.96C70.5591 34.3333 70.0457 35.0333 69.0191 36.06C67.9924 36.9933 66.1257 38.72 63.4191 41.24C60.8057 43.6667 57.6324 46.6067 53.8991 50.06C50.1657 53.5133 47.0391 56.4067 44.5191 58.74H67.8991C68.1791 58.74 68.3191 58.9267 68.3191 59.3C68.3191 60.42 67.8991 60.98 67.0591 60.98H42.1391C18.0591 83.7533 6.01906 97.24 6.01906 101.44C6.01906 102.467 6.6724 102.98 7.97906 102.98C10.2191 102.98 16.7524 99.5733 27.5791 92.76C29.4457 91.64 30.5657 90.9867 30.9391 90.8L31.2191 92.9C18.5257 101.3 9.51906 105.5 4.19906 105.5C1.39906 105.5 -0.000938118 104.473 -0.000938118 102.42C-0.000938118 99.5267 2.1924 95.6067 6.57906 90.66C12.3657 83.7533 22.0257 73.9067 35.5591 61.12H11.4791C10.1724 61.12 9.51906 60.7467 9.51906 60C9.51906 59.16 9.8924 58.74 10.6391 58.74H37.9391L65.9391 32.98C66.4057 32.6067 67.2924 32.4667 68.5991 32.56C69.9057 32.6533 70.5591 33.12 70.5591 33.96ZM111.562 25.14C111.562 24.4867 111.095 24.16 110.162 24.16C106.428 24.16 97.1882 30.8333 82.4416 44.18C67.7882 57.5267 54.6282 70.4533 42.9616 82.96C56.4016 74.28 71.1949 63.22 87.3416 49.78C103.488 36.34 111.562 28.1267 111.562 25.14ZM51.3616 101.16C51.3616 102.373 51.9682 102.98 53.1816 102.98C54.4882 102.98 56.4016 102.42 58.9216 101.3C61.4416 100.18 63.6816 99.06 65.6416 97.94C67.6016 96.7267 69.9349 95.28 72.6416 93.6C75.4416 91.8267 76.9349 90.8933 77.1216 90.8L77.4016 92.9C64.8016 101.3 55.9816 105.5 50.9416 105.5C48.5149 105.5 47.3016 104.287 47.3016 101.86C47.3016 99.4333 48.7949 96.7733 51.7816 93.88C54.8616 90.8933 57.8949 88.2333 60.8816 85.9C63.9616 83.5667 65.5016 81.8867 65.5016 80.86C65.5016 80.4867 65.1749 80.3 64.5216 80.3C62.3749 80.3 56.5416 83.0067 47.0216 88.42C37.5016 93.74 31.2949 97.66 28.4016 100.18L23.3616 104.38C22.9882 104.753 22.0549 104.94 20.5616 104.94C19.0682 104.94 18.3216 104.66 18.3216 104.1C18.3216 103.82 18.5082 103.447 18.8816 102.98C28.6816 91.9667 39.6482 80.44 51.7816 68.4C63.9149 56.36 75.7682 45.6267 87.3416 36.2C99.0082 26.68 106.942 21.92 111.142 21.92C113.382 21.92 114.502 22.62 114.502 24.02C114.502 27.0067 109.788 32.7933 100.362 41.38C91.0282 49.8733 80.5282 58.4133 68.8616 67C57.1949 75.5867 47.1616 82.4 38.7616 87.44C35.4949 91.1733 33.6282 93.5533 33.1616 94.58C33.5349 94.58 33.8149 94.5333 34.0016 94.44C39.9749 90.24 46.1816 86.5067 52.6216 83.24C59.0616 79.9733 63.1216 78.34 64.8016 78.34C66.4816 78.34 67.6016 78.6667 68.1616 79.32C68.8149 79.9733 69.1416 80.6733 69.1416 81.42C69.1416 83.66 67.6482 86.18 64.6616 88.98C61.7682 91.78 58.8282 94.3 55.8416 96.54C52.8549 98.78 51.3616 100.32 51.3616 101.16ZM105.696 78.48C105.696 77.7333 104.949 77.36 103.456 77.36C101.962 77.36 98.9291 78.8067 94.3558 81.7C89.7824 84.5 85.9091 87.5333 82.7358 90.8C88.9891 89.7733 94.3558 87.9067 98.8358 85.2C103.409 82.4 105.696 80.16 105.696 78.48ZM78.2558 98.22C78.2558 100.927 80.1224 102.28 83.8558 102.28C90.9491 102.28 99.7691 98.4533 110.316 90.8L110.596 92.9C99.5824 100.647 90.1558 104.52 82.3158 104.52C76.7158 104.52 73.9158 102.187 73.9158 97.52C73.9158 92.8533 77.3691 88 84.2758 82.96C91.2758 77.92 98.4624 75.4 105.836 75.4C108.169 75.4 109.336 76.1 109.336 77.5C109.336 79.74 106.722 82.4467 101.496 85.62C96.3624 88.7 89.5958 90.9867 81.1958 92.48C79.2358 94.72 78.2558 96.6333 78.2558 98.22ZM147.979 137L147.839 137.28C143.219 137.28 138.179 141.06 136.499 145.68L106.959 226.88L103.879 235H103.599L77.4191 163.04L54.1791 226.88L51.2391 235H50.9591L18.3391 145.68C16.6591 141.06 11.6191 137.28 6.99906 137.28V137H29.8191L29.9591 137.28C25.3391 137.28 22.9591 141.06 24.6391 145.68L54.0391 226.46L77.2791 162.62L71.1191 145.68C69.4391 141.06 64.3991 137.28 59.7791 137.28L59.6391 137H82.5991V137.28C78.1191 137.28 75.7391 141.06 77.4191 145.68L106.819 226.46L136.219 145.68C137.899 141.06 135.519 137.28 130.899 137.28L131.039 137H147.979ZM215.785 206.72L216.065 206.86L209.065 234.86L208.925 235H151.525V234.86C156.005 234.86 159.785 231.08 159.785 226.46V145.68C159.785 141.06 156.005 137.28 151.525 137.28V137H204.725L209.485 155.76L209.205 155.9L207.525 149.46L209.205 155.9C206.545 145.68 195.765 137.28 185.965 137.28H165.945V178.72H182.185C188.485 178.72 193.525 173.68 193.525 167.38H193.805V190.48H193.525V190.34C193.525 184.04 188.485 179 182.185 179H165.945V234.86H180.505C200.245 234.86 211.725 222.26 215.785 206.72ZM261.893 137C286.953 137 307.253 158.98 307.253 186C307.253 213.16 286.953 235 261.893 235C261.893 235 261.893 235 261.753 235H225.353V234.86C229.833 234.86 233.613 231.08 233.613 226.46V145.68C233.613 141.06 229.833 137.28 225.353 137.28V137H261.753V137.14C261.893 137.14 261.893 137 261.893 137ZM261.753 234.86C280.233 234.86 301.233 212.88 301.233 186C301.233 159.26 280.233 137.28 261.753 137.28H239.773V234.86H261.753ZM354.042 137C379.102 137 399.402 158.98 399.402 186C399.402 213.16 379.102 235 354.042 235C354.042 235 354.042 235 353.902 235H317.502V234.86C321.982 234.86 325.762 231.08 325.762 226.46V145.68C325.762 141.06 321.982 137.28 317.502 137.28V137H353.902V137.14C354.042 137.14 354.042 137 354.042 137ZM353.902 234.86C372.382 234.86 393.382 212.88 393.382 186C393.382 159.26 372.382 137.28 353.902 137.28H331.922V234.86H353.902ZM432.33 137.28C428.13 137.28 424.63 140.64 424.07 144.84V227.3C424.63 231.5 428.13 234.86 432.33 234.86V235H409.65V234.86C414.13 234.86 417.91 231.08 417.91 226.46V145.68C417.91 141.06 414.13 137.28 409.65 137.28V137H432.33V137.28ZM526.186 137V137.28C521.706 137.28 517.926 141.06 517.926 145.68V235H517.646L450.866 143.3V226.46C450.866 231.08 454.506 234.86 459.126 234.86V235H442.326V234.86C446.806 234.86 450.586 231.08 450.586 226.46V145.68C450.586 141.06 446.806 137.28 442.326 137.28V137H452.546L517.646 226.46V145.68C517.646 141.06 513.866 137.28 509.386 137.28V137H526.186ZM603.234 186.14H626.054V186.28C621.574 186.28 617.794 190.06 617.794 194.68V235.14H611.494V221.28C603.374 229.82 592.314 235.14 580.134 235.14C579.994 235.14 579.994 235.14 579.994 235.14C579.854 235.14 579.854 235.14 579.854 235.14C554.794 235.14 534.634 213.16 534.634 186.14C534.634 158.98 554.794 137.14 579.854 137.14C579.854 137.14 579.994 137.14 580.134 137.14C588.534 137.14 596.374 139.52 603.094 143.86C603.234 143.86 603.234 144 603.234 144C603.934 144.42 604.494 144.7 605.054 145.12C610.934 149.04 617.374 151.28 617.514 144.28V144.14H617.794V172.28H617.514C615.554 165.14 612.194 158.7 607.854 153.24C600.154 143.58 589.794 137.28 579.994 137.28C561.514 137.28 540.514 159.26 540.514 186C540.514 212.88 561.514 234.86 579.994 234.86C591.334 234.86 603.794 226.32 611.494 213.58V194.68C611.494 190.06 607.854 186.28 603.234 186.28V186.14ZM36.1191 270.28C31.9191 270.28 28.4191 273.64 27.8591 277.84V360.3C28.4191 364.5 31.9191 367.86 36.1191 367.86V368H13.4391V367.86C17.9191 367.86 21.6991 364.08 21.6991 359.46V278.68C21.6991 274.06 17.9191 270.28 13.4391 270.28V270H36.1191V270.28ZM113.175 288.76L113.035 288.9C110.375 278.68 99.4548 270.28 89.7948 270.28H81.2548V360.3C81.8148 364.5 85.3148 367.86 89.5148 367.86V368.14H66.6948V367.86C71.3148 367.86 75.0948 364.08 75.0948 359.46V270.28H66.5548C56.8948 270.28 45.9748 278.68 43.3148 288.9L43.1748 288.76L47.9348 270H108.415L113.175 288.76ZM142.896 270.28C138.696 270.28 135.196 273.64 134.636 277.84V360.3C135.196 364.5 138.696 367.86 142.896 367.86V368H120.216V367.86C124.696 367.86 128.476 364.08 128.476 359.46V278.68C128.476 274.06 124.696 270.28 120.216 270.28V270H142.896V270.28ZM236.752 270V270.28C232.272 270.28 228.492 274.06 228.492 278.68V368H228.212L161.432 276.3V359.46C161.432 364.08 165.072 367.86 169.692 367.86V368H152.892V367.86C157.372 367.86 161.152 364.08 161.152 359.46V278.68C161.152 274.06 157.372 270.28 152.892 270.28V270H163.112L228.212 359.46V278.68C228.212 274.06 224.432 270.28 219.952 270.28V270H236.752ZM309.027 339.72L309.307 339.86L302.307 367.86L302.167 368H244.767V367.86C249.247 367.86 253.027 364.08 253.027 359.46V278.68C253.027 274.06 249.247 270.28 244.767 270.28V270H297.967L302.727 288.76L302.447 288.9L300.767 282.46L302.447 288.9C299.787 278.68 289.007 270.28 279.207 270.28H259.187V311.72H275.427C281.727 311.72 286.767 306.68 286.767 300.38H287.047V323.48H286.767V323.34C286.767 317.04 281.727 312 275.427 312H259.187V367.86H273.747C293.487 367.86 304.967 355.26 309.027 339.72ZM373.055 355.12C373.055 362.12 378.655 367.58 385.655 367.86V368C385.515 368 384.535 368 384.395 368C374.735 368 367.035 360.3 367.035 350.78V346.3C367.035 339.3 361.435 333.56 354.435 333.42H332.875V359.46C332.875 364.08 336.655 367.86 341.275 367.86V368H318.455V367.86C322.935 367.86 326.715 364.08 326.715 359.46V278.68C326.715 274.06 322.935 270.28 318.455 270.28V270H346.595C362.695 270 375.715 284.14 375.715 301.64C375.715 317.74 364.795 331.04 350.375 333.14H355.695C365.355 333.14 373.055 341.12 373.055 350.78V355.12ZM332.875 333.14H346.455C358.355 333.14 369.835 318.86 369.835 301.64C369.835 284.42 358.355 270.28 346.455 270.28H332.875V333.14ZM477.524 367.86V368H454.564V367.86C459.184 367.86 461.564 364.08 459.884 359.46L445.184 319.14H415.224L400.524 359.46C398.984 364.08 401.224 367.86 405.844 367.86V368H389.044V367.86C393.524 367.86 398.704 364.08 400.384 359.46L430.064 277.7C428.104 273.5 423.344 270.28 419.144 270.28V270H433.564L466.184 359.46C467.724 364.08 472.904 367.86 477.524 367.86ZM415.364 319H445.184L430.484 278.68C430.344 278.4 430.344 278.26 430.204 278.12L415.364 319ZM537.665 355.12C537.665 362.12 543.265 367.58 550.265 367.86V368C550.125 368 549.145 368 549.005 368C539.345 368 531.645 360.3 531.645 350.78V346.3C531.645 339.3 526.045 333.56 519.045 333.42H497.485V359.46C497.485 364.08 501.265 367.86 505.885 367.86V368H483.065V367.86C487.545 367.86 491.325 364.08 491.325 359.46V278.68C491.325 274.06 487.545 270.28 483.065 270.28V270H511.205C527.305 270 540.325 284.14 540.325 301.64C540.325 317.74 529.405 331.04 514.985 333.14H520.305C529.965 333.14 537.665 341.12 537.665 350.78V355.12ZM497.485 333.14H511.065C522.965 333.14 534.445 318.86 534.445 301.64C534.445 284.42 522.965 270.28 511.065 270.28H497.485V333.14ZM618.136 270L617.996 270.28C613.376 270.28 607.496 274.06 604.836 278.68L582.996 316.48V359.46C582.996 364.08 586.636 367.86 591.256 367.86V368H568.436V367.86C573.056 367.86 576.696 364.08 576.696 359.46V316.48L554.856 278.68C552.196 274.06 546.316 270.28 541.836 270.28L541.696 270H564.516L564.656 270.28C560.036 270.28 558.496 274.06 561.156 278.68L582.856 316.2L604.556 278.68C607.216 274.06 605.676 270.28 601.056 270.28L601.196 270H618.136ZM618.889 371.78C616.089 371.78 613.989 369.68 613.989 366.88C613.989 364.08 616.089 361.98 618.889 361.98C621.689 361.98 623.789 364.08 623.789 366.88C623.789 369.68 621.689 371.78 618.889 371.78Z" fill="white"/>
</svg>
