<svg width="400" height="401" viewBox="0 0 400 401" fill="none" xmlns="http://www.w3.org/2000/svg">
<g opacity="0.2">
<path d="M249.321 151.38C254.09 148.461 259.002 145.187 263.913 141.415C275.017 132.873 286.477 121.769 294.307 106.679C302.137 91.7306 305.553 73.8644 301.14 57.3505C296.869 41.1214 285.409 26.9565 270.177 21.1197C263.272 18.4861 256.154 17.8454 249.321 18.6284C242.488 17.8454 235.298 18.4861 228.394 21.1197C213.233 26.9565 201.701 41.1214 197.431 57.3505C192.946 73.8644 196.434 91.7306 204.264 106.679C212.094 121.84 223.554 132.944 234.658 141.415C239.569 145.187 244.481 148.461 249.321 151.38ZM141.483 234.59C132.941 223.485 121.837 212.097 106.747 204.196C91.7989 196.366 73.9326 192.949 57.4188 197.362C41.1897 201.633 27.0248 213.093 21.188 228.326C18.5543 235.23 17.8425 242.419 18.6255 249.253C17.8425 256.086 18.5543 263.275 21.188 270.18C26.9536 285.412 41.1897 296.872 57.4188 301.143C73.9326 305.628 91.7989 302.211 106.747 294.31C121.908 286.48 133.012 275.02 141.483 263.916C145.184 259.004 148.458 254.093 151.448 249.253C148.458 244.412 145.184 239.501 141.483 234.59ZM249.321 25.4617C255.443 24.8211 261.706 25.6041 267.472 28.0242C279.929 33.1492 289.609 45.4634 293.026 59.4859C296.585 73.5085 293.666 89.1681 286.548 102.621C279.501 116.217 269.18 126.538 258.788 134.795C255.656 137.286 252.453 139.564 249.321 141.77C246.189 139.635 242.986 137.286 239.854 134.795C229.462 126.538 219.141 116.217 212.094 102.621C204.976 89.1681 201.986 73.5085 205.545 59.4859C208.962 45.4634 218.642 33.1492 231.099 28.0242C236.936 25.6041 243.199 24.8211 249.321 25.4617ZM28.0925 231.102C33.2175 218.645 45.5317 208.965 59.5542 205.548C73.5767 201.989 89.2364 204.979 102.689 212.025C116.285 219.072 126.606 229.393 134.863 239.786C137.354 242.918 139.632 246.121 141.768 249.253C139.632 252.456 137.354 255.588 134.863 258.791C126.606 269.112 116.285 279.504 102.689 286.551C89.2364 293.598 73.5056 296.588 59.483 293.029C45.4605 289.541 33.1463 279.86 28.0925 267.404C25.6724 261.638 24.8894 255.303 25.53 249.253C24.8894 243.202 25.6012 236.867 28.0925 231.102Z" fill="#E4BD95"/>
<path d="M239.859 239.777C239.788 237.855 239.646 235.862 239.361 233.869L238.507 228.531C238.151 226.751 237.582 225.043 237.155 223.263C236.229 219.776 234.877 216.359 233.311 213.156C230.108 206.75 225.837 200.913 220.427 196.286C215.089 191.731 208.469 188.599 201.564 187.744C197.151 187.175 192.738 187.531 188.61 188.527C187.542 192.656 187.257 197.069 187.755 201.553C188.681 208.387 191.813 215.006 196.368 220.416C200.995 225.826 206.761 230.097 213.238 233.3C216.441 234.866 219.858 236.218 223.346 237.072C225.054 237.499 226.762 238.069 228.542 238.425L233.951 239.35C235.944 239.564 237.866 239.706 239.859 239.777ZM194.162 194.079C196.297 193.937 198.504 194.008 200.639 194.364C206.049 195.29 211.316 197.994 215.658 201.909C220 205.895 223.559 210.949 226.193 216.572C227.474 219.42 228.613 222.338 229.254 225.47C229.609 227.036 230.037 228.531 230.321 230.097V230.239H230.179C228.613 230.026 227.047 229.527 225.481 229.171C222.42 228.46 219.502 227.392 216.655 226.111C211.031 223.477 205.906 219.918 201.991 215.576C198.005 211.163 195.372 205.967 194.446 200.557C194.09 198.421 194.019 196.215 194.162 194.079Z" fill="#E4BD95"/>
<path d="M291.032 291.045C290.961 289.052 290.818 287.059 290.533 285.137L289.679 279.728C289.323 277.948 288.754 276.24 288.327 274.46C287.473 270.972 286.049 267.556 284.483 264.353C281.28 257.946 277.009 252.11 271.599 247.483C266.261 242.999 259.641 239.795 252.808 238.941C248.323 238.372 243.91 238.728 239.782 239.795C238.785 243.924 238.429 248.266 238.928 252.75C239.782 259.655 242.985 266.275 247.541 271.613C252.167 277.023 258.004 281.294 264.41 284.497C267.613 286.063 271.03 287.415 274.518 288.269C276.226 288.768 278.006 289.337 279.785 289.622L285.195 290.547C287.117 290.761 289.039 290.903 291.032 291.045ZM245.334 245.348C247.469 245.205 249.676 245.276 251.811 245.632C257.221 246.558 262.488 249.262 266.83 253.177C271.172 257.163 274.731 262.217 277.365 267.84C278.646 270.688 279.785 273.606 280.497 276.738C280.782 278.233 281.28 279.728 281.494 281.365V281.507H281.351C279.785 281.294 278.219 280.795 276.653 280.439C273.521 279.728 270.603 278.66 267.756 277.307C262.204 274.674 257.079 271.115 253.164 266.773C249.249 262.431 246.544 257.163 245.619 251.754C245.263 249.618 245.192 247.483 245.334 245.348Z" fill="#E4BD95"/>
<path d="M179.428 282.521C180.852 283.803 182.347 285.084 183.913 286.294L188.397 289.497C189.892 290.494 191.458 291.348 193.024 292.273C196.084 294.124 199.501 295.547 202.847 296.757C209.609 299.035 216.798 300.174 223.845 299.605C230.892 299.035 237.796 296.544 243.277 292.344C246.836 289.568 249.683 286.223 251.89 282.593C249.754 278.82 246.836 275.475 243.277 272.698C237.796 268.499 230.892 266.008 223.845 265.438C216.798 264.869 209.609 266.008 202.847 268.285C199.501 269.424 196.084 270.848 193.024 272.698C191.458 273.624 189.892 274.478 188.397 275.475L183.913 278.678C182.347 279.888 180.852 281.169 179.428 282.521ZM244.06 282.521C242.636 284.087 241.07 285.582 239.291 286.863C234.807 290.066 229.254 291.846 223.346 292.131C217.51 292.415 211.388 291.348 205.551 289.212C202.633 288.073 199.786 286.863 197.081 285.155C195.729 284.301 194.305 283.518 193.024 282.593L192.881 282.521L193.024 282.379C194.305 281.454 195.729 280.742 197.081 279.888C199.786 278.179 202.633 276.898 205.551 275.83C211.388 273.695 217.51 272.627 223.346 272.912C229.183 273.126 234.807 274.976 239.291 278.108C241.07 279.389 242.636 280.884 244.06 282.521Z" fill="#E4BD95"/>
<path d="M278.655 183.931L275.523 188.344C274.456 189.839 273.673 191.476 272.747 193.042C270.897 196.102 269.473 199.448 268.263 202.865C265.985 209.627 264.917 216.816 265.487 223.863C266.056 230.91 268.476 237.814 272.747 243.295C275.523 246.854 278.869 249.701 282.499 251.908C286.129 249.701 289.546 246.783 292.251 243.295C296.45 237.814 298.942 230.91 299.511 223.863C300.08 216.816 299.013 209.627 296.664 202.865C295.525 199.448 294.101 196.102 292.251 193.042C291.325 191.476 290.542 189.839 289.475 188.344L286.343 183.931C285.133 182.365 283.851 180.87 282.499 179.375C281.146 180.87 279.865 182.365 278.655 183.931ZM278.157 239.238C274.954 234.753 273.174 229.201 272.89 223.293C272.605 217.456 273.673 211.335 275.808 205.498C276.876 202.58 278.157 199.733 279.865 197.028C280.719 195.675 281.431 194.252 282.357 192.97L282.499 192.828L282.57 192.97C283.495 194.252 284.207 195.675 285.133 197.028C286.841 199.733 288.122 202.58 289.19 205.498C291.325 211.335 292.393 217.456 292.179 223.293C291.895 229.13 290.044 234.753 286.912 239.238C285.631 241.017 284.136 242.583 282.499 244.007C280.862 242.583 279.438 241.017 278.157 239.238Z" fill="#E4BD95"/>
<path d="M43.9668 43.8984C44.038 45.8915 44.1803 47.8134 44.4651 49.8064L45.3904 55.2161C45.6751 56.9956 46.2446 58.7039 46.6716 60.4123C47.5258 63.9001 48.8782 67.3168 50.4442 70.5199C53.6473 76.9261 57.9181 82.7629 63.3278 87.3896C68.7376 91.9452 75.3573 95.0771 82.1906 96.0024C86.675 96.5719 91.0882 96.216 95.2166 95.1483C96.2132 91.0198 96.5691 86.6066 96.0708 82.1935C95.1455 75.289 92.0135 68.6692 87.458 63.3307C82.8313 57.921 76.9945 53.6501 70.5882 50.447C67.3851 48.8811 63.9685 47.5286 60.4806 46.6033C58.7723 46.1762 56.9928 45.6068 55.2133 45.322L49.8748 44.3967C47.8817 44.1832 45.8887 43.9696 43.9668 43.8984ZM89.6646 89.5962C87.5292 89.7386 85.3226 89.6674 83.1872 89.3115C77.7775 88.3861 72.5101 85.6813 68.1681 81.7664C63.8261 77.8515 60.2671 72.7976 57.7046 67.1032C56.3522 64.256 55.2845 61.4088 54.5727 58.2769C54.2168 56.7109 53.7185 55.1449 53.505 53.579V53.4366H53.6473C55.2133 53.7213 56.7793 54.2196 58.3452 54.5043C61.4772 55.2161 64.3955 56.2838 67.2428 57.5651C72.7948 60.2699 77.9198 63.8289 81.8347 68.1709C85.7496 72.5129 88.4545 77.7803 89.3798 83.19C89.7357 85.3254 89.8069 87.4608 89.6646 89.5962Z" fill="#E4BD95"/>
<path d="M249.324 230.183C254.236 219.577 257.51 210.181 260.072 202.28C263.916 190.251 266.123 181.495 267.618 175.801C267.973 174.449 268.258 173.239 268.472 172.242C269.468 172.029 270.678 171.744 272.031 171.388C277.725 169.964 286.48 167.758 298.51 163.843C310.468 159.928 325.914 154.447 343.496 144.055C352.251 138.787 361.504 132.168 370.26 123.27C378.872 114.301 387.058 103.197 392.824 89.6017C398.66 76.0774 401.223 60.9872 399.443 46.4664L398.589 41.0567C398.233 39.2772 397.664 37.4977 397.237 35.7893C396.383 32.3015 395.03 28.8849 393.464 25.6817C390.261 19.2755 385.99 13.4387 380.581 8.812C375.171 4.25646 368.551 1.12452 361.718 0.270358C354.813 -0.583806 348.051 0.62626 342.286 3.33111C330.754 8.52728 322.569 18.2078 319.01 28.3154C315.308 38.423 315.949 48.5306 318.013 56.6452C320.22 64.8309 324.064 71.2371 327.765 75.7927C331.609 80.4194 335.381 83.2666 337.944 84.975C340.649 86.6121 342.143 87.3951 342.143 87.3951C342.143 87.3951 340.72 86.4697 338.157 84.6902C335.737 82.7684 332.249 79.7076 328.904 75.0097C325.558 70.3118 322.284 63.9056 320.718 56.0046C319.223 48.2459 319.294 38.8501 323.138 29.8814C326.768 21.055 334.598 12.7981 344.706 8.812C349.688 6.81895 355.312 6.03596 360.721 6.89013C366.131 7.81547 371.327 10.5203 375.74 14.4352C380.082 18.4213 383.641 23.4751 386.275 29.0984C387.556 31.9456 388.695 34.864 389.407 37.9959C389.692 39.4907 390.19 41.0567 390.404 42.6227L391.115 47.3917C392.468 60.2042 390.119 73.7285 384.78 86.1138C379.513 98.5704 372.039 108.963 364.209 117.433C356.308 125.832 347.767 132.452 339.581 137.791C323.138 148.468 308.404 154.874 297.015 159.785C282.423 165.693 272.885 169.608 267.902 171.673C265.838 176.655 261.923 186.193 256.015 200.785C254.022 205.27 251.887 210.252 249.324 215.733C246.762 210.252 244.555 205.27 242.633 200.714C236.654 186.193 232.739 176.655 230.746 171.673C225.763 169.608 216.225 165.765 201.705 159.785C190.173 154.803 175.51 148.468 159.068 137.791C150.882 132.452 142.34 125.832 134.368 117.433C126.538 108.963 119.064 98.5704 113.797 86.1138C108.529 73.7285 106.109 60.2754 107.462 47.3917L108.174 42.6227C108.458 41.0567 108.885 39.4907 109.241 37.9959C109.953 34.864 111.021 31.9456 112.373 29.0984C115.007 23.4751 118.566 18.3502 122.908 14.4352C127.25 10.5203 132.446 7.81547 137.856 6.89013C143.265 6.03596 148.889 6.74777 153.943 8.812C164.05 12.8693 171.88 21.055 175.51 29.8814C179.354 38.8501 179.354 48.2459 177.859 56.0046C176.293 63.8344 173.019 70.2406 169.673 74.9385C166.328 79.6364 162.84 82.6972 160.42 84.6191C157.929 86.5409 156.505 87.3951 156.505 87.3951C156.505 87.3951 157.929 86.6121 160.633 84.975C163.196 83.1954 166.969 80.4194 170.812 75.7927C174.585 71.166 178.429 64.8309 180.564 56.6452C182.699 48.5306 183.269 38.423 179.567 28.3154C176.008 18.2078 167.894 8.52728 156.291 3.33111C150.526 0.62626 143.764 -0.583806 136.93 0.270358C130.026 1.12452 123.406 4.25646 117.996 8.812C112.658 13.4387 108.316 19.2755 105.184 25.6817C103.618 28.8849 102.266 32.3015 101.411 35.7893C100.913 37.4977 100.344 39.2772 100.059 41.0567L99.1337 46.3952C97.3542 60.916 99.9167 76.0062 105.753 89.5305C111.519 103.197 119.705 114.301 128.318 123.27C137.073 132.168 146.326 138.787 155.081 144.055C172.734 154.447 188.18 159.928 200.067 163.843C212.097 167.758 220.852 169.964 226.546 171.388C227.899 171.744 229.109 171.957 230.105 172.242C230.319 173.239 230.604 174.449 230.96 175.801C232.383 181.495 234.59 190.251 238.505 202.28C241.138 210.181 244.413 219.577 249.324 230.183Z" fill="#E4BD95"/>
<path d="M230.175 249.271C219.641 254.182 210.174 257.457 202.273 260.09C190.314 263.934 181.559 266.141 175.865 267.564C174.512 267.92 173.302 268.205 172.235 268.418C172.021 269.415 171.736 270.625 171.38 271.977C169.957 277.672 167.75 286.427 163.835 298.457C159.92 310.415 154.511 325.861 144.118 343.514C138.851 352.269 132.16 361.522 123.262 370.277C114.294 378.89 103.19 387.076 89.5942 392.842C75.9988 398.678 60.9797 401.241 46.4589 399.461L41.0492 398.536C39.2697 398.251 37.5614 397.682 35.8531 397.184C32.294 396.329 28.9486 394.977 25.7454 393.411C19.268 390.208 13.4312 385.937 8.8757 380.599C4.32016 375.189 1.18823 368.569 0.262885 361.665C-0.591279 354.831 0.689966 348.069 3.32364 342.304C8.59098 330.701 18.2003 322.587 28.3079 319.028C38.4867 315.326 48.5232 315.967 56.6377 318.031C64.8946 320.167 71.3009 324.01 75.8564 327.783C80.4831 331.555 83.2591 335.328 85.0387 337.962C86.6758 340.666 87.4588 342.09 87.4588 342.09C87.4588 342.09 86.5334 340.666 84.7539 338.175C82.8321 335.755 79.7713 332.267 75.0734 328.922C70.3043 325.576 63.8981 322.302 56.0683 320.736C48.2384 319.241 38.8426 319.241 29.9451 323.085C21.1187 326.715 12.8618 334.545 8.8757 344.653C6.81148 349.635 6.09967 355.33 6.95384 360.739C7.87918 366.149 10.5129 371.345 14.4278 375.687C18.4139 380.029 23.4677 383.588 29.0909 386.222C31.9381 387.503 34.8565 388.642 37.9885 389.283C39.5544 389.639 41.0492 390.137 42.6152 390.35L47.3843 391.062C60.2679 392.415 73.721 390.066 86.1064 384.727C98.6341 379.46 109.026 372.057 117.497 364.156C125.896 356.255 132.516 347.713 137.854 339.528C148.532 323.085 154.938 308.351 159.849 296.962C165.757 282.37 169.672 272.903 171.665 267.849C176.648 265.785 186.186 261.87 200.778 255.962C205.333 254.04 210.316 251.833 215.797 249.271C210.316 246.708 205.262 244.502 200.778 242.58C186.186 236.672 176.648 232.757 171.665 230.693C169.672 225.71 165.757 216.172 159.778 201.651C154.867 190.191 148.46 175.457 137.783 159.014C132.445 150.829 125.896 142.287 117.497 134.386C109.026 126.485 98.6341 119.082 86.1775 113.815C73.7922 108.476 60.3391 106.056 47.4554 107.408L42.6864 108.12C41.1204 108.405 39.5544 108.832 38.0596 109.188C34.9277 109.9 32.0093 110.968 29.1621 112.32C23.4677 114.954 18.4139 118.513 14.4278 122.855C10.5129 127.197 7.87918 132.464 6.95384 137.874C6.02849 143.283 6.81148 148.907 8.8757 153.96C12.933 164.068 21.1187 171.898 29.9451 175.528C38.8426 179.372 48.2384 179.372 56.0683 177.877C63.8981 176.311 70.3043 173.037 75.0734 169.762C79.7713 166.346 82.8321 162.858 84.7539 160.438C86.5334 157.875 87.4588 156.452 87.4588 156.452C87.4588 156.452 86.6758 157.947 85.0387 160.651C83.2591 163.214 80.4831 166.986 75.8564 170.759C71.3009 174.532 64.8946 178.375 56.7089 180.511C48.5943 182.646 38.4867 183.287 28.3791 179.514C18.2715 175.955 8.59098 167.769 3.39482 156.238C0.689967 150.544 -0.591279 143.782 0.262885 136.877C1.11705 129.973 4.32016 123.353 8.8757 118.014C13.4312 112.605 19.268 108.334 25.7454 105.131C28.9486 103.565 32.3652 102.212 35.8531 101.358C37.5614 100.931 39.2697 100.362 41.0492 100.006L46.3877 99.0804C60.9797 97.3009 75.9988 99.9346 89.5942 105.7C103.19 111.466 114.294 119.652 123.262 128.336C132.16 137.091 138.851 146.344 144.047 155.099C154.439 172.752 159.92 188.127 163.835 200.085C167.75 212.115 169.957 220.87 171.38 226.564C171.736 227.917 172.021 229.127 172.235 230.123C173.302 230.337 174.512 230.622 175.865 230.978C181.559 232.401 190.314 234.608 202.344 238.523C210.174 241.085 219.641 244.359 230.175 249.271Z" fill="#E4BD95"/>
<path d="M249.321 192.746C250.887 188.617 252.311 184.56 253.449 180.574C255.514 173.812 256.866 167.334 257.863 161.64C263.557 160.643 270.034 159.291 276.797 157.227C288.613 153.81 301.354 148.329 312.956 141.069C318.793 137.51 324.274 133.524 329.328 129.324C334.31 125.124 339.222 120.213 341.855 113.949C344.489 107.756 344.56 100.709 341.713 95.2285C338.795 89.6053 333.954 86.9716 330.467 85.8327C326.908 84.6938 322.921 84.4803 319.078 85.4768C315.234 86.4733 311.96 88.6799 309.468 91.3136C304.557 96.581 302.92 103.913 304.059 109.465C305.055 115.088 307.974 118.932 310.322 120.925C312.743 122.989 314.593 123.416 315.092 122.846C316.159 121.779 311.533 116.511 311.817 108.753C311.888 105.051 313.597 101.208 316.658 98.5028C319.718 95.8692 323.491 95.1573 327.05 96.2962C328.829 96.8657 330.965 98.0046 332.317 100.14C333.741 102.275 334.381 106.048 333.243 110.176C331.107 118.504 321 127.402 311.39 135.445C301.354 143.418 289.751 150.109 278.291 154.806C271.102 157.796 264.055 159.931 257.578 161.355C256.154 167.832 254.019 174.879 251.1 182.069C250.531 183.421 249.89 184.773 249.321 186.197C248.68 184.773 248.111 183.421 247.541 181.997C244.552 174.879 242.488 167.832 241.064 161.355C234.587 159.931 227.469 157.796 220.351 154.806C208.891 150.109 197.288 143.418 187.252 135.445C177.571 127.402 167.535 118.504 165.328 110.176C164.189 106.048 164.83 102.275 166.254 100.14C167.606 98.0046 169.813 96.8657 171.521 96.2962C175.08 95.1573 178.852 95.8692 181.913 98.5028C184.974 101.208 186.682 105.051 186.825 108.753C187.038 116.511 182.411 121.779 183.55 122.846C183.977 123.416 185.899 122.989 188.319 120.925C190.597 118.932 193.516 115.088 194.583 109.465C195.722 103.913 194.085 96.581 189.102 91.3136C186.611 88.6799 183.337 86.4733 179.493 85.4768C175.721 84.4803 171.734 84.6938 168.104 85.8327C164.616 86.9716 159.776 89.6053 156.929 95.2997C154.082 100.852 154.224 107.899 156.858 114.02C159.491 120.284 164.403 125.195 169.385 129.395C174.439 133.524 179.92 137.51 185.757 141.14C197.359 148.329 210.101 153.81 221.917 157.298C228.607 159.291 235.014 160.643 240.708 161.64C241.705 167.334 243.057 173.812 245.121 180.574C246.26 184.56 247.684 188.617 249.321 192.746Z" fill="#E4BD95"/>
<path d="M192.808 249.261C188.68 250.899 184.551 252.251 180.565 253.461C173.803 255.525 167.325 256.878 161.631 257.803C160.634 263.497 159.282 269.975 157.218 276.737C153.801 288.553 148.391 301.294 141.131 312.897C137.572 318.662 133.586 324.214 129.386 329.197C125.258 334.251 120.346 339.091 114.011 341.796C107.89 344.43 100.843 344.501 95.2909 341.653C89.6677 338.806 86.9628 333.895 85.8239 330.407C84.6851 326.848 84.4715 322.862 85.468 319.018C86.4646 315.174 88.6712 311.9 91.3048 309.48C96.5722 304.497 103.904 302.86 109.456 303.999C115.15 305.067 118.923 307.985 120.987 310.334C123.051 312.754 123.478 314.605 122.909 315.032C121.841 316.171 116.574 311.544 108.815 311.758C105.114 311.829 101.199 313.537 98.5652 316.669C95.8604 319.73 95.1486 323.503 96.3586 327.062C96.9281 328.77 98.067 330.976 100.202 332.329C102.338 333.752 106.11 334.393 110.239 333.254C118.496 331.119 127.464 321.011 135.508 311.331C143.48 301.294 150.171 289.692 154.869 278.232C157.787 271.043 159.923 263.996 161.346 257.518C167.824 256.095 174.871 253.959 182.06 251.041C183.412 250.471 184.836 249.902 186.188 249.261C184.836 248.621 183.412 248.051 182.06 247.482C174.871 244.564 167.824 242.428 161.346 241.004C159.923 234.527 157.787 227.48 154.869 220.291C150.171 208.831 143.48 197.229 135.508 187.192C127.464 177.583 118.496 167.475 110.239 165.269C106.11 164.13 102.338 164.842 100.202 166.265C98.067 167.618 96.9281 169.824 96.3586 171.533C95.1486 175.092 95.8604 178.864 98.5652 181.925C101.199 184.986 105.114 186.694 108.815 186.765C116.574 187.05 121.841 182.423 122.909 183.491C123.478 183.918 123.051 185.84 120.987 188.189C118.923 190.609 115.15 193.456 109.527 194.524C103.975 195.663 96.5722 194.025 91.376 189.043C88.7423 186.623 86.5357 183.348 85.5392 179.505C84.5427 175.661 84.6851 171.675 85.8951 168.116C87.034 164.628 89.6677 159.788 95.3621 156.869C100.914 154.022 107.961 154.164 114.083 156.727C120.346 159.361 125.258 164.272 129.457 169.255C133.586 174.309 137.572 179.789 141.202 185.626C148.391 197.229 153.872 209.97 157.36 221.786C159.424 228.548 160.777 235.025 161.773 240.72C167.468 241.645 173.945 243.069 180.707 245.133C184.551 246.272 188.68 247.695 192.808 249.261Z" fill="#E4BD95"/>
<path d="M333.24 46.1067C331.034 47.7438 328.898 50.7334 327.973 53.8654C326.977 56.9261 327.048 64.5424 330.322 71.0198C333.383 77.5684 338.864 82.2663 342.28 84.9C339.291 82.6222 335.945 76.1448 335.803 70.0233C335.447 63.9018 337.938 58.9903 338.579 56.9261C339.148 54.8619 339.647 52.4417 339.86 50.2352C340.003 48.0997 340.003 46.0355 338.864 45.039C337.725 44.0425 335.518 44.3984 333.24 46.1067Z" fill="#E4BD95"/>
<path d="M46.0997 333.267C47.7368 331.061 50.7264 328.854 53.9295 328C56.9903 327.003 64.6066 327.075 71.084 330.349C77.7037 333.41 82.3305 338.891 84.9641 342.307C82.6864 339.246 76.209 335.901 70.0875 335.83C63.8948 335.474 59.0545 337.894 56.9903 338.535C54.926 339.175 52.5059 339.602 50.2993 339.816C48.0927 340.029 46.0997 339.958 45.1032 338.819C44.1066 337.681 44.4625 335.474 46.0997 333.267Z" fill="#E4BD95"/>
<path d="M165.329 46.1067C167.607 47.7438 169.743 50.7334 170.597 53.9365C171.593 56.9973 171.522 64.6136 168.248 71.091C165.187 77.6396 159.706 82.3375 156.29 84.9712C159.279 82.6934 162.625 76.216 162.767 70.0945C163.123 63.973 160.632 59.0615 159.991 56.9973C159.421 54.8619 158.994 52.4417 158.781 50.2352C158.567 48.0997 158.639 46.0355 159.777 45.039C160.916 44.0425 163.123 44.3984 165.329 46.1067Z" fill="#E4BD95"/>
<path d="M46.0997 165.337C47.808 167.543 50.7976 169.679 53.9295 170.604C56.9903 171.601 64.6066 171.529 71.084 168.255C77.7037 165.194 82.3305 159.714 84.9641 156.297C82.6864 159.286 76.209 162.632 70.0875 162.774C63.8948 163.13 59.0545 160.639 56.9903 159.998C54.926 159.429 52.5059 158.931 50.2993 158.717C48.0927 158.503 46.0997 158.575 45.1032 159.714C44.1066 160.852 44.4625 163.059 46.0997 165.337Z" fill="#E4BD95"/>
<path d="M348.123 55.2763C346.13 55.7033 343.994 57.1981 342.642 59.0488C341.29 60.8995 339.937 65.8821 340.222 70.9359C340.364 75.9897 342.144 80.6165 342.998 83.3925C342.286 80.9012 343.283 75.9897 345.56 72.4307C347.838 68.8005 350.828 66.5939 351.682 65.4551C352.536 64.245 353.106 62.679 353.39 61.1131C353.675 59.4759 353.675 57.8388 352.821 56.5575C351.967 55.2763 350.187 54.778 348.123 55.2763Z" fill="#E4BD95"/>
<path d="M55.3585 348.131C55.7856 346.066 57.2804 344.002 59.1311 342.65C60.9818 341.297 65.9644 339.945 70.947 340.23C76.0008 340.372 80.6276 342.152 83.4036 342.935C80.9123 342.223 76.0008 343.219 72.513 345.497C68.8116 347.775 66.605 350.764 65.4662 351.619C64.3273 352.473 62.6901 353.042 61.1242 353.327C59.487 353.612 57.8499 353.683 56.5686 352.757C55.3585 351.903 54.8603 350.124 55.3585 348.131Z" fill="#E4BD95"/>
<path d="M150.457 55.2775C152.521 55.7046 154.586 57.1994 155.938 59.05C157.29 60.9007 158.714 65.8834 158.358 70.9372C158.216 75.991 156.436 80.5465 155.582 83.3937C156.294 80.9024 155.297 75.991 153.02 72.432C150.813 68.8018 147.752 66.5952 146.969 65.4563C146.115 64.2462 145.546 62.6802 145.261 61.0431C144.976 59.4771 144.905 57.7688 145.83 56.4876C146.685 55.2775 148.464 54.7792 150.457 55.2775Z" fill="#E4BD95"/>
<path d="M55.3585 150.477C55.7856 152.541 57.2804 154.676 59.1311 155.958C60.9818 157.31 65.9644 158.734 70.947 158.378C76.0008 158.164 80.6276 156.385 83.4036 155.602C80.9123 156.313 76.0008 155.317 72.513 153.039C68.8116 150.761 66.605 147.772 65.4662 146.918C64.3273 146.064 62.6901 145.494 61.1242 145.209C59.487 144.925 57.8499 144.925 56.5686 145.779C55.3585 146.633 54.8603 148.412 55.3585 150.477Z" fill="#E4BD95"/>
<path d="M357.092 68.4539C355.526 69.0945 352.75 72.0129 350.757 75.3583C348.693 78.7038 347.554 82.334 346.344 84.2559C347.411 82.6187 350.757 80.6257 354.031 79.8427C357.306 78.9174 360.366 79.0597 361.363 78.6326C363.356 77.7073 365.491 74.7889 365.135 71.7993C364.779 68.7386 360.295 67.0302 357.092 68.4539Z" fill="#E4BD95"/>
<path d="M68.5282 357.022C69.1688 355.456 72.016 352.68 75.4327 350.687C78.7782 348.622 82.4084 347.484 84.3302 346.273C82.6219 347.412 80.7 350.758 79.917 354.032C78.9917 357.306 79.0629 360.296 78.6358 361.364C77.7105 363.357 74.7921 365.492 71.8025 365.136C68.7417 364.709 67.1046 360.296 68.5282 357.022Z" fill="#E4BD95"/>
<path d="M141.556 68.4539C143.122 69.0945 145.898 71.9417 147.891 75.3583C149.884 78.7038 151.094 82.334 152.233 84.2559C151.165 82.6187 147.82 80.6969 144.546 79.8427C141.271 78.9174 138.282 79.0597 137.214 78.6326C135.221 77.7073 133.086 74.7889 133.441 71.7993C133.869 68.7386 138.282 67.0302 141.556 68.4539Z" fill="#E4BD95"/>
<path d="M68.5282 141.489C69.1688 143.055 72.016 145.831 75.4327 147.824C78.7782 149.888 82.4084 151.098 84.3302 152.237C82.6219 151.17 80.7 147.753 79.917 144.55C78.9917 141.204 79.0629 138.215 78.6358 137.147C77.7105 135.154 74.7921 133.019 71.8025 133.446C68.7417 133.802 67.1046 138.286 68.5282 141.489Z" fill="#E4BD95"/>
</g>
</svg>
