<svg width="648" height="469" viewBox="0 0 648 469" fill="none" xmlns="http://www.w3.org/2000/svg">
<path d="M70.56 33.96C70.56 34.3333 70.0467 35.0333 69.02 36.06C67.9934 36.9933 66.1267 38.72 63.42 41.24C60.8067 43.6667 57.6334 46.6067 53.9 50.06C50.1667 53.5133 47.04 56.4067 44.52 58.74H67.9C68.18 58.74 68.32 58.9267 68.32 59.3C68.32 60.42 67.9 60.98 67.06 60.98H42.14C18.06 83.7533 6.02004 97.24 6.02004 101.44C6.02004 102.467 6.67337 102.98 7.98004 102.98C10.22 102.98 16.7534 99.5733 27.58 92.76C29.4467 91.64 30.5667 90.9867 30.94 90.8L31.22 92.9C18.5267 101.3 9.52004 105.5 4.20004 105.5C1.40004 105.5 3.8445e-05 104.473 3.8445e-05 102.42C3.8445e-05 99.5267 2.19337 95.6067 6.58004 90.66C12.3667 83.7533 22.0267 73.9067 35.56 61.12H11.48C10.1734 61.12 9.52004 60.7467 9.52004 60C9.52004 59.16 9.89337 58.74 10.64 58.74H37.94L65.94 32.98C66.4067 32.6067 67.2934 32.4667 68.6 32.56C69.9067 32.6533 70.56 33.12 70.56 33.96ZM111.563 25.14C111.563 24.4867 111.096 24.16 110.163 24.16C106.429 24.16 97.1892 30.8333 82.4425 44.18C67.7892 57.5267 54.6292 70.4533 42.9625 82.96C56.4025 74.28 71.1959 63.22 87.3425 49.78C103.489 36.34 111.563 28.1267 111.563 25.14ZM51.3625 101.16C51.3625 102.373 51.9692 102.98 53.1825 102.98C54.4892 102.98 56.4025 102.42 58.9225 101.3C61.4425 100.18 63.6825 99.06 65.6425 97.94C67.6025 96.7267 69.9359 95.28 72.6425 93.6C75.4425 91.8267 76.9359 90.8933 77.1225 90.8L77.4025 92.9C64.8025 101.3 55.9825 105.5 50.9425 105.5C48.5159 105.5 47.3025 104.287 47.3025 101.86C47.3025 99.4333 48.7959 96.7733 51.7825 93.88C54.8625 90.8933 57.8959 88.2333 60.8825 85.9C63.9625 83.5667 65.5025 81.8867 65.5025 80.86C65.5025 80.4867 65.1759 80.3 64.5225 80.3C62.3759 80.3 56.5425 83.0067 47.0225 88.42C37.5025 93.74 31.2959 97.66 28.4025 100.18L23.3625 104.38C22.9892 104.753 22.0559 104.94 20.5625 104.94C19.0692 104.94 18.3225 104.66 18.3225 104.1C18.3225 103.82 18.5092 103.447 18.8825 102.98C28.6825 91.9667 39.6492 80.44 51.7825 68.4C63.9159 56.36 75.7692 45.6267 87.3425 36.2C99.0092 26.68 106.943 21.92 111.143 21.92C113.383 21.92 114.503 22.62 114.503 24.02C114.503 27.0067 109.789 32.7933 100.363 41.38C91.0292 49.8733 80.5292 58.4133 68.8625 67C57.1959 75.5867 47.1625 82.4 38.7625 87.44C35.4959 91.1733 33.6292 93.5533 33.1625 94.58C33.5359 94.58 33.8159 94.5333 34.0025 94.44C39.9759 90.24 46.1825 86.5067 52.6225 83.24C59.0625 79.9733 63.1225 78.34 64.8025 78.34C66.4825 78.34 67.6025 78.6667 68.1625 79.32C68.8159 79.9733 69.1425 80.6733 69.1425 81.42C69.1425 83.66 67.6492 86.18 64.6625 88.98C61.7692 91.78 58.8292 94.3 55.8425 96.54C52.8559 98.78 51.3625 100.32 51.3625 101.16ZM105.697 78.48C105.697 77.7333 104.95 77.36 103.457 77.36C101.963 77.36 98.9301 78.8067 94.3568 81.7C89.7834 84.5 85.9101 87.5333 82.7368 90.8C88.9901 89.7733 94.3568 87.9067 98.8368 85.2C103.41 82.4 105.697 80.16 105.697 78.48ZM78.2568 98.22C78.2568 100.927 80.1234 102.28 83.8568 102.28C90.9501 102.28 99.7701 98.4533 110.317 90.8L110.597 92.9C99.5834 100.647 90.1568 104.52 82.3168 104.52C76.7168 104.52 73.9168 102.187 73.9168 97.52C73.9168 92.8533 77.3701 88 84.2768 82.96C91.2768 77.92 98.4634 75.4 105.837 75.4C108.17 75.4 109.337 76.1 109.337 77.5C109.337 79.74 106.723 82.4467 101.497 85.62C96.3634 88.7 89.5968 90.9867 81.1968 92.48C79.2368 94.72 78.2568 96.6333 78.2568 98.22Z" fill="#75171E"/>
<path d="M70.56 33.96C70.56 34.3333 70.0467 35.0333 69.02 36.06C67.9934 36.9933 66.1267 38.72 63.42 41.24C60.8067 43.6667 57.6334 46.6067 53.9 50.06C50.1667 53.5133 47.04 56.4067 44.52 58.74H67.9C68.18 58.74 68.32 58.9267 68.32 59.3C68.32 60.42 67.9 60.98 67.06 60.98H42.14C18.06 83.7533 6.02004 97.24 6.02004 101.44C6.02004 102.467 6.67337 102.98 7.98004 102.98C10.22 102.98 16.7534 99.5733 27.58 92.76C29.4467 91.64 30.5667 90.9867 30.94 90.8L31.22 92.9C18.5267 101.3 9.52004 105.5 4.20004 105.5C1.40004 105.5 3.8445e-05 104.473 3.8445e-05 102.42C3.8445e-05 99.5267 2.19337 95.6067 6.58004 90.66C12.3667 83.7533 22.0267 73.9067 35.56 61.12H11.48C10.1734 61.12 9.52004 60.7467 9.52004 60C9.52004 59.16 9.89337 58.74 10.64 58.74H37.94L65.94 32.98C66.4067 32.6067 67.2934 32.4667 68.6 32.56C69.9067 32.6533 70.56 33.12 70.56 33.96ZM111.563 25.14C111.563 24.4867 111.096 24.16 110.163 24.16C106.429 24.16 97.1892 30.8333 82.4425 44.18C67.7892 57.5267 54.6292 70.4533 42.9625 82.96C56.4025 74.28 71.1959 63.22 87.3425 49.78C103.489 36.34 111.563 28.1267 111.563 25.14ZM51.3625 101.16C51.3625 102.373 51.9692 102.98 53.1825 102.98C54.4892 102.98 56.4025 102.42 58.9225 101.3C61.4425 100.18 63.6825 99.06 65.6425 97.94C67.6025 96.7267 69.9359 95.28 72.6425 93.6C75.4425 91.8267 76.9359 90.8933 77.1225 90.8L77.4025 92.9C64.8025 101.3 55.9825 105.5 50.9425 105.5C48.5159 105.5 47.3025 104.287 47.3025 101.86C47.3025 99.4333 48.7959 96.7733 51.7825 93.88C54.8625 90.8933 57.8959 88.2333 60.8825 85.9C63.9625 83.5667 65.5025 81.8867 65.5025 80.86C65.5025 80.4867 65.1759 80.3 64.5225 80.3C62.3759 80.3 56.5425 83.0067 47.0225 88.42C37.5025 93.74 31.2959 97.66 28.4025 100.18L23.3625 104.38C22.9892 104.753 22.0559 104.94 20.5625 104.94C19.0692 104.94 18.3225 104.66 18.3225 104.1C18.3225 103.82 18.5092 103.447 18.8825 102.98C28.6825 91.9667 39.6492 80.44 51.7825 68.4C63.9159 56.36 75.7692 45.6267 87.3425 36.2C99.0092 26.68 106.943 21.92 111.143 21.92C113.383 21.92 114.503 22.62 114.503 24.02C114.503 27.0067 109.789 32.7933 100.363 41.38C91.0292 49.8733 80.5292 58.4133 68.8625 67C57.1959 75.5867 47.1625 82.4 38.7625 87.44C35.4959 91.1733 33.6292 93.5533 33.1625 94.58C33.5359 94.58 33.8159 94.5333 34.0025 94.44C39.9759 90.24 46.1825 86.5067 52.6225 83.24C59.0625 79.9733 63.1225 78.34 64.8025 78.34C66.4825 78.34 67.6025 78.6667 68.1625 79.32C68.8159 79.9733 69.1425 80.6733 69.1425 81.42C69.1425 83.66 67.6492 86.18 64.6625 88.98C61.7692 91.78 58.8292 94.3 55.8425 96.54C52.8559 98.78 51.3625 100.32 51.3625 101.16ZM105.697 78.48C105.697 77.7333 104.95 77.36 103.457 77.36C101.963 77.36 98.9301 78.8067 94.3568 81.7C89.7834 84.5 85.9101 87.5333 82.7368 90.8C88.9901 89.7733 94.3568 87.9067 98.8368 85.2C103.41 82.4 105.697 80.16 105.697 78.48ZM78.2568 98.22C78.2568 100.927 80.1234 102.28 83.8568 102.28C90.9501 102.28 99.7701 98.4533 110.317 90.8L110.597 92.9C99.5834 100.647 90.1568 104.52 82.3168 104.52C76.7168 104.52 73.9168 102.187 73.9168 97.52C73.9168 92.8533 77.3701 88 84.2768 82.96C91.2768 77.92 98.4634 75.4 105.837 75.4C108.17 75.4 109.337 76.1 109.337 77.5C109.337 79.74 106.723 82.4467 101.497 85.62C96.3634 88.7 89.5968 90.9867 81.1968 92.48C79.2368 94.72 78.2568 96.6333 78.2568 98.22Z" fill="black" fill-opacity="0.2"/>
<path d="M147.98 137L147.84 137.28C143.22 137.28 138.18 141.06 136.5 145.68L106.96 226.88L103.88 235H103.6L77.42 163.04L54.18 226.88L51.24 235H50.96L18.34 145.68C16.66 141.06 11.62 137.28 7.00004 137.28V137H29.82L29.96 137.28C25.34 137.28 22.96 141.06 24.64 145.68L54.04 226.46L77.28 162.62L71.12 145.68C69.44 141.06 64.4 137.28 59.78 137.28L59.64 137H82.6V137.28C78.12 137.28 75.74 141.06 77.42 145.68L106.82 226.46L136.22 145.68C137.9 141.06 135.52 137.28 130.9 137.28L131.04 137H147.98ZM215.786 206.72L216.066 206.86L209.066 234.86L208.926 235H151.526V234.86C156.006 234.86 159.786 231.08 159.786 226.46V145.68C159.786 141.06 156.006 137.28 151.526 137.28V137H204.726L209.486 155.76L209.206 155.9L207.526 149.46L209.206 155.9C206.546 145.68 195.766 137.28 185.966 137.28H165.946V178.72H182.186C188.486 178.72 193.526 173.68 193.526 167.38H193.806V190.48H193.526V190.34C193.526 184.04 188.486 179 182.186 179H165.946V234.86H180.506C200.246 234.86 211.726 222.26 215.786 206.72ZM261.894 137C286.954 137 307.254 158.98 307.254 186C307.254 213.16 286.954 235 261.894 235C261.894 235 261.894 235 261.754 235H225.354V234.86C229.834 234.86 233.614 231.08 233.614 226.46V145.68C233.614 141.06 229.834 137.28 225.354 137.28V137H261.754V137.14C261.894 137.14 261.894 137 261.894 137ZM261.754 234.86C280.234 234.86 301.234 212.88 301.234 186C301.234 159.26 280.234 137.28 261.754 137.28H239.774V234.86H261.754ZM354.043 137C379.103 137 399.403 158.98 399.403 186C399.403 213.16 379.103 235 354.043 235C354.043 235 354.043 235 353.903 235H317.503V234.86C321.983 234.86 325.763 231.08 325.763 226.46V145.68C325.763 141.06 321.983 137.28 317.503 137.28V137H353.903V137.14C354.043 137.14 354.043 137 354.043 137ZM353.903 234.86C372.383 234.86 393.383 212.88 393.383 186C393.383 159.26 372.383 137.28 353.903 137.28H331.923V234.86H353.903ZM432.331 137.28C428.131 137.28 424.631 140.64 424.071 144.84V227.3C424.631 231.5 428.131 234.86 432.331 234.86V235H409.651V234.86C414.131 234.86 417.911 231.08 417.911 226.46V145.68C417.911 141.06 414.131 137.28 409.651 137.28V137H432.331V137.28ZM526.187 137V137.28C521.707 137.28 517.927 141.06 517.927 145.68V235H517.647L450.867 143.3V226.46C450.867 231.08 454.507 234.86 459.127 234.86V235H442.327V234.86C446.807 234.86 450.587 231.08 450.587 226.46V145.68C450.587 141.06 446.807 137.28 442.327 137.28V137H452.547L517.647 226.46V145.68C517.647 141.06 513.867 137.28 509.387 137.28V137H526.187ZM603.235 186.14H626.055V186.28C621.575 186.28 617.795 190.06 617.795 194.68V235.14H611.495V221.28C603.375 229.82 592.315 235.14 580.135 235.14C579.995 235.14 579.995 235.14 579.995 235.14C579.855 235.14 579.855 235.14 579.855 235.14C554.795 235.14 534.635 213.16 534.635 186.14C534.635 158.98 554.795 137.14 579.855 137.14C579.855 137.14 579.995 137.14 580.135 137.14C588.535 137.14 596.375 139.52 603.095 143.86C603.235 143.86 603.235 144 603.235 144C603.935 144.42 604.495 144.7 605.055 145.12C610.935 149.04 617.375 151.28 617.515 144.28V144.14H617.795V172.28H617.515C615.555 165.14 612.195 158.7 607.855 153.24C600.155 143.58 589.795 137.28 579.995 137.28C561.515 137.28 540.515 159.26 540.515 186C540.515 212.88 561.515 234.86 579.995 234.86C591.335 234.86 603.795 226.32 611.495 213.58V194.68C611.495 190.06 607.855 186.28 603.235 186.28V186.14ZM36.12 270.28C31.92 270.28 28.42 273.64 27.86 277.84V360.3C28.42 364.5 31.92 367.86 36.12 367.86V368H13.44V367.86C17.92 367.86 21.7 364.08 21.7 359.46V278.68C21.7 274.06 17.92 270.28 13.44 270.28V270H36.12V270.28ZM113.176 288.76L113.036 288.9C110.376 278.68 99.4558 270.28 89.7958 270.28H81.2558V360.3C81.8158 364.5 85.3158 367.86 89.5158 367.86V368.14H66.6958V367.86C71.3158 367.86 75.0958 364.08 75.0958 359.46V270.28H66.5558C56.8958 270.28 45.9758 278.68 43.3158 288.9L43.1758 288.76L47.9358 270H108.416L113.176 288.76ZM142.897 270.28C138.697 270.28 135.197 273.64 134.637 277.84V360.3C135.197 364.5 138.697 367.86 142.897 367.86V368H120.217V367.86C124.697 367.86 128.477 364.08 128.477 359.46V278.68C128.477 274.06 124.697 270.28 120.217 270.28V270H142.897V270.28ZM236.753 270V270.28C232.273 270.28 228.493 274.06 228.493 278.68V368H228.213L161.433 276.3V359.46C161.433 364.08 165.073 367.86 169.693 367.86V368H152.893V367.86C157.373 367.86 161.153 364.08 161.153 359.46V278.68C161.153 274.06 157.373 270.28 152.893 270.28V270H163.113L228.213 359.46V278.68C228.213 274.06 224.433 270.28 219.953 270.28V270H236.753ZM309.028 339.72L309.308 339.86L302.308 367.86L302.168 368H244.768V367.86C249.248 367.86 253.028 364.08 253.028 359.46V278.68C253.028 274.06 249.248 270.28 244.768 270.28V270H297.968L302.728 288.76L302.448 288.9L300.768 282.46L302.448 288.9C299.788 278.68 289.008 270.28 279.208 270.28H259.188V311.72H275.428C281.728 311.72 286.768 306.68 286.768 300.38H287.048V323.48H286.768V323.34C286.768 317.04 281.728 312 275.428 312H259.188V367.86H273.748C293.488 367.86 304.968 355.26 309.028 339.72ZM373.056 355.12C373.056 362.12 378.656 367.58 385.656 367.86V368C385.516 368 384.536 368 384.396 368C374.736 368 367.036 360.3 367.036 350.78V346.3C367.036 339.3 361.436 333.56 354.436 333.42H332.876V359.46C332.876 364.08 336.656 367.86 341.276 367.86V368H318.456V367.86C322.936 367.86 326.716 364.08 326.716 359.46V278.68C326.716 274.06 322.936 270.28 318.456 270.28V270H346.596C362.696 270 375.716 284.14 375.716 301.64C375.716 317.74 364.796 331.04 350.376 333.14H355.696C365.356 333.14 373.056 341.12 373.056 350.78V355.12ZM332.876 333.14H346.456C358.356 333.14 369.836 318.86 369.836 301.64C369.836 284.42 358.356 270.28 346.456 270.28H332.876V333.14ZM477.525 367.86V368H454.565V367.86C459.185 367.86 461.565 364.08 459.885 359.46L445.185 319.14H415.225L400.525 359.46C398.985 364.08 401.225 367.86 405.845 367.86V368H389.045V367.86C393.525 367.86 398.705 364.08 400.385 359.46L430.065 277.7C428.105 273.5 423.345 270.28 419.145 270.28V270H433.565L466.185 359.46C467.725 364.08 472.905 367.86 477.525 367.86ZM415.365 319H445.185L430.485 278.68C430.345 278.4 430.345 278.26 430.205 278.12L415.365 319ZM537.666 355.12C537.666 362.12 543.266 367.58 550.266 367.86V368C550.126 368 549.146 368 549.006 368C539.346 368 531.646 360.3 531.646 350.78V346.3C531.646 339.3 526.046 333.56 519.046 333.42H497.486V359.46C497.486 364.08 501.266 367.86 505.886 367.86V368H483.066V367.86C487.546 367.86 491.326 364.08 491.326 359.46V278.68C491.326 274.06 487.546 270.28 483.066 270.28V270H511.206C527.306 270 540.326 284.14 540.326 301.64C540.326 317.74 529.406 331.04 514.986 333.14H520.306C529.966 333.14 537.666 341.12 537.666 350.78V355.12ZM497.486 333.14H511.066C522.966 333.14 534.446 318.86 534.446 301.64C534.446 284.42 522.966 270.28 511.066 270.28H497.486V333.14ZM618.137 270L617.997 270.28C613.377 270.28 607.497 274.06 604.837 278.68L582.997 316.48V359.46C582.997 364.08 586.637 367.86 591.257 367.86V368H568.437V367.86C573.057 367.86 576.697 364.08 576.697 359.46V316.48L554.857 278.68C552.197 274.06 546.317 270.28 541.837 270.28L541.697 270H564.517L564.657 270.28C560.037 270.28 558.497 274.06 561.157 278.68L582.857 316.2L604.557 278.68C607.217 274.06 605.677 270.28 601.057 270.28L601.197 270H618.137ZM618.89 371.78C616.09 371.78 613.99 369.68 613.99 366.88C613.99 364.08 616.09 361.98 618.89 361.98C621.69 361.98 623.79 364.08 623.79 366.88C623.79 369.68 621.69 371.78 618.89 371.78Z" fill="#5F171D"/>
<path d="M47.9084 432L42.7384 418.426H43.3544L38.2064 432H36.5564L42.5184 417.524H43.9044L49.6464 432H47.9084ZM39.1744 427.028L39.6364 425.73H46.1484L46.8524 427.028H39.1744ZM64.733 428.502C64.733 427.974 64.6084 427.527 64.359 427.16C64.1097 426.793 63.7724 426.478 63.347 426.214C62.9364 425.935 62.4817 425.686 61.983 425.466C61.4844 425.231 60.9857 424.989 60.487 424.74C59.9884 424.491 59.5264 424.212 59.101 423.904C58.6904 423.596 58.3604 423.229 58.111 422.804C57.8617 422.364 57.737 421.836 57.737 421.22C57.737 420.413 57.9277 419.724 58.309 419.152C58.6904 418.565 59.2184 418.118 59.893 417.81C60.5677 417.487 61.3377 417.326 62.203 417.326C62.819 417.326 63.4497 417.407 64.095 417.568C64.7404 417.715 65.3124 417.942 65.811 418.25L65.217 419.702C64.777 419.335 64.2564 419.049 63.655 418.844C63.0684 418.639 62.489 418.536 61.917 418.536C61.3157 418.536 60.8097 418.646 60.399 418.866C60.003 419.086 59.7097 419.372 59.519 419.724C59.3284 420.061 59.233 420.435 59.233 420.846C59.233 421.301 59.3577 421.697 59.607 422.034C59.871 422.357 60.2084 422.643 60.619 422.892C61.0444 423.141 61.5064 423.383 62.005 423.618C62.5037 423.838 63.0024 424.08 63.501 424.344C63.9997 424.593 64.4544 424.887 64.865 425.224C65.2904 425.561 65.6277 425.965 65.877 426.434C66.141 426.903 66.273 427.461 66.273 428.106C66.273 428.971 66.0677 429.712 65.657 430.328C65.2464 430.944 64.6817 431.413 63.963 431.736C63.259 432.059 62.4524 432.22 61.543 432.22C60.6337 432.22 59.783 432.088 58.991 431.824C58.2137 431.545 57.5684 431.179 57.055 430.724L57.869 429.382C58.397 429.881 59.013 430.269 59.717 430.548C60.421 430.827 61.1324 430.966 61.851 430.966C62.7604 430.966 63.4644 430.746 63.963 430.306C64.4764 429.851 64.733 429.25 64.733 428.502ZM79.0212 432H69.8912V417.524H78.3392V418.822H71.4752V430.702H79.0212V432ZM70.4412 425.29V424.036H77.5032V425.29H70.4412ZM82.6314 432V417.524H86.5474C87.5447 417.524 88.4027 417.671 89.1214 417.964C89.8547 418.257 90.4194 418.675 90.8154 419.218C91.2114 419.761 91.4094 420.413 91.4094 421.176C91.4094 421.792 91.2627 422.379 90.9694 422.936C90.6907 423.493 90.3094 423.992 89.8254 424.432C89.3414 424.857 88.7841 425.195 88.1534 425.444C87.5374 425.693 86.8847 425.818 86.1954 425.818H83.2474V424.63H86.3934C86.9947 424.63 87.5447 424.483 88.0434 424.19C88.5567 423.897 88.9674 423.508 89.2754 423.024C89.5981 422.525 89.7594 421.997 89.7594 421.44C89.7594 420.604 89.4734 419.944 88.9014 419.46C88.3294 418.976 87.5007 418.734 86.4154 418.734H84.2154V432H82.6314ZM93.6754 432.198C93.0887 432.198 92.5607 432.11 92.0914 431.934C91.6367 431.743 91.1894 431.443 90.7494 431.032C90.3241 430.607 89.8621 430.042 89.3634 429.338L86.5694 425.378L87.8674 424.916L90.9034 428.766C91.3727 429.353 91.7907 429.815 92.1574 430.152C92.5241 430.475 92.8687 430.702 93.1914 430.834C93.5287 430.966 93.8661 431.032 94.2034 431.032C94.3354 431.032 94.4967 431.025 94.6874 431.01C94.8781 430.995 95.0687 430.959 95.2594 430.9L95.5894 431.846C95.2227 431.978 94.8854 432.066 94.5774 432.11C94.2694 432.169 93.9687 432.198 93.6754 432.198ZM97.6526 432V417.524H99.3466V432H97.6526ZM113.418 432H104.288V417.524H112.736V418.822H105.872V430.702H113.418V432ZM104.838 425.29V424.036H111.9V425.29H104.838ZM123.364 428.502C123.364 427.974 123.239 427.527 122.99 427.16C122.741 426.793 122.403 426.478 121.978 426.214C121.567 425.935 121.113 425.686 120.614 425.466C120.115 425.231 119.617 424.989 119.118 424.74C118.619 424.491 118.157 424.212 117.732 423.904C117.321 423.596 116.991 423.229 116.742 422.804C116.493 422.364 116.368 421.836 116.368 421.22C116.368 420.413 116.559 419.724 116.94 419.152C117.321 418.565 117.849 418.118 118.524 417.81C119.199 417.487 119.969 417.326 120.834 417.326C121.45 417.326 122.081 417.407 122.726 417.568C123.371 417.715 123.943 417.942 124.442 418.25L123.848 419.702C123.408 419.335 122.887 419.049 122.286 418.844C121.699 418.639 121.12 418.536 120.548 418.536C119.947 418.536 119.441 418.646 119.03 418.866C118.634 419.086 118.341 419.372 118.15 419.724C117.959 420.061 117.864 420.435 117.864 420.846C117.864 421.301 117.989 421.697 118.238 422.034C118.502 422.357 118.839 422.643 119.25 422.892C119.675 423.141 120.137 423.383 120.636 423.618C121.135 423.838 121.633 424.08 122.132 424.344C122.631 424.593 123.085 424.887 123.496 425.224C123.921 425.561 124.259 425.965 124.508 426.434C124.772 426.903 124.904 427.461 124.904 428.106C124.904 428.971 124.699 429.712 124.288 430.328C123.877 430.944 123.313 431.413 122.594 431.736C121.89 432.059 121.083 432.22 120.174 432.22C119.265 432.22 118.414 432.088 117.622 431.824C116.845 431.545 116.199 431.179 115.686 430.724L116.5 429.382C117.028 429.881 117.644 430.269 118.348 430.548C119.052 430.827 119.763 430.966 120.482 430.966C121.391 430.966 122.095 430.746 122.594 430.306C123.107 429.851 123.364 429.25 123.364 428.502ZM140.118 432.198C138.71 432.198 137.449 431.883 136.334 431.252C135.234 430.621 134.369 429.749 133.738 428.634C133.107 427.519 132.792 426.251 132.792 424.828C132.792 423.713 132.983 422.694 133.364 421.77C133.76 420.846 134.303 420.054 134.992 419.394C135.696 418.734 136.503 418.228 137.412 417.876C138.336 417.509 139.326 417.326 140.382 417.326C141.79 417.326 143.044 417.641 144.144 418.272C145.244 418.903 146.109 419.775 146.74 420.89C147.371 421.99 147.686 423.259 147.686 424.696C147.686 425.811 147.488 426.83 147.092 427.754C146.711 428.678 146.175 429.47 145.486 430.13C144.797 430.79 143.99 431.303 143.066 431.67C142.157 432.022 141.174 432.198 140.118 432.198ZM140.404 431.01C141.504 431.01 142.472 430.753 143.308 430.24C144.144 429.727 144.789 429.015 145.244 428.106C145.713 427.182 145.948 426.126 145.948 424.938C145.948 423.647 145.691 422.525 145.178 421.572C144.665 420.604 143.961 419.856 143.066 419.328C142.186 418.785 141.189 418.514 140.074 418.514C139.003 418.514 138.05 418.771 137.214 419.284C136.393 419.797 135.747 420.509 135.278 421.418C134.809 422.327 134.574 423.383 134.574 424.586C134.574 425.862 134.831 426.984 135.344 427.952C135.857 428.92 136.554 429.675 137.434 430.218C138.329 430.746 139.319 431.01 140.404 431.01ZM151.338 432V417.524H159.83V418.822H152.966V432H151.338ZM151.888 425.796V424.498H158.994V425.796H151.888ZM174.991 428.502C174.991 427.974 174.866 427.527 174.617 427.16C174.368 426.793 174.03 426.478 173.605 426.214C173.194 425.935 172.74 425.686 172.241 425.466C171.742 425.231 171.244 424.989 170.745 424.74C170.246 424.491 169.784 424.212 169.359 423.904C168.948 423.596 168.618 423.229 168.369 422.804C168.12 422.364 167.995 421.836 167.995 421.22C167.995 420.413 168.186 419.724 168.567 419.152C168.948 418.565 169.476 418.118 170.151 417.81C170.826 417.487 171.596 417.326 172.461 417.326C173.077 417.326 173.708 417.407 174.353 417.568C174.998 417.715 175.57 417.942 176.069 418.25L175.475 419.702C175.035 419.335 174.514 419.049 173.913 418.844C173.326 418.639 172.747 418.536 172.175 418.536C171.574 418.536 171.068 418.646 170.657 418.866C170.261 419.086 169.968 419.372 169.777 419.724C169.586 420.061 169.491 420.435 169.491 420.846C169.491 421.301 169.616 421.697 169.865 422.034C170.129 422.357 170.466 422.643 170.877 422.892C171.302 423.141 171.764 423.383 172.263 423.618C172.762 423.838 173.26 424.08 173.759 424.344C174.258 424.593 174.712 424.887 175.123 425.224C175.548 425.561 175.886 425.965 176.135 426.434C176.399 426.903 176.531 427.461 176.531 428.106C176.531 428.971 176.326 429.712 175.915 430.328C175.504 430.944 174.94 431.413 174.221 431.736C173.517 432.059 172.71 432.22 171.801 432.22C170.892 432.22 170.041 432.088 169.249 431.824C168.472 431.545 167.826 431.179 167.313 430.724L168.127 429.382C168.655 429.881 169.271 430.269 169.975 430.548C170.679 430.827 171.39 430.966 172.109 430.966C173.018 430.966 173.722 430.746 174.221 430.306C174.734 429.851 174.991 429.25 174.991 428.502ZM190.049 432L184.879 418.426H185.495L180.347 432H178.697L184.659 417.524H186.045L191.787 432H190.049ZM181.315 427.028L181.777 425.73H188.289L188.993 427.028H181.315ZM201.351 432.198C199.884 432.198 198.586 431.897 197.457 431.296C196.342 430.68 195.47 429.829 194.839 428.744C194.223 427.644 193.915 426.368 193.915 424.916C193.915 423.772 194.106 422.738 194.487 421.814C194.868 420.875 195.404 420.076 196.093 419.416C196.797 418.741 197.611 418.228 198.535 417.876C199.474 417.509 200.493 417.326 201.593 417.326C202.4 417.326 203.177 417.429 203.925 417.634C204.673 417.839 205.377 418.14 206.037 418.536L205.267 419.966C204.636 419.497 203.998 419.145 203.353 418.91C202.708 418.661 202.004 418.536 201.241 418.536C200.112 418.536 199.129 418.793 198.293 419.306C197.457 419.819 196.804 420.538 196.335 421.462C195.88 422.371 195.653 423.435 195.653 424.652C195.653 425.928 195.91 427.043 196.423 427.996C196.951 428.949 197.655 429.69 198.535 430.218C199.415 430.746 200.398 431.01 201.483 431.01C202.304 431.01 203.052 430.871 203.727 430.592C204.402 430.313 205.01 429.932 205.553 429.448L206.257 430.724C205.524 431.208 204.754 431.575 203.947 431.824C203.14 432.073 202.275 432.198 201.351 432.198ZM209.432 432V417.524H213.348C214.346 417.524 215.204 417.671 215.922 417.964C216.656 418.257 217.22 418.675 217.616 419.218C218.012 419.761 218.21 420.413 218.21 421.176C218.21 421.792 218.064 422.379 217.77 422.936C217.492 423.493 217.11 423.992 216.626 424.432C216.142 424.857 215.585 425.195 214.954 425.444C214.338 425.693 213.686 425.818 212.996 425.818H210.048V424.63H213.194C213.796 424.63 214.346 424.483 214.844 424.19C215.358 423.897 215.768 423.508 216.076 423.024C216.399 422.525 216.56 421.997 216.56 421.44C216.56 420.604 216.274 419.944 215.702 419.46C215.13 418.976 214.302 418.734 213.216 418.734H211.016V432H209.432ZM220.476 432.198C219.89 432.198 219.362 432.11 218.892 431.934C218.438 431.743 217.99 431.443 217.55 431.032C217.125 430.607 216.663 430.042 216.164 429.338L213.37 425.378L214.668 424.916L217.704 428.766C218.174 429.353 218.592 429.815 218.958 430.152C219.325 430.475 219.67 430.702 219.992 430.834C220.33 430.966 220.667 431.032 221.004 431.032C221.136 431.032 221.298 431.025 221.488 431.01C221.679 430.995 221.87 430.959 222.06 430.9L222.39 431.846C222.024 431.978 221.686 432.066 221.378 432.11C221.07 432.169 220.77 432.198 220.476 432.198ZM233.429 432H224.299V417.524H232.747V418.822H225.883V430.702H233.429V432ZM224.849 425.29V424.036H231.911V425.29H224.849ZM237.04 432V417.524H241.528C242.745 417.524 243.852 417.685 244.85 418.008C245.847 418.331 246.705 418.8 247.424 419.416C248.142 420.032 248.692 420.773 249.074 421.638C249.455 422.503 249.646 423.471 249.646 424.542C249.646 425.466 249.492 426.375 249.184 427.27C248.876 428.165 248.392 428.971 247.732 429.69C247.072 430.394 246.221 430.959 245.18 431.384C244.138 431.795 242.906 432 241.484 432H237.04ZM238.668 430.812H241.616C242.76 430.812 243.728 430.651 244.52 430.328C245.326 430.005 245.979 429.565 246.478 429.008C246.991 428.436 247.358 427.798 247.578 427.094C247.812 426.375 247.93 425.613 247.93 424.806C247.93 423.691 247.688 422.679 247.204 421.77C246.734 420.846 246.008 420.113 245.026 419.57C244.043 419.013 242.796 418.734 241.286 418.734H238.668V430.812ZM265.009 432.198C263.543 432.198 262.245 431.897 261.115 431.296C260.001 430.68 259.128 429.829 258.497 428.744C257.881 427.644 257.573 426.368 257.573 424.916C257.573 423.772 257.764 422.738 258.145 421.814C258.527 420.875 259.062 420.076 259.751 419.416C260.455 418.741 261.269 418.228 262.193 417.876C263.132 417.509 264.151 417.326 265.251 417.326C266.058 417.326 266.835 417.429 267.583 417.634C268.331 417.839 269.035 418.14 269.695 418.536L268.925 419.966C268.295 419.497 267.657 419.145 267.011 418.91C266.366 418.661 265.662 418.536 264.899 418.536C263.77 418.536 262.787 418.793 261.951 419.306C261.115 419.819 260.463 420.538 259.993 421.462C259.539 422.371 259.311 423.435 259.311 424.652C259.311 425.928 259.568 427.043 260.081 427.996C260.609 428.949 261.313 429.69 262.193 430.218C263.073 430.746 264.056 431.01 265.141 431.01C265.963 431.01 266.711 430.871 267.385 430.592C268.06 430.313 268.669 429.932 269.211 429.448L269.915 430.724C269.182 431.208 268.412 431.575 267.605 431.824C266.799 432.073 265.933 432.198 265.009 432.198ZM282.22 432H273.09V417.524H281.538V418.822H274.674V430.702H282.22V432ZM273.64 425.29V424.036H280.702V425.29H273.64ZM285.831 432V417.524H289.747C290.744 417.524 291.602 417.671 292.321 417.964C293.054 418.257 293.619 418.675 294.015 419.218C294.411 419.761 294.609 420.413 294.609 421.176C294.609 421.792 294.462 422.379 294.169 422.936C293.89 423.493 293.509 423.992 293.025 424.432C292.541 424.857 291.983 425.195 291.353 425.444C290.737 425.693 290.084 425.818 289.395 425.818H286.447V424.63H289.593C290.194 424.63 290.744 424.483 291.243 424.19C291.756 423.897 292.167 423.508 292.475 423.024C292.797 422.525 292.959 421.997 292.959 421.44C292.959 420.604 292.673 419.944 292.101 419.46C291.529 418.976 290.7 418.734 289.615 418.734H287.415V432H285.831ZM296.875 432.198C296.288 432.198 295.76 432.11 295.291 431.934C294.836 431.743 294.389 431.443 293.949 431.032C293.523 430.607 293.061 430.042 292.563 429.338L289.769 425.378L291.067 424.916L294.103 428.766C294.572 429.353 294.99 429.815 295.357 430.152C295.723 430.475 296.068 430.702 296.391 430.834C296.728 430.966 297.065 431.032 297.403 431.032C297.535 431.032 297.696 431.025 297.887 431.01C298.077 430.995 298.268 430.959 298.459 430.9L298.789 431.846C298.422 431.978 298.085 432.066 297.777 432.11C297.469 432.169 297.168 432.198 296.875 432.198ZM309.828 432H300.698V417.524H309.146V418.822H302.282V430.702H309.828V432ZM301.248 425.29V424.036H308.31V425.29H301.248ZM327.474 432L326.858 418.272L327.606 418.008L321.556 430.768H320.566L314.736 418.646L314.758 417.524H315.902L321.534 429.14H321.028L326.528 417.524H328.244L329.102 432H327.474ZM313.108 432L314.054 417.524H315.242L314.604 432H313.108ZM339.751 432.198C338.343 432.198 337.082 431.883 335.967 431.252C334.867 430.621 334.002 429.749 333.371 428.634C332.74 427.519 332.425 426.251 332.425 424.828C332.425 423.713 332.616 422.694 332.997 421.77C333.393 420.846 333.936 420.054 334.625 419.394C335.329 418.734 336.136 418.228 337.045 417.876C337.969 417.509 338.959 417.326 340.015 417.326C341.423 417.326 342.677 417.641 343.777 418.272C344.877 418.903 345.742 419.775 346.373 420.89C347.004 421.99 347.319 423.259 347.319 424.696C347.319 425.811 347.121 426.83 346.725 427.754C346.344 428.678 345.808 429.47 345.119 430.13C344.43 430.79 343.623 431.303 342.699 431.67C341.79 432.022 340.807 432.198 339.751 432.198ZM340.037 431.01C341.137 431.01 342.105 430.753 342.941 430.24C343.777 429.727 344.422 429.015 344.877 428.106C345.346 427.182 345.581 426.126 345.581 424.938C345.581 423.647 345.324 422.525 344.811 421.572C344.298 420.604 343.594 419.856 342.699 419.328C341.819 418.785 340.822 418.514 339.707 418.514C338.636 418.514 337.683 418.771 336.847 419.284C336.026 419.797 335.38 420.509 334.911 421.418C334.442 422.327 334.207 423.383 334.207 424.586C334.207 425.862 334.464 426.984 334.977 427.952C335.49 428.92 336.187 429.675 337.067 430.218C337.962 430.746 338.952 431.01 340.037 431.01ZM350.971 432V417.524H352.225L352.445 432H350.971ZM362.499 432H361.817L351.521 418.602L351.543 417.524H352.621L362.455 430.218L362.499 432ZM363.181 417.524V432H361.905L361.707 417.524H363.181ZM368.141 432V417.524H369.835V432H368.141ZM383.906 432H374.776V417.524H383.224V418.822H376.36V430.702H383.906V432ZM375.326 425.29V424.036H382.388V425.29H375.326ZM393.852 428.502C393.852 427.974 393.727 427.527 393.478 427.16C393.229 426.793 392.891 426.478 392.466 426.214C392.055 425.935 391.601 425.686 391.102 425.466C390.603 425.231 390.105 424.989 389.606 424.74C389.107 424.491 388.645 424.212 388.22 423.904C387.809 423.596 387.479 423.229 387.23 422.804C386.981 422.364 386.856 421.836 386.856 421.22C386.856 420.413 387.047 419.724 387.428 419.152C387.809 418.565 388.337 418.118 389.012 417.81C389.687 417.487 390.457 417.326 391.322 417.326C391.938 417.326 392.569 417.407 393.214 417.568C393.859 417.715 394.431 417.942 394.93 418.25L394.336 419.702C393.896 419.335 393.375 419.049 392.774 418.844C392.187 418.639 391.608 418.536 391.036 418.536C390.435 418.536 389.929 418.646 389.518 418.866C389.122 419.086 388.829 419.372 388.638 419.724C388.447 420.061 388.352 420.435 388.352 420.846C388.352 421.301 388.477 421.697 388.726 422.034C388.99 422.357 389.327 422.643 389.738 422.892C390.163 423.141 390.625 423.383 391.124 423.618C391.623 423.838 392.121 424.08 392.62 424.344C393.119 424.593 393.573 424.887 393.984 425.224C394.409 425.561 394.747 425.965 394.996 426.434C395.26 426.903 395.392 427.461 395.392 428.106C395.392 428.971 395.187 429.712 394.776 430.328C394.365 430.944 393.801 431.413 393.082 431.736C392.378 432.059 391.571 432.22 390.662 432.22C389.753 432.22 388.902 432.088 388.11 431.824C387.333 431.545 386.687 431.179 386.174 430.724L386.988 429.382C387.516 429.881 388.132 430.269 388.836 430.548C389.54 430.827 390.251 430.966 390.97 430.966C391.879 430.966 392.583 430.746 393.082 430.306C393.595 429.851 393.852 429.25 393.852 428.502ZM414.324 432L409.154 418.426H409.77L404.622 432H402.972L408.934 417.524H410.32L416.062 432H414.324ZM405.59 427.028L406.052 425.73H412.564L413.268 427.028H405.59ZM419.399 432V417.524H420.653L420.873 432H419.399ZM430.927 432H430.245L419.949 418.602L419.971 417.524H421.049L430.883 430.218L430.927 432ZM431.609 417.524V432H430.333L430.135 417.524H431.609ZM436.415 432V417.524H440.903C442.12 417.524 443.227 417.685 444.225 418.008C445.222 418.331 446.08 418.8 446.799 419.416C447.517 420.032 448.067 420.773 448.449 421.638C448.83 422.503 449.021 423.471 449.021 424.542C449.021 425.466 448.867 426.375 448.559 427.27C448.251 428.165 447.767 428.971 447.107 429.69C446.447 430.394 445.596 430.959 444.555 431.384C443.513 431.795 442.281 432 440.859 432H436.415ZM438.043 430.812H440.991C442.135 430.812 443.103 430.651 443.895 430.328C444.701 430.005 445.354 429.565 445.853 429.008C446.366 428.436 446.733 427.798 446.953 427.094C447.187 426.375 447.305 425.613 447.305 424.806C447.305 423.691 447.063 422.679 446.579 421.77C446.109 420.846 445.383 420.113 444.401 419.57C443.418 419.013 442.171 418.734 440.661 418.734H438.043V430.812ZM458.576 430.966V417.524H460.204V430.966C460.204 431.817 460.102 432.55 459.896 433.166C459.706 433.782 459.427 434.303 459.06 434.728C458.694 435.168 458.254 435.527 457.74 435.806C457.227 436.099 456.662 436.327 456.046 436.488L455.628 435.542C456.259 435.307 456.794 435.007 457.234 434.64C457.674 434.273 458.004 433.797 458.224 433.21C458.459 432.623 458.576 431.875 458.576 430.966ZM471.257 432.198C469.849 432.198 468.587 431.883 467.473 431.252C466.373 430.621 465.507 429.749 464.877 428.634C464.246 427.519 463.931 426.251 463.931 424.828C463.931 423.713 464.121 422.694 464.503 421.77C464.899 420.846 465.441 420.054 466.131 419.394C466.835 418.734 467.641 418.228 468.551 417.876C469.475 417.509 470.465 417.326 471.521 417.326C472.929 417.326 474.183 417.641 475.283 418.272C476.383 418.903 477.248 419.775 477.879 420.89C478.509 421.99 478.825 423.259 478.825 424.696C478.825 425.811 478.627 426.83 478.231 427.754C477.849 428.678 477.314 429.47 476.625 430.13C475.935 430.79 475.129 431.303 474.205 431.67C473.295 432.022 472.313 432.198 471.257 432.198ZM471.543 431.01C472.643 431.01 473.611 430.753 474.447 430.24C475.283 429.727 475.928 429.015 476.383 428.106C476.852 427.182 477.087 426.126 477.087 424.938C477.087 423.647 476.83 422.525 476.317 421.572C475.803 420.604 475.099 419.856 474.205 419.328C473.325 418.785 472.327 418.514 471.213 418.514C470.142 418.514 469.189 418.771 468.353 419.284C467.531 419.797 466.886 420.509 466.417 421.418C465.947 422.327 465.713 423.383 465.713 424.586C465.713 425.862 465.969 426.984 466.483 427.952C466.996 428.92 467.693 429.675 468.573 430.218C469.467 430.746 470.457 431.01 471.543 431.01ZM486.224 426.544L480.372 417.524H482.374L487.302 425.576L486.224 426.544ZM485.894 432V425.554H487.544V432H485.894ZM487.258 426.478L486.356 425.576L491.35 417.524H493.088L487.258 426.478ZM496.077 432V417.524H504.569V418.822H497.705V432H496.077ZM496.627 425.796V424.498H503.733V425.796H496.627ZM513.545 432.198C512.372 432.198 511.338 431.956 510.443 431.472C509.563 430.988 508.874 430.306 508.375 429.426C507.891 428.546 507.649 427.505 507.649 426.302V417.524H509.277V425.972C509.277 426.984 509.46 427.857 509.827 428.59C510.194 429.323 510.722 429.888 511.411 430.284C512.1 430.68 512.907 430.878 513.831 430.878C514.74 430.878 515.518 430.695 516.163 430.328C516.823 429.947 517.329 429.411 517.681 428.722C518.033 428.033 518.209 427.241 518.209 426.346V417.524H519.639V425.994C519.639 427.241 519.382 428.333 518.869 429.272C518.37 430.196 517.666 430.915 516.757 431.428C515.848 431.941 514.777 432.198 513.545 432.198ZM524.049 432V417.524H525.677V432H524.049ZM524.599 432V430.702H533.201V432H524.599ZM17.23 462.198C15.7634 462.198 14.4654 461.897 13.336 461.296C12.2214 460.68 11.3487 459.829 10.718 458.744C10.102 457.644 9.79404 456.368 9.79404 454.916C9.79404 453.772 9.98471 452.738 10.366 451.814C10.7474 450.875 11.2827 450.076 11.972 449.416C12.676 448.741 13.49 448.228 14.414 447.876C15.3527 447.509 16.372 447.326 17.472 447.326C18.2787 447.326 19.056 447.429 19.804 447.634C20.552 447.839 21.256 448.14 21.916 448.536L21.146 449.966C20.5154 449.497 19.8774 449.145 19.232 448.91C18.5867 448.661 17.8827 448.536 17.12 448.536C15.9907 448.536 15.008 448.793 14.172 449.306C13.336 449.819 12.6834 450.538 12.214 451.462C11.7594 452.371 11.532 453.435 11.532 454.652C11.532 455.928 11.7887 457.043 12.302 457.996C12.83 458.949 13.534 459.69 14.414 460.218C15.294 460.746 16.2767 461.01 17.362 461.01C18.1834 461.01 18.9314 460.871 19.606 460.592C20.2807 460.313 20.8894 459.932 21.432 459.448L22.136 460.724C21.4027 461.208 20.6327 461.575 19.826 461.824C19.0194 462.073 18.154 462.198 17.23 462.198ZM34.4411 462H25.3111V447.524H33.7591V448.822H26.8951V460.702H34.4411V462ZM25.8611 455.29V454.036H32.9231V455.29H25.8611ZM38.0513 462V447.524H39.6793V462H38.0513ZM38.6013 462V460.702H47.2033V462H38.6013ZM59.2555 462H50.1255V447.524H58.5735V448.822H51.7095V460.702H59.2555V462ZM50.6755 455.29V454.036H57.7375V455.29H50.6755ZM66.8918 454.916L67.1338 453.992C68.1458 453.992 69.0331 454.153 69.7958 454.476C70.5584 454.799 71.1524 455.253 71.5778 455.84C72.0031 456.412 72.2158 457.101 72.2158 457.908C72.2158 458.715 72.0031 459.426 71.5778 460.042C71.1524 460.643 70.5438 461.12 69.7518 461.472C68.9744 461.824 68.0504 462 66.9798 462H62.8658V447.524H66.8918C67.8011 447.524 68.5784 447.663 69.2238 447.942C69.8691 448.221 70.3678 448.624 70.7198 449.152C71.0864 449.665 71.2698 450.281 71.2698 451C71.2698 451.543 71.1598 452.056 70.9398 452.54C70.7198 453.009 70.4118 453.427 70.0158 453.794C69.6198 454.146 69.1578 454.425 68.6298 454.63C68.1018 454.821 67.5224 454.916 66.8918 454.916ZM63.8778 453.882H67.0458C67.8524 453.882 68.5051 453.647 69.0038 453.178C69.5171 452.694 69.7738 452.063 69.7738 451.286C69.7738 450.538 69.5244 449.922 69.0258 449.438C68.5418 448.954 67.7424 448.712 66.6278 448.712H64.4058V460.812H67.2218C68.3071 460.812 69.1431 460.548 69.7298 460.02C70.3164 459.492 70.6098 458.788 70.6098 457.908C70.6098 457.013 70.2871 456.309 69.6418 455.796C69.0111 455.283 68.0578 455.026 66.7818 455.026H63.8778V453.882ZM75.7134 462V447.524H79.6514C80.6341 447.524 81.4774 447.671 82.1814 447.964C82.9001 448.257 83.4501 448.683 83.8314 449.24C84.2274 449.783 84.4254 450.457 84.4254 451.264C84.4254 451.909 84.2934 452.511 84.0294 453.068C83.7801 453.625 83.4281 454.109 82.9734 454.52C82.5188 454.931 81.9761 455.253 81.3454 455.488C80.7294 455.708 80.0401 455.818 79.2774 455.818H76.3514V454.63H79.4754C80.4728 454.63 81.2721 454.344 81.8734 453.772C82.4894 453.185 82.7974 452.437 82.7974 451.528C82.7974 450.633 82.5114 449.944 81.9394 449.46C81.3821 448.976 80.5754 448.734 79.5194 448.734H77.2974V462H75.7134ZM84.0954 462L79.6514 455.378L80.9714 454.894L86.1194 462H84.0954ZM99.1271 462L93.9571 448.426H94.5731L89.4251 462H87.7751L93.7371 447.524H95.1231L100.865 462H99.1271ZM90.3931 457.028L90.8551 455.73H97.3671L98.0711 457.028H90.3931ZM106.243 462V447.524H107.915V462H106.243ZM100.765 448.822V447.524H113.393V448.822H100.765ZM116.537 462V447.524H118.231V462H116.537ZM129.354 462.198C127.946 462.198 126.685 461.883 125.57 461.252C124.47 460.621 123.605 459.749 122.974 458.634C122.344 457.519 122.028 456.251 122.028 454.828C122.028 453.713 122.219 452.694 122.6 451.77C122.996 450.846 123.539 450.054 124.228 449.394C124.932 448.734 125.739 448.228 126.648 447.876C127.572 447.509 128.562 447.326 129.618 447.326C131.026 447.326 132.28 447.641 133.38 448.272C134.48 448.903 135.346 449.775 135.976 450.89C136.607 451.99 136.922 453.259 136.922 454.696C136.922 455.811 136.724 456.83 136.328 457.754C135.947 458.678 135.412 459.47 134.722 460.13C134.033 460.79 133.226 461.303 132.302 461.67C131.393 462.022 130.41 462.198 129.354 462.198ZM129.64 461.01C130.74 461.01 131.708 460.753 132.544 460.24C133.38 459.727 134.026 459.015 134.48 458.106C134.95 457.182 135.184 456.126 135.184 454.938C135.184 453.647 134.928 452.525 134.414 451.572C133.901 450.604 133.197 449.856 132.302 449.328C131.422 448.785 130.425 448.514 129.31 448.514C128.24 448.514 127.286 448.771 126.45 449.284C125.629 449.797 124.984 450.509 124.514 451.418C124.045 452.327 123.81 453.383 123.81 454.586C123.81 455.862 124.067 456.984 124.58 457.952C125.094 458.92 125.79 459.675 126.67 460.218C127.565 460.746 128.555 461.01 129.64 461.01ZM140.575 462V447.524H141.829L142.049 462H140.575ZM152.103 462H151.421L141.125 448.602L141.147 447.524H142.225L152.059 460.218L152.103 462ZM152.785 447.524V462H151.509L151.311 447.524H152.785ZM163.926 458.502C163.926 457.974 163.802 457.527 163.552 457.16C163.303 456.793 162.966 456.478 162.54 456.214C162.13 455.935 161.675 455.686 161.176 455.466C160.678 455.231 160.179 454.989 159.68 454.74C159.182 454.491 158.72 454.212 158.294 453.904C157.884 453.596 157.554 453.229 157.304 452.804C157.055 452.364 156.93 451.836 156.93 451.22C156.93 450.413 157.121 449.724 157.502 449.152C157.884 448.565 158.412 448.118 159.086 447.81C159.761 447.487 160.531 447.326 161.396 447.326C162.012 447.326 162.643 447.407 163.288 447.568C163.934 447.715 164.506 447.942 165.004 448.25L164.41 449.702C163.97 449.335 163.45 449.049 162.848 448.844C162.262 448.639 161.682 448.536 161.11 448.536C160.509 448.536 160.003 448.646 159.592 448.866C159.196 449.086 158.903 449.372 158.712 449.724C158.522 450.061 158.426 450.435 158.426 450.846C158.426 451.301 158.551 451.697 158.8 452.034C159.064 452.357 159.402 452.643 159.812 452.892C160.238 453.141 160.7 453.383 161.198 453.618C161.697 453.838 162.196 454.08 162.694 454.344C163.193 454.593 163.648 454.887 164.058 455.224C164.484 455.561 164.821 455.965 165.07 456.434C165.334 456.903 165.466 457.461 165.466 458.106C165.466 458.971 165.261 459.712 164.85 460.328C164.44 460.944 163.875 461.413 163.156 461.736C162.452 462.059 161.646 462.22 160.736 462.22C159.827 462.22 158.976 462.088 158.184 461.824C157.407 461.545 156.762 461.179 156.248 460.724L157.062 459.382C157.59 459.881 158.206 460.269 158.91 460.548C159.614 460.827 160.326 460.966 161.044 460.966C161.954 460.966 162.658 460.746 163.156 460.306C163.67 459.851 163.926 459.25 163.926 458.502ZM184.399 462L179.229 448.426H179.845L174.697 462H173.047L179.009 447.524H180.395L186.137 462H184.399ZM175.665 457.028L176.127 455.73H182.639L183.343 457.028H175.665ZM195.809 458.502C195.809 457.974 195.685 457.527 195.435 457.16C195.186 456.793 194.849 456.478 194.423 456.214C194.013 455.935 193.558 455.686 193.059 455.466C192.561 455.231 192.062 454.989 191.563 454.74C191.065 454.491 190.603 454.212 190.177 453.904C189.767 453.596 189.437 453.229 189.187 452.804C188.938 452.364 188.813 451.836 188.813 451.22C188.813 450.413 189.004 449.724 189.385 449.152C189.767 448.565 190.295 448.118 190.969 447.81C191.644 447.487 192.414 447.326 193.279 447.326C193.895 447.326 194.526 447.407 195.171 447.568C195.817 447.715 196.389 447.942 196.887 448.25L196.293 449.702C195.853 449.335 195.333 449.049 194.731 448.844C194.145 448.639 193.565 448.536 192.993 448.536C192.392 448.536 191.886 448.646 191.475 448.866C191.079 449.086 190.786 449.372 190.595 449.724C190.405 450.061 190.309 450.435 190.309 450.846C190.309 451.301 190.434 451.697 190.683 452.034C190.947 452.357 191.285 452.643 191.695 452.892C192.121 453.141 192.583 453.383 193.081 453.618C193.58 453.838 194.079 454.08 194.577 454.344C195.076 454.593 195.531 454.887 195.941 455.224C196.367 455.561 196.704 455.965 196.953 456.434C197.217 456.903 197.349 457.461 197.349 458.106C197.349 458.971 197.144 459.712 196.733 460.328C196.323 460.944 195.758 461.413 195.039 461.736C194.335 462.059 193.529 462.22 192.619 462.22C191.71 462.22 190.859 462.088 190.067 461.824C189.29 461.545 188.645 461.179 188.131 460.724L188.945 459.382C189.473 459.881 190.089 460.269 190.793 460.548C191.497 460.827 192.209 460.966 192.927 460.966C193.837 460.966 194.541 460.746 195.039 460.306C195.553 459.851 195.809 459.25 195.809 458.502ZM218.811 462L214.213 447.524H215.797L220.263 461.604H219.295L223.167 447.524H224.729L220.417 462H218.811ZM209.307 462L205.017 447.524H206.733L210.693 461.604H209.769L214.103 447.524H215.401L210.913 462H209.307ZM237.275 462H228.145V447.524H236.593V448.822H229.729V460.702H237.275V462ZM228.695 455.29V454.036H235.757V455.29H228.695ZM250.325 454.916L250.567 453.992C251.579 453.992 252.467 454.153 253.229 454.476C253.992 454.799 254.586 455.253 255.011 455.84C255.437 456.412 255.649 457.101 255.649 457.908C255.649 458.715 255.437 459.426 255.011 460.042C254.586 460.643 253.977 461.12 253.185 461.472C252.408 461.824 251.484 462 250.413 462H246.299V447.524H250.325C251.235 447.524 252.012 447.663 252.657 447.942C253.303 448.221 253.801 448.624 254.153 449.152C254.52 449.665 254.703 450.281 254.703 451C254.703 451.543 254.593 452.056 254.373 452.54C254.153 453.009 253.845 453.427 253.449 453.794C253.053 454.146 252.591 454.425 252.063 454.63C251.535 454.821 250.956 454.916 250.325 454.916ZM247.311 453.882H250.479C251.286 453.882 251.939 453.647 252.437 453.178C252.951 452.694 253.207 452.063 253.207 451.286C253.207 450.538 252.958 449.922 252.459 449.438C251.975 448.954 251.176 448.712 250.061 448.712H247.839V460.812H250.655C251.741 460.812 252.577 460.548 253.163 460.02C253.75 459.492 254.043 458.788 254.043 457.908C254.043 457.013 253.721 456.309 253.075 455.796C252.445 455.283 251.491 455.026 250.215 455.026H247.311V453.882ZM268.277 462H259.147V447.524H267.595V448.822H260.731V460.702H268.277V462ZM259.697 455.29V454.036H266.759V455.29H259.697ZM278.707 462.198C277.109 462.198 275.708 461.897 274.505 461.296C273.317 460.68 272.393 459.829 271.733 458.744C271.073 457.644 270.743 456.375 270.743 454.938C270.743 453.838 270.934 452.826 271.315 451.902C271.711 450.963 272.269 450.157 272.987 449.482C273.706 448.793 274.557 448.265 275.539 447.898C276.522 447.517 277.607 447.326 278.795 447.326C279.675 447.326 280.533 447.443 281.369 447.678C282.205 447.913 282.946 448.279 283.591 448.778L282.865 450.23C282.191 449.614 281.472 449.181 280.709 448.932C279.961 448.668 279.213 448.536 278.465 448.536C277.233 448.536 276.17 448.8 275.275 449.328C274.395 449.856 273.706 450.582 273.207 451.506C272.723 452.43 272.481 453.493 272.481 454.696C272.481 455.943 272.753 457.043 273.295 457.996C273.853 458.935 274.615 459.675 275.583 460.218C276.566 460.746 277.695 461.01 278.971 461.01C279.675 461.01 280.365 460.929 281.039 460.768C281.729 460.592 282.367 460.328 282.953 459.976L282.139 460.988V456.5H278.861V455.29H283.657V460.988C283.188 461.252 282.675 461.479 282.117 461.67C281.575 461.846 281.01 461.978 280.423 462.066C279.851 462.154 279.279 462.198 278.707 462.198ZM287.897 462V447.524H289.591V462H287.897ZM294.532 462V447.524H295.786L296.006 462H294.532ZM306.06 462H305.378L295.082 448.602L295.104 447.524H296.182L306.016 460.218L306.06 462ZM306.742 447.524V462H305.466L305.268 447.524H306.742ZM323.143 462.198C321.735 462.198 320.474 461.883 319.359 461.252C318.259 460.621 317.394 459.749 316.763 458.634C316.133 457.519 315.817 456.251 315.817 454.828C315.817 453.713 316.008 452.694 316.389 451.77C316.785 450.846 317.328 450.054 318.017 449.394C318.721 448.734 319.528 448.228 320.437 447.876C321.361 447.509 322.351 447.326 323.407 447.326C324.815 447.326 326.069 447.641 327.169 448.272C328.269 448.903 329.135 449.775 329.765 450.89C330.396 451.99 330.711 453.259 330.711 454.696C330.711 455.811 330.513 456.83 330.117 457.754C329.736 458.678 329.201 459.47 328.511 460.13C327.822 460.79 327.015 461.303 326.091 461.67C325.182 462.022 324.199 462.198 323.143 462.198ZM323.429 461.01C324.529 461.01 325.497 460.753 326.333 460.24C327.169 459.727 327.815 459.015 328.269 458.106C328.739 457.182 328.973 456.126 328.973 454.938C328.973 453.647 328.717 452.525 328.203 451.572C327.69 450.604 326.986 449.856 326.091 449.328C325.211 448.785 324.214 448.514 323.099 448.514C322.029 448.514 321.075 448.771 320.239 449.284C319.418 449.797 318.773 450.509 318.303 451.418C317.834 452.327 317.599 453.383 317.599 454.586C317.599 455.862 317.856 456.984 318.369 457.952C318.883 458.92 319.579 459.675 320.459 460.218C321.354 460.746 322.344 461.01 323.429 461.01ZM339.93 462.198C338.756 462.198 337.722 461.956 336.828 461.472C335.948 460.988 335.258 460.306 334.76 459.426C334.276 458.546 334.034 457.505 334.034 456.302V447.524H335.662V455.972C335.662 456.984 335.845 457.857 336.212 458.59C336.578 459.323 337.106 459.888 337.796 460.284C338.485 460.68 339.292 460.878 340.216 460.878C341.125 460.878 341.902 460.695 342.548 460.328C343.208 459.947 343.714 459.411 344.066 458.722C344.418 458.033 344.594 457.241 344.594 456.346V447.524H346.024V455.994C346.024 457.241 345.767 458.333 345.254 459.272C344.755 460.196 344.051 460.915 343.142 461.428C342.232 461.941 341.162 462.198 339.93 462.198ZM350.434 462V447.524H354.35C355.347 447.524 356.205 447.671 356.924 447.964C357.657 448.257 358.222 448.675 358.618 449.218C359.014 449.761 359.212 450.413 359.212 451.176C359.212 451.792 359.065 452.379 358.772 452.936C358.493 453.493 358.112 453.992 357.628 454.432C357.144 454.857 356.587 455.195 355.956 455.444C355.34 455.693 354.687 455.818 353.998 455.818H351.05V454.63H354.196C354.797 454.63 355.347 454.483 355.846 454.19C356.359 453.897 356.77 453.508 357.078 453.024C357.401 452.525 357.562 451.997 357.562 451.44C357.562 450.604 357.276 449.944 356.704 449.46C356.132 448.976 355.303 448.734 354.218 448.734H352.018V462H350.434ZM361.478 462.198C360.891 462.198 360.363 462.11 359.894 461.934C359.439 461.743 358.992 461.443 358.552 461.032C358.127 460.607 357.665 460.042 357.166 459.338L354.372 455.378L355.67 454.916L358.706 458.766C359.175 459.353 359.593 459.815 359.96 460.152C360.327 460.475 360.671 460.702 360.994 460.834C361.331 460.966 361.669 461.032 362.006 461.032C362.138 461.032 362.299 461.025 362.49 461.01C362.681 460.995 362.871 460.959 363.062 460.9L363.392 461.846C363.025 461.978 362.688 462.066 362.38 462.11C362.072 462.169 361.771 462.198 361.478 462.198ZM370.715 462V447.524H371.969L372.189 462H370.715ZM382.243 462H381.561L371.265 448.602L371.287 447.524H372.365L382.199 460.218L382.243 462ZM382.925 447.524V462H381.649L381.451 447.524H382.925ZM396.861 462H387.731V447.524H396.179V448.822H389.315V460.702H396.861V462ZM388.281 455.29V454.036H395.343V455.29H388.281ZM412.901 462L408.303 447.524H409.887L414.353 461.604H413.385L417.257 447.524H418.819L414.507 462H412.901ZM403.397 462L399.107 447.524H400.823L404.783 461.604H403.859L408.193 447.524H409.491L405.003 462H403.397ZM428.133 460.966V447.524H429.761V460.966C429.761 461.817 429.658 462.55 429.453 463.166C429.262 463.782 428.984 464.303 428.617 464.728C428.25 465.168 427.81 465.527 427.297 465.806C426.784 466.099 426.219 466.327 425.603 466.488L425.185 465.542C425.816 465.307 426.351 465.007 426.791 464.64C427.231 464.273 427.561 463.797 427.781 463.21C428.016 462.623 428.133 461.875 428.133 460.966ZM440.813 462.198C439.405 462.198 438.144 461.883 437.029 461.252C435.929 460.621 435.064 459.749 434.433 458.634C433.803 457.519 433.487 456.251 433.487 454.828C433.487 453.713 433.678 452.694 434.059 451.77C434.455 450.846 434.998 450.054 435.687 449.394C436.391 448.734 437.198 448.228 438.107 447.876C439.031 447.509 440.021 447.326 441.077 447.326C442.485 447.326 443.739 447.641 444.839 448.272C445.939 448.903 446.805 449.775 447.435 450.89C448.066 451.99 448.381 453.259 448.381 454.696C448.381 455.811 448.183 456.83 447.787 457.754C447.406 458.678 446.871 459.47 446.181 460.13C445.492 460.79 444.685 461.303 443.761 461.67C442.852 462.022 441.869 462.198 440.813 462.198ZM441.099 461.01C442.199 461.01 443.167 460.753 444.003 460.24C444.839 459.727 445.485 459.015 445.939 458.106C446.409 457.182 446.643 456.126 446.643 454.938C446.643 453.647 446.387 452.525 445.873 451.572C445.36 450.604 444.656 449.856 443.761 449.328C442.881 448.785 441.884 448.514 440.769 448.514C439.699 448.514 438.745 448.771 437.909 449.284C437.088 449.797 436.443 450.509 435.973 451.418C435.504 452.327 435.269 453.383 435.269 454.586C435.269 455.862 435.526 456.984 436.039 457.952C436.553 458.92 437.249 459.675 438.129 460.218C439.024 460.746 440.014 461.01 441.099 461.01ZM457.6 462.198C456.426 462.198 455.392 461.956 454.498 461.472C453.618 460.988 452.928 460.306 452.43 459.426C451.946 458.546 451.704 457.505 451.704 456.302V447.524H453.332V455.972C453.332 456.984 453.515 457.857 453.882 458.59C454.248 459.323 454.776 459.888 455.466 460.284C456.155 460.68 456.962 460.878 457.886 460.878C458.795 460.878 459.572 460.695 460.218 460.328C460.878 459.947 461.384 459.411 461.736 458.722C462.088 458.033 462.264 457.241 462.264 456.346V447.524H463.694V455.994C463.694 457.241 463.437 458.333 462.924 459.272C462.425 460.196 461.721 460.915 460.812 461.428C459.902 461.941 458.832 462.198 457.6 462.198ZM468.104 462V447.524H472.02C473.017 447.524 473.875 447.671 474.594 447.964C475.327 448.257 475.892 448.675 476.288 449.218C476.684 449.761 476.882 450.413 476.882 451.176C476.882 451.792 476.735 452.379 476.442 452.936C476.163 453.493 475.782 453.992 475.298 454.432C474.814 454.857 474.257 455.195 473.626 455.444C473.01 455.693 472.357 455.818 471.668 455.818H468.72V454.63H471.866C472.467 454.63 473.017 454.483 473.516 454.19C474.029 453.897 474.44 453.508 474.748 453.024C475.071 452.525 475.232 451.997 475.232 451.44C475.232 450.604 474.946 449.944 474.374 449.46C473.802 448.976 472.973 448.734 471.888 448.734H469.688V462H468.104ZM479.148 462.198C478.561 462.198 478.033 462.11 477.564 461.934C477.109 461.743 476.662 461.443 476.222 461.032C475.797 460.607 475.335 460.042 474.836 459.338L472.042 455.378L473.34 454.916L476.376 458.766C476.845 459.353 477.263 459.815 477.63 460.152C477.997 460.475 478.341 460.702 478.664 460.834C479.001 460.966 479.339 461.032 479.676 461.032C479.808 461.032 479.969 461.025 480.16 461.01C480.351 460.995 480.541 460.959 480.732 460.9L481.062 461.846C480.695 461.978 480.358 462.066 480.05 462.11C479.742 462.169 479.441 462.198 479.148 462.198ZM482.971 462V447.524H484.225L484.445 462H482.971ZM494.499 462H493.817L483.521 448.602L483.543 447.524H484.621L494.455 460.218L494.499 462ZM495.181 447.524V462H493.905L493.707 447.524H495.181ZM509.117 462H499.987V447.524H508.435V448.822H501.571V460.702H509.117V462ZM500.537 455.29V454.036H507.599V455.29H500.537ZM516.775 456.544L510.923 447.524H512.925L517.853 455.576L516.775 456.544ZM516.445 462V455.554H518.095V462H516.445ZM517.809 456.478L516.907 455.576L521.901 447.524H523.639L517.809 456.478ZM535.716 462V447.524H537.388V462H535.716ZM530.238 448.822V447.524H542.866V448.822H530.238ZM551.329 462.198C549.921 462.198 548.66 461.883 547.545 461.252C546.445 460.621 545.58 459.749 544.949 458.634C544.318 457.519 544.003 456.251 544.003 454.828C544.003 453.713 544.194 452.694 544.575 451.77C544.971 450.846 545.514 450.054 546.203 449.394C546.907 448.734 547.714 448.228 548.623 447.876C549.547 447.509 550.537 447.326 551.593 447.326C553.001 447.326 554.255 447.641 555.355 448.272C556.455 448.903 557.32 449.775 557.951 450.89C558.582 451.99 558.897 453.259 558.897 454.696C558.897 455.811 558.699 456.83 558.303 457.754C557.922 458.678 557.386 459.47 556.697 460.13C556.008 460.79 555.201 461.303 554.277 461.67C553.368 462.022 552.385 462.198 551.329 462.198ZM551.615 461.01C552.715 461.01 553.683 460.753 554.519 460.24C555.355 459.727 556 459.015 556.455 458.106C556.924 457.182 557.159 456.126 557.159 454.938C557.159 453.647 556.902 452.525 556.389 451.572C555.876 450.604 555.172 449.856 554.277 449.328C553.397 448.785 552.4 448.514 551.285 448.514C550.214 448.514 549.261 448.771 548.425 449.284C547.604 449.797 546.958 450.509 546.489 451.418C546.02 452.327 545.785 453.383 545.785 454.586C545.785 455.862 546.042 456.984 546.555 457.952C547.068 458.92 547.765 459.675 548.645 460.218C549.54 460.746 550.53 461.01 551.615 461.01ZM569.369 462.198C567.771 462.198 566.37 461.897 565.167 461.296C563.979 460.68 563.055 459.829 562.395 458.744C561.735 457.644 561.405 456.375 561.405 454.938C561.405 453.838 561.596 452.826 561.977 451.902C562.373 450.963 562.931 450.157 563.649 449.482C564.368 448.793 565.219 448.265 566.201 447.898C567.184 447.517 568.269 447.326 569.457 447.326C570.337 447.326 571.195 447.443 572.031 447.678C572.867 447.913 573.608 448.279 574.253 448.778L573.527 450.23C572.853 449.614 572.134 449.181 571.371 448.932C570.623 448.668 569.875 448.536 569.127 448.536C567.895 448.536 566.832 448.8 565.937 449.328C565.057 449.856 564.368 450.582 563.869 451.506C563.385 452.43 563.143 453.493 563.143 454.696C563.143 455.943 563.415 457.043 563.957 457.996C564.515 458.935 565.277 459.675 566.245 460.218C567.228 460.746 568.357 461.01 569.633 461.01C570.337 461.01 571.027 460.929 571.701 460.768C572.391 460.592 573.029 460.328 573.615 459.976L572.801 460.988V456.5H569.523V455.29H574.319V460.988C573.85 461.252 573.337 461.479 572.779 461.67C572.237 461.846 571.672 461.978 571.085 462.066C570.513 462.154 569.941 462.198 569.369 462.198ZM587.535 462H578.405V447.524H586.853V448.822H579.989V460.702H587.535V462ZM578.955 455.29V454.036H586.017V455.29H578.955ZM594.819 462V447.524H596.491V462H594.819ZM589.341 448.822V447.524H601.969V448.822H589.341ZM615.388 462V447.524H617.016V462H615.388ZM604.96 462V447.524H606.588V462H604.96ZM605.51 455.312V453.992H616.488V455.312H605.51ZM630.933 462H621.803V447.524H630.251V448.822H623.387V460.702H630.933V462ZM622.353 455.29V454.036H629.415V455.29H622.353ZM634.544 462V447.524H638.46C639.457 447.524 640.315 447.671 641.034 447.964C641.767 448.257 642.332 448.675 642.728 449.218C643.124 449.761 643.322 450.413 643.322 451.176C643.322 451.792 643.175 452.379 642.882 452.936C642.603 453.493 642.222 453.992 641.738 454.432C641.254 454.857 640.696 455.195 640.066 455.444C639.45 455.693 638.797 455.818 638.108 455.818H635.16V454.63H638.306C638.907 454.63 639.457 454.483 639.956 454.19C640.469 453.897 640.88 453.508 641.188 453.024C641.51 452.525 641.672 451.997 641.672 451.44C641.672 450.604 641.386 449.944 640.814 449.46C640.242 448.976 639.413 448.734 638.328 448.734H636.128V462H634.544ZM645.588 462.198C645.001 462.198 644.473 462.11 644.004 461.934C643.549 461.743 643.102 461.443 642.662 461.032C642.236 460.607 641.774 460.042 641.276 459.338L638.482 455.378L639.78 454.916L642.816 458.766C643.285 459.353 643.703 459.815 644.07 460.152C644.436 460.475 644.781 460.702 645.104 460.834C645.441 460.966 645.778 461.032 646.116 461.032C646.248 461.032 646.409 461.025 646.6 461.01C646.79 460.995 646.981 460.959 647.172 460.9L647.502 461.846C647.135 461.978 646.798 462.066 646.49 462.11C646.182 462.169 645.881 462.198 645.588 462.198Z" fill="#1A1A1A"/>
</svg>
